<?xml version="1.0" encoding="UTF-8" standalone="no"?>
<!DOCTYPE svg PUBLIC "-//W3C//DTD SVG 1.1//EN" "http://www.w3.org/Graphics/SVG/1.1/DTD/svg11.dtd">
<svg xmlns="http://www.w3.org/2000/svg" version="1.1" viewBox="0.00 0.00 1692.00 344.00">
<path fill="#82dd45" d="
  M 388.69 344.00
  L 371.20 344.00
  Q 365.81 343.36 365.81 338.50
  Q 365.74 174.00 365.77 9.50
  C 365.77 4.99 368.15 1.05 373.00 1.02
  C 377.56 0.99 387.29 0.04 390.84 2.05
  Q 394.24 3.98 394.24 9.06
  Q 394.26 173.75 394.24 338.45
  C 394.24 339.54 393.76 340.53 393.62 341.64
  A 0.95 0.92 84.4 0 1 393.02 342.39
  L 388.69 344.00
  Z"
/>
<path fill="#82dd45" d="
  M 260.63 194.87
  Q 280.67 203.28 298.77 216.97
  C 305.86 222.34 308.68 234.62 309.33 242.88
  C 309.74 248.27 308.17 254.62 307.84 259.32
  C 306.69 275.83 303.37 292.34 299.17 305.69
  C 296.98 312.64 290.64 316.97 284.30 319.82
  C 283.45 320.21 281.96 319.94 280.70 320.39
  C 242.20 334.27 199.71 339.83 158.99 341.09
  Q 158.89 341.10 155.95 341.58
  C 154.31 341.85 152.91 341.12 151.43 341.08
  C 109.48 340.06 67.66 333.52 28.53 320.29
  C 27.18 319.84 26.07 320.07 24.61 319.27
  C 17.53 315.39 13.62 313.16 11.18 305.71
  Q 5.04 286.95 2.84 267.46
  Q 0.72 248.66 0.68 247.61
  C 0.38 239.51 2.89 223.80 9.91 218.19
  C 27.72 203.97 47.27 195.28 68.44 186.95
  C 73.85 184.82 82.44 180.23 79.67 172.54
  C 72.54 152.74 57.52 136.98 54.25 115.99
  C 52.70 106.02 54.53 93.23 56.53 82.75
  C 63.90 44.11 93.56 15.08 132.09 7.22
  C 141.82 5.23 151.68 3.59 161.00 4.50
  C 188.08 7.12 213.40 17.51 231.18 37.32
  C 248.53 56.66 254.36 78.65 256.16 104.06
  C 257.23 119.05 251.10 134.71 243.18 147.18
  Q 237.87 155.55 229.46 174.84
  A 1.32 1.28 -42.4 0 0 229.41 175.71
  C 232.04 184.89 242.93 187.29 251.07 190.86
  Q 251.14 190.89 260.63 194.87
  Z
  M 130.56 70.94
  C 123.87 66.82 114.52 65.29 106.28 64.25
  C 103.84 63.94 77.66 61.77 85.08 71.08
  A 3.53 3.51 -18.8 0 0 87.80 72.41
  Q 101.17 72.59 115.25 74.77
  Q 120.32 75.55 126.43 78.84
  C 134.27 83.06 135.33 73.88 130.56 70.94
  Z
  M 215.06 92.94
  C 204.81 84.65 196.49 81.88 184.50 78.77
  C 181.66 78.03 166.75 76.41 165.53 81.48
  C 164.55 85.56 167.55 86.56 171.02 86.18
  C 174.19 85.83 178.04 87.03 180.25 87.35
  C 191.66 89.03 199.80 95.23 209.68 99.44
  Q 210.16 99.64 210.66 99.51
  C 212.95 98.93 218.71 95.88 215.06 92.94
  Z
  M 148.06 99.69
  Q 136.08 96.78 132.75 106.29
  C 130.92 111.50 132.47 115.74 138.30 116.66
  C 147.13 118.05 164.47 120.96 171.17 115.43
  C 177.42 110.28 172.84 102.36 167.78 97.98
  C 161.76 92.78 155.00 101.37 148.06 99.69
  Z"
/>
<path fill="#82dd45" d="
  M 959.73 310.69
  C 945.68 328.49 924.98 319.12 924.98 298.18
  Q 924.96 171.48 925.00 44.75
  C 925.01 34.20 929.83 25.13 940.50 22.99
  Q 943.65 22.36 951.13 23.65
  C 953.56 24.06 959.65 27.53 961.06 29.59
  C 964.55 34.72 966.04 39.19 966.02 45.80
  Q 965.83 111.20 966.13 141.00
  Q 966.18 145.19 967.84 150.67
  Q 967.99 151.19 968.49 151.41
  Q 969.88 152.02 971.68 151.66
  Q 984.77 149.07 1000.15 147.72
  C 1007.24 147.10 1015.20 148.07 1021.49 149.02
  C 1035.46 151.11 1047.31 156.68 1057.85 166.48
  C 1072.56 180.14 1083.85 199.32 1086.78 219.56
  C 1087.60 225.21 1088.89 230.98 1088.19 236.71
  Q 1087.76 240.23 1087.34 243.76
  C 1082.89 281.20 1052.66 312.35 1015.79 319.30
  C 1011.70 320.07 1006.48 319.99 1001.78 320.80
  C 999.46 321.20 998.00 320.38 995.81 320.31
  C 983.60 319.93 972.81 315.84 962.24 310.17
  A 2.00 2.00 0.0 0 0 959.73 310.69
  Z
  M 984.08 184.62
  C 973.52 185.69 966.51 192.27 965.83 203.06
  Q 963.92 233.30 965.89 263.55
  C 966.58 274.16 974.61 281.28 984.85 282.41
  C 1008.01 284.95 1031.11 282.38 1045.19 261.37
  C 1051.68 251.69 1052.77 239.08 1052.00 227.81
  C 1050.75 209.67 1041.31 194.85 1024.43 187.61
  C 1012.98 182.70 996.25 183.40 984.08 184.62
  Z"
/>
<path fill="#82dd45" d="
  M 1134.19 319.56
  Q 1125.74 312.40 1130.23 301.36
  C 1148.47 256.50 1167.37 212.51 1171.60 164.30
  C 1172.01 159.61 1173.26 151.58 1172.98 145.05
  Q 1172.74 139.54 1173.07 135.98
  C 1173.53 131.06 1173.94 126.13 1173.96 121.08
  Q 1174.05 90.17 1173.98 59.25
  C 1173.92 37.79 1186.85 23.01 1208.94 23.01
  Q 1286.72 22.99 1364.50 23.00
  C 1385.61 23.00 1399.17 34.09 1400.62 55.56
  C 1401.51 68.85 1402.15 84.80 1400.15 99.39
  C 1397.30 120.10 1380.82 127.00 1361.89 127.00
  Q 1282.00 126.99 1203.22 127.00
  A 4.21 4.20 -87.9 0 0 1199.03 130.91
  Q 1197.50 152.55 1195.81 174.28
  Q 1195.07 183.89 1193.36 194.11
  C 1191.13 207.46 1189.41 221.11 1186.12 233.96
  Q 1181.36 252.56 1176.00 271.00
  Q 1171.09 287.90 1163.01 303.46
  C 1159.60 310.04 1154.26 314.85 1148.69 319.47
  C 1144.21 323.18 1138.57 323.28 1134.19 319.56
  Z
  M 1378.0044 55.3879
  A 9.23 9.23 0.0 0 0 1368.7905 46.1418
  L 1206.3107 45.8583
  A 9.23 9.23 0.0 0 0 1197.0646 55.0721
  L 1196.9956 94.6121
  A 9.23 9.23 0.0 0 0 1206.2095 103.8582
  L 1368.6893 104.1417
  A 9.23 9.23 0.0 0 0 1377.9354 94.9279
  L 1378.0044 55.3879
  Z"
/>
<path fill="#82dd45" d="
  M 1507.06 30.34
  C 1518.74 22.13 1529.13 42.96 1532.26 51.68
  A 1.22 1.20 4.1 0 0 1532.85 52.35
  Q 1534.79 53.31 1536.74 53.01
  Q 1547.59 51.34 1558.44 49.88
  C 1571.72 48.09 1586.17 55.48 1579.47 71.34
  Q 1578.97 72.53 1577.46 72.81
  Q 1555.10 76.91 1541.73 79.90
  C 1539.64 80.38 1539.90 82.11 1540.75 83.63
  C 1545.59 92.21 1556.41 112.64 1544.37 119.14
  Q 1542.66 120.06 1540.03 119.88
  Q 1526.38 118.94 1513.37 122.46
  C 1505.43 124.61 1500.52 128.31 1497.41 135.65
  C 1491.65 149.24 1497.78 159.23 1510.69 163.07
  C 1523.67 166.93 1540.33 162.16 1554.24 157.99
  C 1560.64 156.08 1565.30 160.29 1565.51 166.62
  C 1565.96 180.90 1543.56 186.62 1533.50 187.00
  C 1529.89 187.14 1526.49 187.74 1523.42 187.49
  C 1501.85 185.73 1475.71 178.98 1470.30 154.73
  C 1469.21 149.80 1467.99 143.37 1469.37 138.08
  C 1473.19 123.39 1479.62 112.77 1492.75 104.86
  C 1498.94 101.13 1507.75 98.02 1515.32 94.88
  C 1524.61 91.02 1521.49 80.23 1511.52 82.35
  C 1491.22 86.66 1475.14 89.82 1455.68 91.53
  C 1453.47 91.72 1445.32 91.38 1443.38 90.21
  Q 1439.15 87.63 1439.97 82.19
  C 1440.80 76.73 1446.92 71.04 1451.40 68.47
  Q 1454.88 66.48 1462.96 64.64
  Q 1482.04 60.29 1501.25 56.62
  A 1.21 1.20 8.3 0 0 1502.09 56.00
  C 1504.19 52.01 1501.19 44.77 1500.64 38.81
  Q 1500.60 38.34 1500.87 37.96
  C 1502.79 35.21 1504.51 32.13 1507.06 30.34
  Z"
/>
<path fill="#82dd45" d="
  M 528.73 319.65
  C 506.50 322.59 485.63 302.23 474.42 285.53
  C 451.02 250.67 440.01 207.47 439.48 165.83
  C 439.41 159.94 441.67 153.72 444.55 149.08
  C 449.95 140.35 464.17 140.02 471.81 144.70
  C 482.92 151.52 483.03 171.41 485.20 182.58
  Q 490.85 211.60 499.54 235.94
  C 503.71 247.63 510.47 261.30 519.19 272.05
  C 523.45 277.31 529.44 274.46 532.10 269.43
  C 541.10 252.39 547.62 234.71 554.47 216.77
  Q 558.52 206.18 561.33 202.44
  C 566.43 195.64 576.27 189.43 584.95 190.90
  C 594.35 192.48 598.86 201.82 601.35 210.06
  C 603.73 217.94 624.34 296.33 644.47 265.46
  Q 667.94 229.46 679.48 189.49
  Q 683.65 175.05 686.75 166.71
  C 690.65 156.21 702.24 148.28 713.44 153.11
  C 721.21 156.46 729.26 165.60 728.52 174.90
  Q 728.48 175.41 728.68 175.87
  Q 729.36 177.48 729.25 178.75
  C 724.97 227.76 707.97 268.87 672.51 303.27
  C 663.22 312.28 653.24 318.91 640.23 320.02
  C 614.89 322.19 592.85 300.36 580.33 281.11
  A 2.47 2.46 54.2 0 0 576.73 280.52
  C 576.16 280.97 575.46 281.59 574.95 282.33
  C 563.01 299.57 551.98 316.57 528.73 319.65
  Z"
/>
<path fill="#82dd45" d="
  M 1273.05 206.30
  C 1272.06 208.38 1272.86 212.27 1276.00 211.99
  Q 1302.74 209.65 1332.53 207.22
  Q 1334.22 207.09 1333.52 205.54
  Q 1332.70 203.71 1331.57 201.31
  C 1328.70 195.19 1334.78 189.33 1339.83 187.52
  C 1346.93 184.97 1354.19 189.71 1358.63 195.12
  C 1365.79 203.85 1380.06 224.84 1375.80 236.35
  Q 1375.64 236.78 1375.27 237.06
  C 1363.66 246.03 1356.88 242.23 1348.34 232.42
  Q 1347.48 231.44 1345.51 231.61
  Q 1327.07 233.24 1308.56 233.93
  Q 1308.00 233.95 1308.00 234.52
  L 1308.00 249.48
  A 0.49 0.49 0.0 0 0 1308.49 249.97
  Q 1317.94 250.05 1327.33 250.01
  Q 1334.83 249.98 1337.97 251.29
  C 1342.74 253.29 1346.46 257.47 1347.15 262.66
  C 1348.19 270.47 1341.65 272.03 1335.16 272.01
  Q 1321.82 271.98 1308.51 272.01
  A 0.51 0.51 0.0 0 0 1308.00 272.52
  L 1308.00 291.49
  Q 1308.00 291.99 1308.51 291.99
  Q 1337.64 292.02 1366.75 291.99
  C 1375.91 291.99 1385.61 294.36 1390.30 302.49
  Q 1395.21 311.02 1388.17 318.24
  C 1386.00 320.46 1384.26 320.99 1380.96 320.99
  Q 1295.58 321.01 1210.20 320.99
  C 1206.41 320.99 1205.20 319.76 1203.01 317.05
  C 1199.39 312.59 1198.21 308.74 1201.33 303.44
  Q 1207.83 292.36 1221.69 292.11
  Q 1236.51 291.85 1283.45 292.05
  Q 1284.00 292.05 1284.00 291.50
  L 1284.00 273.01
  A 1.03 1.03 0.0 0 0 1282.97 271.98
  Q 1269.01 272.05 1254.85 271.96
  C 1238.61 271.85 1244.40 254.85 1254.75 251.00
  Q 1257.27 250.06 1262.02 250.03
  Q 1272.74 249.97 1283.48 250.01
  Q 1284.00 250.01 1284.00 249.49
  L 1284.00 236.04
  Q 1284.00 235.45 1283.41 235.47
  Q 1261.69 236.39 1251.35 236.15
  C 1235.19 235.78 1229.63 219.09 1237.04 206.55
  Q 1248.39 187.34 1261.73 169.39
  A 0.25 0.25 0.0 0 0 1261.53 168.99
  Q 1248.35 169.02 1235.05 168.98
  C 1222.18 168.94 1216.96 155.61 1227.53 148.23
  C 1231.49 145.47 1236.52 144.00 1241.78 144.00
  Q 1295.91 144.00 1350.05 144.00
  C 1355.83 144.00 1360.49 145.53 1364.94 148.58
  C 1371.60 153.16 1371.76 163.86 1364.29 167.54
  Q 1361.32 169.01 1354.43 169.01
  Q 1327.01 168.99 1299.80 169.00
  A 1.63 1.63 0.0 0 0 1298.49 169.66
  Q 1288.98 182.52 1279.65 195.66
  Q 1275.03 202.14 1273.05 206.30
  Z"
/>
<path fill="#82dd45" d="
  M 806.77 319.16
  C 770.90 313.96 746.48 287.01 748.06 249.99
  Q 748.61 236.96 750.04 227.51
  Q 753.76 202.97 767.03 182.06
  C 779.89 161.78 803.41 149.72 827.55 152.21
  C 848.25 154.36 866.17 160.72 880.33 176.20
  C 899.09 196.70 894.71 218.22 873.14 233.80
  C 855.87 246.28 834.37 255.19 812.83 257.07
  C 809.95 257.33 807.15 257.95 804.28 257.95
  Q 796.74 257.98 789.23 258.99
  A 1.31 1.30 82.8 0 0 788.11 260.44
  C 790.48 280.66 801.63 286.80 820.93 288.64
  C 829.97 289.50 839.11 286.70 847.18 282.50
  C 861.96 274.82 881.23 252.03 896.16 271.06
  C 902.31 278.90 896.73 287.57 890.59 293.32
  C 874.22 308.66 852.74 318.80 830.10 319.99
  C 826.87 320.16 823.75 320.81 820.63 320.61
  Q 813.68 320.16 806.77 319.16
  Z
  M 834.13 179.71
  C 806.93 174.94 787.76 199.99 784.04 223.78
  Q 783.67 226.17 785.06 228.45
  Q 785.30 228.85 785.76 228.93
  C 811.90 233.42 841.37 229.12 858.45 206.99
  C 860.11 204.83 861.35 203.47 860.73 200.99
  C 857.87 189.45 845.08 181.63 834.13 179.71
  Z"
/>
<path fill="#82dd45" d="
  M 1599.53 247.17
  Q 1606.62 247.09 1611.44 251.64
  C 1614.22 254.27 1615.28 258.13 1617.04 261.83
  C 1620.30 268.68 1633.07 286.68 1641.63 286.35
  C 1648.69 286.08 1651.18 278.44 1655.39 274.36
  C 1661.03 268.90 1668.46 266.63 1674.26 273.55
  C 1676.85 276.65 1677.63 280.15 1676.71 284.25
  C 1673.68 297.75 1662.71 307.72 1649.31 310.61
  C 1628.51 315.11 1611.41 297.96 1601.76 281.91
  C 1596.81 273.67 1592.67 276.98 1588.36 283.09
  Q 1577.08 299.09 1565.89 315.13
  Q 1559.85 323.79 1550.97 318.27
  C 1541.40 312.31 1544.79 300.14 1548.43 291.97
  Q 1567.13 250.08 1587.25 208.85
  Q 1593.12 196.82 1602.46 186.00
  C 1605.92 181.99 1610.65 181.48 1614.08 185.75
  C 1616.39 188.61 1617.06 191.78 1617.96 195.24
  C 1618.71 198.07 1617.18 205.70 1616.14 208.45
  C 1609.68 225.40 1604.91 236.78 1599.25 246.69
  Q 1598.97 247.18 1599.53 247.17
  Z"
/>
</svg>
