<?xml version="1.0" encoding="UTF-8" standalone="no"?>
<!DOCTYPE svg PUBLIC "-//W3C//DTD SVG 1.1//EN" "http://www.w3.org/Graphics/SVG/1.1/DTD/svg11.dtd">
<svg xmlns="http://www.w3.org/2000/svg" version="1.1" viewBox="0 0 1432 1463">
<g stroke-width="2.00" fill="none" stroke-linecap="butt">
<path stroke="#843d17" vector-effect="non-scaling-stroke" d="
  M 654.69 19.44
  Q 650.20 37.79 647.76 53.21
  Q 641.47 92.91 638.48 133.00
  Q 638.02 139.11 642.70 140.07
  Q 645.19 140.59 646.99 139.09
  Q 648.97 137.45 649.04 134.59
  Q 649.09 132.50 649.10 132.40
  Q 654.59 71.14 665.89 10.68
  Q 666.35 8.22 666.19 6.79
  Q 665.76 2.77 662.48 4.19
  Q 660.68 4.97 659.41 7.22
  Q 656.35 12.64 654.69 19.44"
/>
<path stroke="#843d17" vector-effect="non-scaling-stroke" d="
  M 688.53 120.66
  Q 688.57 127.02 689.32 133.63
  Q 689.54 135.51 691.05 136.65
  Q 692.21 137.52 693.35 136.80
  A 1.19 0.94 81.5 0 0 693.81 136.00
  Q 694.45 130.24 695.10 124.49
  Q 695.72 119.03 696.65 113.04
  Q 700.39 89.16 704.50 58.50
  Q 706.62 42.66 707.65 30.67
  Q 707.77 29.23 707.59 28.34
  Q 707.02 25.52 704.95 27.38
  Q 704.14 28.11 703.50 29.48
  Q 702.30 32.08 701.75 34.00
  Q 697.79 47.83 693.75 65.75
  Q 689.39 85.10 688.78 107.71
  Q 688.52 117.71 688.53 120.66"
/>
<path stroke="#843d17" vector-effect="non-scaling-stroke" d="
  M 746.90 117.34
  Q 732.25 137.74 731.56 160.94
  Q 730.82 186.14 749.36 204.89
  Q 772.26 228.04 805.25 224.52
  Q 813.65 223.62 821.03 219.75
  Q 823.59 218.40 824.52 217.20
  Q 826.08 215.17 825.19 212.56
  Q 823.97 209.00 820.70 209.01
  Q 819.33 209.01 815.88 210.55
  Q 805.47 215.20 793.50 214.25
  Q 769.57 212.34 754.28 194.46
  Q 740.93 178.85 742.25 159.50
  Q 743.62 139.39 756.95 121.90
  A 0.66 0.65 29.3 0 1 757.72 121.69
  Q 763.93 124.25 775.06 129.19
  Q 794.70 137.89 812.04 148.39
  Q 819.45 152.87 826.24 158.25
  Q 828.91 160.36 832.00 159.25
  Q 834.64 158.30 835.13 155.91
  Q 835.51 154.05 834.11 152.02
  Q 831.73 148.57 827.31 145.69
  Q 805.52 131.45 786.64 122.92
  Q 776.23 118.21 764.74 113.42
  A 0.52 0.51 -57.5 0 1 764.56 112.60
  Q 773.80 102.53 784.62 95.02
  A 0.97 0.95 38.3 0 1 785.52 94.92
  Q 817.44 107.78 845.31 127.77
  Q 848.01 129.71 850.00 129.92
  Q 853.85 130.33 854.88 126.71
  Q 855.57 124.32 854.00 122.09
  Q 851.99 119.20 848.19 116.56
  Q 824.61 100.20 796.82 88.03
  Q 796.00 87.68 796.73 87.16
  Q 799.06 85.49 802.27 84.21
  Q 817.09 78.35 832.50 74.25
  Q 835.97 73.33 832.81 71.69
  Q 826.69 68.51 819.74 68.90
  Q 812.88 69.28 806.36 71.47
  Q 794.96 75.30 785.53 81.54
  Q 783.68 82.77 781.66 81.85
  Q 772.75 77.77 763.50 76.00
  Q 761.00 75.52 758.94 76.88
  Q 756.90 78.22 756.88 80.43
  Q 756.86 82.25 758.25 83.52
  Q 759.06 84.26 761.08 84.97
  Q 767.00 87.06 772.61 89.19
  Q 773.73 89.61 772.79 90.36
  Q 762.73 98.32 753.97 108.49
  Q 752.80 109.84 751.09 109.28
  Q 744.01 106.96 736.17 107.20
  Q 734.80 107.24 733.91 107.69
  Q 731.82 108.75 733.30 110.33
  Q 733.98 111.05 735.56 111.65
  Q 741.31 113.83 746.75 116.70
  A 0.44 0.43 -58.5 0 1 746.90 117.34"
/>
<path stroke="#843d17" vector-effect="non-scaling-stroke" d="
  M 987.61 210.81
  Q 989.08 212.25 991.01 212.39
  Q 993.11 212.55 994.97 210.90
  Q 999.15 207.21 994.06 202.44
  Q 986.22 195.09 978.29 189.97
  Q 971.05 185.30 963.77 180.86
  A 1.08 1.07 -64.9 0 1 963.31 179.58
  Q 966.47 170.31 967.58 160.62
  Q 967.90 157.79 967.90 157.38
  Q 967.86 154.82 965.68 154.59
  Q 963.86 154.40 962.22 155.94
  Q 960.86 157.21 959.81 159.06
  Q 955.86 166.02 954.00 174.09
  A 0.99 0.99 -68.7 0 1 952.55 174.73
  Q 938.04 166.57 922.44 160.30
  Q 917.94 158.49 913.19 157.57
  Q 909.53 156.86 907.75 157.75
  Q 905.35 158.95 905.56 161.03
  Q 905.70 162.48 907.32 163.90
  Q 909.01 165.38 910.81 166.19
  Q 930.50 175.05 949.98 185.41
  A 0.78 0.78 -69.6 0 1 950.37 186.27
  L 944.42 212.54
  A 1.08 1.07 -68.3 0 1 942.82 213.24
  Q 921.33 200.32 898.21 190.26
  Q 894.29 188.56 890.08 188.13
  Q 887.67 187.89 886.16 188.97
  Q 883.24 191.08 887.06 194.19
  Q 889.84 196.45 894.77 199.03
  Q 918.17 211.27 941.23 224.54
  A 0.87 0.87 19.5 0 1 941.66 225.44
  Q 940.64 231.81 939.64 237.53
  Q 938.82 242.15 942.50 244.00
  Q 944.98 245.25 947.22 244.02
  Q 948.88 243.12 949.72 240.64
  Q 951.13 236.50 951.25 232.13
  Q 951.29 230.63 952.55 231.43
  Q 964.58 239.03 975.87 247.68
  Q 975.93 247.73 977.42 249.04
  Q 980.34 251.60 983.69 249.44
  Q 986.39 247.69 986.08 244.83
  Q 985.87 242.90 983.81 240.83
  Q 980.76 237.74 976.56 234.69
  Q 966.20 227.16 954.66 220.14
  A 1.35 1.35 -68.3 0 1 954.04 218.69
  L 960.03 191.69
  A 0.31 0.31 21.1 0 1 960.49 191.49
  Q 974.06 199.41 986.16 209.41
  Q 986.25 209.49 987.61 210.81"
/>
<path stroke="#b98c71" vector-effect="non-scaling-stroke" d="
  M 480.00 252.71
  Q 446.01 261.88 414.25 277.04"
/>
<path stroke="#bc743d" vector-effect="non-scaling-stroke" d="
  M 414.25 277.04
  Q 400.56 283.25 387.50 290.71"
/>
<path stroke="#be9684" vector-effect="non-scaling-stroke" d="
  M 387.50 290.71
  Q 374.10 290.49 360.00 295.00
  Q 353.48 297.09 349.19 299.94
  Q 348.14 300.63 345.31 301.78
  Q 343.04 302.70 341.61 303.87
  Q 331.72 311.93 330.54 325.00
  A 0.86 0.82 80.9 0 1 330.05 325.71
  L 325.50 327.79"
/>
<path stroke="#b87848" vector-effect="non-scaling-stroke" d="
  M 325.50 327.79
  L 324.25 328.46"
/>
<path stroke="#be9680" vector-effect="non-scaling-stroke" d="
  M 324.25 328.46
  Q 296.60 341.49 277.31 356.56
  Q 266.50 365.01 255.49 377.94
  Q 248.02 386.71 242.78 393.36
  Q 230.93 408.40 222.64 425.67
  Q 219.07 433.11 215.28 444.26
  Q 209.44 461.49 204.48 478.99
  Q 201.75 488.61 200.21 498.49
  Q 199.24 504.67 198.25 510.84
  Q 197.11 517.94 196.94 523.24
  Q 196.67 531.75 197.24 540.25
  Q 198.16 553.82 200.24 567.25
  Q 210.80 635.49 256.16 686.79
  Q 256.20 686.83 260.61 691.43
  Q 265.48 696.51 267.50 701.75
  Q 269.26 706.32 268.18 711.43
  Q 267.51 714.61 264.53 718.88
  Q 259.98 725.39 255.45 731.91
  Q 253.09 735.31 246.07 744.70
  Q 240.63 751.96 235.83 759.65
  Q 230.44 768.28 226.50 775.20
  Q 213.18 798.61 207.71 825.25"
/>
<path stroke="#b77856" vector-effect="non-scaling-stroke" d="
  M 207.71 825.25
  L 207.43 825.44
  A 0.96 0.32 -40.5 0 1 206.86 825.67
  Q 196.43 825.23 186.00 825.67
  Q 174.62 826.15 166.00 828.75
  Q 148.25 834.11 137.46 850.25"
/>
<path stroke="#b4643a" vector-effect="non-scaling-stroke" d="
  M 137.46 850.25
  Q 132.05 854.48 126.00 862.50
  Q 69.44 937.49 34.54 1021.16
  Q 25.06 1043.88 16.22 1066.85
  Q 13.06 1075.06 12.00 1082.00
  Q 10.93 1088.99 16.43 1090.56
  Q 18.54 1091.17 22.10 1090.81
  Q 25.16 1090.50 27.75 1089.75
  Q 30.19 1089.04 40.23 1085.74
  Q 46.54 1083.66 52.37 1080.93
  Q 85.35 1065.53 115.50 1048.75
  Q 116.64 1048.11 117.46 1048.00"
/>
<path stroke="#b77856" vector-effect="non-scaling-stroke" d="
  M 117.46 1048.00
  Q 117.40 1049.95 118.84 1049.99
  A 1.19 1.18 -89.5 0 1 119.99 1051.17
  Q 120.09 1063.67 119.93 1075.76
  Q 119.85 1081.91 119.96 1095.75
  Q 120.06 1107.74 119.50 1122.25
  Q 118.01 1160.89 121.56 1201.54
  Q 122.41 1211.27 122.97 1221.49
  Q 124.16 1242.94 126.82 1264.27
  Q 128.44 1277.26 130.95 1290.11
  Q 133.01 1300.69 137.50 1307.50
  Q 140.80 1312.50 146.36 1317.08
  Q 150.37 1320.38 157.32 1323.92
  Q 183.26 1337.15 212.44 1348.06
  Q 260.20 1365.93 305.96 1378.64
  Q 345.53 1389.63 383.06 1397.94
  Q 449.02 1412.53 517.99 1423.08
  Q 573.02 1431.50 628.25 1438.54
  Q 641.19 1440.18 654.20 1440.94
  Q 660.64 1441.32 666.25 1442.14
  Q 674.95 1443.41 678.25 1443.75
  Q 717.64 1447.82 762.00 1449.25
  Q 807.39 1450.72 838.50 1451.18
  Q 843.65 1451.26 848.49 1451.07
  Q 853.50 1450.88 858.49 1450.63
  Q 866.68 1450.23 874.43 1447.96
  Q 881.68 1445.83 889.53 1442.46
  Q 899.67 1438.11 908.29 1431.00"
/>
<path stroke="#ac6640" vector-effect="non-scaling-stroke" d="
  M 908.29 1431.00
  Q 908.93 1430.94 910.94 1429.94
  Q 953.09 1408.83 987.98 1386.50
  Q 1026.63 1361.75 1063.57 1334.52
  Q 1161.46 1262.36 1250.56 1179.56
  Q 1259.35 1171.39 1263.59 1161.87
  Q 1265.61 1157.32 1266.65 1151.01
  Q 1267.49 1145.94 1268.00 1139.75
  Q 1274.00 1067.37 1271.57 997.58
  Q 1271.40 992.67 1270.60 980.93
  Q 1270.04 972.60 1269.80 964.25
  Q 1269.65 958.81 1268.50 953.50
  Q 1267.98 951.11 1267.96 937.75"
/>
<path stroke="#b76a40" vector-effect="non-scaling-stroke" d="
  M 1267.96 937.75
  Q 1268.07 936.89 1269.19 935.69
  Q 1296.66 906.16 1321.65 870.67
  Q 1325.26 865.56 1328.73 859.03
  Q 1331.94 853.00 1335.28 847.05
  Q 1337.80 842.57 1340.44 836.19
  Q 1344.26 826.95 1344.50 817.50
  Q 1344.77 806.91 1337.94 797.53
  Q 1333.63 791.60 1329.56 788.19
  Q 1305.49 767.98 1276.15 750.55
  Q 1258.30 739.94 1235.06 727.94
  Q 1212.07 716.06 1190.62 708.05
  Q 1180.92 704.43 1170.86 701.98
  Q 1166.36 700.89 1162.50 702.00
  Q 1157.26 703.51 1150.52 706.78
  Q 1137.26 713.22 1124.75 721.00
  Q 1123.05 722.06 1122.04 722.25"
/>
<path stroke="#be9680" vector-effect="non-scaling-stroke" d="
  M 1122.04 722.25
  Q 1121.00 720.32 1118.75 717.50
  Q 1092.21 684.15 1063.31 655.69
  Q 1047.21 639.83 1028.14 629.52
  Q 1020.60 625.44 1009.82 621.55
  Q 982.50 611.66 954.06 605.69
  Q 943.50 603.47 934.32 602.59
  Q 925.39 601.74 914.25 601.25
  Q 898.64 600.57 885.50 603.21"
/>
<path stroke="#be9684" vector-effect="non-scaling-stroke" d="
  M 885.50 603.21
  Q 892.85 591.22 891.00 578.50
  Q 889.66 569.24 883.96 560.33
  Q 882.67 558.30 879.72 553.99
  Q 877.30 550.46 875.06 547.94
  Q 865.07 536.66 849.50 535.96"
/>
<path stroke="#bc743d" vector-effect="non-scaling-stroke" d="
  M 849.50 535.96
  L 846.79 525.50"
/>
<path stroke="#b98c71" vector-effect="non-scaling-stroke" d="
  M 846.79 525.50
  Q 845.30 517.96 843.69 510.44
  Q 842.33 504.04 839.79 495.59
  Q 837.54 488.08 835.54 480.50"
/>
<path stroke="#bc743d" vector-effect="non-scaling-stroke" d="
  M 835.54 480.50
  Q 826.07 442.30 815.50 404.39
  Q 814.16 399.56 811.31 393.44
  Q 799.58 368.22 785.79 347.00"
/>
<path stroke="#b98c71" vector-effect="non-scaling-stroke" d="
  M 785.79 347.00
  Q 776.36 331.31 765.00 316.96"
/>
<path stroke="#bc743d" vector-effect="non-scaling-stroke" d="
  M 765.00 316.96
  Q 738.57 282.89 705.17 251.67
  Q 704.35 250.90 703.25 250.63
  Q 683.70 245.77 663.25 242.79"
/>
<path stroke="#b98c71" vector-effect="non-scaling-stroke" d="
  M 663.25 242.79
  Q 642.09 239.77 620.75 238.71"
/>
<path stroke="#bc743d" vector-effect="non-scaling-stroke" d="
  M 620.75 238.71
  Q 598.89 237.30 574.50 238.00
  Q 525.84 239.39 480.00 252.71"
/>
<path stroke="#f9cb9d" vector-effect="non-scaling-stroke" d="
  M 620.75 238.71
  Q 619.99 239.03 620.75 239.75
  Q 631.17 249.62 644.75 250.00
  Q 654.71 250.28 663.25 242.79"
/>
<path stroke="#f9cb9d" vector-effect="non-scaling-stroke" d="
  M 765.00 316.96
  Q 745.24 317.12 740.49 334.66
  Q 740.37 335.10 738.58 341.21
  Q 736.07 349.77 740.56 357.19
  Q 743.70 362.37 749.35 364.85
  Q 754.66 367.18 760.28 367.66
  Q 765.14 368.07 769.69 366.24
  Q 774.12 364.44 777.89 361.81
  Q 785.10 356.77 785.79 347.00"
/>
<path stroke="#f9cb9d" vector-effect="non-scaling-stroke" d="
  M 835.54 480.50
  Q 835.35 481.09 834.83 481.34
  Q 824.44 486.45 821.98 496.90
  Q 820.71 502.27 821.73 507.64
  Q 822.82 513.33 826.31 517.69
  Q 833.37 526.48 845.50 526.00
  Q 846.67 525.95 846.79 525.50"
/>
<path stroke="#fdd5b0" vector-effect="non-scaling-stroke" d="
  M 849.50 535.96
  Q 830.24 536.25 819.44 551.69
  Q 816.90 555.31 815.96 556.50"
/>
<path stroke="#bc743d" vector-effect="non-scaling-stroke" d="
  M 815.96 556.50
  Q 806.53 550.56 790.94 541.81
  Q 778.38 534.76 762.50 524.04"
/>
<path stroke="#f9cb9d" vector-effect="non-scaling-stroke" d="
  M 762.50 524.04
  Q 766.68 515.25 763.53 505.95
  Q 760.84 498.01 754.74 493.23
  Q 748.53 488.34 741.07 487.70
  Q 730.88 486.83 723.75 495.96"
/>
<path stroke="#bc743d" vector-effect="non-scaling-stroke" d="
  M 723.75 495.96
  L 699.21 476.75"
/>
<path stroke="#d99651" vector-effect="non-scaling-stroke" d="
  M 699.21 476.75
  Q 701.42 449.17 702.00 421.50
  Q 702.05 419.12 702.54 413.25"
/>
<path stroke="#f9cb9d" vector-effect="non-scaling-stroke" d="
  M 702.54 413.25
  Q 703.46 413.28 704.17 412.66
  Q 714.65 403.44 713.40 389.24
  Q 712.76 381.95 708.69 377.31
  Q 701.91 369.60 691.69 373.94
  Q 688.23 375.40 685.93 377.68
  Q 685.04 378.56 681.57 382.84
  Q 671.51 395.25 677.56 410.69
  Q 680.71 418.70 689.75 422.04"
/>
<path stroke="#d99651" vector-effect="non-scaling-stroke" d="
  M 689.75 422.04
  L 679.96 442.25"
/>
<path stroke="#eaccb4" vector-effect="non-scaling-stroke" d="
  M 679.96 442.25
  Q 677.82 435.60 673.75 429.96"
/>
<path stroke="#fdd5b0" vector-effect="non-scaling-stroke" d="
  M 673.75 429.96
  Q 666.57 419.39 657.94 413.06
  Q 647.00 405.05 629.57 394.92
  Q 626.24 392.99 623.50 390.29"
/>
<path stroke="#f9cb9d" vector-effect="non-scaling-stroke" d="
  M 623.50 390.29
  Q 636.22 378.09 633.28 362.11
  Q 631.83 354.30 627.21 348.34
  Q 622.26 341.97 614.81 338.90
  Q 607.35 335.83 599.39 336.83
  Q 590.96 337.89 584.56 343.31
  Q 576.26 350.35 575.46 362.50"
/>
<path stroke="#fdd5b0" vector-effect="non-scaling-stroke" d="
  M 575.46 362.50
  Q 570.85 360.79 566.50 358.53
  Q 558.03 354.12 557.99 354.11
  Q 506.76 329.52 459.44 311.31
  Q 456.62 310.23 456.00 309.79"
/>
<path stroke="#f9cb9d" vector-effect="non-scaling-stroke" d="
  M 456.00 309.79
  Q 461.28 308.31 467.44 305.19
  Q 487.62 294.96 485.25 272.00
  Q 484.57 265.46 480.00 252.71"
/>
<path stroke="#fbede4" vector-effect="non-scaling-stroke" d="
  M 575.46 362.50
  Q 588.63 368.46 600.89 376.13
  Q 612.20 383.20 623.50 390.29"
/>
<path stroke="#eceefb" vector-effect="non-scaling-stroke" d="
  M 673.75 429.96
  Q 661.12 438.39 646.48 440.25
  Q 637.66 441.36 626.57 439.59
  Q 613.38 437.49 600.89 432.42
  Q 597.04 430.86 588.75 428.50
  Q 556.25 419.24 521.21 406.34
  Q 521.15 406.32 507.34 401.03
  Q 485.22 392.57 462.25 386.75
  Q 459.12 385.96 446.50 384.50
  Q 444.79 384.30 444.25 384.54"
/>
<path stroke="#fad9bb" vector-effect="non-scaling-stroke" d="
  M 444.25 384.54
  Q 441.06 382.49 436.00 381.00
  Q 408.22 372.81 380.42 364.73
  Q 366.81 360.77 361.47 358.36
  Q 350.59 353.44 341.81 345.69
  Q 333.48 338.33 330.56 327.05
  A 0.40 0.39 69.7 0 0 330.00 326.79
  Q 327.86 327.86 325.50 327.79"
/>
<path stroke="#fff7f3" vector-effect="non-scaling-stroke" d="
  M 885.50 603.21
  Q 884.15 603.89 883.39 605.10
  Q 882.00 607.31 881.97 607.34
  Q 877.73 612.31 872.17 615.43
  Q 865.97 618.91 861.14 620.28
  Q 855.44 621.91 848.50 621.00
  Q 839.66 619.84 834.21 616.25"
/>
<path stroke="#d7ae85" vector-effect="non-scaling-stroke" d="
  M 702.54 413.25
  L 703.51 396.01
  Q 703.64 393.78 702.72 395.82
  Q 696.92 408.81 689.75 422.04"
/>
<path stroke="#c8af9c" vector-effect="non-scaling-stroke" d="
  M 679.96 442.25
  Q 680.62 447.39 681.75 450.75
  Q 683.91 457.19 681.29 463.00"
/>
<path stroke="#ab8d88" vector-effect="non-scaling-stroke" d="
  M 681.29 463.00
  Q 680.55 468.53 676.46 472.25"
/>
<path stroke="#b98c71" vector-effect="non-scaling-stroke" d="
  M 723.75 495.96
  Q 742.68 510.61 762.50 524.04"
/>
<path stroke="#be9684" vector-effect="non-scaling-stroke" d="
  M 815.96 556.50
  Q 807.69 572.12 811.58 588.41
  Q 813.40 596.02 817.43 601.87
  Q 821.82 608.23 828.31 612.19
  Q 832.59 614.80 834.21 616.25"
/>
<path stroke="#be9680" vector-effect="non-scaling-stroke" d="
  M 834.21 616.25
  Q 827.61 619.30 822.25 624.21"
/>
<path stroke="#bb692e" vector-effect="non-scaling-stroke" d="
  M 822.25 624.21
  L 803.00 638.71"
/>
<path stroke="#ac6640" vector-effect="non-scaling-stroke" d="
  M 803.00 638.71
  Q 794.15 634.54 785.69 632.81
  Q 772.08 630.04 756.78 628.35
  Q 739.84 626.48 739.75 626.46
  Q 709.31 622.85 678.75 620.51
  Q 677.36 620.40 676.00 620.71"
/>
<path stroke="#fbede4" vector-effect="non-scaling-stroke" d="
  M 456.00 309.79
  Q 439.47 301.04 421.46 296.00"
/>
<path stroke="#f9cb9d" vector-effect="non-scaling-stroke" d="
  M 421.46 296.00
  Q 415.95 287.25 414.25 277.04"
/>
<path stroke="#9a5725" vector-effect="non-scaling-stroke" d="
  M 699.21 476.75
  Q 690.73 470.15 682.44 463.31
  Q 682.04 462.99 681.29 463.00"
/>
<path stroke="#fdd5b0" vector-effect="non-scaling-stroke" d="
  M 421.46 296.00
  Q 405.03 292.02 391.75 291.25
  Q 388.48 291.06 387.50 290.71"
/>
<path stroke="#e7d0bf" vector-effect="non-scaling-stroke" d="
  M 444.25 384.54
  Q 485.89 408.12 509.81 420.44
  Q 529.90 430.79 553.73 438.56
  Q 563.10 441.62 569.03 444.10
  Q 574.65 446.45 584.06 450.44
  Q 600.68 457.47 625.65 465.48
  Q 625.75 465.51 637.16 469.31
  Q 646.35 472.37 655.79 474.57
  Q 659.48 475.43 663.25 475.78
  Q 670.59 476.48 676.46 472.25"
/>
<path stroke="#b87848" vector-effect="non-scaling-stroke" d="
  M 676.46 472.25
  L 680.54 482.25"
/>
<path stroke="#fad9b7" vector-effect="non-scaling-stroke" d="
  M 680.54 482.25
  Q 678.76 485.01 675.44 485.45
  Q 671.09 486.04 666.69 486.00
  Q 647.74 485.85 630.17 478.86
  Q 618.73 474.30 607.52 469.20
  Q 589.07 460.78 570.55 452.49
  Q 570.39 452.42 556.24 446.33
  Q 549.08 443.24 542.10 439.78
  Q 527.36 432.47 527.30 432.44
  Q 487.20 413.22 447.37 393.45
  Q 444.15 391.85 435.81 389.19
  Q 425.20 385.80 375.75 369.25
  Q 359.42 363.79 345.62 358.00
  Q 339.96 355.62 336.67 352.73
  Q 326.18 343.52 324.75 329.25
  Q 324.67 328.45 324.25 328.46"
/>
<path stroke="#f8cbaf" vector-effect="non-scaling-stroke" d="
  M 1122.04 722.25
  Q 1121.72 722.74 1120.06 723.81
  Q 1096.99 738.78 1071.00 759.71"
/>
<path stroke="#e8f1f7" vector-effect="non-scaling-stroke" d="
  M 1071.00 759.71
  Q 1071.25 758.61 1071.97 757.82
  Q 1073.19 756.48 1073.25 756.39
  Q 1083.71 741.14 1075.58 724.08
  Q 1072.98 718.63 1069.69 715.06
  Q 1062.96 707.79 1053.41 702.16
  Q 1023.41 684.48 988.83 681.29
  Q 985.07 680.94 981.65 681.07
  Q 978.50 681.19 974.50 681.50
  Q 965.80 682.18 958.85 686.36
  Q 951.55 690.75 947.80 697.72
  Q 944.96 703.02 944.59 709.18
  Q 944.27 714.66 946.20 720.14
  Q 948.18 725.75 951.81 729.94
  Q 959.37 738.64 971.00 744.80
  Q 978.87 748.97 987.31 751.84
  Q 989.99 752.75 993.56 755.19
  Q 998.83 758.78 1005.41 761.39
  Q 1010.82 763.53 1017.98 765.73
  Q 1032.71 770.24 1047.25 769.50
  Q 1054.82 769.12 1062.93 765.19
  Q 1063.01 765.15 1063.84 764.54
  Q 1064.49 764.06 1065.29 764.50"
/>
<path stroke="#f8cbaf" vector-effect="non-scaling-stroke" d="
  M 1065.29 764.50
  L 1050.00 777.29"
/>
<path stroke="#fdca9d" vector-effect="non-scaling-stroke" d="
  M 1050.00 777.29
  Q 1038.16 773.10 1026.06 769.69
  Q 1012.93 765.99 1000.08 761.38
  Q 977.85 753.41 955.49 745.75
  Q 954.18 745.30 953.07 744.47
  Q 934.85 730.96 916.89 716.88
  Q 883.04 690.35 851.73 660.88
  Q 847.49 656.89 844.21 652.30
  Q 834.87 639.23 826.44 625.56
  Q 825.30 623.72 822.25 624.21"
/>
<path stroke="#eb9a5d" vector-effect="non-scaling-stroke" d="
  M 803.00 638.71
  Q 770.59 667.14 743.50 699.25
  Q 738.01 705.76 735.00 709.04"
/>
<path stroke="#be9680" vector-effect="non-scaling-stroke" d="
  M 680.54 482.25
  Q 686.73 497.82 688.48 514.50
  Q 690.62 534.97 689.29 555.50
  Q 687.81 578.34 681.32 600.19
  Q 679.82 605.27 678.63 610.43
  Q 677.45 615.60 676.00 620.71"
/>
<path stroke="#edc7af" vector-effect="non-scaling-stroke" d="
  M 676.00 620.71
  Q 665.92 643.85 678.31 666.69
  Q 686.11 681.05 698.66 689.06
  Q 701.73 691.02 712.89 696.97
  Q 720.08 700.80 727.69 703.81
  Q 729.87 704.67 735.00 709.04"
/>
<path stroke="#fdca9d" vector-effect="non-scaling-stroke" d="
  M 735.00 709.04
  Q 735.15 709.78 734.31 710.81
  Q 699.41 753.93 674.87 805.86
  Q 669.87 816.44 666.54 824.03
  Q 659.30 840.55 653.85 857.78
  Q 649.71 870.86 648.50 878.75
  Q 647.56 884.90 649.00 893.71"
/>
<path stroke="#f9d9c5" vector-effect="non-scaling-stroke" d="
  M 649.00 893.71
  Q 452.99 862.56 257.00 831.25
  Q 247.51 829.73 241.23 829.03
  Q 229.38 827.70 229.30 827.69
  Q 217.89 826.24 208.25 825.75
  Q 207.68 825.72 207.71 825.25"
/>
<path stroke="#f69e5d" vector-effect="non-scaling-stroke" d="
  M 1050.00 777.29
  Q 997.18 823.63 957.81 867.81
  Q 933.78 894.79 910.11 922.09
  Q 901.90 931.56 889.31 948.31
  Q 880.48 960.08 875.46 972.00"
/>
<path stroke="#f6ac73" vector-effect="non-scaling-stroke" d="
  M 875.46 972.00
  Q 869.66 965.58 863.36 959.64
  Q 854.12 950.91 842.71 945.26
  Q 830.14 939.03 820.19 935.56
  Q 796.75 927.38 765.19 918.31
  Q 743.02 911.94 723.35 908.22
  Q 713.25 906.31 703.80 904.10
  Q 691.97 901.33 679.99 899.30
  Q 664.47 896.66 649.00 893.71"
/>
<path stroke="#e1c5b7" vector-effect="non-scaling-stroke" d="
  M 1071.00 759.71
  L 1065.29 764.50"
/>
<path stroke="#e69a6f" vector-effect="non-scaling-stroke" d="
  M 1267.96 937.75
  Q 1266.55 938.25 1264.81 940.06
  Q 1222.71 984.13 1173.01 1024.20
  Q 1165.20 1030.49 1157.16 1036.39
  Q 1142.99 1046.80 1128.45 1056.71
  Q 1113.88 1066.66 1098.39 1075.09
  Q 1092.87 1078.10 1086.77 1079.56
  Q 1080.88 1080.98 1075.31 1079.69
  Q 1057.77 1075.61 1039.85 1068.79
  Q 983.08 1047.21 929.92 1017.85
  Q 905.41 1004.31 886.06 988.19
  Q 885.28 987.53 884.71 988.00"
/>
<path stroke="#f2ac85" vector-effect="non-scaling-stroke" d="
  M 884.71 988.00
  Q 884.20 986.29 882.84 985.15
  Q 876.69 979.98 875.46 972.00"
/>
<path stroke="#e7a885" vector-effect="non-scaling-stroke" d="
  M 884.71 988.00
  Q 887.68 1001.34 889.27 1014.89
  Q 891.57 1034.42 891.59 1034.56
  Q 897.11 1076.50 899.08 1118.76
  Q 899.55 1128.75 900.60 1138.69
  Q 904.18 1172.38 905.48 1206.24
  Q 906.19 1224.61 906.75 1231.25
  Q 913.88 1315.42 914.19 1405.44
  Q 914.20 1408.05 913.99 1409.87
  Q 913.59 1413.40 913.58 1413.53
  Q 912.86 1422.83 908.29 1431.00"
/>
<path stroke="#efa77e" vector-effect="non-scaling-stroke" d="
  M 117.46 1048.00
  Q 117.98 1046.84 118.71 1046.93
  A 1.36 1.35 -85.8 0 0 120.23 1045.61
  Q 121.49 969.72 129.06 895.56
  Q 130.38 882.68 133.25 866.00
  Q 133.76 863.04 136.18 854.59
  Q 136.24 854.39 137.06 852.53
  Q 137.53 851.46 137.46 850.25"
/>
<path stroke="#843d17" vector-effect="non-scaling-stroke" d="
  M 870.44 269.81
  Q 878.52 278.33 887.86 283.93
  Q 918.02 302.01 952.74 307.80
  Q 957.77 308.64 959.38 305.01
  Q 960.44 302.62 959.46 300.47
  Q 958.38 298.09 955.19 297.56
  Q 933.71 293.97 912.88 284.93
  Q 896.58 277.85 882.72 266.77
  Q 876.20 261.57 872.49 254.30
  Q 870.62 250.65 870.47 247.85
  Q 870.28 244.32 871.99 241.00
  Q 874.07 236.96 874.19 235.94
  Q 874.70 231.63 870.00 231.96
  Q 867.97 232.10 866.40 233.40
  Q 860.67 238.17 860.21 246.25
  Q 859.80 253.35 863.05 259.63
  Q 865.79 264.92 870.44 269.81"
/>
<path stroke="#f9cb9d" vector-effect="non-scaling-stroke" d="
  M 552.19 295.06
  Q 563.34 305.59 577.79 303.18
  Q 586.22 301.78 591.64 297.10
  Q 597.69 291.86 599.53 283.20
  Q 600.09 280.55 600.67 277.89
  Q 601.37 274.69 601.43 272.55
  Q 601.75 260.49 593.30 253.40
  Q 588.31 249.21 581.37 247.90
  Q 574.52 246.61 567.85 248.35
  Q 560.48 250.28 554.65 255.44
  Q 548.72 260.68 545.94 268.19
  Q 540.17 283.72 552.19 295.06"
/>
<path stroke="#f9cb9d" vector-effect="non-scaling-stroke" d="
  M 659.97 319.27
  Q 670.96 327.62 682.49 322.72
  Q 687.49 320.59 691.88 317.66
  Q 696.95 314.26 699.76 308.96
  Q 703.15 302.60 702.51 295.09
  Q 701.88 287.76 697.50 281.25
  Q 690.38 270.67 677.98 268.64
  Q 672.25 267.71 667.56 269.31
  Q 655.76 273.35 651.55 285.52
  Q 647.47 297.31 652.06 308.86
  Q 654.57 315.17 659.97 319.27"
/>
<path stroke="#f9cb9d" vector-effect="non-scaling-stroke" d="
  M 757.42 466.59
  Q 762.42 470.63 768.50 471.00
  Q 781.77 471.80 790.44 461.69
  Q 795.12 456.22 796.21 449.02
  Q 797.22 442.33 796.18 436.99
  Q 794.90 430.44 789.44 426.31
  Q 784.37 422.48 777.59 422.31
  Q 773.81 422.22 769.90 422.35
  Q 765.67 422.50 762.31 424.06
  Q 749.18 430.20 749.15 445.50
  Q 749.15 446.78 750.19 453.56
  Q 751.44 461.75 757.42 466.59"
/>
<path stroke="#843d17" vector-effect="non-scaling-stroke" d="
  M 1024.51 310.99
  Q 1027.57 304.02 1031.21 298.74
  Q 1032.49 296.89 1032.98 294.70
  Q 1033.66 291.65 1032.00 290.19
  Q 1030.56 288.91 1028.26 289.35
  Q 1026.18 289.74 1024.65 291.40
  Q 1020.72 295.62 1017.81 300.61
  Q 1008.90 315.85 1001.96 332.06
  Q 1001.03 334.26 1001.14 335.58
  Q 1001.33 337.66 1003.06 338.94
  Q 1007.63 342.30 1010.88 337.44
  Q 1017.51 327.52 1028.06 321.91
  Q 1038.06 316.59 1049.45 317.56
  A 0.51 0.51 14.9 0 1 1049.87 318.28
  Q 1048.05 322.16 1045.95 326.10
  Q 1045.88 326.22 1043.17 331.46
  Q 1038.93 339.62 1032.40 347.37
  A 0.82 0.76 -47.9 0 1 1031.24 347.47
  L 1023.87 340.18
  Q 1021.60 337.94 1021.22 340.96
  Q 1020.34 347.99 1024.77 353.92
  A 0.99 0.98 -40.3 0 1 1024.66 355.21
  Q 1021.28 358.50 1016.61 360.04
  A 1.39 1.39 64.1 0 0 1015.89 362.12
  Q 1017.81 365.03 1021.75 364.49
  Q 1027.13 363.77 1031.36 361.32
  A 2.20 2.18 -49.0 0 1 1033.26 361.18
  Q 1041.40 364.32 1048.51 364.89
  Q 1063.67 366.12 1073.10 356.65
  Q 1079.33 350.39 1081.23 342.14
  Q 1083.29 333.17 1078.97 324.72
  Q 1076.77 320.42 1073.14 316.98
  Q 1069.65 313.67 1065.18 311.23
  A 0.88 0.88 -67.4 0 1 1064.76 310.20
  Q 1065.60 307.50 1065.53 304.67
  Q 1065.48 303.10 1064.57 302.26
  Q 1063.38 301.15 1061.79 301.43
  Q 1060.33 301.68 1058.71 303.31
  Q 1057.31 304.72 1056.23 306.37
  Q 1055.31 307.79 1053.63 307.52
  Q 1038.51 305.08 1024.78 311.23
  Q 1024.31 311.44 1024.51 310.99"
/>
<path stroke="#843d17" vector-effect="non-scaling-stroke" d="
  M 1042.52 353.00
  Q 1052.22 356.30 1060.14 352.66
  Q 1068.19 348.95 1070.56 340.49
  Q 1073.60 329.65 1061.65 321.70
  A 1.34 1.34 28.6 0 0 1059.68 322.28
  Q 1052.77 338.21 1042.33 352.42
  A 0.38 0.38 -63.2 0 0 1042.52 353.00"
/>
<path stroke="#d9b998" vector-effect="non-scaling-stroke" d="
  M 328.44 483.56
  Q 329.43 483.60 331.99 484.27
  Q 334.07 484.81 335.56 484.60
  Q 343.00 483.51 341.94 475.31
  Q 341.60 472.69 339.68 471.02
  Q 338.28 469.79 335.46 469.38
  Q 328.64 468.40 322.50 469.00
  Q 307.06 470.52 289.67 473.56
  Q 275.29 476.07 273.84 476.45
  Q 265.94 478.55 259.03 483.13
  Q 257.13 484.38 255.85 485.80
  Q 254.06 487.78 253.56 489.31
  Q 252.02 494.11 255.50 495.19
  Q 257.22 495.72 260.44 494.75
  Q 287.29 486.65 316.25 484.00
  Q 323.22 483.36 328.44 483.56"
/>
<path stroke="#d9b998" vector-effect="non-scaling-stroke" d="
  M 447.01 485.88
  Q 448.27 487.04 449.96 487.33
  Q 454.92 488.17 460.14 488.75
  Q 466.02 489.40 470.24 490.46
  Q 489.38 495.25 502.19 500.81
  Q 508.91 503.74 518.89 510.63
  Q 523.04 513.50 525.13 514.02
  Q 529.79 515.18 532.47 511.30
  Q 534.48 508.40 533.88 505.23
  Q 533.22 501.76 529.82 499.68
  Q 526.87 497.88 523.91 496.10
  Q 520.76 494.20 517.80 492.84
  Q 495.23 482.48 470.88 477.73
  Q 462.80 476.15 460.09 475.97
  Q 454.20 475.59 449.08 477.37
  A 3.77 3.76 4.2 0 0 446.99 479.17
  Q 444.61 483.67 447.01 485.88"
/>
<path stroke="#d9b998" vector-effect="non-scaling-stroke" d="
  M 381.07 545.93
  Q 384.31 547.45 386.75 547.75
  Q 403.31 549.75 426.25 549.31
  Q 430.15 549.23 430.81 552.94
  Q 431.08 554.41 432.51 558.35
  Q 433.76 561.79 434.94 563.43
  Q 438.82 568.85 446.00 568.50
  Q 451.30 568.24 454.41 564.64
  Q 456.61 562.11 457.58 556.66
  Q 459.11 548.11 458.25 540.75
  Q 456.72 527.66 447.11 521.30
  Q 440.86 517.17 428.12 515.73
  Q 418.19 514.62 406.25 514.75
  Q 393.94 514.89 384.20 519.48
  Q 380.40 521.27 378.14 523.57
  Q 375.42 526.31 374.06 529.81
  Q 371.09 537.45 376.17 542.64
  Q 377.94 544.46 381.07 545.93"
/>
<path stroke="#843d17" vector-effect="non-scaling-stroke" d="
  M 1127.12 358.74
  Q 1129.23 357.03 1129.94 354.69
  Q 1131.14 350.69 1127.94 349.06
  Q 1121.52 345.79 1116.52 351.51
  Q 1111.41 357.35 1109.73 364.94
  Q 1108.70 369.60 1111.69 372.06
  Q 1115.26 375.00 1118.79 372.77
  Q 1120.26 371.84 1121.11 369.42
  Q 1122.56 365.30 1124.63 361.48
  Q 1125.31 360.22 1127.12 358.74"
/>
<path stroke="#843d17" vector-effect="non-scaling-stroke" d="
  M 1137.69 381.81
  Q 1141.94 385.00 1145.88 381.59
  A 1.51 1.34 76.8 0 0 1146.33 380.76
  Q 1147.22 375.88 1149.56 373.31
  Q 1152.19 370.44 1152.25 367.50
  Q 1152.31 364.54 1149.49 363.77
  Q 1146.19 362.88 1143.48 364.26
  Q 1141.51 365.26 1138.95 367.73
  Q 1136.50 370.09 1135.39 373.34
  Q 1134.56 375.79 1135.05 377.83
  Q 1135.64 380.27 1137.69 381.81"
/>
<path stroke="#843d17" vector-effect="non-scaling-stroke" d="
  M 1121.40 420.13
  Q 1127.93 425.05 1136.50 425.45
  Q 1165.13 426.77 1179.99 402.97
  Q 1185.57 394.05 1183.25 384.25
  Q 1182.84 382.51 1181.30 382.29
  Q 1180.23 382.13 1179.11 383.11
  Q 1176.30 385.57 1174.56 388.56
  Q 1170.50 395.55 1166.25 400.78
  Q 1159.67 408.88 1150.18 411.68
  Q 1143.53 413.64 1135.69 412.76
  Q 1128.33 411.95 1121.46 408.77
  Q 1118.89 407.58 1117.04 405.46
  Q 1113.75 401.71 1112.95 405.71
  Q 1112.66 407.15 1112.94 408.79
  Q 1113.61 412.61 1116.05 415.42
  Q 1117.75 417.39 1121.40 420.13"
/>
<path stroke="#843d17" vector-effect="non-scaling-stroke" d="
  M 1208.69 429.31
  Q 1211.58 431.28 1213.84 429.80
  Q 1215.12 428.95 1216.07 426.00
  Q 1217.69 421.02 1220.69 416.69
  Q 1221.96 414.86 1222.08 412.80
  Q 1222.20 410.69 1220.72 409.24
  Q 1218.32 406.90 1214.75 408.50
  Q 1207.52 411.75 1205.47 420.05
  Q 1203.98 426.11 1208.69 429.31"
/>
<path stroke="#843d17" vector-effect="non-scaling-stroke" d="
  M 1234.15 443.04
  Q 1236.90 443.77 1239.21 441.80
  Q 1240.14 441.01 1240.62 439.30
  Q 1241.23 437.18 1241.81 436.56
  Q 1245.13 433.06 1246.50 429.50
  Q 1247.78 426.17 1245.78 423.93
  Q 1244.11 422.05 1241.77 422.05
  Q 1239.46 422.06 1237.31 424.06
  Q 1232.29 428.74 1230.50 431.72
  Q 1227.64 436.48 1230.31 440.28
  Q 1231.83 442.43 1234.15 443.04"
/>
<path stroke="#843d17" vector-effect="non-scaling-stroke" d="
  M 1212.69 474.06
  Q 1216.76 476.76 1220.24 477.31
  Q 1231.86 479.14 1243.34 476.69
  Q 1263.89 472.30 1273.88 454.43
  Q 1275.00 452.42 1275.40 450.25
  Q 1275.93 447.38 1275.75 445.75
  Q 1275.31 441.84 1271.81 442.81
  Q 1267.47 444.02 1264.14 448.60
  Q 1262.45 450.92 1262.41 450.97
  Q 1254.18 461.17 1241.24 464.20
  Q 1230.56 466.70 1219.71 464.98
  Q 1215.76 464.35 1211.75 464.21
  Q 1207.05 464.04 1208.06 468.19
  Q 1208.88 471.54 1212.69 474.06"
/>
<path stroke="#843d17" vector-effect="non-scaling-stroke" d="
  M 1296.58 506.45
  Q 1297.91 507.70 1299.65 507.12
  Q 1303.64 505.78 1307.15 503.01
  Q 1309.70 501.00 1309.79 500.94
  Q 1329.91 486.12 1351.12 472.91
  Q 1365.83 463.74 1379.95 453.68
  Q 1383.98 450.80 1379.18 449.63
  Q 1376.67 449.02 1373.38 449.96
  Q 1371.85 450.40 1368.00 451.91
  Q 1364.02 453.46 1359.81 455.81
  Q 1327.90 473.67 1299.99 495.25
  Q 1297.01 497.55 1295.47 500.95
  Q 1294.06 504.08 1296.58 506.45"
/>
<path stroke="#843d17" vector-effect="non-scaling-stroke" d="
  M 1300.30 542.04
  Q 1302.34 542.87 1304.31 541.56
  Q 1327.77 526.01 1347.01 514.98
  Q 1361.20 506.84 1361.30 506.78
  Q 1383.03 494.18 1405.24 482.42
  Q 1415.57 476.95 1426.14 470.24
  Q 1427.17 469.59 1427.86 468.59
  Q 1428.97 466.98 1427.56 466.25
  Q 1425.96 465.43 1424.19 465.71
  Q 1416.53 466.94 1410.02 469.79
  Q 1400.40 474.01 1391.07 478.82
  Q 1351.67 499.15 1313.83 522.27
  Q 1306.58 526.70 1299.71 531.70
  Q 1294.75 535.31 1297.52 539.59
  Q 1298.68 541.38 1300.30 542.04"
/>
<path stroke="#d97f62" vector-effect="non-scaling-stroke" d="
  M 382.21 539.92
  Q 385.51 541.98 389.12 542.66
  Q 389.60 542.75 396.40 543.33
  Q 414.04 544.83 431.77 544.50
  Q 435.04 544.44 435.34 547.69
  Q 435.55 550.03 436.14 553.27
  Q 437.41 560.26 443.50 561.36
  Q 446.72 561.95 449.51 560.66
  Q 452.86 559.11 453.63 555.60
  Q 454.00 553.94 453.96 547.38
  Q 453.88 535.22 445.41 526.09
  Q 442.25 522.68 437.74 521.55
  Q 426.43 518.72 414.75 519.04
  Q 400.83 519.43 398.25 519.75
  Q 393.64 520.32 389.21 521.75
  Q 384.30 523.33 381.69 526.69
  Q 378.33 531.01 379.48 536.08
  Q 380.05 538.57 382.21 539.92"
/>
</g>
<path fill="#7c3511" d="
  M 651.98 16.63
  Q 654.38 8.14 657.94 3.19
  Q 658.79 2.00 660.85 1.11
  Q 662.59 0.36 664.26 0.59
  Q 667.71 1.08 669.06 4.09
  Q 669.85 5.84 669.48 9.01
  Q 669.12 12.06 668.75 14.00
  Q 657.56 72.49 652.25 135.25
  Q 651.80 140.51 647.78 142.61
  Q 644.24 144.47 640.61 142.98
  Q 636.79 141.42 635.50 136.75
  Q 634.99 134.92 635.36 130.26
  Q 639.33 79.64 648.75 29.75
  Q 649.73 24.56 651.98 16.63
  Z
  M 654.69 19.44
  Q 650.20 37.79 647.76 53.21
  Q 641.47 92.91 638.48 133.00
  Q 638.02 139.11 642.70 140.07
  Q 645.19 140.59 646.99 139.09
  Q 648.97 137.45 649.04 134.59
  Q 649.09 132.50 649.10 132.40
  Q 654.59 71.14 665.89 10.68
  Q 666.35 8.22 666.19 6.79
  Q 665.76 2.77 662.48 4.19
  Q 660.68 4.97 659.41 7.22
  Q 656.35 12.64 654.69 19.44
  Z"
/>
<path fill="#8b441c" d="
  M 654.69 19.44
  Q 656.35 12.64 659.41 7.22
  Q 660.68 4.97 662.48 4.19
  Q 665.76 2.77 666.19 6.79
  Q 666.35 8.22 665.89 10.68
  Q 654.59 71.14 649.10 132.40
  Q 649.09 132.50 649.04 134.59
  Q 648.97 137.45 646.99 139.09
  Q 645.19 140.59 642.70 140.07
  Q 638.02 139.11 638.48 133.00
  Q 641.47 92.91 647.76 53.21
  Q 650.20 37.79 654.69 19.44
  Z"
/>
<path fill="#7c3511" d="
  M 701.65 25.92
  Q 703.06 23.59 705.40 23.35
  Q 707.62 23.11 709.25 24.67
  Q 711.41 26.73 711.00 30.75
  Q 707.15 68.10 703.50 90.00
  Q 699.58 113.53 697.06 136.71
  Q 696.71 139.91 693.52 140.25
  Q 689.12 140.72 687.29 136.73
  Q 685.22 132.24 685.08 127.26
  Q 684.11 94.13 690.25 66.25
  Q 694.14 48.59 699.29 31.26
  Q 700.13 28.44 701.65 25.92
  Z
  M 688.53 120.66
  Q 688.57 127.02 689.32 133.63
  Q 689.54 135.51 691.05 136.65
  Q 692.21 137.52 693.35 136.80
  A 1.19 0.94 81.5 0 0 693.81 136.00
  Q 694.45 130.24 695.10 124.49
  Q 695.72 119.03 696.65 113.04
  Q 700.39 89.16 704.50 58.50
  Q 706.62 42.66 707.65 30.67
  Q 707.77 29.23 707.59 28.34
  Q 707.02 25.52 704.95 27.38
  Q 704.14 28.11 703.50 29.48
  Q 702.30 32.08 701.75 34.00
  Q 697.79 47.83 693.75 65.75
  Q 689.39 85.10 688.78 107.71
  Q 688.52 117.71 688.53 120.66
  Z"
/>
<path fill="#8b441c" d="
  M 688.78 107.71
  Q 689.39 85.10 693.75 65.75
  Q 697.79 47.83 701.75 34.00
  Q 702.30 32.08 703.50 29.48
  Q 704.14 28.11 704.95 27.38
  Q 707.02 25.52 707.59 28.34
  Q 707.77 29.23 707.65 30.67
  Q 706.62 42.66 704.50 58.50
  Q 700.39 89.16 696.65 113.04
  Q 695.72 119.03 695.10 124.49
  Q 694.45 130.24 693.81 136.00
  A 1.19 0.94 81.5 0 1 693.35 136.80
  Q 692.21 137.52 691.05 136.65
  Q 689.54 135.51 689.32 133.63
  Q 688.57 127.02 688.53 120.66
  Q 688.52 117.71 688.78 107.71
  Z"
/>
<path fill="#7c3511" d="
  M 804.19 87.96
  Q 825.65 97.38 845.76 110.69
  Q 850.40 113.76 854.60 117.40
  Q 857.20 119.64 858.18 122.70
  Q 859.13 125.64 857.60 128.64
  Q 854.51 134.73 848.08 132.90
  Q 845.69 132.22 841.60 129.04
  Q 838.59 126.70 835.40 124.61
  Q 811.91 109.22 785.96 98.44
  A 0.88 0.87 -52.1 0 0 785.10 98.55
  Q 777.15 104.55 769.99 111.51
  A 0.44 0.43 33.7 0 0 770.14 112.22
  Q 801.89 124.50 830.19 143.56
  Q 831.63 144.53 834.91 147.60
  Q 840.21 152.54 837.73 157.86
  Q 835.91 161.75 832.05 162.65
  Q 828.04 163.59 823.94 160.56
  Q 804.53 146.22 781.06 135.44
  Q 765.20 128.15 759.02 125.51
  A 0.64 0.63 -60.1 0 0 758.26 125.72
  Q 747.34 140.27 745.77 158.50
  Q 744.87 168.83 748.28 178.04
  Q 751.42 186.56 758.49 194.30
  Q 774.50 211.83 800.25 211.00
  Q 806.54 210.80 812.62 208.42
  Q 812.67 208.41 815.81 206.93
  Q 823.46 203.35 827.39 209.89
  Q 829.15 212.82 828.60 215.89
  Q 827.94 219.56 824.94 221.44
  Q 815.55 227.31 802.00 228.22
  Q 783.47 229.47 766.85 221.36
  Q 735.44 206.01 729.00 172.50
  Q 727.67 165.59 728.34 157.32
  Q 728.93 150.05 731.18 142.50
  Q 734.98 129.79 742.21 118.56
  A 0.63 0.63 25.8 0 0 741.88 117.62
  Q 736.92 116.00 732.65 113.55
  Q 730.56 112.35 729.98 110.47
  Q 728.78 106.57 732.23 104.74
  Q 734.18 103.71 737.56 103.72
  Q 743.60 103.73 749.81 105.67
  A 2.53 2.52 -60.5 0 0 752.47 104.93
  Q 758.78 97.77 766.63 91.20
  A 0.54 0.54 35.3 0 0 766.47 90.28
  Q 763.61 89.18 761.04 88.21
  Q 757.43 86.85 755.95 85.51
  Q 752.39 82.28 754.21 77.84
  Q 755.40 74.91 758.24 73.52
  Q 761.27 72.03 764.50 72.75
  Q 773.55 74.76 782.47 78.62
  A 1.77 1.77 40.4 0 0 784.10 78.49
  Q 799.04 69.16 816.25 65.75
  Q 824.30 64.16 832.65 67.93
  Q 835.57 69.25 836.46 71.09
  Q 837.85 73.97 834.69 76.69
  Q 833.47 77.73 828.22 79.06
  Q 816.11 82.13 804.21 86.87
  Q 802.89 87.39 804.19 87.96
  Z
  M 746.90 117.34
  Q 732.25 137.74 731.56 160.94
  Q 730.82 186.14 749.36 204.89
  Q 772.26 228.04 805.25 224.52
  Q 813.65 223.62 821.03 219.75
  Q 823.59 218.40 824.52 217.20
  Q 826.08 215.17 825.19 212.56
  Q 823.97 209.00 820.70 209.01
  Q 819.33 209.01 815.88 210.55
  Q 805.47 215.20 793.50 214.25
  Q 769.57 212.34 754.28 194.46
  Q 740.93 178.85 742.25 159.50
  Q 743.62 139.39 756.95 121.90
  A 0.66 0.65 29.3 0 1 757.72 121.69
  Q 763.93 124.25 775.06 129.19
  Q 794.70 137.89 812.04 148.39
  Q 819.45 152.87 826.24 158.25
  Q 828.91 160.36 832.00 159.25
  Q 834.64 158.30 835.13 155.91
  Q 835.51 154.05 834.11 152.02
  Q 831.73 148.57 827.31 145.69
  Q 805.52 131.45 786.64 122.92
  Q 776.23 118.21 764.74 113.42
  A 0.52 0.51 -57.5 0 1 764.56 112.60
  Q 773.80 102.53 784.62 95.02
  A 0.97 0.95 38.3 0 1 785.52 94.92
  Q 817.44 107.78 845.31 127.77
  Q 848.01 129.71 850.00 129.92
  Q 853.85 130.33 854.88 126.71
  Q 855.57 124.32 854.00 122.09
  Q 851.99 119.20 848.19 116.56
  Q 824.61 100.20 796.82 88.03
  Q 796.00 87.68 796.73 87.16
  Q 799.06 85.49 802.27 84.21
  Q 817.09 78.35 832.50 74.25
  Q 835.97 73.33 832.81 71.69
  Q 826.69 68.51 819.74 68.90
  Q 812.88 69.28 806.36 71.47
  Q 794.96 75.30 785.53 81.54
  Q 783.68 82.77 781.66 81.85
  Q 772.75 77.77 763.50 76.00
  Q 761.00 75.52 758.94 76.88
  Q 756.90 78.22 756.88 80.43
  Q 756.86 82.25 758.25 83.52
  Q 759.06 84.26 761.08 84.97
  Q 767.00 87.06 772.61 89.19
  Q 773.73 89.61 772.79 90.36
  Q 762.73 98.32 753.97 108.49
  Q 752.80 109.84 751.09 109.28
  Q 744.01 106.96 736.17 107.20
  Q 734.80 107.24 733.91 107.69
  Q 731.82 108.75 733.30 110.33
  Q 733.98 111.05 735.56 111.65
  Q 741.31 113.83 746.75 116.70
  A 0.44 0.43 -58.5 0 1 746.90 117.34
  Z"
/>
<path fill="#8b441c" d="
  M 746.75 116.70
  Q 741.31 113.83 735.56 111.65
  Q 733.98 111.05 733.30 110.33
  Q 731.82 108.75 733.91 107.69
  Q 734.80 107.24 736.17 107.20
  Q 744.01 106.96 751.09 109.28
  Q 752.80 109.84 753.97 108.49
  Q 762.73 98.32 772.79 90.36
  Q 773.73 89.61 772.61 89.19
  Q 767.00 87.06 761.08 84.97
  Q 759.06 84.26 758.25 83.52
  Q 756.86 82.25 756.88 80.43
  Q 756.90 78.22 758.94 76.88
  Q 761.00 75.52 763.50 76.00
  Q 772.75 77.77 781.66 81.85
  Q 783.68 82.77 785.53 81.54
  Q 794.96 75.30 806.36 71.47
  Q 812.88 69.28 819.74 68.90
  Q 826.69 68.51 832.81 71.69
  Q 835.97 73.33 832.50 74.25
  Q 817.09 78.35 802.27 84.21
  Q 799.06 85.49 796.73 87.16
  Q 796.00 87.68 796.82 88.03
  Q 824.61 100.20 848.19 116.56
  Q 851.99 119.20 854.00 122.09
  Q 855.57 124.32 854.88 126.71
  Q 853.85 130.33 850.00 129.92
  Q 848.01 129.71 845.31 127.77
  Q 817.44 107.78 785.52 94.92
  A 0.97 0.95 38.3 0 0 784.62 95.02
  Q 773.80 102.53 764.56 112.60
  A 0.52 0.51 -57.5 0 0 764.74 113.42
  Q 776.23 118.21 786.64 122.92
  Q 805.52 131.45 827.31 145.69
  Q 831.73 148.57 834.11 152.02
  Q 835.51 154.05 835.13 155.91
  Q 834.64 158.30 832.00 159.25
  Q 828.91 160.36 826.24 158.25
  Q 819.45 152.87 812.04 148.39
  Q 794.70 137.89 775.06 129.19
  Q 763.93 124.25 757.72 121.69
  A 0.66 0.65 29.3 0 0 756.95 121.90
  Q 743.62 139.39 742.25 159.50
  Q 740.93 178.85 754.28 194.46
  Q 769.57 212.34 793.50 214.25
  Q 805.47 215.20 815.88 210.55
  Q 819.33 209.01 820.70 209.01
  Q 823.97 209.00 825.19 212.56
  Q 826.08 215.17 824.52 217.20
  Q 823.59 218.40 821.03 219.75
  Q 813.65 223.62 805.25 224.52
  Q 772.26 228.04 749.36 204.89
  Q 730.82 186.14 731.56 160.94
  Q 732.25 137.74 746.90 117.34
  A 0.44 0.43 -58.5 0 0 746.75 116.70
  Z"
/>
<path fill="#7c3511" d="
  M 954.01 237.07
  Q 953.48 241.75 951.94 244.19
  Q 950.53 246.41 947.70 247.37
  Q 945.20 248.22 942.65 247.50
  Q 938.93 246.46 937.33 243.21
  Q 936.00 240.50 936.74 235.15
  Q 937.31 231.04 938.17 227.02
  A 0.67 0.66 -68.9 0 0 937.86 226.31
  Q 916.41 213.74 894.79 202.49
  Q 888.04 198.98 884.81 196.69
  Q 883.35 195.65 882.43 193.74
  Q 881.59 192.00 881.90 190.14
  Q 882.79 184.85 889.00 184.50
  Q 891.03 184.39 895.37 185.76
  Q 897.91 186.56 901.41 188.10
  Q 921.86 197.05 941.22 208.53
  A 0.56 0.55 -68.5 0 0 942.04 208.16
  L 946.56 188.03
  A 1.05 1.03 -69.7 0 0 946.05 186.89
  Q 929.41 177.88 912.75 170.50
  Q 908.69 168.70 905.98 166.74
  Q 902.63 164.32 902.33 161.06
  Q 902.04 157.88 904.68 155.84
  Q 906.66 154.31 909.65 154.13
  Q 913.97 153.88 919.06 155.69
  Q 935.49 161.52 950.73 170.08
  A 0.91 0.90 -68.5 0 0 952.06 169.50
  Q 954.03 161.14 959.36 154.10
  Q 961.23 151.62 963.95 151.21
  Q 966.57 150.82 968.79 152.37
  Q 971.95 154.57 971.33 159.26
  Q 970.26 167.23 967.12 177.64
  A 1.57 1.56 23.3 0 0 967.84 179.44
  Q 982.42 187.82 995.69 199.31
  Q 1001.93 204.72 999.16 210.66
  Q 997.47 214.28 993.99 215.34
  Q 991.33 216.15 988.62 215.13
  Q 987.03 214.53 984.36 212.22
  Q 974.37 203.56 962.98 196.64
  A 0.63 0.63 -68.0 0 0 962.04 197.04
  L 957.60 217.59
  A 0.72 0.71 -68.8 0 0 957.93 218.36
  Q 972.71 227.10 985.81 237.95
  Q 987.90 239.68 988.86 242.08
  Q 989.77 244.40 989.22 246.98
  Q 988.10 252.29 982.50 253.50
  Q 978.70 254.32 975.18 251.30
  Q 965.54 243.05 954.50 236.81
  A 0.34 0.33 -72.0 0 0 954.01 237.07
  Z
  M 987.61 210.81
  Q 989.08 212.25 991.01 212.39
  Q 993.11 212.55 994.97 210.90
  Q 999.15 207.21 994.06 202.44
  Q 986.22 195.09 978.29 189.97
  Q 971.05 185.30 963.77 180.86
  A 1.08 1.07 -64.9 0 1 963.31 179.58
  Q 966.47 170.31 967.58 160.62
  Q 967.90 157.79 967.90 157.38
  Q 967.86 154.82 965.68 154.59
  Q 963.86 154.40 962.22 155.94
  Q 960.86 157.21 959.81 159.06
  Q 955.86 166.02 954.00 174.09
  A 0.99 0.99 -68.7 0 1 952.55 174.73
  Q 938.04 166.57 922.44 160.30
  Q 917.94 158.49 913.19 157.57
  Q 909.53 156.86 907.75 157.75
  Q 905.35 158.95 905.56 161.03
  Q 905.70 162.48 907.32 163.90
  Q 909.01 165.38 910.81 166.19
  Q 930.50 175.05 949.98 185.41
  A 0.78 0.78 -69.6 0 1 950.37 186.27
  L 944.42 212.54
  A 1.08 1.07 -68.3 0 1 942.82 213.24
  Q 921.33 200.32 898.21 190.26
  Q 894.29 188.56 890.08 188.13
  Q 887.67 187.89 886.16 188.97
  Q 883.24 191.08 887.06 194.19
  Q 889.84 196.45 894.77 199.03
  Q 918.17 211.27 941.23 224.54
  A 0.87 0.87 19.5 0 1 941.66 225.44
  Q 940.64 231.81 939.64 237.53
  Q 938.82 242.15 942.50 244.00
  Q 944.98 245.25 947.22 244.02
  Q 948.88 243.12 949.72 240.64
  Q 951.13 236.50 951.25 232.13
  Q 951.29 230.63 952.55 231.43
  Q 964.58 239.03 975.87 247.68
  Q 975.93 247.73 977.42 249.04
  Q 980.34 251.60 983.69 249.44
  Q 986.39 247.69 986.08 244.83
  Q 985.87 242.90 983.81 240.83
  Q 980.76 237.74 976.56 234.69
  Q 966.20 227.16 954.66 220.14
  A 1.35 1.35 -68.3 0 1 954.04 218.69
  L 960.03 191.69
  A 0.31 0.31 21.1 0 1 960.49 191.49
  Q 974.06 199.41 986.16 209.41
  Q 986.25 209.49 987.61 210.81
  Z"
/>
<path fill="#8b441c" d="
  M 986.16 209.41
  Q 974.06 199.41 960.49 191.49
  A 0.31 0.31 21.1 0 0 960.03 191.69
  L 954.04 218.69
  A 1.35 1.35 -68.3 0 0 954.66 220.14
  Q 966.20 227.16 976.56 234.69
  Q 980.76 237.74 983.81 240.83
  Q 985.87 242.90 986.08 244.83
  Q 986.39 247.69 983.69 249.44
  Q 980.34 251.60 977.42 249.04
  Q 975.93 247.73 975.87 247.68
  Q 964.58 239.03 952.55 231.43
  Q 951.29 230.63 951.25 232.13
  Q 951.13 236.50 949.72 240.64
  Q 948.88 243.12 947.22 244.02
  Q 944.98 245.25 942.50 244.00
  Q 938.82 242.15 939.64 237.53
  Q 940.64 231.81 941.66 225.44
  A 0.87 0.87 19.5 0 0 941.23 224.54
  Q 918.17 211.27 894.77 199.03
  Q 889.84 196.45 887.06 194.19
  Q 883.24 191.08 886.16 188.97
  Q 887.67 187.89 890.08 188.13
  Q 894.29 188.56 898.21 190.26
  Q 921.33 200.32 942.82 213.24
  A 1.08 1.07 -68.3 0 0 944.42 212.54
  L 950.37 186.27
  A 0.78 0.78 -69.6 0 0 949.98 185.41
  Q 930.50 175.05 910.81 166.19
  Q 909.01 165.38 907.32 163.90
  Q 905.70 162.48 905.56 161.03
  Q 905.35 158.95 907.75 157.75
  Q 909.53 156.86 913.19 157.57
  Q 917.94 158.49 922.44 160.30
  Q 938.04 166.57 952.55 174.73
  A 0.99 0.99 -68.7 0 0 954.00 174.09
  Q 955.86 166.02 959.81 159.06
  Q 960.86 157.21 962.22 155.94
  Q 963.86 154.40 965.68 154.59
  Q 967.86 154.82 967.90 157.38
  Q 967.90 157.79 967.58 160.62
  Q 966.47 170.31 963.31 179.58
  A 1.08 1.07 -64.9 0 0 963.77 180.86
  Q 971.05 185.30 978.29 189.97
  Q 986.22 195.09 994.06 202.44
  Q 999.15 207.21 994.97 210.90
  Q 993.11 212.55 991.01 212.39
  Q 989.08 212.25 987.61 210.81
  Q 986.25 209.49 986.16 209.41
  Z"
/>
<path fill="#7c3511" d="
  M 848.44 1463.00
  L 832.19 1463.00
  Q 768.81 1461.40 752.50 1460.75
  Q 721.70 1459.52 691.00 1456.75
  Q 681.15 1455.86 671.34 1454.58
  Q 661.66 1453.30 651.71 1452.55
  Q 638.61 1451.55 624.50 1449.75
  Q 580.75 1444.16 543.66 1438.78
  Q 497.01 1432.01 450.69 1423.31
  Q 383.65 1410.73 331.19 1397.30
  Q 290.08 1386.79 244.25 1371.75
  Q 196.09 1355.95 153.13 1335.04
  Q 139.98 1328.64 130.65 1317.37
  Q 123.07 1308.20 120.50 1295.75
  Q 114.27 1265.57 112.28 1236.95
  Q 112.05 1233.54 111.57 1228.07
  Q 111.19 1223.63 110.97 1219.17
  Q 110.59 1211.27 110.07 1205.85
  Q 106.40 1167.89 107.53 1129.75
  Q 108.45 1098.72 108.18 1066.85
  A 0.54 0.54 75.6 0 0 107.39 1066.38
  Q 83.53 1079.36 59.16 1090.67
  Q 50.27 1094.80 42.40 1097.39
  Q 32.48 1100.65 25.00 1102.25
  Q 9.63 1105.53 1.81 1091.94
  Q 1.17 1090.81 0.00 1084.94
  L 0.00 1082.69
  Q 1.16 1075.28 2.81 1070.56
  Q 12.66 1042.46 26.21 1011.39
  Q 30.89 1000.67 34.31 993.12
  Q 68.95 916.65 121.19 849.94
  Q 123.64 846.80 126.40 844.44
  Q 128.93 842.28 130.66 840.14
  Q 134.21 835.74 139.94 830.44
  Q 149.22 821.84 159.80 818.52
  Q 173.41 814.24 183.75 814.00
  Q 190.91 813.83 198.07 813.58
  A 0.69 0.66 -83.4 0 0 198.69 813.07
  Q 204.07 792.32 214.23 773.46
  Q 223.78 755.75 235.65 739.55
  Q 241.83 731.11 241.90 731.02
  Q 253.68 714.59 256.00 711.00
  Q 257.78 708.24 255.76 704.46
  Q 253.61 700.42 250.43 697.19
  Q 246.92 693.63 246.84 693.54
  Q 225.57 669.78 212.56 643.69
  Q 185.44 589.26 185.17 527.11
  Q 185.13 519.31 186.48 510.49
  Q 189.63 489.94 191.75 482.00
  Q 200.76 448.29 209.00 427.50
  Q 213.06 417.25 220.86 404.71
  Q 225.89 396.60 232.29 388.29
  Q 244.72 372.15 259.13 357.76
  Q 266.32 350.59 274.26 344.74
  Q 295.36 329.20 318.61 318.33
  A 3.00 2.98 -4.1 0 0 320.18 316.53
  Q 323.58 305.82 330.19 298.94
  Q 334.33 294.62 338.76 292.02
  Q 341.90 290.18 348.49 287.12
  Q 353.45 284.82 360.00 283.00
  Q 370.66 280.04 378.43 279.37
  Q 378.49 279.36 381.57 279.36
  Q 384.71 279.37 387.56 277.56
  Q 391.11 275.32 397.58 272.10
  Q 458.32 241.85 525.13 230.78
  Q 534.93 229.15 544.94 228.19
  Q 580.04 224.80 615.27 226.63
  Q 625.60 227.16 635.23 227.94
  Q 671.33 230.83 706.89 239.67
  Q 709.63 240.36 711.71 242.27
  Q 742.56 270.74 769.46 303.99
  Q 776.08 312.17 781.61 319.86
  Q 805.27 352.77 822.19 389.06
  Q 824.69 394.43 826.49 400.89
  Q 833.50 426.00 839.99 451.25
  Q 846.07 474.94 852.66 498.48
  Q 854.28 504.26 855.77 511.65
  Q 857.10 518.28 858.70 524.88
  A 0.87 0.85 89.2 0 0 859.33 525.51
  Q 873.25 529.07 882.31 538.94
  Q 890.86 548.26 896.69 559.50
  Q 903.99 573.57 903.05 588.69
  A 1.38 1.38 0.4 0 0 904.52 590.16
  Q 916.25 589.46 926.72 589.99
  Q 935.26 590.43 946.56 592.43
  Q 971.20 596.81 995.07 604.32
  Q 1009.58 608.88 1014.08 610.49
  Q 1037.43 618.84 1056.94 634.56
  Q 1062.50 639.04 1074.04 650.46
  Q 1101.01 677.16 1124.93 706.61
  A 0.59 0.58 55.2 0 0 1125.68 706.75
  Q 1132.00 703.11 1138.41 699.63
  Q 1149.41 693.64 1160.25 690.50
  Q 1162.51 689.84 1165.23 689.74
  Q 1167.38 689.65 1170.22 690.20
  Q 1181.08 692.31 1193.06 696.69
  Q 1214.66 704.57 1232.35 713.37
  Q 1262.59 728.40 1291.21 746.31
  Q 1306.62 755.95 1324.56 769.44
  Q 1334.71 777.06 1341.94 784.31
  Q 1357.24 799.66 1356.07 820.33
  Q 1355.65 827.72 1352.75 836.44
  Q 1350.15 844.30 1346.16 851.62
  Q 1342.45 858.41 1338.70 865.18
  Q 1334.81 872.20 1330.49 878.27
  Q 1307.78 910.14 1280.53 940.21
  A 2.41 2.39 -22.7 0 0 1279.91 941.71
  Q 1279.57 948.98 1280.81 956.69
  Q 1281.46 960.71 1281.53 963.73
  Q 1281.64 968.20 1281.65 968.26
  Q 1283.34 994.51 1283.50 999.50
  Q 1285.88 1074.02 1278.82 1148.23
  Q 1277.20 1165.28 1268.44 1177.19
  Q 1264.58 1182.44 1256.97 1189.29
  Q 1250.80 1194.84 1250.73 1194.91
  Q 1197.44 1244.04 1135.50 1294.00
  Q 1066.26 1349.85 994.86 1395.80
  Q 985.91 1401.57 977.91 1406.42
  Q 945.60 1426.02 916.19 1440.44
  Q 912.37 1442.31 910.92 1443.39
  Q 903.60 1448.83 895.37 1452.52
  Q 887.63 1455.99 878.55 1458.78
  Q 864.73 1463.03 850.50 1462.75
  Q 849.06 1462.72 848.44 1463.00
  Z
  M 480.00 252.71
  Q 446.01 261.88 414.25 277.04
  Q 400.56 283.25 387.50 290.71
  Q 374.10 290.49 360.00 295.00
  Q 353.48 297.09 349.19 299.94
  Q 348.14 300.63 345.31 301.78
  Q 343.04 302.70 341.61 303.87
  Q 331.72 311.93 330.54 325.00
  A 0.86 0.82 80.9 0 1 330.05 325.71
  L 325.50 327.79
  L 324.25 328.46
  Q 296.60 341.49 277.31 356.56
  Q 266.50 365.01 255.49 377.94
  Q 248.02 386.71 242.78 393.36
  Q 230.93 408.40 222.64 425.67
  Q 219.07 433.11 215.28 444.26
  Q 209.44 461.49 204.48 478.99
  Q 201.75 488.61 200.21 498.49
  Q 199.24 504.67 198.25 510.84
  Q 197.11 517.94 196.94 523.24
  Q 196.67 531.75 197.24 540.25
  Q 198.16 553.82 200.24 567.25
  Q 210.80 635.49 256.16 686.79
  Q 256.20 686.83 260.61 691.43
  Q 265.48 696.51 267.50 701.75
  Q 269.26 706.32 268.18 711.43
  Q 267.51 714.61 264.53 718.88
  Q 259.98 725.39 255.45 731.91
  Q 253.09 735.31 246.07 744.70
  Q 240.63 751.96 235.83 759.65
  Q 230.44 768.28 226.50 775.20
  Q 213.18 798.61 207.71 825.25
  L 207.43 825.44
  A 0.96 0.32 -40.5 0 1 206.86 825.67
  Q 196.43 825.23 186.00 825.67
  Q 174.62 826.15 166.00 828.75
  Q 148.25 834.11 137.46 850.25
  Q 132.05 854.48 126.00 862.50
  Q 69.44 937.49 34.54 1021.16
  Q 25.06 1043.88 16.22 1066.85
  Q 13.06 1075.06 12.00 1082.00
  Q 10.93 1088.99 16.43 1090.56
  Q 18.54 1091.17 22.10 1090.81
  Q 25.16 1090.50 27.75 1089.75
  Q 30.19 1089.04 40.23 1085.74
  Q 46.54 1083.66 52.37 1080.93
  Q 85.35 1065.53 115.50 1048.75
  Q 116.64 1048.11 117.46 1048.00
  Q 117.40 1049.95 118.84 1049.99
  A 1.19 1.18 -89.5 0 1 119.99 1051.17
  Q 120.09 1063.67 119.93 1075.76
  Q 119.85 1081.91 119.96 1095.75
  Q 120.06 1107.74 119.50 1122.25
  Q 118.01 1160.89 121.56 1201.54
  Q 122.41 1211.27 122.97 1221.49
  Q 124.16 1242.94 126.82 1264.27
  Q 128.44 1277.26 130.95 1290.11
  Q 133.01 1300.69 137.50 1307.50
  Q 140.80 1312.50 146.36 1317.08
  Q 150.37 1320.38 157.32 1323.92
  Q 183.26 1337.15 212.44 1348.06
  Q 260.20 1365.93 305.96 1378.64
  Q 345.53 1389.63 383.06 1397.94
  Q 449.02 1412.53 517.99 1423.08
  Q 573.02 1431.50 628.25 1438.54
  Q 641.19 1440.18 654.20 1440.94
  Q 660.64 1441.32 666.25 1442.14
  Q 674.95 1443.41 678.25 1443.75
  Q 717.64 1447.82 762.00 1449.25
  Q 807.39 1450.72 838.50 1451.18
  Q 843.65 1451.26 848.49 1451.07
  Q 853.50 1450.88 858.49 1450.63
  Q 866.68 1450.23 874.43 1447.96
  Q 881.68 1445.83 889.53 1442.46
  Q 899.67 1438.11 908.29 1431.00
  Q 908.93 1430.94 910.94 1429.94
  Q 953.09 1408.83 987.98 1386.50
  Q 1026.63 1361.75 1063.57 1334.52
  Q 1161.46 1262.36 1250.56 1179.56
  Q 1259.35 1171.39 1263.59 1161.87
  Q 1265.61 1157.32 1266.65 1151.01
  Q 1267.49 1145.94 1268.00 1139.75
  Q 1274.00 1067.37 1271.57 997.58
  Q 1271.40 992.67 1270.60 980.93
  Q 1270.04 972.60 1269.80 964.25
  Q 1269.65 958.81 1268.50 953.50
  Q 1267.98 951.11 1267.96 937.75
  Q 1268.07 936.89 1269.19 935.69
  Q 1296.66 906.16 1321.65 870.67
  Q 1325.26 865.56 1328.73 859.03
  Q 1331.94 853.00 1335.28 847.05
  Q 1337.80 842.57 1340.44 836.19
  Q 1344.26 826.95 1344.50 817.50
  Q 1344.77 806.91 1337.94 797.53
  Q 1333.63 791.60 1329.56 788.19
  Q 1305.49 767.98 1276.15 750.55
  Q 1258.30 739.94 1235.06 727.94
  Q 1212.07 716.06 1190.62 708.05
  Q 1180.92 704.43 1170.86 701.98
  Q 1166.36 700.89 1162.50 702.00
  Q 1157.26 703.51 1150.52 706.78
  Q 1137.26 713.22 1124.75 721.00
  Q 1123.05 722.06 1122.04 722.25
  Q 1121.00 720.32 1118.75 717.50
  Q 1092.21 684.15 1063.31 655.69
  Q 1047.21 639.83 1028.14 629.52
  Q 1020.60 625.44 1009.82 621.55
  Q 982.50 611.66 954.06 605.69
  Q 943.50 603.47 934.32 602.59
  Q 925.39 601.74 914.25 601.25
  Q 898.64 600.57 885.50 603.21
  Q 892.85 591.22 891.00 578.50
  Q 889.66 569.24 883.96 560.33
  Q 882.67 558.30 879.72 553.99
  Q 877.30 550.46 875.06 547.94
  Q 865.07 536.66 849.50 535.96
  L 846.79 525.50
  Q 845.30 517.96 843.69 510.44
  Q 842.33 504.04 839.79 495.59
  Q 837.54 488.08 835.54 480.50
  Q 826.07 442.30 815.50 404.39
  Q 814.16 399.56 811.31 393.44
  Q 799.58 368.22 785.79 347.00
  Q 776.36 331.31 765.00 316.96
  Q 738.57 282.89 705.17 251.67
  Q 704.35 250.90 703.25 250.63
  Q 683.70 245.77 663.25 242.79
  Q 642.09 239.77 620.75 238.71
  Q 598.89 237.30 574.50 238.00
  Q 525.84 239.39 480.00 252.71
  Z"
/>
<path fill="#7c3511" d="
  M 872.56 276.71
  Q 861.55 267.21 857.56 253.94
  Q 855.88 248.34 857.34 242.70
  Q 858.54 238.07 860.53 234.97
  Q 862.87 231.31 867.07 229.32
  Q 870.32 227.79 873.64 229.17
  Q 878.49 231.19 877.50 236.50
  Q 877.20 238.11 874.81 242.31
  Q 873.08 245.36 873.81 249.06
  Q 874.31 251.61 876.54 255.00
  Q 881.59 262.67 888.56 267.44
  Q 918.21 287.71 953.68 293.85
  Q 955.54 294.17 957.32 294.77
  Q 959.29 295.44 960.58 296.54
  Q 964.48 299.86 963.00 305.00
  Q 961.67 309.60 957.51 310.91
  Q 955.01 311.70 950.13 310.78
  Q 913.20 303.80 881.81 283.69
  Q 877.33 280.81 872.56 276.71
  Z
  M 870.44 269.81
  Q 878.52 278.33 887.86 283.93
  Q 918.02 302.01 952.74 307.80
  Q 957.77 308.64 959.38 305.01
  Q 960.44 302.62 959.46 300.47
  Q 958.38 298.09 955.19 297.56
  Q 933.71 293.97 912.88 284.93
  Q 896.58 277.85 882.72 266.77
  Q 876.20 261.57 872.49 254.30
  Q 870.62 250.65 870.47 247.85
  Q 870.28 244.32 871.99 241.00
  Q 874.07 236.96 874.19 235.94
  Q 874.70 231.63 870.00 231.96
  Q 867.97 232.10 866.40 233.40
  Q 860.67 238.17 860.21 246.25
  Q 859.80 253.35 863.05 259.63
  Q 865.79 264.92 870.44 269.81
  Z"
/>
<path fill="#8b441c" d="
  M 870.44 269.81
  Q 865.79 264.92 863.05 259.63
  Q 859.80 253.35 860.21 246.25
  Q 860.67 238.17 866.40 233.40
  Q 867.97 232.10 870.00 231.96
  Q 874.70 231.63 874.19 235.94
  Q 874.07 236.96 871.99 241.00
  Q 870.28 244.32 870.47 247.85
  Q 870.62 250.65 872.49 254.30
  Q 876.20 261.57 882.72 266.77
  Q 896.58 277.85 912.88 284.93
  Q 933.71 293.97 955.19 297.56
  Q 958.38 298.09 959.46 300.47
  Q 960.44 302.62 959.38 305.01
  Q 957.77 308.64 952.74 307.80
  Q 918.02 302.01 887.86 283.93
  Q 878.52 278.33 870.44 269.81
  Z"
/>
<path fill="#fbb269" d="
  M 620.75 238.71
  Q 619.99 239.03 620.75 239.75
  Q 631.17 249.62 644.75 250.00
  Q 654.71 250.28 663.25 242.79
  Q 683.70 245.77 703.25 250.63
  Q 704.35 250.90 705.17 251.67
  Q 738.57 282.89 765.00 316.96
  Q 745.24 317.12 740.49 334.66
  Q 740.37 335.10 738.58 341.21
  Q 736.07 349.77 740.56 357.19
  Q 743.70 362.37 749.35 364.85
  Q 754.66 367.18 760.28 367.66
  Q 765.14 368.07 769.69 366.24
  Q 774.12 364.44 777.89 361.81
  Q 785.10 356.77 785.79 347.00
  Q 799.58 368.22 811.31 393.44
  Q 814.16 399.56 815.50 404.39
  Q 826.07 442.30 835.54 480.50
  Q 835.35 481.09 834.83 481.34
  Q 824.44 486.45 821.98 496.90
  Q 820.71 502.27 821.73 507.64
  Q 822.82 513.33 826.31 517.69
  Q 833.37 526.48 845.50 526.00
  Q 846.67 525.95 846.79 525.50
  L 849.50 535.96
  Q 830.24 536.25 819.44 551.69
  Q 816.90 555.31 815.96 556.50
  Q 806.53 550.56 790.94 541.81
  Q 778.38 534.76 762.50 524.04
  Q 766.68 515.25 763.53 505.95
  Q 760.84 498.01 754.74 493.23
  Q 748.53 488.34 741.07 487.70
  Q 730.88 486.83 723.75 495.96
  L 699.21 476.75
  Q 701.42 449.17 702.00 421.50
  Q 702.05 419.12 702.54 413.25
  Q 703.46 413.28 704.17 412.66
  Q 714.65 403.44 713.40 389.24
  Q 712.76 381.95 708.69 377.31
  Q 701.91 369.60 691.69 373.94
  Q 688.23 375.40 685.93 377.68
  Q 685.04 378.56 681.57 382.84
  Q 671.51 395.25 677.56 410.69
  Q 680.71 418.70 689.75 422.04
  L 679.96 442.25
  Q 677.82 435.60 673.75 429.96
  Q 666.57 419.39 657.94 413.06
  Q 647.00 405.05 629.57 394.92
  Q 626.24 392.99 623.50 390.29
  Q 636.22 378.09 633.28 362.11
  Q 631.83 354.30 627.21 348.34
  Q 622.26 341.97 614.81 338.90
  Q 607.35 335.83 599.39 336.83
  Q 590.96 337.89 584.56 343.31
  Q 576.26 350.35 575.46 362.50
  Q 570.85 360.79 566.50 358.53
  Q 558.03 354.12 557.99 354.11
  Q 506.76 329.52 459.44 311.31
  Q 456.62 310.23 456.00 309.79
  Q 461.28 308.31 467.44 305.19
  Q 487.62 294.96 485.25 272.00
  Q 484.57 265.46 480.00 252.71
  Q 525.84 239.39 574.50 238.00
  Q 598.89 237.30 620.75 238.71
  Z
  M 552.19 295.06
  Q 563.34 305.59 577.79 303.18
  Q 586.22 301.78 591.64 297.10
  Q 597.69 291.86 599.53 283.20
  Q 600.09 280.55 600.67 277.89
  Q 601.37 274.69 601.43 272.55
  Q 601.75 260.49 593.30 253.40
  Q 588.31 249.21 581.37 247.90
  Q 574.52 246.61 567.85 248.35
  Q 560.48 250.28 554.65 255.44
  Q 548.72 260.68 545.94 268.19
  Q 540.17 283.72 552.19 295.06
  Z
  M 659.97 319.27
  Q 670.96 327.62 682.49 322.72
  Q 687.49 320.59 691.88 317.66
  Q 696.95 314.26 699.76 308.96
  Q 703.15 302.60 702.51 295.09
  Q 701.88 287.76 697.50 281.25
  Q 690.38 270.67 677.98 268.64
  Q 672.25 267.71 667.56 269.31
  Q 655.76 273.35 651.55 285.52
  Q 647.47 297.31 652.06 308.86
  Q 654.57 315.17 659.97 319.27
  Z
  M 757.42 466.59
  Q 762.42 470.63 768.50 471.00
  Q 781.77 471.80 790.44 461.69
  Q 795.12 456.22 796.21 449.02
  Q 797.22 442.33 796.18 436.99
  Q 794.90 430.44 789.44 426.31
  Q 784.37 422.48 777.59 422.31
  Q 773.81 422.22 769.90 422.35
  Q 765.67 422.50 762.31 424.06
  Q 749.18 430.20 749.15 445.50
  Q 749.15 446.78 750.19 453.56
  Q 751.44 461.75 757.42 466.59
  Z"
/>
<path fill="#f6e3d1" d="
  M 620.75 238.71
  Q 642.09 239.77 663.25 242.79
  Q 654.71 250.28 644.75 250.00
  Q 631.17 249.62 620.75 239.75
  Q 619.99 239.03 620.75 238.71
  Z"
/>
<path fill="#f6e3d1" d="
  M 552.19 295.06
  Q 540.17 283.72 545.94 268.19
  Q 548.72 260.68 554.65 255.44
  Q 560.48 250.28 567.85 248.35
  Q 574.52 246.61 581.37 247.90
  Q 588.31 249.21 593.30 253.40
  Q 601.75 260.49 601.43 272.55
  Q 601.37 274.69 600.67 277.89
  Q 600.09 280.55 599.53 283.20
  Q 597.69 291.86 591.64 297.10
  Q 586.22 301.78 577.79 303.18
  Q 563.34 305.59 552.19 295.06
  Z"
/>
<path fill="#f6e3d1" d="
  M 480.00 252.71
  Q 484.57 265.46 485.25 272.00
  Q 487.62 294.96 467.44 305.19
  Q 461.28 308.31 456.00 309.79
  Q 439.47 301.04 421.46 296.00
  Q 415.95 287.25 414.25 277.04
  Q 446.01 261.88 480.00 252.71
  Z"
/>
<path fill="#f6e3d1" d="
  M 659.97 319.27
  Q 654.57 315.17 652.06 308.86
  Q 647.47 297.31 651.55 285.52
  Q 655.76 273.35 667.56 269.31
  Q 672.25 267.71 677.98 268.64
  Q 690.38 270.67 697.50 281.25
  Q 701.88 287.76 702.51 295.09
  Q 703.15 302.60 699.76 308.96
  Q 696.95 314.26 691.88 317.66
  Q 687.49 320.59 682.49 322.72
  Q 670.96 327.62 659.97 319.27
  Z"
/>
<path fill="#fbb269" d="
  M 414.25 277.04
  Q 415.95 287.25 421.46 296.00
  Q 405.03 292.02 391.75 291.25
  Q 388.48 291.06 387.50 290.71
  Q 400.56 283.25 414.25 277.04
  Z"
/>
<path fill="#7c3511" d="
  M 1031.80 305.07
  Q 1041.92 302.64 1053.14 303.85
  A 1.20 1.20 -70.7 0 0 1054.28 303.30
  Q 1056.55 299.69 1060.75 298.25
  Q 1063.35 297.36 1065.67 298.81
  Q 1067.62 300.04 1068.46 302.40
  Q 1069.53 305.41 1068.40 308.58
  A 0.91 0.91 -65.1 0 0 1068.80 309.68
  Q 1078.94 315.45 1082.92 325.31
  Q 1086.72 334.73 1083.91 344.88
  Q 1080.28 358.00 1066.86 364.79
  Q 1057.13 369.71 1046.75 368.25
  Q 1040.19 367.33 1032.97 364.44
  A 1.04 1.01 40.5 0 0 1032.07 364.50
  Q 1026.53 367.67 1020.75 367.75
  Q 1015.01 367.83 1012.71 363.09
  Q 1011.85 361.32 1012.31 359.69
  Q 1012.92 357.49 1015.06 357.06
  Q 1018.10 356.45 1020.43 354.44
  A 0.84 0.84 56.2 0 0 1020.63 353.42
  Q 1018.30 349.01 1017.50 344.50
  Q 1017.09 342.21 1018.19 339.57
  Q 1019.27 336.97 1021.06 336.06
  Q 1023.67 334.71 1026.20 337.79
  Q 1028.12 340.11 1030.52 342.66
  A 1.20 1.19 41.5 0 0 1032.36 342.55
  Q 1039.32 332.93 1044.74 321.40
  A 0.49 0.49 -78.5 0 0 1044.28 320.70
  Q 1034.87 321.12 1027.76 325.51
  Q 1020.91 329.75 1016.04 336.09
  Q 1016.02 336.11 1014.17 339.05
  Q 1012.07 342.38 1008.41 343.19
  Q 1004.96 343.97 1001.96 342.16
  Q 998.83 340.27 998.16 336.61
  Q 997.70 334.15 999.19 330.63
  Q 1006.71 312.91 1018.69 293.44
  Q 1021.80 288.38 1026.58 286.55
  Q 1029.66 285.36 1032.42 286.57
  Q 1035.82 288.06 1036.43 291.65
  Q 1036.90 294.38 1034.94 298.40
  Q 1033.37 301.63 1031.56 304.76
  Q 1031.32 305.19 1031.80 305.07
  Z
  M 1024.51 310.99
  Q 1027.57 304.02 1031.21 298.74
  Q 1032.49 296.89 1032.98 294.70
  Q 1033.66 291.65 1032.00 290.19
  Q 1030.56 288.91 1028.26 289.35
  Q 1026.18 289.74 1024.65 291.40
  Q 1020.72 295.62 1017.81 300.61
  Q 1008.90 315.85 1001.96 332.06
  Q 1001.03 334.26 1001.14 335.58
  Q 1001.33 337.66 1003.06 338.94
  Q 1007.63 342.30 1010.88 337.44
  Q 1017.51 327.52 1028.06 321.91
  Q 1038.06 316.59 1049.45 317.56
  A 0.51 0.51 14.9 0 1 1049.87 318.28
  Q 1048.05 322.16 1045.95 326.10
  Q 1045.88 326.22 1043.17 331.46
  Q 1038.93 339.62 1032.40 347.37
  A 0.82 0.76 -47.9 0 1 1031.24 347.47
  L 1023.87 340.18
  Q 1021.60 337.94 1021.22 340.96
  Q 1020.34 347.99 1024.77 353.92
  A 0.99 0.98 -40.3 0 1 1024.66 355.21
  Q 1021.28 358.50 1016.61 360.04
  A 1.39 1.39 64.1 0 0 1015.89 362.12
  Q 1017.81 365.03 1021.75 364.49
  Q 1027.13 363.77 1031.36 361.32
  A 2.20 2.18 -49.0 0 1 1033.26 361.18
  Q 1041.40 364.32 1048.51 364.89
  Q 1063.67 366.12 1073.10 356.65
  Q 1079.33 350.39 1081.23 342.14
  Q 1083.29 333.17 1078.97 324.72
  Q 1076.77 320.42 1073.14 316.98
  Q 1069.65 313.67 1065.18 311.23
  A 0.88 0.88 -67.4 0 1 1064.76 310.20
  Q 1065.60 307.50 1065.53 304.67
  Q 1065.48 303.10 1064.57 302.26
  Q 1063.38 301.15 1061.79 301.43
  Q 1060.33 301.68 1058.71 303.31
  Q 1057.31 304.72 1056.23 306.37
  Q 1055.31 307.79 1053.63 307.52
  Q 1038.51 305.08 1024.78 311.23
  Q 1024.31 311.44 1024.51 310.99
  Z"
/>
<path fill="#8b441c" d="
  M 1024.78 311.23
  Q 1038.51 305.08 1053.63 307.52
  Q 1055.31 307.79 1056.23 306.37
  Q 1057.31 304.72 1058.71 303.31
  Q 1060.33 301.68 1061.79 301.43
  Q 1063.38 301.15 1064.57 302.26
  Q 1065.48 303.10 1065.53 304.67
  Q 1065.60 307.50 1064.76 310.20
  A 0.88 0.88 -67.4 0 0 1065.18 311.23
  Q 1069.65 313.67 1073.14 316.98
  Q 1076.77 320.42 1078.97 324.72
  Q 1083.29 333.17 1081.23 342.14
  Q 1079.33 350.39 1073.10 356.65
  Q 1063.67 366.12 1048.51 364.89
  Q 1041.40 364.32 1033.26 361.18
  A 2.20 2.18 -49.0 0 0 1031.36 361.32
  Q 1027.13 363.77 1021.75 364.49
  Q 1017.81 365.03 1015.89 362.12
  A 1.39 1.39 64.1 0 1 1016.61 360.04
  Q 1021.28 358.50 1024.66 355.21
  A 0.99 0.98 -40.3 0 0 1024.77 353.92
  Q 1020.34 347.99 1021.22 340.96
  Q 1021.60 337.94 1023.87 340.18
  L 1031.24 347.47
  A 0.82 0.76 -47.9 0 0 1032.40 347.37
  Q 1038.93 339.62 1043.17 331.46
  Q 1045.88 326.22 1045.95 326.10
  Q 1048.05 322.16 1049.87 318.28
  A 0.51 0.51 14.9 0 0 1049.45 317.56
  Q 1038.06 316.59 1028.06 321.91
  Q 1017.51 327.52 1010.88 337.44
  Q 1007.63 342.30 1003.06 338.94
  Q 1001.33 337.66 1001.14 335.58
  Q 1001.03 334.26 1001.96 332.06
  Q 1008.90 315.85 1017.81 300.61
  Q 1020.72 295.62 1024.65 291.40
  Q 1026.18 289.74 1028.26 289.35
  Q 1030.56 288.91 1032.00 290.19
  Q 1033.66 291.65 1032.98 294.70
  Q 1032.49 296.89 1031.21 298.74
  Q 1027.57 304.02 1024.51 310.99
  Q 1024.31 311.44 1024.78 311.23
  Z
  M 1042.52 353.00
  Q 1052.22 356.30 1060.14 352.66
  Q 1068.19 348.95 1070.56 340.49
  Q 1073.60 329.65 1061.65 321.70
  A 1.34 1.34 28.6 0 0 1059.68 322.28
  Q 1052.77 338.21 1042.33 352.42
  A 0.38 0.38 -63.2 0 0 1042.52 353.00
  Z"
/>
<path fill="#fff7f7" d="
  M 387.50 290.71
  Q 388.48 291.06 391.75 291.25
  Q 405.03 292.02 421.46 296.00
  Q 439.47 301.04 456.00 309.79
  Q 456.62 310.23 459.44 311.31
  Q 506.76 329.52 557.99 354.11
  Q 558.03 354.12 566.50 358.53
  Q 570.85 360.79 575.46 362.50
  Q 588.63 368.46 600.89 376.13
  Q 612.20 383.20 623.50 390.29
  Q 626.24 392.99 629.57 394.92
  Q 647.00 405.05 657.94 413.06
  Q 666.57 419.39 673.75 429.96
  Q 661.12 438.39 646.48 440.25
  Q 637.66 441.36 626.57 439.59
  Q 613.38 437.49 600.89 432.42
  Q 597.04 430.86 588.75 428.50
  Q 556.25 419.24 521.21 406.34
  Q 521.15 406.32 507.34 401.03
  Q 485.22 392.57 462.25 386.75
  Q 459.12 385.96 446.50 384.50
  Q 444.79 384.30 444.25 384.54
  Q 441.06 382.49 436.00 381.00
  Q 408.22 372.81 380.42 364.73
  Q 366.81 360.77 361.47 358.36
  Q 350.59 353.44 341.81 345.69
  Q 333.48 338.33 330.56 327.05
  A 0.40 0.39 69.7 0 0 330.00 326.79
  Q 327.86 327.86 325.50 327.79
  L 330.05 325.71
  A 0.86 0.82 80.9 0 0 330.54 325.00
  Q 331.72 311.93 341.61 303.87
  Q 343.04 302.70 345.31 301.78
  Q 348.14 300.63 349.19 299.94
  Q 353.48 297.09 360.00 295.00
  Q 374.10 290.49 387.50 290.71
  Z"
/>
<path fill="#f6e3d1" d="
  M 765.00 316.96
  Q 776.36 331.31 785.79 347.00
  Q 785.10 356.77 777.89 361.81
  Q 774.12 364.44 769.69 366.24
  Q 765.14 368.07 760.28 367.66
  Q 754.66 367.18 749.35 364.85
  Q 743.70 362.37 740.56 357.19
  Q 736.07 349.77 738.58 341.21
  Q 740.37 335.10 740.49 334.66
  Q 745.24 317.12 765.00 316.96
  Z"
/>
<path fill="#7c3511" d="
  M 1042.52 353.00
  A 0.38 0.38 -63.2 0 1 1042.33 352.42
  Q 1052.77 338.21 1059.68 322.28
  A 1.34 1.34 28.6 0 1 1061.65 321.70
  Q 1073.60 329.65 1070.56 340.49
  Q 1068.19 348.95 1060.14 352.66
  Q 1052.22 356.30 1042.52 353.00
  Z
  M 1048.59 350.94
  Q 1056.60 351.80 1061.84 347.99
  Q 1066.94 344.28 1067.82 338.03
  Q 1068.77 331.18 1062.45 326.08
  A 0.84 0.83 31.4 0 0 1061.16 326.39
  Q 1055.60 338.91 1048.19 350.09
  A 0.55 0.55 -70.4 0 0 1048.59 350.94
  Z"
/>
<path fill="#f4ba7e" d="
  M 444.25 384.54
  Q 485.89 408.12 509.81 420.44
  Q 529.90 430.79 553.73 438.56
  Q 563.10 441.62 569.03 444.10
  Q 574.65 446.45 584.06 450.44
  Q 600.68 457.47 625.65 465.48
  Q 625.75 465.51 637.16 469.31
  Q 646.35 472.37 655.79 474.57
  Q 659.48 475.43 663.25 475.78
  Q 670.59 476.48 676.46 472.25
  L 680.54 482.25
  Q 678.76 485.01 675.44 485.45
  Q 671.09 486.04 666.69 486.00
  Q 647.74 485.85 630.17 478.86
  Q 618.73 474.30 607.52 469.20
  Q 589.07 460.78 570.55 452.49
  Q 570.39 452.42 556.24 446.33
  Q 549.08 443.24 542.10 439.78
  Q 527.36 432.47 527.30 432.44
  Q 487.20 413.22 447.37 393.45
  Q 444.15 391.85 435.81 389.19
  Q 425.20 385.80 375.75 369.25
  Q 359.42 363.79 345.62 358.00
  Q 339.96 355.62 336.67 352.73
  Q 326.18 343.52 324.75 329.25
  Q 324.67 328.45 324.25 328.46
  L 325.50 327.79
  Q 327.86 327.86 330.00 326.79
  A 0.40 0.39 69.7 0 1 330.56 327.05
  Q 333.48 338.33 341.81 345.69
  Q 350.59 353.44 361.47 358.36
  Q 366.81 360.77 380.42 364.73
  Q 408.22 372.81 436.00 381.00
  Q 441.06 382.49 444.25 384.54
  Z"
/>
<path fill="#fff7ef" d="
  M 324.25 328.46
  Q 324.67 328.45 324.75 329.25
  Q 326.18 343.52 336.67 352.73
  Q 339.96 355.62 345.62 358.00
  Q 359.42 363.79 375.75 369.25
  Q 425.20 385.80 435.81 389.19
  Q 444.15 391.85 447.37 393.45
  Q 487.20 413.22 527.30 432.44
  Q 527.36 432.47 542.10 439.78
  Q 549.08 443.24 556.24 446.33
  Q 570.39 452.42 570.55 452.49
  Q 589.07 460.78 607.52 469.20
  Q 618.73 474.30 630.17 478.86
  Q 647.74 485.85 666.69 486.00
  Q 671.09 486.04 675.44 485.45
  Q 678.76 485.01 680.54 482.25
  Q 686.73 497.82 688.48 514.50
  Q 690.62 534.97 689.29 555.50
  Q 687.81 578.34 681.32 600.19
  Q 679.82 605.27 678.63 610.43
  Q 677.45 615.60 676.00 620.71
  Q 665.92 643.85 678.31 666.69
  Q 686.11 681.05 698.66 689.06
  Q 701.73 691.02 712.89 696.97
  Q 720.08 700.80 727.69 703.81
  Q 729.87 704.67 735.00 709.04
  Q 735.15 709.78 734.31 710.81
  Q 699.41 753.93 674.87 805.86
  Q 669.87 816.44 666.54 824.03
  Q 659.30 840.55 653.85 857.78
  Q 649.71 870.86 648.50 878.75
  Q 647.56 884.90 649.00 893.71
  Q 452.99 862.56 257.00 831.25
  Q 247.51 829.73 241.23 829.03
  Q 229.38 827.70 229.30 827.69
  Q 217.89 826.24 208.25 825.75
  Q 207.68 825.72 207.71 825.25
  Q 213.18 798.61 226.50 775.20
  Q 230.44 768.28 235.83 759.65
  Q 240.63 751.96 246.07 744.70
  Q 253.09 735.31 255.45 731.91
  Q 259.98 725.39 264.53 718.88
  Q 267.51 714.61 268.18 711.43
  Q 269.26 706.32 267.50 701.75
  Q 265.48 696.51 260.61 691.43
  Q 256.20 686.83 256.16 686.79
  Q 210.80 635.49 200.24 567.25
  Q 198.16 553.82 197.24 540.25
  Q 196.67 531.75 196.94 523.24
  Q 197.11 517.94 198.25 510.84
  Q 199.24 504.67 200.21 498.49
  Q 201.75 488.61 204.48 478.99
  Q 209.44 461.49 215.28 444.26
  Q 219.07 433.11 222.64 425.67
  Q 230.93 408.40 242.78 393.36
  Q 248.02 386.71 255.49 377.94
  Q 266.50 365.01 277.31 356.56
  Q 296.60 341.49 324.25 328.46
  Z
  M 328.44 483.56
  Q 329.43 483.60 331.99 484.27
  Q 334.07 484.81 335.56 484.60
  Q 343.00 483.51 341.94 475.31
  Q 341.60 472.69 339.68 471.02
  Q 338.28 469.79 335.46 469.38
  Q 328.64 468.40 322.50 469.00
  Q 307.06 470.52 289.67 473.56
  Q 275.29 476.07 273.84 476.45
  Q 265.94 478.55 259.03 483.13
  Q 257.13 484.38 255.85 485.80
  Q 254.06 487.78 253.56 489.31
  Q 252.02 494.11 255.50 495.19
  Q 257.22 495.72 260.44 494.75
  Q 287.29 486.65 316.25 484.00
  Q 323.22 483.36 328.44 483.56
  Z
  M 447.01 485.88
  Q 448.27 487.04 449.96 487.33
  Q 454.92 488.17 460.14 488.75
  Q 466.02 489.40 470.24 490.46
  Q 489.38 495.25 502.19 500.81
  Q 508.91 503.74 518.89 510.63
  Q 523.04 513.50 525.13 514.02
  Q 529.79 515.18 532.47 511.30
  Q 534.48 508.40 533.88 505.23
  Q 533.22 501.76 529.82 499.68
  Q 526.87 497.88 523.91 496.10
  Q 520.76 494.20 517.80 492.84
  Q 495.23 482.48 470.88 477.73
  Q 462.80 476.15 460.09 475.97
  Q 454.20 475.59 449.08 477.37
  A 3.77 3.76 4.2 0 0 446.99 479.17
  Q 444.61 483.67 447.01 485.88
  Z
  M 381.07 545.93
  Q 384.31 547.45 386.75 547.75
  Q 403.31 549.75 426.25 549.31
  Q 430.15 549.23 430.81 552.94
  Q 431.08 554.41 432.51 558.35
  Q 433.76 561.79 434.94 563.43
  Q 438.82 568.85 446.00 568.50
  Q 451.30 568.24 454.41 564.64
  Q 456.61 562.11 457.58 556.66
  Q 459.11 548.11 458.25 540.75
  Q 456.72 527.66 447.11 521.30
  Q 440.86 517.17 428.12 515.73
  Q 418.19 514.62 406.25 514.75
  Q 393.94 514.89 384.20 519.48
  Q 380.40 521.27 378.14 523.57
  Q 375.42 526.31 374.06 529.81
  Q 371.09 537.45 376.17 542.64
  Q 377.94 544.46 381.07 545.93
  Z"
/>
<path fill="#f6e3d1" d="
  M 623.50 390.29
  Q 612.20 383.20 600.89 376.13
  Q 588.63 368.46 575.46 362.50
  Q 576.26 350.35 584.56 343.31
  Q 590.96 337.89 599.39 336.83
  Q 607.35 335.83 614.81 338.90
  Q 622.26 341.97 627.21 348.34
  Q 631.83 354.30 633.28 362.11
  Q 636.22 378.09 623.50 390.29
  Z"
/>
<path fill="#7c3511" d="
  M 1108.01 372.67
  Q 1106.56 370.70 1106.18 368.18
  Q 1105.89 366.22 1106.62 363.51
  Q 1108.69 355.81 1113.06 350.31
  Q 1117.62 344.58 1124.25 344.50
  Q 1127.48 344.46 1130.08 346.47
  Q 1132.51 348.35 1133.26 351.33
  Q 1134.65 356.87 1129.31 361.06
  Q 1126.35 363.39 1125.36 367.18
  Q 1124.31 371.22 1123.88 372.01
  Q 1120.39 378.35 1113.59 376.35
  Q 1109.93 375.27 1108.01 372.67
  Z
  M 1127.12 358.74
  Q 1129.23 357.03 1129.94 354.69
  Q 1131.14 350.69 1127.94 349.06
  Q 1121.52 345.79 1116.52 351.51
  Q 1111.41 357.35 1109.73 364.94
  Q 1108.70 369.60 1111.69 372.06
  Q 1115.26 375.00 1118.79 372.77
  Q 1120.26 371.84 1121.11 369.42
  Q 1122.56 365.30 1124.63 361.48
  Q 1125.31 360.22 1127.12 358.74
  Z"
/>
<path fill="#8b441c" d="
  M 1124.63 361.48
  Q 1122.56 365.30 1121.11 369.42
  Q 1120.26 371.84 1118.79 372.77
  Q 1115.26 375.00 1111.69 372.06
  Q 1108.70 369.60 1109.73 364.94
  Q 1111.41 357.35 1116.52 351.51
  Q 1121.52 345.79 1127.94 349.06
  Q 1131.14 350.69 1129.94 354.69
  Q 1129.23 357.03 1127.12 358.74
  Q 1125.31 360.22 1124.63 361.48
  Z"
/>
<path fill="#7c3511" d="
  M 1138.61 363.49
  Q 1141.38 361.20 1144.89 360.31
  Q 1148.21 359.47 1150.91 360.59
  Q 1154.33 362.02 1155.21 365.55
  Q 1155.92 368.44 1154.43 371.80
  Q 1153.12 374.72 1150.88 377.27
  A 3.51 3.46 67.4 0 0 1150.02 379.40
  Q 1149.84 383.07 1147.14 384.93
  Q 1142.54 388.08 1137.52 385.45
  Q 1131.39 382.23 1131.50 376.00
  Q 1131.57 372.12 1133.99 368.59
  Q 1136.01 365.65 1138.61 363.49
  Z
  M 1137.69 381.81
  Q 1141.94 385.00 1145.88 381.59
  A 1.51 1.34 76.8 0 0 1146.33 380.76
  Q 1147.22 375.88 1149.56 373.31
  Q 1152.19 370.44 1152.25 367.50
  Q 1152.31 364.54 1149.49 363.77
  Q 1146.19 362.88 1143.48 364.26
  Q 1141.51 365.26 1138.95 367.73
  Q 1136.50 370.09 1135.39 373.34
  Q 1134.56 375.79 1135.05 377.83
  Q 1135.64 380.27 1137.69 381.81
  Z"
/>
<path fill="#8b441c" d="
  M 1137.69 381.81
  Q 1135.64 380.27 1135.05 377.83
  Q 1134.56 375.79 1135.39 373.34
  Q 1136.50 370.09 1138.95 367.73
  Q 1141.51 365.26 1143.48 364.26
  Q 1146.19 362.88 1149.49 363.77
  Q 1152.31 364.54 1152.25 367.50
  Q 1152.19 370.44 1149.56 373.31
  Q 1147.22 375.88 1146.33 380.76
  A 1.51 1.34 76.8 0 1 1145.88 381.59
  Q 1141.94 385.00 1137.69 381.81
  Z"
/>
<path fill="#f6e3d1" d="
  M 702.54 413.25
  L 703.51 396.01
  Q 703.64 393.78 702.72 395.82
  Q 696.92 408.81 689.75 422.04
  Q 680.71 418.70 677.56 410.69
  Q 671.51 395.25 681.57 382.84
  Q 685.04 378.56 685.93 377.68
  Q 688.23 375.40 691.69 373.94
  Q 701.91 369.60 708.69 377.31
  Q 712.76 381.95 713.40 389.24
  Q 714.65 403.44 704.17 412.66
  Q 703.46 413.28 702.54 413.25
  Z"
/>
<path fill="#7c3511" d="
  M 1115.82 419.94
  Q 1110.07 414.82 1109.25 408.00
  Q 1108.94 405.42 1110.40 403.09
  Q 1111.82 400.82 1113.92 400.48
  Q 1116.36 400.07 1118.56 402.44
  Q 1122.06 406.20 1127.15 407.78
  Q 1130.78 408.90 1136.88 409.50
  Q 1154.05 411.19 1164.58 398.11
  Q 1166.09 396.23 1170.02 389.62
  Q 1173.85 383.17 1175.81 381.31
  Q 1179.71 377.61 1183.24 379.65
  Q 1185.74 381.09 1186.75 384.94
  Q 1188.67 392.26 1185.30 399.52
  Q 1172.47 427.18 1141.49 428.83
  Q 1126.73 429.62 1115.82 419.94
  Z
  M 1121.40 420.13
  Q 1127.93 425.05 1136.50 425.45
  Q 1165.13 426.77 1179.99 402.97
  Q 1185.57 394.05 1183.25 384.25
  Q 1182.84 382.51 1181.30 382.29
  Q 1180.23 382.13 1179.11 383.11
  Q 1176.30 385.57 1174.56 388.56
  Q 1170.50 395.55 1166.25 400.78
  Q 1159.67 408.88 1150.18 411.68
  Q 1143.53 413.64 1135.69 412.76
  Q 1128.33 411.95 1121.46 408.77
  Q 1118.89 407.58 1117.04 405.46
  Q 1113.75 401.71 1112.95 405.71
  Q 1112.66 407.15 1112.94 408.79
  Q 1113.61 412.61 1116.05 415.42
  Q 1117.75 417.39 1121.40 420.13
  Z"
/>
<path fill="#8b441c" d="
  M 1116.05 415.42
  Q 1113.61 412.61 1112.94 408.79
  Q 1112.66 407.15 1112.95 405.71
  Q 1113.75 401.71 1117.04 405.46
  Q 1118.89 407.58 1121.46 408.77
  Q 1128.33 411.95 1135.69 412.76
  Q 1143.53 413.64 1150.18 411.68
  Q 1159.67 408.88 1166.25 400.78
  Q 1170.50 395.55 1174.56 388.56
  Q 1176.30 385.57 1179.11 383.11
  Q 1180.23 382.13 1181.30 382.29
  Q 1182.84 382.51 1183.25 384.25
  Q 1185.57 394.05 1179.99 402.97
  Q 1165.13 426.77 1136.50 425.45
  Q 1127.93 425.05 1121.40 420.13
  Q 1117.75 417.39 1116.05 415.42
  Z"
/>
<path fill="#d9e5ff" d="
  M 673.75 429.96
  Q 677.82 435.60 679.96 442.25
  Q 680.62 447.39 681.75 450.75
  Q 683.91 457.19 681.29 463.00
  Q 680.55 468.53 676.46 472.25
  Q 670.59 476.48 663.25 475.78
  Q 659.48 475.43 655.79 474.57
  Q 646.35 472.37 637.16 469.31
  Q 625.75 465.51 625.65 465.48
  Q 600.68 457.47 584.06 450.44
  Q 574.65 446.45 569.03 444.10
  Q 563.10 441.62 553.73 438.56
  Q 529.90 430.79 509.81 420.44
  Q 485.89 408.12 444.25 384.54
  Q 444.79 384.30 446.50 384.50
  Q 459.12 385.96 462.25 386.75
  Q 485.22 392.57 507.34 401.03
  Q 521.15 406.32 521.21 406.34
  Q 556.25 419.24 588.75 428.50
  Q 597.04 430.86 600.89 432.42
  Q 613.38 437.49 626.57 439.59
  Q 637.66 441.36 646.48 440.25
  Q 661.12 438.39 673.75 429.96
  Z"
/>
<path fill="#b77939" d="
  M 702.54 413.25
  Q 702.05 419.12 702.00 421.50
  Q 701.42 449.17 699.21 476.75
  Q 690.73 470.15 682.44 463.31
  Q 682.04 462.99 681.29 463.00
  Q 683.91 457.19 681.75 450.75
  Q 680.62 447.39 679.96 442.25
  L 689.75 422.04
  Q 696.92 408.81 702.72 395.82
  Q 703.64 393.78 703.51 396.01
  L 702.54 413.25
  Z"
/>
<path fill="#7c3511" d="
  M 1206.19 431.56
  Q 1202.09 428.39 1201.69 423.57
  Q 1201.36 419.65 1203.50 415.19
  Q 1206.15 409.69 1211.38 406.63
  Q 1215.94 403.98 1220.01 405.05
  Q 1225.60 406.52 1225.50 414.00
  Q 1225.48 415.65 1223.00 419.27
  Q 1220.20 423.37 1218.76 428.09
  Q 1217.99 430.60 1216.67 431.75
  Q 1211.84 435.95 1206.19 431.56
  Z
  M 1208.69 429.31
  Q 1211.58 431.28 1213.84 429.80
  Q 1215.12 428.95 1216.07 426.00
  Q 1217.69 421.02 1220.69 416.69
  Q 1221.96 414.86 1222.08 412.80
  Q 1222.20 410.69 1220.72 409.24
  Q 1218.32 406.90 1214.75 408.50
  Q 1207.52 411.75 1205.47 420.05
  Q 1203.98 426.11 1208.69 429.31
  Z"
/>
<path fill="#8b441c" d="
  M 1208.69 429.31
  Q 1203.98 426.11 1205.47 420.05
  Q 1207.52 411.75 1214.75 408.50
  Q 1218.32 406.90 1220.72 409.24
  Q 1222.20 410.69 1222.08 412.80
  Q 1221.96 414.86 1220.69 416.69
  Q 1217.69 421.02 1216.07 426.00
  Q 1215.12 428.95 1213.84 429.80
  Q 1211.58 431.28 1208.69 429.31
  Z"
/>
<path fill="#7c3511" d="
  M 1227.48 442.14
  Q 1224.17 437.76 1226.56 432.06
  Q 1229.09 426.03 1235.56 421.07
  Q 1243.40 415.06 1248.94 422.56
  Q 1251.32 425.80 1249.64 430.42
  Q 1248.15 434.50 1245.18 437.70
  Q 1244.08 438.88 1243.78 440.45
  Q 1243.38 442.61 1241.62 444.11
  Q 1237.79 447.40 1233.64 446.38
  Q 1230.00 445.48 1227.48 442.14
  Z
  M 1234.15 443.04
  Q 1236.90 443.77 1239.21 441.80
  Q 1240.14 441.01 1240.62 439.30
  Q 1241.23 437.18 1241.81 436.56
  Q 1245.13 433.06 1246.50 429.50
  Q 1247.78 426.17 1245.78 423.93
  Q 1244.11 422.05 1241.77 422.05
  Q 1239.46 422.06 1237.31 424.06
  Q 1232.29 428.74 1230.50 431.72
  Q 1227.64 436.48 1230.31 440.28
  Q 1231.83 442.43 1234.15 443.04
  Z"
/>
<path fill="#8b441c" d="
  M 1230.31 440.28
  Q 1227.64 436.48 1230.50 431.72
  Q 1232.29 428.74 1237.31 424.06
  Q 1239.46 422.06 1241.77 422.05
  Q 1244.11 422.05 1245.78 423.93
  Q 1247.78 426.17 1246.50 429.50
  Q 1245.13 433.06 1241.81 436.56
  Q 1241.23 437.18 1240.62 439.30
  Q 1240.14 441.01 1239.21 441.80
  Q 1236.90 443.77 1234.15 443.04
  Q 1231.83 442.43 1230.31 440.28
  Z"
/>
<path fill="#f6e3d1" d="
  M 757.42 466.59
  Q 751.44 461.75 750.19 453.56
  Q 749.15 446.78 749.15 445.50
  Q 749.18 430.20 762.31 424.06
  Q 765.67 422.50 769.90 422.35
  Q 773.81 422.22 777.59 422.31
  Q 784.37 422.48 789.44 426.31
  Q 794.90 430.44 796.18 436.99
  Q 797.22 442.33 796.21 449.02
  Q 795.12 456.22 790.44 461.69
  Q 781.77 471.80 768.50 471.00
  Q 762.42 470.63 757.42 466.59
  Z"
/>
<path fill="#7c3511" d="
  M 1209.44 475.56
  Q 1206.29 473.04 1205.06 469.69
  Q 1204.05 466.96 1205.03 464.60
  Q 1205.94 462.43 1208.41 461.39
  Q 1210.94 460.33 1213.75 460.75
  Q 1221.10 461.85 1228.07 462.05
  Q 1236.66 462.28 1242.29 460.66
  Q 1253.85 457.33 1261.22 446.98
  Q 1265.14 441.49 1270.50 439.75
  Q 1275.41 438.16 1277.94 442.31
  Q 1279.63 445.10 1279.07 448.76
  Q 1278.30 453.70 1275.66 457.94
  Q 1266.40 472.79 1248.56 478.56
  Q 1234.64 483.07 1220.19 480.56
  Q 1214.41 479.55 1209.44 475.56
  Z
  M 1212.69 474.06
  Q 1216.76 476.76 1220.24 477.31
  Q 1231.86 479.14 1243.34 476.69
  Q 1263.89 472.30 1273.88 454.43
  Q 1275.00 452.42 1275.40 450.25
  Q 1275.93 447.38 1275.75 445.75
  Q 1275.31 441.84 1271.81 442.81
  Q 1267.47 444.02 1264.14 448.60
  Q 1262.45 450.92 1262.41 450.97
  Q 1254.18 461.17 1241.24 464.20
  Q 1230.56 466.70 1219.71 464.98
  Q 1215.76 464.35 1211.75 464.21
  Q 1207.05 464.04 1208.06 468.19
  Q 1208.88 471.54 1212.69 474.06
  Z"
/>
<path fill="#8b441c" d="
  M 1212.69 474.06
  Q 1208.88 471.54 1208.06 468.19
  Q 1207.05 464.04 1211.75 464.21
  Q 1215.76 464.35 1219.71 464.98
  Q 1230.56 466.70 1241.24 464.20
  Q 1254.18 461.17 1262.41 450.97
  Q 1262.45 450.92 1264.14 448.60
  Q 1267.47 444.02 1271.81 442.81
  Q 1275.31 441.84 1275.75 445.75
  Q 1275.93 447.38 1275.40 450.25
  Q 1275.00 452.42 1273.88 454.43
  Q 1263.89 472.30 1243.34 476.69
  Q 1231.86 479.14 1220.24 477.31
  Q 1216.76 476.76 1212.69 474.06
  Z"
/>
<path fill="#7c3511" d="
  M 1294.97 509.26
  Q 1290.91 506.25 1291.75 501.75
  Q 1292.28 498.92 1294.94 495.44
  Q 1296.74 493.07 1301.69 489.54
  Q 1305.83 486.58 1305.89 486.53
  Q 1328.18 470.21 1352.12 456.41
  Q 1360.61 451.52 1365.06 449.56
  Q 1370.81 447.04 1377.01 446.00
  Q 1379.35 445.61 1381.46 446.70
  Q 1386.41 449.28 1384.44 453.24
  Q 1383.50 455.13 1380.25 457.49
  Q 1372.69 462.97 1361.00 470.25
  Q 1333.02 487.67 1306.56 507.31
  Q 1304.11 509.13 1301.22 510.18
  Q 1297.87 511.41 1294.97 509.26
  Z
  M 1296.58 506.45
  Q 1297.91 507.70 1299.65 507.12
  Q 1303.64 505.78 1307.15 503.01
  Q 1309.70 501.00 1309.79 500.94
  Q 1329.91 486.12 1351.12 472.91
  Q 1365.83 463.74 1379.95 453.68
  Q 1383.98 450.80 1379.18 449.63
  Q 1376.67 449.02 1373.38 449.96
  Q 1371.85 450.40 1368.00 451.91
  Q 1364.02 453.46 1359.81 455.81
  Q 1327.90 473.67 1299.99 495.25
  Q 1297.01 497.55 1295.47 500.95
  Q 1294.06 504.08 1296.58 506.45
  Z"
/>
<path fill="#8b441c" d="
  M 1296.58 506.45
  Q 1294.06 504.08 1295.47 500.95
  Q 1297.01 497.55 1299.99 495.25
  Q 1327.90 473.67 1359.81 455.81
  Q 1364.02 453.46 1368.00 451.91
  Q 1371.85 450.40 1373.38 449.96
  Q 1376.67 449.02 1379.18 449.63
  Q 1383.98 450.80 1379.95 453.68
  Q 1365.83 463.74 1351.12 472.91
  Q 1329.91 486.12 1309.79 500.94
  Q 1309.70 501.00 1307.15 503.01
  Q 1303.64 505.78 1299.65 507.12
  Q 1297.91 507.70 1296.58 506.45
  Z"
/>
<path fill="#7c3511" d="
  M 1296.17 530.67
  Q 1298.78 527.96 1301.98 525.93
  Q 1350.50 495.16 1402.01 469.72
  Q 1409.20 466.17 1419.94 463.19
  Q 1423.62 462.16 1426.77 462.75
  Q 1429.94 463.33 1431.08 465.80
  Q 1432.12 468.04 1430.75 470.29
  Q 1429.94 471.63 1427.67 473.09
  Q 1418.51 478.96 1401.56 488.06
  Q 1368.52 505.82 1328.19 529.94
  Q 1317.07 536.58 1309.14 542.17
  Q 1305.00 545.09 1302.91 545.42
  Q 1300.16 545.85 1297.70 544.39
  Q 1295.54 543.09 1294.28 540.68
  Q 1291.55 535.49 1296.17 530.67
  Z
  M 1300.30 542.04
  Q 1302.34 542.87 1304.31 541.56
  Q 1327.77 526.01 1347.01 514.98
  Q 1361.20 506.84 1361.30 506.78
  Q 1383.03 494.18 1405.24 482.42
  Q 1415.57 476.95 1426.14 470.24
  Q 1427.17 469.59 1427.86 468.59
  Q 1428.97 466.98 1427.56 466.25
  Q 1425.96 465.43 1424.19 465.71
  Q 1416.53 466.94 1410.02 469.79
  Q 1400.40 474.01 1391.07 478.82
  Q 1351.67 499.15 1313.83 522.27
  Q 1306.58 526.70 1299.71 531.70
  Q 1294.75 535.31 1297.52 539.59
  Q 1298.68 541.38 1300.30 542.04
  Z"
/>
<path fill="#7c3511" d="
  M 681.29 463.00
  Q 682.04 462.99 682.44 463.31
  Q 690.73 470.15 699.21 476.75
  L 723.75 495.96
  Q 742.68 510.61 762.50 524.04
  Q 778.38 534.76 790.94 541.81
  Q 806.53 550.56 815.96 556.50
  Q 807.69 572.12 811.58 588.41
  Q 813.40 596.02 817.43 601.87
  Q 821.82 608.23 828.31 612.19
  Q 832.59 614.80 834.21 616.25
  Q 827.61 619.30 822.25 624.21
  L 803.00 638.71
  Q 794.15 634.54 785.69 632.81
  Q 772.08 630.04 756.78 628.35
  Q 739.84 626.48 739.75 626.46
  Q 709.31 622.85 678.75 620.51
  Q 677.36 620.40 676.00 620.71
  Q 677.45 615.60 678.63 610.43
  Q 679.82 605.27 681.32 600.19
  Q 687.81 578.34 689.29 555.50
  Q 690.62 534.97 688.48 514.50
  Q 686.73 497.82 680.54 482.25
  L 676.46 472.25
  Q 680.55 468.53 681.29 463.00
  Z
  M 691.48 609.58
  Q 723.85 612.66 754.33 616.30
  Q 770.92 618.28 774.16 618.78
  Q 787.70 620.91 800.92 625.05
  A 1.24 1.14 -53.5 0 0 802.00 624.84
  L 813.65 615.82
  A 0.42 0.42 48.8 0 0 813.69 615.19
  Q 801.31 602.82 799.03 585.25
  Q 797.45 573.12 801.28 561.53
  A 0.59 0.59 -67.1 0 0 801.00 560.83
  Q 774.02 546.35 754.06 532.44
  Q 724.16 511.60 695.78 488.77
  Q 694.84 488.02 695.16 489.18
  Q 701.46 511.94 701.73 535.25
  Q 702.18 573.15 690.92 608.72
  A 0.66 0.66 -78.3 0 0 691.48 609.58
  Z"
/>
<path fill="#8b441c" d="
  M 1297.52 539.59
  Q 1294.75 535.31 1299.71 531.70
  Q 1306.58 526.70 1313.83 522.27
  Q 1351.67 499.15 1391.07 478.82
  Q 1400.40 474.01 1410.02 469.79
  Q 1416.53 466.94 1424.19 465.71
  Q 1425.96 465.43 1427.56 466.25
  Q 1428.97 466.98 1427.86 468.59
  Q 1427.17 469.59 1426.14 470.24
  Q 1415.57 476.95 1405.24 482.42
  Q 1383.03 494.18 1361.30 506.78
  Q 1361.20 506.84 1347.01 514.98
  Q 1327.77 526.01 1304.31 541.56
  Q 1302.34 542.87 1300.30 542.04
  Q 1298.68 541.38 1297.52 539.59
  Z"
/>
<path fill="#b27b40" d="
  M 328.44 483.56
  Q 323.22 483.36 316.25 484.00
  Q 287.29 486.65 260.44 494.75
  Q 257.22 495.72 255.50 495.19
  Q 252.02 494.11 253.56 489.31
  Q 254.06 487.78 255.85 485.80
  Q 257.13 484.38 259.03 483.13
  Q 265.94 478.55 273.84 476.45
  Q 275.29 476.07 289.67 473.56
  Q 307.06 470.52 322.50 469.00
  Q 328.64 468.40 335.46 469.38
  Q 338.28 469.79 339.68 471.02
  Q 341.60 472.69 341.94 475.31
  Q 343.00 483.51 335.56 484.60
  Q 334.07 484.81 331.99 484.27
  Q 329.43 483.60 328.44 483.56
  Z"
/>
<path fill="#b27b40" d="
  M 447.01 485.88
  Q 444.61 483.67 446.99 479.17
  A 3.77 3.76 4.2 0 1 449.08 477.37
  Q 454.20 475.59 460.09 475.97
  Q 462.80 476.15 470.88 477.73
  Q 495.23 482.48 517.80 492.84
  Q 520.76 494.20 523.91 496.10
  Q 526.87 497.88 529.82 499.68
  Q 533.22 501.76 533.88 505.23
  Q 534.48 508.40 532.47 511.30
  Q 529.79 515.18 525.13 514.02
  Q 523.04 513.50 518.89 510.63
  Q 508.91 503.74 502.19 500.81
  Q 489.38 495.25 470.24 490.46
  Q 466.02 489.40 460.14 488.75
  Q 454.92 488.17 449.96 487.33
  Q 448.27 487.04 447.01 485.88
  Z"
/>
<path fill="#f6e3d1" d="
  M 835.54 480.50
  Q 837.54 488.08 839.79 495.59
  Q 842.33 504.04 843.69 510.44
  Q 845.30 517.96 846.79 525.50
  Q 846.67 525.95 845.50 526.00
  Q 833.37 526.48 826.31 517.69
  Q 822.82 513.33 821.73 507.64
  Q 820.71 502.27 821.98 496.90
  Q 824.44 486.45 834.83 481.34
  Q 835.35 481.09 835.54 480.50
  Z"
/>
<path fill="#f6e3d1" d="
  M 762.50 524.04
  Q 742.68 510.61 723.75 495.96
  Q 730.88 486.83 741.07 487.70
  Q 748.53 488.34 754.74 493.23
  Q 760.84 498.01 763.53 505.95
  Q 766.68 515.25 762.50 524.04
  Z"
/>
<path fill="#b27b40" d="
  M 376.17 542.64
  Q 371.09 537.45 374.06 529.81
  Q 375.42 526.31 378.14 523.57
  Q 380.40 521.27 384.20 519.48
  Q 393.94 514.89 406.25 514.75
  Q 418.19 514.62 428.12 515.73
  Q 440.86 517.17 447.11 521.30
  Q 456.72 527.66 458.25 540.75
  Q 459.11 548.11 457.58 556.66
  Q 456.61 562.11 454.41 564.64
  Q 451.30 568.24 446.00 568.50
  Q 438.82 568.85 434.94 563.43
  Q 433.76 561.79 432.51 558.35
  Q 431.08 554.41 430.81 552.94
  Q 430.15 549.23 426.25 549.31
  Q 403.31 549.75 386.75 547.75
  Q 384.31 547.45 381.07 545.93
  Q 377.94 544.46 376.17 542.64
  Z
  M 382.21 539.92
  Q 385.51 541.98 389.12 542.66
  Q 389.60 542.75 396.40 543.33
  Q 414.04 544.83 431.77 544.50
  Q 435.04 544.44 435.34 547.69
  Q 435.55 550.03 436.14 553.27
  Q 437.41 560.26 443.50 561.36
  Q 446.72 561.95 449.51 560.66
  Q 452.86 559.11 453.63 555.60
  Q 454.00 553.94 453.96 547.38
  Q 453.88 535.22 445.41 526.09
  Q 442.25 522.68 437.74 521.55
  Q 426.43 518.72 414.75 519.04
  Q 400.83 519.43 398.25 519.75
  Q 393.64 520.32 389.21 521.75
  Q 384.30 523.33 381.69 526.69
  Q 378.33 531.01 379.48 536.08
  Q 380.05 538.57 382.21 539.92
  Z"
/>
<path fill="#ff8383" d="
  M 382.21 539.92
  Q 380.05 538.57 379.48 536.08
  Q 378.33 531.01 381.69 526.69
  Q 384.30 523.33 389.21 521.75
  Q 393.64 520.32 398.25 519.75
  Q 400.83 519.43 414.75 519.04
  Q 426.43 518.72 437.74 521.55
  Q 442.25 522.68 445.41 526.09
  Q 453.88 535.22 453.96 547.38
  Q 454.00 553.94 453.63 555.60
  Q 452.86 559.11 449.51 560.66
  Q 446.72 561.95 443.50 561.36
  Q 437.41 560.26 436.14 553.27
  Q 435.55 550.03 435.34 547.69
  Q 435.04 544.44 431.77 544.50
  Q 414.04 544.83 396.40 543.33
  Q 389.60 542.75 389.12 542.66
  Q 385.51 541.98 382.21 539.92
  Z"
/>
<path fill="#fff7f7" d="
  M 849.50 535.96
  Q 865.07 536.66 875.06 547.94
  Q 877.30 550.46 879.72 553.99
  Q 882.67 558.30 883.96 560.33
  Q 889.66 569.24 891.00 578.50
  Q 892.85 591.22 885.50 603.21
  Q 884.15 603.89 883.39 605.10
  Q 882.00 607.31 881.97 607.34
  Q 877.73 612.31 872.17 615.43
  Q 865.97 618.91 861.14 620.28
  Q 855.44 621.91 848.50 621.00
  Q 839.66 619.84 834.21 616.25
  Q 832.59 614.80 828.31 612.19
  Q 821.82 608.23 817.43 601.87
  Q 813.40 596.02 811.58 588.41
  Q 807.69 572.12 815.96 556.50
  Q 816.90 555.31 819.44 551.69
  Q 830.24 536.25 849.50 535.96
  Z"
/>
<path fill="#fff7ef" d="
  M 1122.04 722.25
  Q 1121.72 722.74 1120.06 723.81
  Q 1096.99 738.78 1071.00 759.71
  Q 1071.25 758.61 1071.97 757.82
  Q 1073.19 756.48 1073.25 756.39
  Q 1083.71 741.14 1075.58 724.08
  Q 1072.98 718.63 1069.69 715.06
  Q 1062.96 707.79 1053.41 702.16
  Q 1023.41 684.48 988.83 681.29
  Q 985.07 680.94 981.65 681.07
  Q 978.50 681.19 974.50 681.50
  Q 965.80 682.18 958.85 686.36
  Q 951.55 690.75 947.80 697.72
  Q 944.96 703.02 944.59 709.18
  Q 944.27 714.66 946.20 720.14
  Q 948.18 725.75 951.81 729.94
  Q 959.37 738.64 971.00 744.80
  Q 978.87 748.97 987.31 751.84
  Q 989.99 752.75 993.56 755.19
  Q 998.83 758.78 1005.41 761.39
  Q 1010.82 763.53 1017.98 765.73
  Q 1032.71 770.24 1047.25 769.50
  Q 1054.82 769.12 1062.93 765.19
  Q 1063.01 765.15 1063.84 764.54
  Q 1064.49 764.06 1065.29 764.50
  L 1050.00 777.29
  Q 1038.16 773.10 1026.06 769.69
  Q 1012.93 765.99 1000.08 761.38
  Q 977.85 753.41 955.49 745.75
  Q 954.18 745.30 953.07 744.47
  Q 934.85 730.96 916.89 716.88
  Q 883.04 690.35 851.73 660.88
  Q 847.49 656.89 844.21 652.30
  Q 834.87 639.23 826.44 625.56
  Q 825.30 623.72 822.25 624.21
  Q 827.61 619.30 834.21 616.25
  Q 839.66 619.84 848.50 621.00
  Q 855.44 621.91 861.14 620.28
  Q 865.97 618.91 872.17 615.43
  Q 877.73 612.31 881.97 607.34
  Q 882.00 607.31 883.39 605.10
  Q 884.15 603.89 885.50 603.21
  Q 898.64 600.57 914.25 601.25
  Q 925.39 601.74 934.32 602.59
  Q 943.50 603.47 954.06 605.69
  Q 982.50 611.66 1009.82 621.55
  Q 1020.60 625.44 1028.14 629.52
  Q 1047.21 639.83 1063.31 655.69
  Q 1092.21 684.15 1118.75 717.50
  Q 1121.00 720.32 1122.04 722.25
  Z"
/>
<path fill="#db966f" d="
  M 803.00 638.71
  Q 770.59 667.14 743.50 699.25
  Q 738.01 705.76 735.00 709.04
  Q 729.87 704.67 727.69 703.81
  Q 720.08 700.80 712.89 696.97
  Q 701.73 691.02 698.66 689.06
  Q 686.11 681.05 678.31 666.69
  Q 665.92 643.85 676.00 620.71
  Q 677.36 620.40 678.75 620.51
  Q 709.31 622.85 739.75 626.46
  Q 739.84 626.48 756.78 628.35
  Q 772.08 630.04 785.69 632.81
  Q 794.15 634.54 803.00 638.71
  Z"
/>
<path fill="#fa9d4b" d="
  M 822.25 624.21
  Q 825.30 623.72 826.44 625.56
  Q 834.87 639.23 844.21 652.30
  Q 847.49 656.89 851.73 660.88
  Q 883.04 690.35 916.89 716.88
  Q 934.85 730.96 953.07 744.47
  Q 954.18 745.30 955.49 745.75
  Q 977.85 753.41 1000.08 761.38
  Q 1012.93 765.99 1026.06 769.69
  Q 1038.16 773.10 1050.00 777.29
  Q 997.18 823.63 957.81 867.81
  Q 933.78 894.79 910.11 922.09
  Q 901.90 931.56 889.31 948.31
  Q 880.48 960.08 875.46 972.00
  Q 869.66 965.58 863.36 959.64
  Q 854.12 950.91 842.71 945.26
  Q 830.14 939.03 820.19 935.56
  Q 796.75 927.38 765.19 918.31
  Q 743.02 911.94 723.35 908.22
  Q 713.25 906.31 703.80 904.10
  Q 691.97 901.33 679.99 899.30
  Q 664.47 896.66 649.00 893.71
  Q 647.56 884.90 648.50 878.75
  Q 649.71 870.86 653.85 857.78
  Q 659.30 840.55 666.54 824.03
  Q 669.87 816.44 674.87 805.86
  Q 699.41 753.93 734.31 710.81
  Q 735.15 709.78 735.00 709.04
  Q 738.01 705.76 743.50 699.25
  Q 770.59 667.14 803.00 638.71
  L 822.25 624.21
  Z"
/>
<path fill="#d1ebff" d="
  M 1071.00 759.71
  L 1065.29 764.50
  Q 1064.49 764.06 1063.84 764.54
  Q 1063.01 765.15 1062.93 765.19
  Q 1054.82 769.12 1047.25 769.50
  Q 1032.71 770.24 1017.98 765.73
  Q 1010.82 763.53 1005.41 761.39
  Q 998.83 758.78 993.56 755.19
  Q 989.99 752.75 987.31 751.84
  Q 978.87 748.97 971.00 744.80
  Q 959.37 738.64 951.81 729.94
  Q 948.18 725.75 946.20 720.14
  Q 944.27 714.66 944.59 709.18
  Q 944.96 703.02 947.80 697.72
  Q 951.55 690.75 958.85 686.36
  Q 965.80 682.18 974.50 681.50
  Q 978.50 681.19 981.65 681.07
  Q 985.07 680.94 988.83 681.29
  Q 1023.41 684.48 1053.41 702.16
  Q 1062.96 707.79 1069.69 715.06
  Q 1072.98 718.63 1075.58 724.08
  Q 1083.71 741.14 1073.25 756.39
  Q 1073.19 756.48 1071.97 757.82
  Q 1071.25 758.61 1071.00 759.71
  Z"
/>
<path fill="#f19e6f" d="
  M 1267.96 937.75
  Q 1266.55 938.25 1264.81 940.06
  Q 1222.71 984.13 1173.01 1024.20
  Q 1165.20 1030.49 1157.16 1036.39
  Q 1142.99 1046.80 1128.45 1056.71
  Q 1113.88 1066.66 1098.39 1075.09
  Q 1092.87 1078.10 1086.77 1079.56
  Q 1080.88 1080.98 1075.31 1079.69
  Q 1057.77 1075.61 1039.85 1068.79
  Q 983.08 1047.21 929.92 1017.85
  Q 905.41 1004.31 886.06 988.19
  Q 885.28 987.53 884.71 988.00
  Q 884.20 986.29 882.84 985.15
  Q 876.69 979.98 875.46 972.00
  Q 880.48 960.08 889.31 948.31
  Q 901.90 931.56 910.11 922.09
  Q 933.78 894.79 957.81 867.81
  Q 997.18 823.63 1050.00 777.29
  L 1065.29 764.50
  L 1071.00 759.71
  Q 1096.99 738.78 1120.06 723.81
  Q 1121.72 722.74 1122.04 722.25
  Q 1123.05 722.06 1124.75 721.00
  Q 1137.26 713.22 1150.52 706.78
  Q 1157.26 703.51 1162.50 702.00
  Q 1166.36 700.89 1170.86 701.98
  Q 1180.92 704.43 1190.62 708.05
  Q 1212.07 716.06 1235.06 727.94
  Q 1258.30 739.94 1276.15 750.55
  Q 1305.49 767.98 1329.56 788.19
  Q 1333.63 791.60 1337.94 797.53
  Q 1344.77 806.91 1344.50 817.50
  Q 1344.26 826.95 1340.44 836.19
  Q 1337.80 842.57 1335.28 847.05
  Q 1331.94 853.00 1328.73 859.03
  Q 1325.26 865.56 1321.65 870.67
  Q 1296.66 906.16 1269.19 935.69
  Q 1268.07 936.89 1267.96 937.75
  Z"
/>
<path fill="#f2ba9a" d="
  M 207.71 825.25
  Q 207.68 825.72 208.25 825.75
  Q 217.89 826.24 229.30 827.69
  Q 229.38 827.70 241.23 829.03
  Q 247.51 829.73 257.00 831.25
  Q 452.99 862.56 649.00 893.71
  Q 664.47 896.66 679.99 899.30
  Q 691.97 901.33 703.80 904.10
  Q 713.25 906.31 723.35 908.22
  Q 743.02 911.94 765.19 918.31
  Q 796.75 927.38 820.19 935.56
  Q 830.14 939.03 842.71 945.26
  Q 854.12 950.91 863.36 959.64
  Q 869.66 965.58 875.46 972.00
  Q 876.69 979.98 882.84 985.15
  Q 884.20 986.29 884.71 988.00
  Q 887.68 1001.34 889.27 1014.89
  Q 891.57 1034.42 891.59 1034.56
  Q 897.11 1076.50 899.08 1118.76
  Q 899.55 1128.75 900.60 1138.69
  Q 904.18 1172.38 905.48 1206.24
  Q 906.19 1224.61 906.75 1231.25
  Q 913.88 1315.42 914.19 1405.44
  Q 914.20 1408.05 913.99 1409.87
  Q 913.59 1413.40 913.58 1413.53
  Q 912.86 1422.83 908.29 1431.00
  Q 899.67 1438.11 889.53 1442.46
  Q 881.68 1445.83 874.43 1447.96
  Q 866.68 1450.23 858.49 1450.63
  Q 853.50 1450.88 848.49 1451.07
  Q 843.65 1451.26 838.50 1451.18
  Q 807.39 1450.72 762.00 1449.25
  Q 717.64 1447.82 678.25 1443.75
  Q 674.95 1443.41 666.25 1442.14
  Q 660.64 1441.32 654.20 1440.94
  Q 641.19 1440.18 628.25 1438.54
  Q 573.02 1431.50 517.99 1423.08
  Q 449.02 1412.53 383.06 1397.94
  Q 345.53 1389.63 305.96 1378.64
  Q 260.20 1365.93 212.44 1348.06
  Q 183.26 1337.15 157.32 1323.92
  Q 150.37 1320.38 146.36 1317.08
  Q 140.80 1312.50 137.50 1307.50
  Q 133.01 1300.69 130.95 1290.11
  Q 128.44 1277.26 126.82 1264.27
  Q 124.16 1242.94 122.97 1221.49
  Q 122.41 1211.27 121.56 1201.54
  Q 118.01 1160.89 119.50 1122.25
  Q 120.06 1107.74 119.96 1095.75
  Q 119.85 1081.91 119.93 1075.76
  Q 120.09 1063.67 119.99 1051.17
  A 1.19 1.18 -89.5 0 0 118.84 1049.99
  Q 117.40 1049.95 117.46 1048.00
  Q 117.98 1046.84 118.71 1046.93
  A 1.36 1.35 -85.8 0 0 120.23 1045.61
  Q 121.49 969.72 129.06 895.56
  Q 130.38 882.68 133.25 866.00
  Q 133.76 863.04 136.18 854.59
  Q 136.24 854.39 137.06 852.53
  Q 137.53 851.46 137.46 850.25
  Q 148.25 834.11 166.00 828.75
  Q 174.62 826.15 186.00 825.67
  Q 196.43 825.23 206.86 825.67
  A 0.96 0.32 -40.5 0 0 207.43 825.44
  L 207.71 825.25
  Z"
/>
<path fill="#eb9362" d="
  M 137.46 850.25
  Q 137.53 851.46 137.06 852.53
  Q 136.24 854.39 136.18 854.59
  Q 133.76 863.04 133.25 866.00
  Q 130.38 882.68 129.06 895.56
  Q 121.49 969.72 120.23 1045.61
  A 1.36 1.35 -85.8 0 1 118.71 1046.93
  Q 117.98 1046.84 117.46 1048.00
  Q 116.64 1048.11 115.50 1048.75
  Q 85.35 1065.53 52.37 1080.93
  Q 46.54 1083.66 40.23 1085.74
  Q 30.19 1089.04 27.75 1089.75
  Q 25.16 1090.50 22.10 1090.81
  Q 18.54 1091.17 16.43 1090.56
  Q 10.93 1088.99 12.00 1082.00
  Q 13.06 1075.06 16.22 1066.85
  Q 25.06 1043.88 34.54 1021.16
  Q 69.44 937.49 126.00 862.50
  Q 132.05 854.48 137.46 850.25
  Z"
/>
<path fill="#db966f" d="
  M 1267.96 937.75
  Q 1267.98 951.11 1268.50 953.50
  Q 1269.65 958.81 1269.80 964.25
  Q 1270.04 972.60 1270.60 980.93
  Q 1271.40 992.67 1271.57 997.58
  Q 1274.00 1067.37 1268.00 1139.75
  Q 1267.49 1145.94 1266.65 1151.01
  Q 1265.61 1157.32 1263.59 1161.87
  Q 1259.35 1171.39 1250.56 1179.56
  Q 1161.46 1262.36 1063.57 1334.52
  Q 1026.63 1361.75 987.98 1386.50
  Q 953.09 1408.83 910.94 1429.94
  Q 908.93 1430.94 908.29 1431.00
  Q 912.86 1422.83 913.58 1413.53
  Q 913.59 1413.40 913.99 1409.87
  Q 914.20 1408.05 914.19 1405.44
  Q 913.88 1315.42 906.75 1231.25
  Q 906.19 1224.61 905.48 1206.24
  Q 904.18 1172.38 900.60 1138.69
  Q 899.55 1128.75 899.08 1118.76
  Q 897.11 1076.50 891.59 1034.56
  Q 891.57 1034.42 889.27 1014.89
  Q 887.68 1001.34 884.71 988.00
  Q 885.28 987.53 886.06 988.19
  Q 905.41 1004.31 929.92 1017.85
  Q 983.08 1047.21 1039.85 1068.79
  Q 1057.77 1075.61 1075.31 1079.69
  Q 1080.88 1080.98 1086.77 1079.56
  Q 1092.87 1078.10 1098.39 1075.09
  Q 1113.88 1066.66 1128.45 1056.71
  Q 1142.99 1046.80 1157.16 1036.39
  Q 1165.20 1030.49 1173.01 1024.20
  Q 1222.71 984.13 1264.81 940.06
  Q 1266.55 938.25 1267.96 937.75
  Z"
/>
</svg>
