<?xml version="1.0" encoding="UTF-8" standalone="no"?>
<!DOCTYPE svg PUBLIC "-//W3C//DTD SVG 1.1//EN" "http://www.w3.org/Graphics/SVG/1.1/DTD/svg11.dtd">
<svg xmlns="http://www.w3.org/2000/svg" version="1.1" viewBox="0 0 1000 1000">
<g stroke-width="2.00" fill="none" stroke-linecap="butt">
<path stroke="#4f2007" vector-effect="non-scaling-stroke" d="
  M 565.50 77.04
  L 563.99 77.36
  A 1.05 0.78 -80.4 0 0 563.35 77.97
  Q 562.91 79.02 561.80 79.42
  Q 561.25 79.63 560.97 79.94
  Q 559.53 81.57 558.52 83.52
  Q 558.32 83.90 557.64 84.68
  Q 556.85 85.59 557.79 86.40
  A 0.45 0.38 45.3 0 1 557.84 87.05
  Q 557.22 87.53 556.25 87.26
  Q 553.36 86.45 551.00 88.21"
/>
<path stroke="#a28772" vector-effect="non-scaling-stroke" d="
  M 551.00 88.21
  Q 536.25 87.32 522.50 89.25
  Q 496.95 92.84 472.25 102.54"
/>
<path stroke="#9a6b36" vector-effect="non-scaling-stroke" d="
  M 472.25 102.54
  Q 467.28 104.25 462.29 105.91
  Q 456.81 107.75 452.56 109.81
  Q 436.99 117.39 420.44 128.19
  Q 416.24 130.92 414.25 132.96"
/>
<path stroke="#a28979" vector-effect="non-scaling-stroke" d="
  M 414.25 132.96
  Q 411.23 134.65 408.31 137.81
  Q 391.26 156.32 377.26 172.69
  Q 369.66 181.58 365.14 188.55
  Q 354.37 205.14 348.56 222.31
  Q 344.29 234.94 338.20 257.56
  Q 336.75 262.94 336.31 268.62
  Q 334.08 296.88 333.00 312.50
  Q 332.39 321.34 334.46 330.50"
/>
<path stroke="#a04644" vector-effect="non-scaling-stroke" d="
  M 334.46 330.50
  Q 328.74 333.50 325.20 338.94
  Q 324.87 339.44 324.29 339.50"
/>
<path stroke="#f6d8a2" vector-effect="non-scaling-stroke" d="
  M 635.75 103.71
  Q 634.76 104.65 633.73 105.54
  Q 632.67 106.47 631.43 106.95
  Q 627.83 108.35 621.00 110.25
  Q 613.86 112.24 606.35 117.79
  Q 604.65 119.03 602.92 119.84
  Q 601.11 120.69 599.29 121.57
  Q 597.78 122.31 599.45 122.08
  Q 608.59 120.80 617.25 120.66
  Q 629.39 120.47 628.84 132.43
  A 0.35 0.34 82.0 0 0 629.29 132.78
  Q 636.46 130.35 643.76 128.32
  Q 648.84 126.92 651.87 127.63
  Q 658.18 129.12 659.63 136.33
  Q 659.72 136.81 659.59 137.66
  Q 659.35 139.10 660.78 138.75
  Q 661.82 138.49 662.27 138.50
  Q 666.82 138.63 669.71 141.49
  Q 672.48 144.24 672.81 148.25
  Q 673.15 152.34 670.55 156.07
  Q 669.51 157.58 671.25 157.00
  Q 673.25 156.34 675.28 155.81
  Q 677.68 155.18 679.40 155.32
  Q 683.10 155.61 685.65 158.02
  Q 687.93 160.16 688.70 163.66
  Q 689.97 169.42 685.88 173.20
  Q 683.81 175.12 678.92 176.46
  Q 658.97 181.91 646.06 186.56
  Q 639.64 188.88 633.83 189.52
  Q 627.55 190.21 624.10 187.75
  Q 619.46 184.45 620.30 177.02
  A 0.31 0.31 -7.5 0 0 619.88 176.70
  Q 603.67 183.17 587.43 189.20
  Q 585.78 189.81 583.57 190.94
  Q 581.67 191.90 579.70 192.71
  Q 575.62 194.37 571.70 193.53
  Q 567.93 192.71 565.19 189.58
  Q 559.77 183.37 564.19 174.44
  Q 564.63 173.55 563.50 173.71"
/>
<path stroke="#b37839" vector-effect="non-scaling-stroke" d="
  M 563.50 173.71
  Q 565.64 169.37 562.69 166.81
  Q 553.58 158.94 539.59 150.83
  Q 537.73 149.75 529.50 145.86
  Q 524.40 143.44 519.72 140.22
  A 0.93 0.86 -72.9 0 1 519.35 139.44
  Q 519.59 134.06 513.39 136.03
  A 2.11 2.10 48.3 0 1 511.92 135.94
  Q 505.38 133.04 498.94 129.31
  Q 496.29 127.78 487.74 126.33
  A 1.47 1.25 31.2 0 0 486.81 126.48
  Q 484.91 127.55 485.75 129.13
  Q 486.19 129.95 487.69 130.91
  Q 495.26 135.75 503.37 140.57
  A 0.46 0.45 -47.9 0 1 503.40 141.32
  L 489.33 151.83
  A 1.87 1.79 -48.0 0 1 487.33 151.98
  Q 481.16 148.49 474.75 147.34
  A 1.27 1.08 29.4 0 0 473.83 147.52
  Q 471.70 149.02 472.30 151.58
  A 1.56 1.28 16.7 0 0 472.83 152.37
  Q 484.14 161.19 495.45 170.02
  Q 498.92 172.74 500.75 172.75
  Q 506.84 172.79 506.50 166.74
  Q 506.40 164.88 504.88 163.77
  L 492.64 154.79
  A 0.41 0.40 -46.5 0 1 492.63 154.16
  Q 494.23 152.82 497.69 150.94
  Q 503.38 147.85 509.06 144.74
  A 0.86 0.85 -43.2 0 1 509.92 144.76
  Q 525.68 154.48 541.26 164.49
  Q 548.42 169.09 555.00 174.50
  Q 556.07 175.38 558.50 176.04"
/>
<path stroke="#f6d8a2" vector-effect="non-scaling-stroke" d="
  M 558.50 176.04
  Q 557.80 176.28 557.16 176.66
  Q 556.40 177.12 555.87 177.29
  Q 545.03 180.82 534.20 184.38
  Q 529.81 185.83 518.15 189.07
  Q 508.85 191.66 502.31 194.56
  Q 495.89 197.42 491.33 194.38
  Q 487.67 191.92 487.06 187.40
  Q 486.44 182.88 489.59 178.78
  Q 490.70 177.33 489.02 178.00
  L 469.00 185.96"
/>
<path stroke="#f6daa9" vector-effect="non-scaling-stroke" d="
  M 469.00 185.96
  Q 460.88 189.89 452.54 193.35
  Q 446.43 195.89 441.81 192.44
  Q 436.04 188.12 438.06 180.31
  Q 439.33 175.40 444.42 173.30
  Q 447.77 171.92 447.87 171.86
  Q 462.26 164.83 476.49 157.48
  A 0.62 0.37 -23.9 0 0 476.86 156.96
  Q 476.79 156.69 476.19 156.94
  Q 460.10 163.61 441.00 167.75
  Q 437.56 168.49 433.79 167.16
  Q 430.42 165.98 428.11 163.14
  Q 422.93 156.76 426.45 149.59
  Q 428.24 145.93 432.92 142.67
  Q 438.26 138.95 444.25 136.25
  Q 446.90 135.06 451.89 131.84
  A 1.54 0.66 -78.8 0 0 452.41 131.08
  L 454.50 125.91
  Q 454.85 125.04 454.02 125.25
  Q 437.79 129.21 421.56 133.06
  Q 417.48 134.03 414.25 132.96"
/>
<path stroke="#af7539" vector-effect="non-scaling-stroke" d="
  M 494.75 98.54
  Q 493.26 101.28 495.44 102.81
  Q 514.24 115.99 534.44 130.38
  A 1.10 1.10 -68.7 0 1 534.89 131.41
  Q 534.47 134.90 539.02 134.72
  Q 540.72 134.65 542.10 135.67
  Q 551.82 142.85 562.30 151.06
  Q 564.72 152.95 566.09 153.38
  Q 568.85 154.24 570.76 152.29
  Q 572.25 150.78 572.28 148.74
  Q 572.31 146.42 570.31 144.94
  Q 560.63 137.78 550.96 130.13
  Q 550.44 129.72 551.08 129.56
  L 577.54 122.91
  A 3.20 3.07 56.3 0 1 580.24 123.51
  L 595.20 135.30
  Q 595.92 135.86 595.03 136.04
  Q 585.58 137.96 576.39 141.29
  A 0.73 0.73 61.2 0 0 576.06 142.43
  Q 578.23 145.25 581.82 144.63
  Q 591.67 142.95 601.45 140.91
  A 1.03 1.03 -30.6 0 1 602.32 141.13
  L 617.56 154.11
  Q 617.94 154.43 617.45 154.56
  Q 610.21 156.45 603.69 160.19
  Q 601.26 161.58 592.76 165.60
  A 1.57 1.35 -2.1 0 0 592.07 166.24
  Q 590.63 168.99 593.22 169.08
  Q 594.08 169.11 595.74 168.68
  Q 611.05 164.69 626.23 161.31
  A 3.20 3.18 -32.9 0 1 628.83 161.86
  Q 631.76 164.03 634.25 165.50
  Q 637.56 167.46 639.18 164.00
  Q 640.82 160.48 637.49 158.75
  Q 636.40 158.17 637.63 158.06
  Q 641.49 157.69 645.25 156.50
  Q 650.18 154.93 659.75 155.46
  Q 659.84 155.46 661.23 155.61
  Q 664.90 156.00 666.00 152.75
  Q 666.79 150.41 665.46 148.70
  Q 664.47 147.42 662.19 147.25
  Q 658.46 146.98 655.31 147.56
  Q 649.18 148.70 644.01 148.52
  Q 643.57 148.51 643.04 148.70
  Q 641.76 149.17 638.75 149.50
  Q 634.38 149.98 630.15 151.54
  Q 628.08 152.30 626.26 151.01
  L 611.74 140.74
  Q 608.86 138.71 612.38 138.82
  Q 615.46 138.92 618.35 137.59
  Q 620.21 136.73 620.90 135.57
  Q 622.02 133.71 619.98 131.85
  Q 618.56 130.56 616.88 130.94
  L 604.43 133.73
  A 1.62 1.44 -28.7 0 1 603.07 133.42
  Q 595.04 126.60 586.18 121.26
  Q 585.75 121.00 586.22 120.82
  Q 590.71 119.20 597.25 118.75
  Q 602.66 118.38 601.28 113.83
  Q 600.74 112.05 599.44 111.28
  Q 597.89 110.36 596.01 110.88
  Q 594.04 111.42 593.93 111.44
  Q 586.35 112.82 578.84 114.53
  Q 576.37 115.10 574.31 114.46
  Q 572.07 113.77 569.95 112.73
  A 0.83 0.71 36.0 0 0 569.10 112.80
  Q 567.31 114.31 570.53 116.01
  Q 571.67 116.61 570.43 116.94
  Q 556.95 120.51 545.22 125.55
  A 0.90 0.89 -38.3 0 1 544.34 125.45
  Q 535.49 118.88 526.00 113.29"
/>
<path stroke="#fdfaf3" vector-effect="non-scaling-stroke" d="
  M 451.96 233.00
  Q 451.34 233.17 450.94 234.19
  Q 435.45 273.38 431.06 286.06
  Q 425.57 301.91 418.19 329.19
  Q 415.33 339.75 414.75 343.46"
/>
<path stroke="#fcb5b6" vector-effect="non-scaling-stroke" d="
  M 414.75 343.46
  Q 410.75 343.55 408.56 345.56
  Q 401.84 351.74 395.11 357.92
  Q 394.75 358.25 394.67 357.76
  Q 393.85 352.70 392.69 350.81
  Q 388.63 344.22 381.60 345.17
  Q 376.43 345.87 376.33 345.88
  Q 372.63 346.05 368.86 346.26
  Q 367.85 346.31 366.95 345.87
  Q 362.23 343.55 358.40 344.42
  Q 355.52 345.08 352.22 349.07
  Q 347.66 354.60 343.95 360.83
  Q 343.12 362.22 343.42 360.63
  Q 344.43 355.12 344.90 349.14
  Q 344.91 349.00 345.47 344.51
  Q 345.99 340.30 344.75 336.75
  Q 342.75 331.05 336.25 331.00
  Q 334.96 330.99 334.46 330.50"
/>
<path stroke="#fcb5b6" vector-effect="non-scaling-stroke" d="
  M 406.71 375.50
  Q 397.53 385.61 394.81 388.31
  Q 390.89 392.22 385.86 392.82
  Q 380.56 393.46 377.07 390.07
  Q 373.24 386.35 372.94 379.41
  Q 372.87 377.82 371.72 378.92
  Q 363.24 386.97 353.91 380.78
  A 0.44 0.44 -60.0 0 0 353.28 380.95
  Q 351.39 384.66 348.06 388.31
  Q 347.33 389.12 347.46 390.50"
/>
<path stroke="#a94c45" vector-effect="non-scaling-stroke" d="
  M 347.46 390.50
  Q 347.20 389.87 347.01 390.23
  Q 343.64 396.39 337.46 399.75"
/>
<path stroke="#a94c45" vector-effect="non-scaling-stroke" d="
  M 784.00 239.71
  Q 776.63 242.24 775.21 249.99
  Q 775.14 250.36 774.79 250.25"
/>
<path stroke="#aa9181" vector-effect="non-scaling-stroke" d="
  M 774.79 250.25
  Q 774.62 248.59 774.00 247.04
  Q 767.71 231.29 761.50 215.50
  Q 756.26 202.17 751.04 193.25"
/>
<path stroke="#aa8d73" vector-effect="non-scaling-stroke" d="
  M 751.04 193.25
  Q 745.87 183.11 739.19 175.56
  Q 735.24 171.10 727.01 162.50
  Q 726.95 162.44 721.73 156.76
  Q 716.92 151.52 710.81 146.44
  Q 699.15 136.73 691.33 130.41
  Q 685.85 125.98 680.17 122.89
  Q 658.84 111.32 635.75 103.71"
/>
<path stroke="#a37137" vector-effect="non-scaling-stroke" d="
  M 635.75 103.71
  Q 617.87 96.86 599.00 93.54"
/>
<path stroke="#aa8d73" vector-effect="non-scaling-stroke" d="
  M 599.00 93.54
  L 580.75 90.21"
/>
<path stroke="#a37137" vector-effect="non-scaling-stroke" d="
  M 580.75 90.21
  Q 574.83 88.83 568.75 89.29"
/>
<path stroke="#aa8d73" vector-effect="non-scaling-stroke" d="
  M 568.75 89.29
  L 551.00 88.21"
/>
<path stroke="#f6d8a2" vector-effect="non-scaling-stroke" d="
  M 568.75 89.29
  Q 568.69 90.48 567.66 90.40
  Q 566.63 90.31 566.35 90.36
  Q 547.21 93.71 528.64 97.91
  Q 526.83 98.32 525.47 97.06
  Q 522.43 94.24 519.02 94.19
  Q 518.98 94.19 512.46 95.30
  Q 504.58 96.64 496.75 98.21"
/>
<path stroke="#b69274" vector-effect="non-scaling-stroke" d="
  M 496.75 98.21
  L 494.75 98.54"
/>
<path stroke="#f6d8a2" vector-effect="non-scaling-stroke" d="
  M 494.75 98.54
  Q 485.05 100.15 475.49 102.40
  Q 475.41 102.42 474.22 102.90
  Q 473.22 103.30 472.25 102.54"
/>
<path stroke="#f6d8a2" vector-effect="non-scaling-stroke" d="
  M 599.00 93.54
  Q 599.02 94.38 597.94 94.69
  Q 576.98 100.65 568.50 102.76
  Q 547.26 108.06 526.00 113.29"
/>
<path stroke="#b69274" vector-effect="non-scaling-stroke" d="
  M 526.00 113.29
  Q 525.30 113.15 524.71 112.75"
/>
<path stroke="#fdf8ec" vector-effect="non-scaling-stroke" d="
  M 751.04 193.25
  Q 749.41 195.35 747.03 196.56
  Q 741.41 199.41 735.43 201.42
  Q 724.59 205.05 713.87 207.98
  A 3.71 3.66 8.6 0 0 711.76 209.51
  Q 708.51 214.46 705.06 218.81
  Q 703.60 220.66 703.50 222.46"
/>
<path stroke="#b18e7d" vector-effect="non-scaling-stroke" d="
  M 703.50 222.46
  Q 699.99 222.16 696.53 221.58
  Q 694.85 221.30 691.56 222.06
  Q 679.06 224.96 675.22 226.14
  Q 663.55 229.75 661.25 230.00
  Q 659.37 230.21 659.12 231.43
  A 3.02 3.00 82.1 0 1 657.57 233.49
  Q 650.65 237.11 644.55 241.40
  Q 643.70 241.99 642.74 243.35
  Q 641.94 244.48 640.82 245.32
  Q 638.33 247.19 640.48 248.15
  Q 641.36 248.55 642.56 248.24
  Q 647.60 246.90 653.19 243.94
  Q 660.39 240.12 679.82 231.34
  Q 687.17 228.02 695.25 227.79"
/>
<path stroke="#fdf8ec" vector-effect="non-scaling-stroke" d="
  M 695.25 227.79
  Q 693.11 231.79 689.49 234.51
  Q 682.74 239.60 675.33 244.21
  Q 674.08 244.98 673.30 246.22
  Q 660.77 266.15 640.94 279.69
  Q 639.59 280.60 636.96 281.25"
/>
<path stroke="#b18e7d" vector-effect="non-scaling-stroke" d="
  M 636.96 281.25
  Q 633.70 270.82 622.50 272.00
  Q 618.04 272.47 606.16 275.93
  Q 601.11 277.40 597.56 277.55
  Q 593.13 277.72 588.73 277.14
  Q 583.77 276.47 581.22 276.79
  Q 569.36 278.26 560.69 286.69
  Q 554.56 292.64 549.79 300.50"
/>
<path stroke="#fdf8ec" vector-effect="non-scaling-stroke" d="
  M 549.79 300.50
  Q 549.77 299.45 548.50 299.75
  Q 546.32 300.27 543.24 299.85
  Q 514.96 296.06 492.06 279.19
  Q 488.54 276.59 486.25 273.71"
/>
<path stroke="#ac8e7c" vector-effect="non-scaling-stroke" d="
  M 486.25 273.71
  Q 487.79 273.29 489.31 272.81
  Q 490.91 272.30 492.38 272.07
  Q 506.61 269.80 520.71 266.80
  Q 534.15 263.93 549.75 265.00
  Q 551.13 265.09 552.07 265.57
  Q 553.88 266.49 554.11 266.54
  Q 558.52 267.42 559.25 263.00
  Q 559.77 259.84 557.53 258.36
  Q 556.33 257.57 553.28 257.65
  Q 550.30 257.73 547.38 257.14
  Q 545.65 256.78 544.09 256.85
  Q 542.41 256.93 540.74 256.88
  Q 538.40 256.82 535.84 257.38
  Q 532.64 258.07 529.36 258.06
  Q 527.26 258.06 525.66 258.32
  Q 523.82 258.62 521.96 258.86
  Q 519.14 259.23 516.47 259.88
  Q 508.40 261.86 497.75 263.50
  Q 488.54 264.92 478.04 268.75"
/>
<path stroke="#fdf8ec" vector-effect="non-scaling-stroke" d="
  M 478.04 268.75
  Q 477.84 266.70 476.31 264.94
  Q 466.97 254.17 459.94 240.81
  Q 458.32 237.74 456.25 236.50
  Q 455.44 236.01 451.96 233.00"
/>
<path stroke="#fdf6e4" vector-effect="non-scaling-stroke" d="
  M 451.96 233.00
  Q 451.47 231.66 451.81 230.81
  Q 460.27 209.96 469.19 193.19
  Q 471.29 189.23 469.00 185.96"
/>
<path stroke="#ba9475" vector-effect="non-scaling-stroke" d="
  M 558.50 176.04
  Q 561.59 176.01 563.50 173.71"
/>
<path stroke="#fcb7be" vector-effect="non-scaling-stroke" d="
  M 774.79 250.25
  Q 774.66 253.57 772.52 255.50
  Q 770.30 257.51 770.25 254.52
  Q 770.18 250.41 767.41 248.00
  Q 765.69 246.51 763.63 246.41
  Q 761.23 246.29 759.50 248.00
  Q 754.98 252.48 750.45 257.18
  A 0.79 0.77 31.5 0 1 749.61 257.37
  Q 746.59 256.30 743.77 254.97
  Q 739.37 252.92 737.89 252.80
  Q 733.51 252.45 731.22 257.24
  Q 729.71 260.39 728.78 263.64
  A 1.04 1.04 -69.1 0 1 727.33 264.29
  Q 726.24 263.75 725.34 264.08
  Q 724.65 264.34 724.22 265.42
  Q 719.10 278.22 714.78 291.32
  Q 713.22 296.08 713.80 298.19
  Q 714.87 302.10 720.79 302.58
  A 1.04 1.04 -78.5 0 1 721.69 303.94
  Q 719.18 311.66 725.22 315.75
  Q 728.00 317.63 731.16 317.29
  Q 734.46 316.92 737.16 314.81
  Q 737.49 314.56 739.84 312.69
  Q 741.33 311.50 742.19 310.19
  Q 746.56 303.52 750.91 298.87
  Q 751.25 298.49 751.31 298.99
  Q 751.54 301.07 751.56 303.17
  Q 751.58 306.66 751.82 307.81
  Q 753.37 314.95 761.25 316.04"
/>
<path stroke="#fdfaf3" vector-effect="non-scaling-stroke" d="
  M 761.25 316.04
  Q 760.58 317.89 759.78 319.68
  Q 759.03 321.32 757.62 322.88
  Q 747.67 333.81 739.16 345.89
  Q 733.93 353.32 727.44 366.19
  Q 721.62 377.72 718.81 389.12
  Q 716.62 398.00 715.41 408.82
  Q 713.82 423.10 715.76 437.50
  Q 715.84 438.06 715.50 438.46"
/>
<path stroke="#fdf8ec" vector-effect="non-scaling-stroke" d="
  M 715.50 438.46
  Q 676.01 465.60 668.25 513.21"
/>
<path stroke="#fdfaf3" vector-effect="non-scaling-stroke" d="
  M 668.25 513.21
  Q 659.11 514.78 650.26 517.53
  Q 648.58 518.05 643.50 519.00
  Q 610.23 525.20 580.56 543.81
  Q 578.10 545.36 576.54 545.75"
/>
<path stroke="#fdf8ec" vector-effect="non-scaling-stroke" d="
  M 576.54 545.75
  Q 564.96 526.27 543.85 518.09
  Q 531.84 513.43 519.00 512.56
  Q 503.20 511.50 487.56 513.81
  Q 482.64 514.54 477.03 516.36
  Q 470.97 518.33 466.75 519.72
  Q 459.20 522.20 452.19 526.01
  Q 451.98 526.12 451.53 526.70
  L 450.50 528.04"
/>
<path stroke="#d2a885" vector-effect="non-scaling-stroke" d="
  M 450.50 528.04
  Q 447.76 525.32 442.94 519.56
  Q 435.77 511.01 413.96 485.75"
/>
<path stroke="#fdfaf3" vector-effect="non-scaling-stroke" d="
  M 413.96 485.75
  Q 416.01 484.07 415.75 480.75
  Q 414.42 463.95 413.58 455.31
  Q 413.12 450.54 411.49 444.36
  Q 403.53 414.29 406.09 383.13
  Q 406.09 383.04 406.72 379.42
  Q 407.05 377.47 406.71 375.50"
/>
<path stroke="#fcb7be" vector-effect="non-scaling-stroke" d="
  M 406.71 375.50
  L 410.38 371.59
  A 1.01 0.83 23.9 0 1 411.24 371.35
  Q 423.97 373.94 424.82 360.99
  Q 425.22 354.99 424.75 352.75
  Q 423.03 344.53 414.75 343.46"
/>
<path stroke="#ac928a" vector-effect="non-scaling-stroke" d="
  M 478.04 268.75
  Q 474.07 270.73 470.28 273.01
  Q 466.94 275.03 468.81 278.19
  Q 470.57 281.14 473.16 279.50
  Q 474.98 278.35 475.08 278.30
  Q 480.50 275.61 486.25 273.71"
/>
<path stroke="#b1928b" vector-effect="non-scaling-stroke" d="
  M 549.79 300.50
  Q 544.86 308.52 543.28 317.68
  Q 542.31 323.29 541.75 325.73
  Q 540.82 329.73 540.20 333.79
  Q 539.90 335.68 539.84 340.23
  Q 539.80 343.50 539.19 346.71
  Q 538.80 348.80 539.26 350.78
  Q 540.23 354.99 540.58 359.28
  Q 540.86 362.65 541.87 365.01
  Q 543.66 369.20 544.81 370.19
  Q 547.68 372.66 549.72 369.92
  A 0.56 0.53 -56.5 0 1 550.43 369.75
  Q 555.37 372.60 560.31 375.44
  Q 563.67 377.36 567.98 378.45
  Q 570.78 379.16 576.01 380.08
  Q 598.28 383.99 617.91 372.55
  Q 618.40 372.26 618.96 372.16
  Q 621.54 371.67 623.21 371.09
  Q 624.91 370.50 626.78 368.69
  Q 636.37 359.35 641.53 347.06
  Q 644.13 340.86 644.66 339.10
  Q 645.84 335.14 645.75 330.50
  Q 645.43 314.34 641.55 300.49
  Q 638.88 290.96 636.96 281.25"
/>
<path stroke="#b1928b" vector-effect="non-scaling-stroke" d="
  M 695.25 227.79
  Q 697.66 227.66 699.25 228.00
  Q 704.03 229.02 708.19 228.69
  Q 710.66 228.49 710.82 226.34
  Q 710.93 224.71 709.70 223.64
  Q 708.16 222.30 705.75 222.74
  Q 704.56 222.95 703.50 222.46"
/>
<path stroke="#481f07" stroke-opacity="0.741" vector-effect="non-scaling-stroke" d="
  M 380.96 512.00
  Q 379.79 513.89 380.96 515.75"
/>
<path stroke="#aa9181" vector-effect="non-scaling-stroke" d="
  M 373.04 562.50
  Q 370.40 571.25 367.75 580.00
  Q 367.19 581.84 365.50 583.71"
/>
<path stroke="#aa8d73" vector-effect="non-scaling-stroke" d="
  M 365.50 583.71
  Q 357.19 586.63 356.50 578.04"
/>
<path stroke="#aa8f7a" vector-effect="non-scaling-stroke" d="
  M 356.50 578.04
  Q 367.57 544.29 368.29 508.75"
/>
<path stroke="#481f07" stroke-opacity="0.741" vector-effect="non-scaling-stroke" d="
  M 368.29 508.75
  Q 369.09 507.39 368.85 505.74
  Q 368.49 503.27 367.25 504.96"
/>
<path stroke="#aa8f7a" vector-effect="non-scaling-stroke" d="
  M 367.25 504.96
  Q 334.89 510.49 297.94 518.94
  Q 258.26 528.01 222.25 540.54"
/>
<path stroke="#aa8d73" vector-effect="non-scaling-stroke" d="
  M 222.25 540.54
  Q 211.63 543.84 201.63 548.64
  Q 192.61 552.96 187.66 555.55
  Q 180.35 559.38 174.44 563.94
  Q 163.51 572.36 167.96 583.99
  Q 169.31 587.50 173.70 592.71
  Q 177.10 596.74 180.49 600.76
  Q 188.59 610.36 197.83 618.81
  Q 204.05 624.50 211.19 630.67
  Q 217.96 636.50 225.21 641.75"
/>
<path stroke="#aa8f7a" vector-effect="non-scaling-stroke" d="
  M 225.21 641.75
  Q 241.59 654.60 259.00 666.04"
/>
<path stroke="#aa8d73" vector-effect="non-scaling-stroke" d="
  M 250.25 673.04
  Q 228.00 658.63 207.67 641.67
  Q 198.35 633.91 192.53 628.62
  Q 177.48 614.93 164.61 598.65
  Q 163.59 597.36 163.42 598.99
  Q 160.79 624.97 158.74 651.53
  Q 158.08 660.12 157.67 671.50
  Q 157.18 684.88 156.46 698.25"
/>
<path stroke="#5f2b09" vector-effect="non-scaling-stroke" d="
  M 156.46 698.25
  Q 155.10 700.19 155.43 697.49
  A 1.37 1.24 33.9 0 0 155.21 696.60
  Q 153.72 694.34 154.75 691.75
  Q 155.32 690.32 154.25 688.50
  Q 152.89 686.19 150.89 688.14
  Q 148.53 690.47 146.54 688.00"
/>
<path stroke="#d2a67e" vector-effect="non-scaling-stroke" d="
  M 413.96 485.75
  Q 412.14 485.36 411.82 486.77
  Q 411.63 487.55 412.26 488.61
  Q 414.54 492.52 416.75 496.46"
/>
<path stroke="#fdfaf3" vector-effect="non-scaling-stroke" d="
  M 416.75 496.46
  Q 414.77 497.24 414.44 498.94
  Q 406.67 538.55 376.33 563.86
  A 1.67 1.21 -59.1 0 1 375.44 564.24
  Q 373.62 564.31 373.04 562.50"
/>
<path stroke="#aa8f7a" vector-effect="non-scaling-stroke" d="
  M 373.04 562.50
  Q 375.21 553.28 378.50 535.50
  Q 380.59 524.22 380.96 515.75"
/>
<path stroke="#b8ada0" stroke-opacity="0.741" vector-effect="non-scaling-stroke" d="
  M 380.96 515.75
  Q 381.36 513.88 380.96 512.00"
/>
<path stroke="#aa8f7a" vector-effect="non-scaling-stroke" d="
  M 380.96 512.00
  Q 380.31 505.60 380.21 499.17
  Q 380.07 489.88 379.59 486.36
  Q 378.55 478.86 376.44 472.56
  Q 367.95 447.33 354.75 414.25
  Q 349.61 401.37 347.46 390.50"
/>
<path stroke="#b75646" vector-effect="non-scaling-stroke" d="
  M 794.00 297.71
  Q 786.92 301.29 780.04 297.50"
/>
<path stroke="#fcb5b6" vector-effect="non-scaling-stroke" d="
  M 780.04 297.50
  L 778.70 295.86
  A 0.39 0.32 -54.2 0 0 778.11 296.01
  Q 775.53 301.85 772.95 307.69
  Q 769.60 315.30 761.25 316.04"
/>
<path stroke="#f6d8a2" vector-effect="non-scaling-stroke" d="
  M 580.75 90.21
  Q 580.27 90.89 580.56 91.69
  Q 582.15 95.95 579.74 98.51
  Q 578.33 100.02 574.26 100.90
  Q 554.05 105.32 533.80 109.52
  Q 529.80 110.35 525.92 111.62
  Q 524.96 111.93 524.71 112.75"
/>
<path stroke="#af7539" vector-effect="non-scaling-stroke" d="
  M 524.71 112.75
  Q 511.18 104.59 496.75 98.21"
/>
<path stroke="#fdfaf3" vector-effect="non-scaling-stroke" d="
  M 719.50 641.96
  Q 708.33 650.17 695.11 654.00
  Q 692.64 654.71 688.95 655.38
  Q 685.84 655.94 682.74 656.49
  Q 677.88 657.35 673.60 658.91
  Q 657.93 664.60 642.73 671.51
  Q 641.96 671.86 642.80 671.97
  Q 643.91 672.12 645.01 671.72
  Q 646.71 671.10 647.07 671.03
  Q 681.75 664.09 708.81 687.44
  Q 710.34 688.76 709.62 689.92
  A 1.07 0.62 61.6 0 0 709.60 690.71
  Q 709.74 691.15 709.25 691.71"
/>
<path stroke="#b8aa96" stroke-opacity="0.741" vector-effect="non-scaling-stroke" d="
  M 749.46 529.50
  Q 749.63 529.13 750.00 528.96"
/>
<path stroke="#fdf8ec" vector-effect="non-scaling-stroke" d="
  M 755.75 677.96
  Q 755.50 676.89 755.25 675.82
  Q 755.00 674.76 755.06 673.65
  Q 755.35 668.17 755.32 662.68
  A 0.76 0.72 10.2 0 0 754.83 662.01
  Q 735.50 654.94 719.50 641.96"
/>
<path stroke="#fdf6e4" vector-effect="non-scaling-stroke" d="
  M 719.50 641.96
  Q 719.91 641.00 720.73 640.50
  Q 721.98 639.75 722.05 639.70
  Q 739.46 625.57 745.25 603.75
  Q 751.67 579.55 742.45 556.38
  Q 741.45 553.86 739.00 549.75
  Q 723.53 523.80 694.96 515.64
  Q 682.00 511.94 670.75 513.25
  Q 668.79 513.48 668.25 513.21"
/>
<path stroke="#b9997b" vector-effect="non-scaling-stroke" d="
  M 780.04 297.50
  Q 780.47 316.39 779.75 321.00
  Q 774.73 353.11 765.46 384.19
  Q 763.49 390.81 758.91 403.08
  Q 753.60 417.32 749.20 431.88
  Q 748.69 433.57 747.37 436.89
  Q 746.38 439.39 745.71 442.00"
/>
<path stroke="#f6daa9" vector-effect="non-scaling-stroke" d="
  M 745.71 442.00
  Q 744.37 444.45 744.75 447.21"
/>
<path stroke="#b9997b" vector-effect="non-scaling-stroke" d="
  M 744.75 447.21
  Q 740.84 463.42 738.96 480.00"
/>
<path stroke="#fdf6e4" vector-effect="non-scaling-stroke" d="
  M 738.96 480.00
  Q 738.12 481.69 736.44 480.06
  Q 731.28 475.06 728.34 470.12
  Q 719.69 455.56 716.13 438.98
  A 0.68 0.39 86.7 0 0 715.83 438.52
  Q 715.68 438.45 715.50 438.46"
/>
<path stroke="#d2a477" vector-effect="non-scaling-stroke" d="
  M 450.50 528.04
  Q 453.70 531.78 457.35 535.09
  Q 458.73 536.34 459.21 537.29
  Q 459.89 538.66 459.95 540.16
  Q 460.04 542.35 458.40 543.87
  Q 456.08 545.99 453.35 544.36
  Q 452.00 543.56 450.26 541.05
  Q 446.82 536.12 443.29 531.25"
/>
<path stroke="#d2a885" vector-effect="non-scaling-stroke" d="
  M 443.29 531.25
  Q 441.10 527.88 436.31 522.44
  Q 426.67 511.47 416.75 496.46"
/>
<path stroke="#fdf6e4" vector-effect="non-scaling-stroke" d="
  M 576.54 545.75
  Q 576.21 546.66 574.25 547.75
  Q 563.23 553.87 548.50 565.23
  Q 534.74 575.84 523.83 589.35
  Q 516.96 597.86 512.44 609.94
  Q 507.66 622.70 507.03 634.32
  Q 507.03 634.38 507.13 635.67
  Q 507.23 636.83 506.00 636.79"
/>
<path stroke="#fdf8ec" vector-effect="non-scaling-stroke" d="
  M 250.25 673.21
  Q 250.38 674.05 250.25 676.00
  Q 250.16 677.31 251.34 677.79
  Q 251.88 678.01 252.15 678.31
  Q 259.48 686.35 265.56 690.94
  Q 270.14 694.39 282.13 702.23
  Q 286.16 704.86 292.19 708.35
  Q 298.98 712.28 302.19 714.56
  Q 313.89 722.90 330.59 724.47
  A 0.69 0.69 8.0 0 1 331.20 725.28
  Q 329.39 734.38 329.33 743.94
  Q 329.26 754.90 328.98 757.54
  Q 324.92 797.20 296.86 824.74
  Q 291.23 830.27 284.54 835.08
  Q 278.01 839.78 270.95 843.70
  Q 269.44 844.54 268.50 845.96"
/>
<path stroke="#b29273" vector-effect="non-scaling-stroke" d="
  M 268.50 845.96
  Q 225.60 820.71 186.94 785.06
  Q 174.07 773.20 165.10 760.44
  Q 163.18 757.70 160.59 752.62
  Q 158.54 748.58 156.18 744.72
  Q 155.05 742.89 154.94 740.84
  Q 154.72 736.92 154.75 735.75
  Q 155.30 716.99 156.46 698.25"
/>
<path stroke="#7d3f0c" vector-effect="non-scaling-stroke" d="
  M 889.71 652.25
  Q 888.98 652.86 889.00 651.25
  Q 889.04 647.61 888.35 644.03
  Q 888.27 643.57 888.35 642.98
  Q 888.50 641.96 887.98 641.90
  A 0.46 0.34 83.4 0 0 887.65 642.47
  Q 887.95 643.74 887.19 644.94
  Q 885.56 647.49 883.08 648.60
  Q 881.34 649.37 882.23 651.22
  A 1.58 1.55 -42.5 0 1 882.15 652.75
  Q 881.28 654.16 881.20 652.75
  Q 881.11 651.32 880.96 652.53
  Q 880.76 654.21 879.29 654.25"
/>
<path stroke="#b99774" vector-effect="non-scaling-stroke" d="
  M 879.29 654.25
  L 879.04 644.50"
/>
<path stroke="#5c2c09" stroke-opacity="0.741" vector-effect="non-scaling-stroke" d="
  M 879.04 644.50
  Q 879.71 643.12 879.75 640.50
  Q 879.80 637.54 878.75 639.71"
/>
<path stroke="#b99774" vector-effect="non-scaling-stroke" d="
  M 878.75 639.71
  Q 869.71 646.42 866.19 648.19
  Q 856.64 652.98 831.81 663.06
  Q 800.29 675.87 754.50 689.96"
/>
<path stroke="#b99b83" vector-effect="non-scaling-stroke" d="
  M 754.50 689.96
  L 721.50 699.54"
/>
<path stroke="#b9997b" vector-effect="non-scaling-stroke" d="
  M 721.50 699.54
  Q 653.64 718.91 584.30 732.00
  Q 538.19 740.70 491.46 745.00"
/>
<path stroke="#b99774" vector-effect="non-scaling-stroke" d="
  M 491.46 745.00
  Q 466.00 746.79 440.50 746.00
  Q 434.95 745.83 423.25 744.29"
/>
<path stroke="#b99b83" vector-effect="non-scaling-stroke" d="
  M 423.25 744.29
  Q 399.01 741.33 375.67 734.11
  Q 335.94 721.81 299.25 702.25
  Q 271.09 687.24 250.25 673.21"
/>
<path stroke="#b99774" vector-effect="non-scaling-stroke" d="
  M 250.25 673.21
  L 250.25 673.04"
/>
<path stroke="#66300a" vector-effect="non-scaling-stroke" d="
  M 250.25 673.04
  Q 250.82 672.26 250.06 672.18
  A 0.63 0.58 85.6 0 1 249.54 671.69
  Q 249.37 670.97 248.44 670.44
  Q 245.93 669.00 245.41 667.46
  Q 244.77 665.57 246.20 664.17
  Q 248.83 661.58 246.25 660.49
  Q 245.98 660.38 245.97 660.15
  Q 245.95 659.76 246.36 659.98
  L 252.74 663.34
  Q 253.15 663.55 253.44 664.00
  Q 254.32 665.37 255.94 665.73
  A 1.58 1.56 73.8 0 1 256.76 666.19
  Q 258.07 667.56 259.00 666.04"
/>
<path stroke="#b9997b" vector-effect="non-scaling-stroke" d="
  M 259.00 666.04
  Q 278.36 678.79 304.44 692.56
  Q 334.46 708.41 362.71 718.25"
/>
<path stroke="#b99b83" vector-effect="non-scaling-stroke" d="
  M 362.71 718.25
  Q 376.35 723.14 390.49 726.31
  Q 403.63 729.25 416.77 732.19
  Q 423.85 733.77 430.88 734.30
  Q 452.95 735.96 459.25 735.75
  Q 504.54 734.27 549.25 726.96"
/>
<path stroke="#b9997b" vector-effect="non-scaling-stroke" d="
  M 549.25 726.96
  Q 630.24 713.83 709.25 691.71"
/>
<path stroke="#b99b83" vector-effect="non-scaling-stroke" d="
  M 709.25 691.71
  L 755.75 677.96"
/>
<path stroke="#b99774" vector-effect="non-scaling-stroke" d="
  M 755.75 677.96
  Q 797.85 665.30 838.39 648.33
  Q 849.41 643.72 860.10 638.38
  Q 869.29 633.79 876.23 626.22
  Q 880.17 621.91 878.91 616.02
  Q 877.79 610.84 875.06 607.19
  Q 867.10 596.52 855.70 587.76
  Q 845.16 579.64 836.44 574.31
  Q 796.01 549.61 750.00 528.96"
/>
<path stroke="#5c2c09" stroke-opacity="0.741" vector-effect="non-scaling-stroke" d="
  M 750.00 528.96
  Q 750.13 528.38 749.63 528.03
  A 0.48 0.47 -61.2 0 0 748.93 528.24
  Q 748.58 529.04 749.46 529.50"
/>
<path stroke="#b99774" vector-effect="non-scaling-stroke" d="
  M 749.46 529.50
  Q 749.19 530.02 749.44 531.31
  Q 752.54 547.80 759.19 561.06
  Q 760.65 563.97 758.91 566.43
  Q 757.44 568.51 754.85 568.94
  Q 751.19 569.56 749.19 565.81
  Q 746.14 560.10 742.16 549.15
  Q 738.78 539.86 737.96 530.00
  Q 736.78 515.77 737.65 501.51
  Q 738.30 490.75 738.96 480.00"
/>
<path stroke="#b17a39" vector-effect="non-scaling-stroke" d="
  M 744.75 447.21
  Q 746.01 444.72 745.71 442.00"
/>
<path stroke="#fdf8ec" vector-effect="non-scaling-stroke" d="
  M 443.29 531.25
  Q 436.00 538.41 433.06 542.31
  Q 421.19 558.08 424.52 576.10
  Q 426.21 585.22 432.14 594.43
  Q 441.56 609.07 457.69 618.81
  Q 472.42 627.71 486.99 631.79
  Q 492.33 633.29 496.44 634.49
  Q 501.16 635.87 506.00 636.79"
/>
<path stroke="#fdfaf3" vector-effect="non-scaling-stroke" d="
  M 506.00 636.79
  Q 506.21 636.95 506.45 637.02
  A 0.67 0.52 9.9 0 1 506.94 637.56
  Q 506.95 646.32 508.50 651.75
  Q 519.21 689.27 555.38 698.71
  Q 562.83 700.65 569.76 700.71
  Q 577.07 700.78 584.30 699.23
  Q 585.43 698.99 584.86 699.74
  Q 584.71 699.92 584.45 700.06
  Q 567.12 709.02 550.55 720.42
  Q 548.92 721.53 547.62 723.01
  Q 546.15 724.69 547.86 725.71
  A 1.79 1.01 -19.2 0 0 548.80 725.88
  Q 550.23 725.77 549.25 726.96"
/>
<path stroke="#fdfaf3" vector-effect="non-scaling-stroke" d="
  M 362.71 718.25
  Q 361.36 717.07 362.36 716.07
  Q 362.75 715.68 362.90 715.28
  Q 363.36 714.04 364.38 713.27
  Q 365.97 712.08 365.99 712.05
  Q 380.68 698.07 382.50 679.00
  Q 384.48 658.29 370.92 641.11
  Q 364.54 633.02 356.10 627.14
  Q 355.38 626.64 355.25 625.79"
/>
<path stroke="#fdf8ec" vector-effect="non-scaling-stroke" d="
  M 355.25 625.79
  Q 362.34 598.02 365.75 586.50
  Q 366.29 584.68 365.50 583.71"
/>
<path stroke="#fdf6e4" vector-effect="non-scaling-stroke" d="
  M 355.25 625.79
  Q 354.69 626.38 354.03 626.01
  Q 343.39 620.07 331.79 616.38
  Q 319.29 612.41 306.44 609.78
  Q 300.15 608.48 294.44 605.56
  Q 287.77 602.14 280.91 599.14
  Q 271.31 594.93 269.99 594.41
  Q 264.21 592.19 258.44 591.31
  Q 246.17 589.45 237.10 595.52
  Q 228.83 601.06 225.22 611.17
  Q 221.14 622.61 225.70 635.31
  Q 225.99 636.11 226.14 636.95
  Q 226.18 637.16 226.51 638.51
  Q 226.99 640.48 225.21 641.75"
/>
<path stroke="#b8ada0" stroke-opacity="0.741" vector-effect="non-scaling-stroke" d="
  M 368.29 508.75
  Q 368.28 506.64 367.25 504.96"
/>
<path stroke="#fdf6e4" vector-effect="non-scaling-stroke" d="
  M 356.50 578.04
  Q 355.50 578.54 354.46 578.19
  A 1.47 1.13 37.6 0 0 353.53 578.19
  Q 329.53 587.94 303.97 586.84
  Q 293.93 586.40 284.22 583.93
  Q 245.55 574.10 222.25 540.54"
/>
<path stroke="#fdf8ec" vector-effect="non-scaling-stroke" d="
  M 423.25 744.29
  Q 423.15 745.90 421.90 746.40
  Q 420.82 746.83 420.78 746.85
  Q 399.20 758.76 394.48 781.59
  Q 392.37 791.78 394.06 801.46
  Q 396.11 813.23 403.33 822.80
  Q 404.35 824.15 404.18 825.83
  Q 402.02 847.88 413.19 865.31
  Q 421.16 877.75 434.52 886.69
  Q 439.27 889.87 440.83 891.00
  Q 445.81 894.63 447.06 895.44
  Q 453.71 899.73 462.58 901.83
  A 1.13 0.85 -0.3 0 1 463.31 902.37
  Q 463.68 903.24 463.00 903.96"
/>
<path stroke="#b29682" vector-effect="non-scaling-stroke" d="
  M 363.00 890.04
  Q 313.27 873.31 268.50 845.96"
/>
<path stroke="#763a0b" vector-effect="non-scaling-stroke" d="
  M 352.71 898.00
  Q 350.67 897.52 351.50 896.00
  Q 351.78 895.49 351.48 894.53
  A 0.71 0.70 -27.7 0 1 351.72 893.77
  Q 353.68 892.20 353.96 889.48
  A 0.48 0.48 -72.2 0 1 354.67 889.11
  Q 357.22 890.56 359.92 890.11
  Q 360.18 890.07 359.99 889.88
  Q 359.51 889.40 360.26 889.53
  Q 360.45 889.56 360.57 889.69
  Q 360.80 889.92 360.93 890.22
  A 1.31 0.71 78.1 0 0 361.51 890.90
  Q 362.84 891.41 363.00 890.04"
/>
<path stroke="#c1a083" vector-effect="non-scaling-stroke" d="
  M 363.00 890.04
  Q 388.46 897.92 413.50 901.75
  Q 421.11 902.91 429.48 903.42
  Q 443.12 904.24 445.51 904.35
  Q 454.25 904.74 463.00 903.96"
/>
<path stroke="#c19c75" vector-effect="non-scaling-stroke" d="
  M 463.00 903.96
  Q 479.54 903.45 496.00 901.71"
/>
<path stroke="#c1a083" vector-effect="non-scaling-stroke" d="
  M 496.00 901.71
  Q 526.87 898.54 557.43 893.16
  Q 667.25 873.86 773.00 838.54"
/>
<path stroke="#673409" stroke-opacity="0.741" vector-effect="non-scaling-stroke" d="
  M 876.29 729.75
  Q 877.19 727.06 876.71 724.25"
/>
<path stroke="#673409" stroke-opacity="0.741" vector-effect="non-scaling-stroke" d="
  M 877.29 708.75
  Q 878.37 706.67 877.54 704.50"
/>
<path stroke="#673409" stroke-opacity="0.741" vector-effect="non-scaling-stroke" d="
  M 878.29 681.75
  Q 879.25 678.55 878.54 675.25"
/>
<path stroke="#b8aa96" stroke-opacity="0.741" vector-effect="non-scaling-stroke" d="
  M 879.04 644.50
  L 878.75 639.71"
/>
<path stroke="#fdf6e4" vector-effect="non-scaling-stroke" d="
  M 556.04 817.75
  Q 555.15 816.80 552.75 816.25
  Q 546.26 814.76 538.49 810.31
  Q 519.77 799.58 516.97 777.97
  Q 515.70 768.15 519.10 757.66
  A 1.76 1.76 19.9 0 0 518.07 755.47
  Q 505.97 750.61 492.69 746.31
  Q 492.00 746.09 491.46 745.00"
/>
<path stroke="#fdf8ec" vector-effect="non-scaling-stroke" d="
  M 496.00 901.71
  L 496.00 900.51
  A 0.76 0.74 79.1 0 1 496.46 899.81
  Q 505.12 896.18 512.17 890.27
  Q 519.16 884.41 524.77 877.17
  Q 535.14 863.77 536.64 846.17
  Q 536.65 846.11 536.62 843.33
  Q 536.61 841.67 537.23 840.15
  A 1.80 1.43 -11.1 0 1 537.86 839.41
  Q 550.17 831.30 556.04 817.75"
/>
<path stroke="#fdfaf3" vector-effect="non-scaling-stroke" d="
  M 556.04 817.75
  Q 556.74 817.05 557.94 817.31
  Q 565.13 818.90 572.83 818.50
  Q 579.06 818.17 579.19 818.17
  Q 607.26 817.31 634.74 811.46
  Q 643.93 809.51 653.15 807.72
  Q 656.16 807.13 661.75 807.00
  Q 693.08 806.27 713.17 784.22
  Q 719.90 776.83 724.28 767.68
  Q 738.63 737.73 723.56 706.19
  Q 721.75 702.38 721.50 699.54"
/>
<path stroke="#c19c75" vector-effect="non-scaling-stroke" d="
  M 879.29 654.25
  L 878.54 675.25"
/>
<path stroke="#b8aa96" stroke-opacity="0.741" vector-effect="non-scaling-stroke" d="
  M 878.54 675.25
  L 878.29 681.75"
/>
<path stroke="#c19c75" vector-effect="non-scaling-stroke" d="
  M 878.29 681.75
  L 877.54 704.50"
/>
<path stroke="#b8aa96" stroke-opacity="0.741" vector-effect="non-scaling-stroke" d="
  M 877.54 704.50
  Q 876.87 706.58 877.29 708.75"
/>
<path stroke="#c19c75" vector-effect="non-scaling-stroke" d="
  M 877.29 708.75
  L 876.71 724.25"
/>
<path stroke="#b8aa96" stroke-opacity="0.741" vector-effect="non-scaling-stroke" d="
  M 876.71 724.25
  Q 875.54 726.90 876.29 729.75"
/>
<path stroke="#c19c75" vector-effect="non-scaling-stroke" d="
  M 876.29 729.75
  Q 876.15 736.98 875.49 744.18
  Q 875.18 747.66 875.08 752.71
  Q 875.00 757.00 874.51 761.27
  Q 874.08 764.97 874.07 768.76
  Q 874.05 772.54 873.71 776.29
  Q 873.17 782.10 873.07 785.10
  Q 872.94 789.28 872.68 793.95
  A 2.22 2.22 -6.6 0 1 871.08 795.97
  Q 864.52 797.86 859.13 801.95
  Q 854.84 805.22 852.82 806.32
  Q 844.41 810.91 834.69 815.19
  Q 803.78 828.77 773.00 838.54"
/>
<path stroke="#fdf8ec" vector-effect="non-scaling-stroke" d="
  M 773.00 838.54
  Q 771.26 836.90 770.81 835.69
  Q 762.55 813.38 759.25 788.25
  Q 754.31 750.64 754.55 715.25
  Q 754.62 704.25 754.33 693.25
  Q 754.31 692.59 754.60 691.92
  Q 754.87 691.29 755.11 690.64
  A 0.57 0.39 -69.4 0 0 754.95 689.98
  Q 754.76 689.91 754.50 689.96"
/>
<path stroke="#d2a885" vector-effect="non-scaling-stroke" d="
  M 461.60 513.91
  Q 462.89 515.08 464.74 515.85
  Q 465.43 516.14 465.25 515.41
  Q 464.40 512.10 463.26 509.25
  Q 462.29 506.85 460.16 503.62
  Q 454.18 494.54 448.13 485.49
  Q 442.91 477.68 437.47 468.58
  Q 428.62 453.77 419.31 439.24
  Q 418.77 438.40 417.91 435.90
  Q 417.28 434.08 415.82 432.73
  Q 415.20 432.16 414.50 432.20
  Q 413.49 432.26 413.16 433.07
  Q 412.91 433.69 413.24 434.91
  Q 416.78 447.76 425.19 461.56
  Q 438.81 483.94 448.42 497.57
  Q 448.47 497.66 451.83 502.63
  Q 456.03 508.84 461.60 513.91"
/>
<path stroke="#fcb7be" vector-effect="non-scaling-stroke" d="
  M 740.34 283.30
  Q 739.96 284.91 739.50 286.52
  Q 738.92 288.50 740.13 286.82
  Q 743.24 282.48 745.28 277.39
  Q 745.71 276.33 744.83 277.07
  Q 743.03 278.58 741.66 280.33
  Q 740.76 281.49 740.34 283.30"
/>
<path stroke="#af4d4f" vector-effect="non-scaling-stroke" d="
  M 603.75 282.96
  Q 595.93 283.24 603.50 284.29"
/>
<path stroke="#923c35" vector-effect="non-scaling-stroke" d="
  M 603.50 284.29
  Q 614.76 289.47 617.06 290.19
  Q 623.00 292.05 628.41 295.11
  Q 632.08 297.19 634.55 300.57
  Q 634.95 301.11 635.21 301.13
  Q 635.58 301.15 634.56 299.61
  Q 634.14 298.99 634.01 298.25
  Q 632.89 291.90 631.80 285.99
  Q 631.12 282.36 629.56 280.19
  Q 627.69 277.58 624.00 277.79
  Q 620.90 277.97 617.95 278.97
  Q 610.96 281.36 603.75 282.96"
/>
<path stroke="#dd6167" vector-effect="non-scaling-stroke" d="
  M 603.50 284.29
  Q 604.43 283.79 603.75 282.96"
/>
<path stroke="#b18e7d" vector-effect="non-scaling-stroke" d="
  M 596.71 284.75
  Q 598.80 281.76 594.50 282.79"
/>
<path stroke="#a32a23" vector-effect="non-scaling-stroke" d="
  M 594.50 282.79
  Q 590.09 282.74 585.68 282.74
  Q 580.30 282.74 576.97 283.83
  Q 568.40 286.65 561.81 294.31
  Q 557.37 299.48 554.67 304.39
  Q 552.71 307.96 551.51 314.02
  Q 548.77 327.76 546.00 341.50
  Q 544.98 346.57 546.01 353.28
  Q 546.04 353.44 546.65 358.76
  Q 547.01 361.92 548.26 364.82
  A 0.59 0.59 -20.3 0 0 548.98 365.15
  Q 551.06 364.51 552.43 365.20
  Q 553.15 365.57 553.24 365.61
  Q 558.44 367.68 563.64 369.73
  Q 575.26 374.32 587.52 374.41
  Q 596.02 374.47 603.22 371.89
  Q 610.85 369.16 617.36 364.05
  A 1.22 1.13 28.8 0 1 618.24 363.83
  Q 621.90 364.32 624.34 362.24
  Q 624.88 361.78 628.32 357.40
  Q 633.84 350.35 636.82 341.90
  Q 638.73 336.48 638.93 335.78
  Q 639.83 332.62 639.71 329.25
  Q 639.35 319.34 637.77 309.55
  A 0.56 0.55 -5.9 0 0 637.20 309.09
  Q 635.88 309.12 634.68 308.76
  Q 633.53 308.40 632.38 307.03
  Q 626.96 300.56 620.44 297.81
  Q 608.55 292.81 601.59 288.62
  Q 601.50 288.56 599.72 287.64
  Q 597.82 286.66 596.71 284.75"
/>
<path stroke="#f09083" vector-effect="non-scaling-stroke" d="
  M 594.50 282.79
  L 593.94 283.02
  A 0.33 0.32 53.3 0 0 593.87 283.58
  Q 595.10 284.60 596.71 284.75"
/>
</g>
<path fill="#461a06" d="
  M 565.50 77.04
  L 563.99 77.36
  A 1.05 0.78 -80.4 0 0 563.35 77.97
  Q 562.91 79.02 561.80 79.42
  Q 561.25 79.63 560.97 79.94
  Q 559.53 81.57 558.52 83.52
  Q 558.32 83.90 557.64 84.68
  Q 556.85 85.59 557.79 86.40
  A 0.45 0.38 45.3 0 1 557.84 87.05
  Q 557.22 87.53 556.25 87.26
  Q 553.36 86.45 551.00 88.21
  Q 536.25 87.32 522.50 89.25
  Q 496.95 92.84 472.25 102.54
  Q 467.28 104.25 462.29 105.91
  Q 456.81 107.75 452.56 109.81
  Q 436.99 117.39 420.44 128.19
  Q 416.24 130.92 414.25 132.96
  Q 411.23 134.65 408.31 137.81
  Q 391.26 156.32 377.26 172.69
  Q 369.66 181.58 365.14 188.55
  Q 354.37 205.14 348.56 222.31
  Q 344.29 234.94 338.20 257.56
  Q 336.75 262.94 336.31 268.62
  Q 334.08 296.88 333.00 312.50
  Q 332.39 321.34 334.46 330.50
  Q 328.74 333.50 325.20 338.94
  Q 324.87 339.44 324.29 339.50
  Q 323.18 331.82 321.50 312.75
  Q 320.56 302.08 320.89 295.49
  Q 321.27 287.71 322.08 279.97
  Q 322.90 272.19 324.35 264.59
  Q 331.44 227.43 348.56 194.06
  Q 352.05 187.26 356.54 180.51
  Q 360.09 175.17 365.50 167.57
  Q 384.90 140.33 413.19 119.19
  Q 424.05 111.07 434.57 105.44
  Q 441.26 101.87 452.66 96.92
  Q 485.78 82.53 521.70 77.23
  Q 532.41 75.65 543.25 76.06
  Q 554.38 76.49 565.50 77.04
  Z"
/>
<path fill="#572608" d="
  M 565.50 77.04
  Q 569.92 77.57 589.50 80.50
  Q 608.03 83.27 624.41 87.70
  Q 634.20 90.35 643.55 93.44
  Q 660.16 98.92 675.82 106.69
  Q 684.85 111.17 693.13 116.65
  Q 723.46 136.75 746.20 165.29
  Q 749.25 169.11 753.00 174.90
  Q 755.13 178.20 757.31 181.47
  Q 759.58 184.90 761.31 188.24
  Q 769.58 204.23 775.25 216.50
  Q 780.05 226.88 784.00 239.71
  Q 776.63 242.24 775.21 249.99
  Q 775.14 250.36 774.79 250.25
  Q 774.62 248.59 774.00 247.04
  Q 767.71 231.29 761.50 215.50
  Q 756.26 202.17 751.04 193.25
  Q 745.87 183.11 739.19 175.56
  Q 735.24 171.10 727.01 162.50
  Q 726.95 162.44 721.73 156.76
  Q 716.92 151.52 710.81 146.44
  Q 699.15 136.73 691.33 130.41
  Q 685.85 125.98 680.17 122.89
  Q 658.84 111.32 635.75 103.71
  Q 617.87 96.86 599.00 93.54
  L 580.75 90.21
  Q 574.83 88.83 568.75 89.29
  L 551.00 88.21
  Q 553.36 86.45 556.25 87.26
  Q 557.22 87.53 557.84 87.05
  A 0.45 0.38 45.3 0 0 557.79 86.40
  Q 556.85 85.59 557.64 84.68
  Q 558.32 83.90 558.52 83.52
  Q 559.53 81.57 560.97 79.94
  Q 561.25 79.63 561.80 79.42
  Q 562.91 79.02 563.35 77.97
  A 1.05 0.78 -80.4 0 1 563.99 77.36
  L 565.50 77.04
  Z"
/>
<path fill="#fdf4dd" d="
  M 551.00 88.21
  L 568.75 89.29
  Q 568.69 90.48 567.66 90.40
  Q 566.63 90.31 566.35 90.36
  Q 547.21 93.71 528.64 97.91
  Q 526.83 98.32 525.47 97.06
  Q 522.43 94.24 519.02 94.19
  Q 518.98 94.19 512.46 95.30
  Q 504.58 96.64 496.75 98.21
  L 494.75 98.54
  Q 485.05 100.15 475.49 102.40
  Q 475.41 102.42 474.22 102.90
  Q 473.22 103.30 472.25 102.54
  Q 496.95 92.84 522.50 89.25
  Q 536.25 87.32 551.00 88.21
  Z"
/>
<path fill="#eebb66" d="
  M 568.75 89.29
  Q 574.83 88.83 580.75 90.21
  Q 580.27 90.89 580.56 91.69
  Q 582.15 95.95 579.74 98.51
  Q 578.33 100.02 574.26 100.90
  Q 554.05 105.32 533.80 109.52
  Q 529.80 110.35 525.92 111.62
  Q 524.96 111.93 524.71 112.75
  Q 511.18 104.59 496.75 98.21
  Q 504.58 96.64 512.46 95.30
  Q 518.98 94.19 519.02 94.19
  Q 522.43 94.24 525.47 97.06
  Q 526.83 98.32 528.64 97.91
  Q 547.21 93.71 566.35 90.36
  Q 566.63 90.31 567.66 90.40
  Q 568.69 90.48 568.75 89.29
  Z"
/>
<path fill="#fdf4dd" d="
  M 580.75 90.21
  L 599.00 93.54
  Q 599.02 94.38 597.94 94.69
  Q 576.98 100.65 568.50 102.76
  Q 547.26 108.06 526.00 113.29
  Q 525.30 113.15 524.71 112.75
  Q 524.96 111.93 525.92 111.62
  Q 529.80 110.35 533.80 109.52
  Q 554.05 105.32 574.26 100.90
  Q 578.33 100.02 579.74 98.51
  Q 582.15 95.95 580.56 91.69
  Q 580.27 90.89 580.75 90.21
  Z"
/>
<path fill="#eebb66" d="
  M 599.00 93.54
  Q 617.87 96.86 635.75 103.71
  Q 634.76 104.65 633.73 105.54
  Q 632.67 106.47 631.43 106.95
  Q 627.83 108.35 621.00 110.25
  Q 613.86 112.24 606.35 117.79
  Q 604.65 119.03 602.92 119.84
  Q 601.11 120.69 599.29 121.57
  Q 597.78 122.31 599.45 122.08
  Q 608.59 120.80 617.25 120.66
  Q 629.39 120.47 628.84 132.43
  A 0.35 0.34 82.0 0 0 629.29 132.78
  Q 636.46 130.35 643.76 128.32
  Q 648.84 126.92 651.87 127.63
  Q 658.18 129.12 659.63 136.33
  Q 659.72 136.81 659.59 137.66
  Q 659.35 139.10 660.78 138.75
  Q 661.82 138.49 662.27 138.50
  Q 666.82 138.63 669.71 141.49
  Q 672.48 144.24 672.81 148.25
  Q 673.15 152.34 670.55 156.07
  Q 669.51 157.58 671.25 157.00
  Q 673.25 156.34 675.28 155.81
  Q 677.68 155.18 679.40 155.32
  Q 683.10 155.61 685.65 158.02
  Q 687.93 160.16 688.70 163.66
  Q 689.97 169.42 685.88 173.20
  Q 683.81 175.12 678.92 176.46
  Q 658.97 181.91 646.06 186.56
  Q 639.64 188.88 633.83 189.52
  Q 627.55 190.21 624.10 187.75
  Q 619.46 184.45 620.30 177.02
  A 0.31 0.31 -7.5 0 0 619.88 176.70
  Q 603.67 183.17 587.43 189.20
  Q 585.78 189.81 583.57 190.94
  Q 581.67 191.90 579.70 192.71
  Q 575.62 194.37 571.70 193.53
  Q 567.93 192.71 565.19 189.58
  Q 559.77 183.37 564.19 174.44
  Q 564.63 173.55 563.50 173.71
  Q 565.64 169.37 562.69 166.81
  Q 553.58 158.94 539.59 150.83
  Q 537.73 149.75 529.50 145.86
  Q 524.40 143.44 519.72 140.22
  A 0.93 0.86 -72.9 0 1 519.35 139.44
  Q 519.59 134.06 513.39 136.03
  A 2.11 2.10 48.3 0 1 511.92 135.94
  Q 505.38 133.04 498.94 129.31
  Q 496.29 127.78 487.74 126.33
  A 1.47 1.25 31.2 0 0 486.81 126.48
  Q 484.91 127.55 485.75 129.13
  Q 486.19 129.95 487.69 130.91
  Q 495.26 135.75 503.37 140.57
  A 0.46 0.45 -47.9 0 1 503.40 141.32
  L 489.33 151.83
  A 1.87 1.79 -48.0 0 1 487.33 151.98
  Q 481.16 148.49 474.75 147.34
  A 1.27 1.08 29.4 0 0 473.83 147.52
  Q 471.70 149.02 472.30 151.58
  A 1.56 1.28 16.7 0 0 472.83 152.37
  Q 484.14 161.19 495.45 170.02
  Q 498.92 172.74 500.75 172.75
  Q 506.84 172.79 506.50 166.74
  Q 506.40 164.88 504.88 163.77
  L 492.64 154.79
  A 0.41 0.40 -46.5 0 1 492.63 154.16
  Q 494.23 152.82 497.69 150.94
  Q 503.38 147.85 509.06 144.74
  A 0.86 0.85 -43.2 0 1 509.92 144.76
  Q 525.68 154.48 541.26 164.49
  Q 548.42 169.09 555.00 174.50
  Q 556.07 175.38 558.50 176.04
  Q 557.80 176.28 557.16 176.66
  Q 556.40 177.12 555.87 177.29
  Q 545.03 180.82 534.20 184.38
  Q 529.81 185.83 518.15 189.07
  Q 508.85 191.66 502.31 194.56
  Q 495.89 197.42 491.33 194.38
  Q 487.67 191.92 487.06 187.40
  Q 486.44 182.88 489.59 178.78
  Q 490.70 177.33 489.02 178.00
  L 469.00 185.96
  Q 460.88 189.89 452.54 193.35
  Q 446.43 195.89 441.81 192.44
  Q 436.04 188.12 438.06 180.31
  Q 439.33 175.40 444.42 173.30
  Q 447.77 171.92 447.87 171.86
  Q 462.26 164.83 476.49 157.48
  A 0.62 0.37 -23.9 0 0 476.86 156.96
  Q 476.79 156.69 476.19 156.94
  Q 460.10 163.61 441.00 167.75
  Q 437.56 168.49 433.79 167.16
  Q 430.42 165.98 428.11 163.14
  Q 422.93 156.76 426.45 149.59
  Q 428.24 145.93 432.92 142.67
  Q 438.26 138.95 444.25 136.25
  Q 446.90 135.06 451.89 131.84
  A 1.54 0.66 -78.8 0 0 452.41 131.08
  L 454.50 125.91
  Q 454.85 125.04 454.02 125.25
  Q 437.79 129.21 421.56 133.06
  Q 417.48 134.03 414.25 132.96
  Q 416.24 130.92 420.44 128.19
  Q 436.99 117.39 452.56 109.81
  Q 456.81 107.75 462.29 105.91
  Q 467.28 104.25 472.25 102.54
  Q 473.22 103.30 474.22 102.90
  Q 475.41 102.42 475.49 102.40
  Q 485.05 100.15 494.75 98.54
  Q 493.26 101.28 495.44 102.81
  Q 514.24 115.99 534.44 130.38
  A 1.10 1.10 -68.7 0 1 534.89 131.41
  Q 534.47 134.90 539.02 134.72
  Q 540.72 134.65 542.10 135.67
  Q 551.82 142.85 562.30 151.06
  Q 564.72 152.95 566.09 153.38
  Q 568.85 154.24 570.76 152.29
  Q 572.25 150.78 572.28 148.74
  Q 572.31 146.42 570.31 144.94
  Q 560.63 137.78 550.96 130.13
  Q 550.44 129.72 551.08 129.56
  L 577.54 122.91
  A 3.20 3.07 56.3 0 1 580.24 123.51
  L 595.20 135.30
  Q 595.92 135.86 595.03 136.04
  Q 585.58 137.96 576.39 141.29
  A 0.73 0.73 61.2 0 0 576.06 142.43
  Q 578.23 145.25 581.82 144.63
  Q 591.67 142.95 601.45 140.91
  A 1.03 1.03 -30.6 0 1 602.32 141.13
  L 617.56 154.11
  Q 617.94 154.43 617.45 154.56
  Q 610.21 156.45 603.69 160.19
  Q 601.26 161.58 592.76 165.60
  A 1.57 1.35 -2.1 0 0 592.07 166.24
  Q 590.63 168.99 593.22 169.08
  Q 594.08 169.11 595.74 168.68
  Q 611.05 164.69 626.23 161.31
  A 3.20 3.18 -32.9 0 1 628.83 161.86
  Q 631.76 164.03 634.25 165.50
  Q 637.56 167.46 639.18 164.00
  Q 640.82 160.48 637.49 158.75
  Q 636.40 158.17 637.63 158.06
  Q 641.49 157.69 645.25 156.50
  Q 650.18 154.93 659.75 155.46
  Q 659.84 155.46 661.23 155.61
  Q 664.90 156.00 666.00 152.75
  Q 666.79 150.41 665.46 148.70
  Q 664.47 147.42 662.19 147.25
  Q 658.46 146.98 655.31 147.56
  Q 649.18 148.70 644.01 148.52
  Q 643.57 148.51 643.04 148.70
  Q 641.76 149.17 638.75 149.50
  Q 634.38 149.98 630.15 151.54
  Q 628.08 152.30 626.26 151.01
  L 611.74 140.74
  Q 608.86 138.71 612.38 138.82
  Q 615.46 138.92 618.35 137.59
  Q 620.21 136.73 620.90 135.57
  Q 622.02 133.71 619.98 131.85
  Q 618.56 130.56 616.88 130.94
  L 604.43 133.73
  A 1.62 1.44 -28.7 0 1 603.07 133.42
  Q 595.04 126.60 586.18 121.26
  Q 585.75 121.00 586.22 120.82
  Q 590.71 119.20 597.25 118.75
  Q 602.66 118.38 601.28 113.83
  Q 600.74 112.05 599.44 111.28
  Q 597.89 110.36 596.01 110.88
  Q 594.04 111.42 593.93 111.44
  Q 586.35 112.82 578.84 114.53
  Q 576.37 115.10 574.31 114.46
  Q 572.07 113.77 569.95 112.73
  A 0.83 0.71 36.0 0 0 569.10 112.80
  Q 567.31 114.31 570.53 116.01
  Q 571.67 116.61 570.43 116.94
  Q 556.95 120.51 545.22 125.55
  A 0.90 0.89 -38.3 0 1 544.34 125.45
  Q 535.49 118.88 526.00 113.29
  Q 547.26 108.06 568.50 102.76
  Q 576.98 100.65 597.94 94.69
  Q 599.02 94.38 599.00 93.54
  Z"
/>
<path fill="#6f2f0b" d="
  M 496.75 98.21
  Q 511.18 104.59 524.71 112.75
  Q 525.30 113.15 526.00 113.29
  Q 535.49 118.88 544.34 125.45
  A 0.90 0.89 -38.3 0 0 545.22 125.55
  Q 556.95 120.51 570.43 116.94
  Q 571.67 116.61 570.53 116.01
  Q 567.31 114.31 569.10 112.80
  A 0.83 0.71 36.0 0 1 569.95 112.73
  Q 572.07 113.77 574.31 114.46
  Q 576.37 115.10 578.84 114.53
  Q 586.35 112.82 593.93 111.44
  Q 594.04 111.42 596.01 110.88
  Q 597.89 110.36 599.44 111.28
  Q 600.74 112.05 601.28 113.83
  Q 602.66 118.38 597.25 118.75
  Q 590.71 119.20 586.22 120.82
  Q 585.75 121.00 586.18 121.26
  Q 595.04 126.60 603.07 133.42
  A 1.62 1.44 -28.7 0 0 604.43 133.73
  L 616.88 130.94
  Q 618.56 130.56 619.98 131.85
  Q 622.02 133.71 620.90 135.57
  Q 620.21 136.73 618.35 137.59
  Q 615.46 138.92 612.38 138.82
  Q 608.86 138.71 611.74 140.74
  L 626.26 151.01
  Q 628.08 152.30 630.15 151.54
  Q 634.38 149.98 638.75 149.50
  Q 641.76 149.17 643.04 148.70
  Q 643.57 148.51 644.01 148.52
  Q 649.18 148.70 655.31 147.56
  Q 658.46 146.98 662.19 147.25
  Q 664.47 147.42 665.46 148.70
  Q 666.79 150.41 666.00 152.75
  Q 664.90 156.00 661.23 155.61
  Q 659.84 155.46 659.75 155.46
  Q 650.18 154.93 645.25 156.50
  Q 641.49 157.69 637.63 158.06
  Q 636.40 158.17 637.49 158.75
  Q 640.82 160.48 639.18 164.00
  Q 637.56 167.46 634.25 165.50
  Q 631.76 164.03 628.83 161.86
  A 3.20 3.18 -32.9 0 0 626.23 161.31
  Q 611.05 164.69 595.74 168.68
  Q 594.08 169.11 593.22 169.08
  Q 590.63 168.99 592.07 166.24
  A 1.57 1.35 -2.1 0 1 592.76 165.60
  Q 601.26 161.58 603.69 160.19
  Q 610.21 156.45 617.45 154.56
  Q 617.94 154.43 617.56 154.11
  L 602.32 141.13
  A 1.03 1.03 -30.6 0 0 601.45 140.91
  Q 591.67 142.95 581.82 144.63
  Q 578.23 145.25 576.06 142.43
  A 0.73 0.73 61.2 0 1 576.39 141.29
  Q 585.58 137.96 595.03 136.04
  Q 595.92 135.86 595.20 135.30
  L 580.24 123.51
  A 3.20 3.07 56.3 0 0 577.54 122.91
  L 551.08 129.56
  Q 550.44 129.72 550.96 130.13
  Q 560.63 137.78 570.31 144.94
  Q 572.31 146.42 572.28 148.74
  Q 572.25 150.78 570.76 152.29
  Q 568.85 154.24 566.09 153.38
  Q 564.72 152.95 562.30 151.06
  Q 551.82 142.85 542.10 135.67
  Q 540.72 134.65 539.02 134.72
  Q 534.47 134.90 534.89 131.41
  A 1.10 1.10 -68.7 0 0 534.44 130.38
  Q 514.24 115.99 495.44 102.81
  Q 493.26 101.28 494.75 98.54
  L 496.75 98.21
  Z"
/>
<path fill="#fdf4dd" d="
  M 635.75 103.71
  Q 658.84 111.32 680.17 122.89
  Q 685.85 125.98 691.33 130.41
  Q 699.15 136.73 710.81 146.44
  Q 716.92 151.52 721.73 156.76
  Q 726.95 162.44 727.01 162.50
  Q 735.24 171.10 739.19 175.56
  Q 745.87 183.11 751.04 193.25
  Q 749.41 195.35 747.03 196.56
  Q 741.41 199.41 735.43 201.42
  Q 724.59 205.05 713.87 207.98
  A 3.71 3.66 8.6 0 0 711.76 209.51
  Q 708.51 214.46 705.06 218.81
  Q 703.60 220.66 703.50 222.46
  Q 699.99 222.16 696.53 221.58
  Q 694.85 221.30 691.56 222.06
  Q 679.06 224.96 675.22 226.14
  Q 663.55 229.75 661.25 230.00
  Q 659.37 230.21 659.12 231.43
  A 3.02 3.00 82.1 0 1 657.57 233.49
  Q 650.65 237.11 644.55 241.40
  Q 643.70 241.99 642.74 243.35
  Q 641.94 244.48 640.82 245.32
  Q 638.33 247.19 640.48 248.15
  Q 641.36 248.55 642.56 248.24
  Q 647.60 246.90 653.19 243.94
  Q 660.39 240.12 679.82 231.34
  Q 687.17 228.02 695.25 227.79
  Q 693.11 231.79 689.49 234.51
  Q 682.74 239.60 675.33 244.21
  Q 674.08 244.98 673.30 246.22
  Q 660.77 266.15 640.94 279.69
  Q 639.59 280.60 636.96 281.25
  Q 633.70 270.82 622.50 272.00
  Q 618.04 272.47 606.16 275.93
  Q 601.11 277.40 597.56 277.55
  Q 593.13 277.72 588.73 277.14
  Q 583.77 276.47 581.22 276.79
  Q 569.36 278.26 560.69 286.69
  Q 554.56 292.64 549.79 300.50
  Q 549.77 299.45 548.50 299.75
  Q 546.32 300.27 543.24 299.85
  Q 514.96 296.06 492.06 279.19
  Q 488.54 276.59 486.25 273.71
  Q 487.79 273.29 489.31 272.81
  Q 490.91 272.30 492.38 272.07
  Q 506.61 269.80 520.71 266.80
  Q 534.15 263.93 549.75 265.00
  Q 551.13 265.09 552.07 265.57
  Q 553.88 266.49 554.11 266.54
  Q 558.52 267.42 559.25 263.00
  Q 559.77 259.84 557.53 258.36
  Q 556.33 257.57 553.28 257.65
  Q 550.30 257.73 547.38 257.14
  Q 545.65 256.78 544.09 256.85
  Q 542.41 256.93 540.74 256.88
  Q 538.40 256.82 535.84 257.38
  Q 532.64 258.07 529.36 258.06
  Q 527.26 258.06 525.66 258.32
  Q 523.82 258.62 521.96 258.86
  Q 519.14 259.23 516.47 259.88
  Q 508.40 261.86 497.75 263.50
  Q 488.54 264.92 478.04 268.75
  Q 477.84 266.70 476.31 264.94
  Q 466.97 254.17 459.94 240.81
  Q 458.32 237.74 456.25 236.50
  Q 455.44 236.01 451.96 233.00
  Q 451.47 231.66 451.81 230.81
  Q 460.27 209.96 469.19 193.19
  Q 471.29 189.23 469.00 185.96
  L 489.02 178.00
  Q 490.70 177.33 489.59 178.78
  Q 486.44 182.88 487.06 187.40
  Q 487.67 191.92 491.33 194.38
  Q 495.89 197.42 502.31 194.56
  Q 508.85 191.66 518.15 189.07
  Q 529.81 185.83 534.20 184.38
  Q 545.03 180.82 555.87 177.29
  Q 556.40 177.12 557.16 176.66
  Q 557.80 176.28 558.50 176.04
  Q 561.59 176.01 563.50 173.71
  Q 564.63 173.55 564.19 174.44
  Q 559.77 183.37 565.19 189.58
  Q 567.93 192.71 571.70 193.53
  Q 575.62 194.37 579.70 192.71
  Q 581.67 191.90 583.57 190.94
  Q 585.78 189.81 587.43 189.20
  Q 603.67 183.17 619.88 176.70
  A 0.31 0.31 -7.5 0 1 620.30 177.02
  Q 619.46 184.45 624.10 187.75
  Q 627.55 190.21 633.83 189.52
  Q 639.64 188.88 646.06 186.56
  Q 658.97 181.91 678.92 176.46
  Q 683.81 175.12 685.88 173.20
  Q 689.97 169.42 688.70 163.66
  Q 687.93 160.16 685.65 158.02
  Q 683.10 155.61 679.40 155.32
  Q 677.68 155.18 675.28 155.81
  Q 673.25 156.34 671.25 157.00
  Q 669.51 157.58 670.55 156.07
  Q 673.15 152.34 672.81 148.25
  Q 672.48 144.24 669.71 141.49
  Q 666.82 138.63 662.27 138.50
  Q 661.82 138.49 660.78 138.75
  Q 659.35 139.10 659.59 137.66
  Q 659.72 136.81 659.63 136.33
  Q 658.18 129.12 651.87 127.63
  Q 648.84 126.92 643.76 128.32
  Q 636.46 130.35 629.29 132.78
  A 0.35 0.34 82.0 0 1 628.84 132.43
  Q 629.39 120.47 617.25 120.66
  Q 608.59 120.80 599.45 122.08
  Q 597.78 122.31 599.29 121.57
  Q 601.11 120.69 602.92 119.84
  Q 604.65 119.03 606.35 117.79
  Q 613.86 112.24 621.00 110.25
  Q 627.83 108.35 631.43 106.95
  Q 632.67 106.47 633.73 105.54
  Q 634.76 104.65 635.75 103.71
  Z"
/>
<path fill="#fdf8eb" d="
  M 469.00 185.96
  Q 471.29 189.23 469.19 193.19
  Q 460.27 209.96 451.81 230.81
  Q 451.47 231.66 451.96 233.00
  Q 451.34 233.17 450.94 234.19
  Q 435.45 273.38 431.06 286.06
  Q 425.57 301.91 418.19 329.19
  Q 415.33 339.75 414.75 343.46
  Q 410.75 343.55 408.56 345.56
  Q 401.84 351.74 395.11 357.92
  Q 394.75 358.25 394.67 357.76
  Q 393.85 352.70 392.69 350.81
  Q 388.63 344.22 381.60 345.17
  Q 376.43 345.87 376.33 345.88
  Q 372.63 346.05 368.86 346.26
  Q 367.85 346.31 366.95 345.87
  Q 362.23 343.55 358.40 344.42
  Q 355.52 345.08 352.22 349.07
  Q 347.66 354.60 343.95 360.83
  Q 343.12 362.22 343.42 360.63
  Q 344.43 355.12 344.90 349.14
  Q 344.91 349.00 345.47 344.51
  Q 345.99 340.30 344.75 336.75
  Q 342.75 331.05 336.25 331.00
  Q 334.96 330.99 334.46 330.50
  Q 332.39 321.34 333.00 312.50
  Q 334.08 296.88 336.31 268.62
  Q 336.75 262.94 338.20 257.56
  Q 344.29 234.94 348.56 222.31
  Q 354.37 205.14 365.14 188.55
  Q 369.66 181.58 377.26 172.69
  Q 391.26 156.32 408.31 137.81
  Q 411.23 134.65 414.25 132.96
  Q 417.48 134.03 421.56 133.06
  Q 437.79 129.21 454.02 125.25
  Q 454.85 125.04 454.50 125.91
  L 452.41 131.08
  A 1.54 0.66 -78.8 0 1 451.89 131.84
  Q 446.90 135.06 444.25 136.25
  Q 438.26 138.95 432.92 142.67
  Q 428.24 145.93 426.45 149.59
  Q 422.93 156.76 428.11 163.14
  Q 430.42 165.98 433.79 167.16
  Q 437.56 168.49 441.00 167.75
  Q 460.10 163.61 476.19 156.94
  Q 476.79 156.69 476.86 156.96
  A 0.62 0.37 -23.9 0 1 476.49 157.48
  Q 462.26 164.83 447.87 171.86
  Q 447.77 171.92 444.42 173.30
  Q 439.33 175.40 438.06 180.31
  Q 436.04 188.12 441.81 192.44
  Q 446.43 195.89 452.54 193.35
  Q 460.88 189.89 469.00 185.96
  Z"
/>
<path fill="#77340c" d="
  M 563.50 173.71
  Q 561.59 176.01 558.50 176.04
  Q 556.07 175.38 555.00 174.50
  Q 548.42 169.09 541.26 164.49
  Q 525.68 154.48 509.92 144.76
  A 0.86 0.85 -43.2 0 0 509.06 144.74
  Q 503.38 147.85 497.69 150.94
  Q 494.23 152.82 492.63 154.16
  A 0.41 0.40 -46.5 0 0 492.64 154.79
  L 504.88 163.77
  Q 506.40 164.88 506.50 166.74
  Q 506.84 172.79 500.75 172.75
  Q 498.92 172.74 495.45 170.02
  Q 484.14 161.19 472.83 152.37
  A 1.56 1.28 16.7 0 1 472.30 151.58
  Q 471.70 149.02 473.83 147.52
  A 1.27 1.08 29.4 0 1 474.75 147.34
  Q 481.16 148.49 487.33 151.98
  A 1.87 1.79 -48.0 0 0 489.33 151.83
  L 503.40 141.32
  A 0.46 0.45 -47.9 0 0 503.37 140.57
  Q 495.26 135.75 487.69 130.91
  Q 486.19 129.95 485.75 129.13
  Q 484.91 127.55 486.81 126.48
  A 1.47 1.25 31.2 0 1 487.74 126.33
  Q 496.29 127.78 498.94 129.31
  Q 505.38 133.04 511.92 135.94
  A 2.11 2.10 48.3 0 0 513.39 136.03
  Q 519.59 134.06 519.35 139.44
  A 0.93 0.86 -72.9 0 0 519.72 140.22
  Q 524.40 143.44 529.50 145.86
  Q 537.73 149.75 539.59 150.83
  Q 553.58 158.94 562.69 166.81
  Q 565.64 169.37 563.50 173.71
  Z"
/>
<path fill="#fdfcfa" d="
  M 751.04 193.25
  Q 756.26 202.17 761.50 215.50
  Q 767.71 231.29 774.00 247.04
  Q 774.62 248.59 774.79 250.25
  Q 774.66 253.57 772.52 255.50
  Q 770.30 257.51 770.25 254.52
  Q 770.18 250.41 767.41 248.00
  Q 765.69 246.51 763.63 246.41
  Q 761.23 246.29 759.50 248.00
  Q 754.98 252.48 750.45 257.18
  A 0.79 0.77 31.5 0 1 749.61 257.37
  Q 746.59 256.30 743.77 254.97
  Q 739.37 252.92 737.89 252.80
  Q 733.51 252.45 731.22 257.24
  Q 729.71 260.39 728.78 263.64
  A 1.04 1.04 -69.1 0 1 727.33 264.29
  Q 726.24 263.75 725.34 264.08
  Q 724.65 264.34 724.22 265.42
  Q 719.10 278.22 714.78 291.32
  Q 713.22 296.08 713.80 298.19
  Q 714.87 302.10 720.79 302.58
  A 1.04 1.04 -78.5 0 1 721.69 303.94
  Q 719.18 311.66 725.22 315.75
  Q 728.00 317.63 731.16 317.29
  Q 734.46 316.92 737.16 314.81
  Q 737.49 314.56 739.84 312.69
  Q 741.33 311.50 742.19 310.19
  Q 746.56 303.52 750.91 298.87
  Q 751.25 298.49 751.31 298.99
  Q 751.54 301.07 751.56 303.17
  Q 751.58 306.66 751.82 307.81
  Q 753.37 314.95 761.25 316.04
  Q 760.58 317.89 759.78 319.68
  Q 759.03 321.32 757.62 322.88
  Q 747.67 333.81 739.16 345.89
  Q 733.93 353.32 727.44 366.19
  Q 721.62 377.72 718.81 389.12
  Q 716.62 398.00 715.41 408.82
  Q 713.82 423.10 715.76 437.50
  Q 715.84 438.06 715.50 438.46
  Q 676.01 465.60 668.25 513.21
  Q 659.11 514.78 650.26 517.53
  Q 648.58 518.05 643.50 519.00
  Q 610.23 525.20 580.56 543.81
  Q 578.10 545.36 576.54 545.75
  Q 564.96 526.27 543.85 518.09
  Q 531.84 513.43 519.00 512.56
  Q 503.20 511.50 487.56 513.81
  Q 482.64 514.54 477.03 516.36
  Q 470.97 518.33 466.75 519.72
  Q 459.20 522.20 452.19 526.01
  Q 451.98 526.12 451.53 526.70
  L 450.50 528.04
  Q 447.76 525.32 442.94 519.56
  Q 435.77 511.01 413.96 485.75
  Q 416.01 484.07 415.75 480.75
  Q 414.42 463.95 413.58 455.31
  Q 413.12 450.54 411.49 444.36
  Q 403.53 414.29 406.09 383.13
  Q 406.09 383.04 406.72 379.42
  Q 407.05 377.47 406.71 375.50
  L 410.38 371.59
  A 1.01 0.83 23.9 0 1 411.24 371.35
  Q 423.97 373.94 424.82 360.99
  Q 425.22 354.99 424.75 352.75
  Q 423.03 344.53 414.75 343.46
  Q 415.33 339.75 418.19 329.19
  Q 425.57 301.91 431.06 286.06
  Q 435.45 273.38 450.94 234.19
  Q 451.34 233.17 451.96 233.00
  Q 455.44 236.01 456.25 236.50
  Q 458.32 237.74 459.94 240.81
  Q 466.97 254.17 476.31 264.94
  Q 477.84 266.70 478.04 268.75
  Q 474.07 270.73 470.28 273.01
  Q 466.94 275.03 468.81 278.19
  Q 470.57 281.14 473.16 279.50
  Q 474.98 278.35 475.08 278.30
  Q 480.50 275.61 486.25 273.71
  Q 488.54 276.59 492.06 279.19
  Q 514.96 296.06 543.24 299.85
  Q 546.32 300.27 548.50 299.75
  Q 549.77 299.45 549.79 300.50
  Q 544.86 308.52 543.28 317.68
  Q 542.31 323.29 541.75 325.73
  Q 540.82 329.73 540.20 333.79
  Q 539.90 335.68 539.84 340.23
  Q 539.80 343.50 539.19 346.71
  Q 538.80 348.80 539.26 350.78
  Q 540.23 354.99 540.58 359.28
  Q 540.86 362.65 541.87 365.01
  Q 543.66 369.20 544.81 370.19
  Q 547.68 372.66 549.72 369.92
  A 0.56 0.53 -56.5 0 1 550.43 369.75
  Q 555.37 372.60 560.31 375.44
  Q 563.67 377.36 567.98 378.45
  Q 570.78 379.16 576.01 380.08
  Q 598.28 383.99 617.91 372.55
  Q 618.40 372.26 618.96 372.16
  Q 621.54 371.67 623.21 371.09
  Q 624.91 370.50 626.78 368.69
  Q 636.37 359.35 641.53 347.06
  Q 644.13 340.86 644.66 339.10
  Q 645.84 335.14 645.75 330.50
  Q 645.43 314.34 641.55 300.49
  Q 638.88 290.96 636.96 281.25
  Q 639.59 280.60 640.94 279.69
  Q 660.77 266.15 673.30 246.22
  Q 674.08 244.98 675.33 244.21
  Q 682.74 239.60 689.49 234.51
  Q 693.11 231.79 695.25 227.79
  Q 697.66 227.66 699.25 228.00
  Q 704.03 229.02 708.19 228.69
  Q 710.66 228.49 710.82 226.34
  Q 710.93 224.71 709.70 223.64
  Q 708.16 222.30 705.75 222.74
  Q 704.56 222.95 703.50 222.46
  Q 703.60 220.66 705.06 218.81
  Q 708.51 214.46 711.76 209.51
  A 3.71 3.66 8.6 0 1 713.87 207.98
  Q 724.59 205.05 735.43 201.42
  Q 741.41 199.41 747.03 196.56
  Q 749.41 195.35 751.04 193.25
  Z
  M 461.60 513.91
  Q 462.89 515.08 464.74 515.85
  Q 465.43 516.14 465.25 515.41
  Q 464.40 512.10 463.26 509.25
  Q 462.29 506.85 460.16 503.62
  Q 454.18 494.54 448.13 485.49
  Q 442.91 477.68 437.47 468.58
  Q 428.62 453.77 419.31 439.24
  Q 418.77 438.40 417.91 435.90
  Q 417.28 434.08 415.82 432.73
  Q 415.20 432.16 414.50 432.20
  Q 413.49 432.26 413.16 433.07
  Q 412.91 433.69 413.24 434.91
  Q 416.78 447.76 425.19 461.56
  Q 438.81 483.94 448.42 497.57
  Q 448.47 497.66 451.83 502.63
  Q 456.03 508.84 461.60 513.91
  Z"
/>
<path fill="#64281c" d="
  M 703.50 222.46
  Q 704.56 222.95 705.75 222.74
  Q 708.16 222.30 709.70 223.64
  Q 710.93 224.71 710.82 226.34
  Q 710.66 228.49 708.19 228.69
  Q 704.03 229.02 699.25 228.00
  Q 697.66 227.66 695.25 227.79
  Q 687.17 228.02 679.82 231.34
  Q 660.39 240.12 653.19 243.94
  Q 647.60 246.90 642.56 248.24
  Q 641.36 248.55 640.48 248.15
  Q 638.33 247.19 640.82 245.32
  Q 641.94 244.48 642.74 243.35
  Q 643.70 241.99 644.55 241.40
  Q 650.65 237.11 657.57 233.49
  A 3.02 3.00 82.1 0 0 659.12 231.43
  Q 659.37 230.21 661.25 230.00
  Q 663.55 229.75 675.22 226.14
  Q 679.06 224.96 691.56 222.06
  Q 694.85 221.30 696.53 221.58
  Q 699.99 222.16 703.50 222.46
  Z"
/>
<path fill="#fa7281" d="
  M 784.00 239.71
  Q 793.74 239.93 795.37 250.28
  Q 795.76 252.75 796.79 250.47
  Q 799.12 245.28 803.62 243.82
  Q 807.74 242.48 811.69 244.66
  Q 814.38 246.16 815.98 248.88
  Q 817.07 250.74 817.37 254.50
  Q 818.00 262.46 820.14 270.16
  Q 820.17 270.25 821.75 274.61
  Q 823.42 279.20 822.47 283.93
  Q 821.83 287.07 819.93 288.95
  Q 817.68 291.17 814.54 291.46
  Q 811.00 291.80 807.78 289.71
  Q 804.49 287.59 803.28 283.85
  Q 802.75 282.22 802.02 283.77
  Q 798.54 291.15 794.00 297.71
  Q 786.92 301.29 780.04 297.50
  L 778.70 295.86
  A 0.39 0.32 -54.2 0 0 778.11 296.01
  Q 775.53 301.85 772.95 307.69
  Q 769.60 315.30 761.25 316.04
  Q 753.37 314.95 751.82 307.81
  Q 751.58 306.66 751.56 303.17
  Q 751.54 301.07 751.31 298.99
  Q 751.25 298.49 750.91 298.87
  Q 746.56 303.52 742.19 310.19
  Q 741.33 311.50 739.84 312.69
  Q 737.49 314.56 737.16 314.81
  Q 734.46 316.92 731.16 317.29
  Q 728.00 317.63 725.22 315.75
  Q 719.18 311.66 721.69 303.94
  A 1.04 1.04 -78.5 0 0 720.79 302.58
  Q 714.87 302.10 713.80 298.19
  Q 713.22 296.08 714.78 291.32
  Q 719.10 278.22 724.22 265.42
  Q 724.65 264.34 725.34 264.08
  Q 726.24 263.75 727.33 264.29
  A 1.04 1.04 -69.1 0 0 728.78 263.64
  Q 729.71 260.39 731.22 257.24
  Q 733.51 252.45 737.89 252.80
  Q 739.37 252.92 743.77 254.97
  Q 746.59 256.30 749.61 257.37
  A 0.79 0.77 31.5 0 0 750.45 257.18
  Q 754.98 252.48 759.50 248.00
  Q 761.23 246.29 763.63 246.41
  Q 765.69 246.51 767.41 248.00
  Q 770.18 250.41 770.25 254.52
  Q 770.30 257.51 772.52 255.50
  Q 774.66 253.57 774.79 250.25
  Q 775.14 250.36 775.21 249.99
  Q 776.63 242.24 784.00 239.71
  Z
  M 740.34 283.30
  Q 739.96 284.91 739.50 286.52
  Q 738.92 288.50 740.13 286.82
  Q 743.24 282.48 745.28 277.39
  Q 745.71 276.33 744.83 277.07
  Q 743.03 278.58 741.66 280.33
  Q 740.76 281.49 740.34 283.30
  Z"
/>
<path fill="#5b281a" d="
  M 486.25 273.71
  Q 480.50 275.61 475.08 278.30
  Q 474.98 278.35 473.16 279.50
  Q 470.57 281.14 468.81 278.19
  Q 466.94 275.03 470.28 273.01
  Q 474.07 270.73 478.04 268.75
  Q 488.54 264.92 497.75 263.50
  Q 508.40 261.86 516.47 259.88
  Q 519.14 259.23 521.96 258.86
  Q 523.82 258.62 525.66 258.32
  Q 527.26 258.06 529.36 258.06
  Q 532.64 258.07 535.84 257.38
  Q 538.40 256.82 540.74 256.88
  Q 542.41 256.93 544.09 256.85
  Q 545.65 256.78 547.38 257.14
  Q 550.30 257.73 553.28 257.65
  Q 556.33 257.57 557.53 258.36
  Q 559.77 259.84 559.25 263.00
  Q 558.52 267.42 554.11 266.54
  Q 553.88 266.49 552.07 265.57
  Q 551.13 265.09 549.75 265.00
  Q 534.15 263.93 520.71 266.80
  Q 506.61 269.80 492.38 272.07
  Q 490.91 272.30 489.31 272.81
  Q 487.79 273.29 486.25 273.71
  Z"
/>
<path fill="#64281c" d="
  M 636.96 281.25
  Q 638.88 290.96 641.55 300.49
  Q 645.43 314.34 645.75 330.50
  Q 645.84 335.14 644.66 339.10
  Q 644.13 340.86 641.53 347.06
  Q 636.37 359.35 626.78 368.69
  Q 624.91 370.50 623.21 371.09
  Q 621.54 371.67 618.96 372.16
  Q 618.40 372.26 617.91 372.55
  Q 598.28 383.99 576.01 380.08
  Q 570.78 379.16 567.98 378.45
  Q 563.67 377.36 560.31 375.44
  Q 555.37 372.60 550.43 369.75
  A 0.56 0.53 -56.5 0 0 549.72 369.92
  Q 547.68 372.66 544.81 370.19
  Q 543.66 369.20 541.87 365.01
  Q 540.86 362.65 540.58 359.28
  Q 540.23 354.99 539.26 350.78
  Q 538.80 348.80 539.19 346.71
  Q 539.80 343.50 539.84 340.23
  Q 539.90 335.68 540.20 333.79
  Q 540.82 329.73 541.75 325.73
  Q 542.31 323.29 543.28 317.68
  Q 544.86 308.52 549.79 300.50
  Q 554.56 292.64 560.69 286.69
  Q 569.36 278.26 581.22 276.79
  Q 583.77 276.47 588.73 277.14
  Q 593.13 277.72 597.56 277.55
  Q 601.11 277.40 606.16 275.93
  Q 618.04 272.47 622.50 272.00
  Q 633.70 270.82 636.96 281.25
  Z
  M 603.75 282.96
  Q 595.93 283.24 603.50 284.29
  Q 614.76 289.47 617.06 290.19
  Q 623.00 292.05 628.41 295.11
  Q 632.08 297.19 634.55 300.57
  Q 634.95 301.11 635.21 301.13
  Q 635.58 301.15 634.56 299.61
  Q 634.14 298.99 634.01 298.25
  Q 632.89 291.90 631.80 285.99
  Q 631.12 282.36 629.56 280.19
  Q 627.69 277.58 624.00 277.79
  Q 620.90 277.97 617.95 278.97
  Q 610.96 281.36 603.75 282.96
  Z
  M 596.71 284.75
  Q 598.80 281.76 594.50 282.79
  Q 590.09 282.74 585.68 282.74
  Q 580.30 282.74 576.97 283.83
  Q 568.40 286.65 561.81 294.31
  Q 557.37 299.48 554.67 304.39
  Q 552.71 307.96 551.51 314.02
  Q 548.77 327.76 546.00 341.50
  Q 544.98 346.57 546.01 353.28
  Q 546.04 353.44 546.65 358.76
  Q 547.01 361.92 548.26 364.82
  A 0.59 0.59 -20.3 0 0 548.98 365.15
  Q 551.06 364.51 552.43 365.20
  Q 553.15 365.57 553.24 365.61
  Q 558.44 367.68 563.64 369.73
  Q 575.26 374.32 587.52 374.41
  Q 596.02 374.47 603.22 371.89
  Q 610.85 369.16 617.36 364.05
  A 1.22 1.13 28.8 0 1 618.24 363.83
  Q 621.90 364.32 624.34 362.24
  Q 624.88 361.78 628.32 357.40
  Q 633.84 350.35 636.82 341.90
  Q 638.73 336.48 638.93 335.78
  Q 639.83 332.62 639.71 329.25
  Q 639.35 319.34 637.77 309.55
  A 0.56 0.55 -5.9 0 0 637.20 309.09
  Q 635.88 309.12 634.68 308.76
  Q 633.53 308.40 632.38 307.03
  Q 626.96 300.56 620.44 297.81
  Q 608.55 292.81 601.59 288.62
  Q 601.50 288.56 599.72 287.64
  Q 597.82 286.66 596.71 284.75
  Z"
/>
<path fill="#fdfcfa" d="
  M 741.66 280.33
  Q 743.03 278.58 744.83 277.07
  Q 745.71 276.33 745.28 277.39
  Q 743.24 282.48 740.13 286.82
  Q 738.92 288.50 739.50 286.52
  Q 739.96 284.91 740.34 283.30
  Q 740.76 281.49 741.66 280.33
  Z"
/>
<path fill="#bf504d" d="
  M 603.50 284.29
  Q 604.43 283.79 603.75 282.96
  Q 610.96 281.36 617.95 278.97
  Q 620.90 277.97 624.00 277.79
  Q 627.69 277.58 629.56 280.19
  Q 631.12 282.36 631.80 285.99
  Q 632.89 291.90 634.01 298.25
  Q 634.14 298.99 634.56 299.61
  Q 635.58 301.15 635.21 301.13
  Q 634.95 301.11 634.55 300.57
  Q 632.08 297.19 628.41 295.11
  Q 623.00 292.05 617.06 290.19
  Q 614.76 289.47 603.50 284.29
  Z"
/>
<path fill="#e22b29" d="
  M 594.50 282.79
  L 593.94 283.02
  A 0.33 0.32 53.3 0 0 593.87 283.58
  Q 595.10 284.60 596.71 284.75
  Q 597.82 286.66 599.72 287.64
  Q 601.50 288.56 601.59 288.62
  Q 608.55 292.81 620.44 297.81
  Q 626.96 300.56 632.38 307.03
  Q 633.53 308.40 634.68 308.76
  Q 635.88 309.12 637.20 309.09
  A 0.56 0.55 -5.9 0 1 637.77 309.55
  Q 639.35 319.34 639.71 329.25
  Q 639.83 332.62 638.93 335.78
  Q 638.73 336.48 636.82 341.90
  Q 633.84 350.35 628.32 357.40
  Q 624.88 361.78 624.34 362.24
  Q 621.90 364.32 618.24 363.83
  A 1.22 1.13 28.8 0 0 617.36 364.05
  Q 610.85 369.16 603.22 371.89
  Q 596.02 374.47 587.52 374.41
  Q 575.26 374.32 563.64 369.73
  Q 558.44 367.68 553.24 365.61
  Q 553.15 365.57 552.43 365.20
  Q 551.06 364.51 548.98 365.15
  A 0.59 0.59 -20.3 0 1 548.26 364.82
  Q 547.01 361.92 546.65 358.76
  Q 546.04 353.44 546.01 353.28
  Q 544.98 346.57 546.00 341.50
  Q 548.77 327.76 551.51 314.02
  Q 552.71 307.96 554.67 304.39
  Q 557.37 299.48 561.81 294.31
  Q 568.40 286.65 576.97 283.83
  Q 580.30 282.74 585.68 282.74
  Q 590.09 282.74 594.50 282.79
  Z"
/>
<path fill="#fdf4dd" d="
  M 594.50 282.79
  Q 598.80 281.76 596.71 284.75
  Q 595.10 284.60 593.87 283.58
  A 0.33 0.32 53.3 0 1 593.94 283.02
  L 594.50 282.79
  Z"
/>
<path fill="#fa7281" d="
  M 603.75 282.96
  Q 604.43 283.79 603.50 284.29
  Q 595.93 283.24 603.75 282.96
  Z"
/>
<path fill="#fdf8eb" d="
  M 780.04 297.50
  Q 780.47 316.39 779.75 321.00
  Q 774.73 353.11 765.46 384.19
  Q 763.49 390.81 758.91 403.08
  Q 753.60 417.32 749.20 431.88
  Q 748.69 433.57 747.37 436.89
  Q 746.38 439.39 745.71 442.00
  Q 744.37 444.45 744.75 447.21
  Q 740.84 463.42 738.96 480.00
  Q 738.12 481.69 736.44 480.06
  Q 731.28 475.06 728.34 470.12
  Q 719.69 455.56 716.13 438.98
  A 0.68 0.39 86.7 0 0 715.83 438.52
  Q 715.68 438.45 715.50 438.46
  Q 715.84 438.06 715.76 437.50
  Q 713.82 423.10 715.41 408.82
  Q 716.62 398.00 718.81 389.12
  Q 721.62 377.72 727.44 366.19
  Q 733.93 353.32 739.16 345.89
  Q 747.67 333.81 757.62 322.88
  Q 759.03 321.32 759.78 319.68
  Q 760.58 317.89 761.25 316.04
  Q 769.60 315.30 772.95 307.69
  Q 775.53 301.85 778.11 296.01
  A 0.39 0.32 -54.2 0 1 778.70 295.86
  L 780.04 297.50
  Z"
/>
<path fill="#74390b" d="
  M 780.04 297.50
  Q 786.92 301.29 794.00 297.71
  Q 793.42 317.29 789.48 336.47
  Q 789.46 336.58 788.68 341.05
  Q 787.88 345.67 785.56 352.31
  Q 784.59 355.10 780.89 370.53
  Q 776.11 390.54 769.79 410.09
  Q 768.38 414.45 764.23 425.66
  Q 761.59 432.78 758.75 441.25
  Q 756.30 448.56 754.80 455.66
  Q 753.70 460.88 752.77 470.43
  Q 750.55 493.05 748.61 515.69
  A 0.72 0.72 -74.2 0 0 749.01 516.41
  Q 760.89 522.18 772.83 527.83
  Q 799.95 540.67 825.94 555.64
  Q 839.43 563.41 843.18 565.76
  Q 863.71 578.60 880.27 596.48
  Q 886.12 602.81 888.71 610.76
  Q 890.08 614.96 890.10 621.79
  Q 890.15 637.02 889.71 652.25
  Q 888.98 652.86 889.00 651.25
  Q 889.04 647.61 888.35 644.03
  Q 888.27 643.57 888.35 642.98
  Q 888.50 641.96 887.98 641.90
  A 0.46 0.34 83.4 0 0 887.65 642.47
  Q 887.95 643.74 887.19 644.94
  Q 885.56 647.49 883.08 648.60
  Q 881.34 649.37 882.23 651.22
  A 1.58 1.55 -42.5 0 1 882.15 652.75
  Q 881.28 654.16 881.20 652.75
  Q 881.11 651.32 880.96 652.53
  Q 880.76 654.21 879.29 654.25
  L 879.04 644.50
  Q 879.71 643.12 879.75 640.50
  Q 879.80 637.54 878.75 639.71
  Q 869.71 646.42 866.19 648.19
  Q 856.64 652.98 831.81 663.06
  Q 800.29 675.87 754.50 689.96
  L 721.50 699.54
  Q 653.64 718.91 584.30 732.00
  Q 538.19 740.70 491.46 745.00
  Q 466.00 746.79 440.50 746.00
  Q 434.95 745.83 423.25 744.29
  Q 399.01 741.33 375.67 734.11
  Q 335.94 721.81 299.25 702.25
  Q 271.09 687.24 250.25 673.21
  L 250.25 673.04
  Q 250.82 672.26 250.06 672.18
  A 0.63 0.58 85.6 0 1 249.54 671.69
  Q 249.37 670.97 248.44 670.44
  Q 245.93 669.00 245.41 667.46
  Q 244.77 665.57 246.20 664.17
  Q 248.83 661.58 246.25 660.49
  Q 245.98 660.38 245.97 660.15
  Q 245.95 659.76 246.36 659.98
  L 252.74 663.34
  Q 253.15 663.55 253.44 664.00
  Q 254.32 665.37 255.94 665.73
  A 1.58 1.56 73.8 0 1 256.76 666.19
  Q 258.07 667.56 259.00 666.04
  Q 278.36 678.79 304.44 692.56
  Q 334.46 708.41 362.71 718.25
  Q 376.35 723.14 390.49 726.31
  Q 403.63 729.25 416.77 732.19
  Q 423.85 733.77 430.88 734.30
  Q 452.95 735.96 459.25 735.75
  Q 504.54 734.27 549.25 726.96
  Q 630.24 713.83 709.25 691.71
  L 755.75 677.96
  Q 797.85 665.30 838.39 648.33
  Q 849.41 643.72 860.10 638.38
  Q 869.29 633.79 876.23 626.22
  Q 880.17 621.91 878.91 616.02
  Q 877.79 610.84 875.06 607.19
  Q 867.10 596.52 855.70 587.76
  Q 845.16 579.64 836.44 574.31
  Q 796.01 549.61 750.00 528.96
  Q 750.13 528.38 749.63 528.03
  A 0.48 0.47 -61.2 0 0 748.93 528.24
  Q 748.58 529.04 749.46 529.50
  Q 749.19 530.02 749.44 531.31
  Q 752.54 547.80 759.19 561.06
  Q 760.65 563.97 758.91 566.43
  Q 757.44 568.51 754.85 568.94
  Q 751.19 569.56 749.19 565.81
  Q 746.14 560.10 742.16 549.15
  Q 738.78 539.86 737.96 530.00
  Q 736.78 515.77 737.65 501.51
  Q 738.30 490.75 738.96 480.00
  Q 740.84 463.42 744.75 447.21
  Q 746.01 444.72 745.71 442.00
  Q 746.38 439.39 747.37 436.89
  Q 748.69 433.57 749.20 431.88
  Q 753.60 417.32 758.91 403.08
  Q 763.49 390.81 765.46 384.19
  Q 774.73 353.11 779.75 321.00
  Q 780.47 316.39 780.04 297.50
  Z"
/>
<path fill="#fa7281" d="
  M 334.46 330.50
  Q 334.96 330.99 336.25 331.00
  Q 342.75 331.05 344.75 336.75
  Q 345.99 340.30 345.47 344.51
  Q 344.91 349.00 344.90 349.14
  Q 344.43 355.12 343.42 360.63
  Q 343.12 362.22 343.95 360.83
  Q 347.66 354.60 352.22 349.07
  Q 355.52 345.08 358.40 344.42
  Q 362.23 343.55 366.95 345.87
  Q 367.85 346.31 368.86 346.26
  Q 372.63 346.05 376.33 345.88
  Q 376.43 345.87 381.60 345.17
  Q 388.63 344.22 392.69 350.81
  Q 393.85 352.70 394.67 357.76
  Q 394.75 358.25 395.11 357.92
  Q 401.84 351.74 408.56 345.56
  Q 410.75 343.55 414.75 343.46
  Q 423.03 344.53 424.75 352.75
  Q 425.22 354.99 424.82 360.99
  Q 423.97 373.94 411.24 371.35
  A 1.01 0.83 23.9 0 0 410.38 371.59
  L 406.71 375.50
  Q 397.53 385.61 394.81 388.31
  Q 390.89 392.22 385.86 392.82
  Q 380.56 393.46 377.07 390.07
  Q 373.24 386.35 372.94 379.41
  Q 372.87 377.82 371.72 378.92
  Q 363.24 386.97 353.91 380.78
  A 0.44 0.44 -60.0 0 0 353.28 380.95
  Q 351.39 384.66 348.06 388.31
  Q 347.33 389.12 347.46 390.50
  Q 347.20 389.87 347.01 390.23
  Q 343.64 396.39 337.46 399.75
  Q 331.65 402.10 327.06 399.19
  Q 323.48 396.91 322.94 392.81
  Q 322.84 392.04 323.11 385.67
  Q 323.55 375.40 325.25 365.23
  Q 325.58 363.28 324.52 364.95
  Q 316.46 377.69 305.69 388.69
  Q 304.58 389.82 301.83 391.10
  Q 299.42 392.22 297.50 392.19
  Q 293.68 392.12 291.85 389.03
  Q 290.79 387.23 290.60 383.25
  Q 290.16 373.95 290.50 371.25
  Q 292.16 358.27 292.56 349.56
  Q 292.72 346.11 294.92 344.24
  Q 296.27 343.09 297.97 343.31
  Q 300.15 343.59 300.76 345.59
  Q 301.05 346.53 300.61 349.38
  Q 300.32 351.29 300.43 353.25
  Q 300.85 360.88 301.27 368.90
  Q 301.33 369.93 301.94 369.12
  L 324.29 339.50
  Q 324.87 339.44 325.20 338.94
  Q 328.74 333.50 334.46 330.50
  Z"
/>
<path fill="#fdf8eb" d="
  M 406.71 375.50
  Q 407.05 377.47 406.72 379.42
  Q 406.09 383.04 406.09 383.13
  Q 403.53 414.29 411.49 444.36
  Q 413.12 450.54 413.58 455.31
  Q 414.42 463.95 415.75 480.75
  Q 416.01 484.07 413.96 485.75
  Q 412.14 485.36 411.82 486.77
  Q 411.63 487.55 412.26 488.61
  Q 414.54 492.52 416.75 496.46
  Q 414.77 497.24 414.44 498.94
  Q 406.67 538.55 376.33 563.86
  A 1.67 1.21 -59.1 0 1 375.44 564.24
  Q 373.62 564.31 373.04 562.50
  Q 375.21 553.28 378.50 535.50
  Q 380.59 524.22 380.96 515.75
  Q 381.36 513.88 380.96 512.00
  Q 380.31 505.60 380.21 499.17
  Q 380.07 489.88 379.59 486.36
  Q 378.55 478.86 376.44 472.56
  Q 367.95 447.33 354.75 414.25
  Q 349.61 401.37 347.46 390.50
  Q 347.33 389.12 348.06 388.31
  Q 351.39 384.66 353.28 380.95
  A 0.44 0.44 -60.0 0 1 353.91 380.78
  Q 363.24 386.97 371.72 378.92
  Q 372.87 377.82 372.94 379.41
  Q 373.24 386.35 377.07 390.07
  Q 380.56 393.46 385.86 392.82
  Q 390.89 392.22 394.81 388.31
  Q 397.53 385.61 406.71 375.50
  Z"
/>
<path fill="#572608" d="
  M 347.46 390.50
  Q 349.61 401.37 354.75 414.25
  Q 367.95 447.33 376.44 472.56
  Q 378.55 478.86 379.59 486.36
  Q 380.07 489.88 380.21 499.17
  Q 380.31 505.60 380.96 512.00
  Q 379.79 513.89 380.96 515.75
  Q 380.59 524.22 378.50 535.50
  Q 375.21 553.28 373.04 562.50
  Q 370.40 571.25 367.75 580.00
  Q 367.19 581.84 365.50 583.71
  Q 357.19 586.63 356.50 578.04
  Q 367.57 544.29 368.29 508.75
  Q 369.09 507.39 368.85 505.74
  Q 368.49 503.27 367.25 504.96
  Q 334.89 510.49 297.94 518.94
  Q 258.26 528.01 222.25 540.54
  Q 211.63 543.84 201.63 548.64
  Q 192.61 552.96 187.66 555.55
  Q 180.35 559.38 174.44 563.94
  Q 163.51 572.36 167.96 583.99
  Q 169.31 587.50 173.70 592.71
  Q 177.10 596.74 180.49 600.76
  Q 188.59 610.36 197.83 618.81
  Q 204.05 624.50 211.19 630.67
  Q 217.96 636.50 225.21 641.75
  Q 241.59 654.60 259.00 666.04
  Q 258.07 667.56 256.76 666.19
  A 1.58 1.56 73.8 0 0 255.94 665.73
  Q 254.32 665.37 253.44 664.00
  Q 253.15 663.55 252.74 663.34
  L 246.36 659.98
  Q 245.95 659.76 245.97 660.15
  Q 245.98 660.38 246.25 660.49
  Q 248.83 661.58 246.20 664.17
  Q 244.77 665.57 245.41 667.46
  Q 245.93 669.00 248.44 670.44
  Q 249.37 670.97 249.54 671.69
  A 0.63 0.58 85.6 0 0 250.06 672.18
  Q 250.82 672.26 250.25 673.04
  Q 228.00 658.63 207.67 641.67
  Q 198.35 633.91 192.53 628.62
  Q 177.48 614.93 164.61 598.65
  Q 163.59 597.36 163.42 598.99
  Q 160.79 624.97 158.74 651.53
  Q 158.08 660.12 157.67 671.50
  Q 157.18 684.88 156.46 698.25
  Q 155.10 700.19 155.43 697.49
  A 1.37 1.24 33.9 0 0 155.21 696.60
  Q 153.72 694.34 154.75 691.75
  Q 155.32 690.32 154.25 688.50
  Q 152.89 686.19 150.89 688.14
  Q 148.53 690.47 146.54 688.00
  Q 147.47 675.85 148.57 663.71
  Q 149.36 655.03 150.16 643.77
  Q 152.20 615.25 155.95 586.90
  Q 156.73 580.99 156.50 576.50
  Q 156.27 572.06 157.97 568.39
  Q 162.32 558.98 170.97 553.21
  Q 178.86 547.95 187.41 543.87
  Q 194.17 540.64 200.93 537.41
  Q 207.96 534.06 214.77 531.71
  Q 253.17 518.47 292.73 509.16
  Q 329.98 500.39 367.56 494.28
  A 0.67 0.66 79.3 0 0 368.10 493.48
  Q 362.54 467.46 353.94 442.81
  Q 350.01 431.56 341.81 411.91
  Q 340.74 409.35 339.60 405.84
  Q 338.61 402.77 337.46 399.75
  Q 343.64 396.39 347.01 390.23
  Q 347.20 389.87 347.46 390.50
  Z"
/>
<path fill="#a75410" d="
  M 461.60 513.91
  Q 456.03 508.84 451.83 502.63
  Q 448.47 497.66 448.42 497.57
  Q 438.81 483.94 425.19 461.56
  Q 416.78 447.76 413.24 434.91
  Q 412.91 433.69 413.16 433.07
  Q 413.49 432.26 414.50 432.20
  Q 415.20 432.16 415.82 432.73
  Q 417.28 434.08 417.91 435.90
  Q 418.77 438.40 419.31 439.24
  Q 428.62 453.77 437.47 468.58
  Q 442.91 477.68 448.13 485.49
  Q 454.18 494.54 460.16 503.62
  Q 462.29 506.85 463.26 509.25
  Q 464.40 512.10 465.25 515.41
  Q 465.43 516.14 464.74 515.85
  Q 462.89 515.08 461.60 513.91
  Z"
/>
<path fill="#fdf4dd" d="
  M 715.50 438.46
  Q 715.68 438.45 715.83 438.52
  A 0.68 0.39 86.7 0 1 716.13 438.98
  Q 719.69 455.56 728.34 470.12
  Q 731.28 475.06 736.44 480.06
  Q 738.12 481.69 738.96 480.00
  Q 738.30 490.75 737.65 501.51
  Q 736.78 515.77 737.96 530.00
  Q 738.78 539.86 742.16 549.15
  Q 746.14 560.10 749.19 565.81
  Q 751.19 569.56 754.85 568.94
  Q 757.44 568.51 758.91 566.43
  Q 760.65 563.97 759.19 561.06
  Q 752.54 547.80 749.44 531.31
  Q 749.19 530.02 749.46 529.50
  Q 749.63 529.13 750.00 528.96
  Q 796.01 549.61 836.44 574.31
  Q 845.16 579.64 855.70 587.76
  Q 867.10 596.52 875.06 607.19
  Q 877.79 610.84 878.91 616.02
  Q 880.17 621.91 876.23 626.22
  Q 869.29 633.79 860.10 638.38
  Q 849.41 643.72 838.39 648.33
  Q 797.85 665.30 755.75 677.96
  Q 755.50 676.89 755.25 675.82
  Q 755.00 674.76 755.06 673.65
  Q 755.35 668.17 755.32 662.68
  A 0.76 0.72 10.2 0 0 754.83 662.01
  Q 735.50 654.94 719.50 641.96
  Q 719.91 641.00 720.73 640.50
  Q 721.98 639.75 722.05 639.70
  Q 739.46 625.57 745.25 603.75
  Q 751.67 579.55 742.45 556.38
  Q 741.45 553.86 739.00 549.75
  Q 723.53 523.80 694.96 515.64
  Q 682.00 511.94 670.75 513.25
  Q 668.79 513.48 668.25 513.21
  Q 676.01 465.60 715.50 438.46
  Z"
/>
<path fill="#eebb66" d="
  M 745.71 442.00
  Q 746.01 444.72 744.75 447.21
  Q 744.37 444.45 745.71 442.00
  Z"
/>
<path fill="#a75410" d="
  M 413.96 485.75
  Q 435.77 511.01 442.94 519.56
  Q 447.76 525.32 450.50 528.04
  Q 453.70 531.78 457.35 535.09
  Q 458.73 536.34 459.21 537.29
  Q 459.89 538.66 459.95 540.16
  Q 460.04 542.35 458.40 543.87
  Q 456.08 545.99 453.35 544.36
  Q 452.00 543.56 450.26 541.05
  Q 446.82 536.12 443.29 531.25
  Q 441.10 527.88 436.31 522.44
  Q 426.67 511.47 416.75 496.46
  Q 414.54 492.52 412.26 488.61
  Q 411.63 487.55 411.82 486.77
  Q 412.14 485.36 413.96 485.75
  Z"
/>
<path fill="#fdfcfa" d="
  M 416.75 496.46
  Q 426.67 511.47 436.31 522.44
  Q 441.10 527.88 443.29 531.25
  Q 436.00 538.41 433.06 542.31
  Q 421.19 558.08 424.52 576.10
  Q 426.21 585.22 432.14 594.43
  Q 441.56 609.07 457.69 618.81
  Q 472.42 627.71 486.99 631.79
  Q 492.33 633.29 496.44 634.49
  Q 501.16 635.87 506.00 636.79
  Q 506.21 636.95 506.45 637.02
  A 0.67 0.52 9.9 0 1 506.94 637.56
  Q 506.95 646.32 508.50 651.75
  Q 519.21 689.27 555.38 698.71
  Q 562.83 700.65 569.76 700.71
  Q 577.07 700.78 584.30 699.23
  Q 585.43 698.99 584.86 699.74
  Q 584.71 699.92 584.45 700.06
  Q 567.12 709.02 550.55 720.42
  Q 548.92 721.53 547.62 723.01
  Q 546.15 724.69 547.86 725.71
  A 1.79 1.01 -19.2 0 0 548.80 725.88
  Q 550.23 725.77 549.25 726.96
  Q 504.54 734.27 459.25 735.75
  Q 452.95 735.96 430.88 734.30
  Q 423.85 733.77 416.77 732.19
  Q 403.63 729.25 390.49 726.31
  Q 376.35 723.14 362.71 718.25
  Q 361.36 717.07 362.36 716.07
  Q 362.75 715.68 362.90 715.28
  Q 363.36 714.04 364.38 713.27
  Q 365.97 712.08 365.99 712.05
  Q 380.68 698.07 382.50 679.00
  Q 384.48 658.29 370.92 641.11
  Q 364.54 633.02 356.10 627.14
  Q 355.38 626.64 355.25 625.79
  Q 362.34 598.02 365.75 586.50
  Q 366.29 584.68 365.50 583.71
  Q 367.19 581.84 367.75 580.00
  Q 370.40 571.25 373.04 562.50
  Q 373.62 564.31 375.44 564.24
  A 1.67 1.21 -59.1 0 0 376.33 563.86
  Q 406.67 538.55 414.44 498.94
  Q 414.77 497.24 416.75 496.46
  Z"
/>
<path fill="#2a1204" fill-opacity="0.482" d="
  M 368.29 508.75
  Q 368.28 506.64 367.25 504.96
  Q 368.49 503.27 368.85 505.74
  Q 369.09 507.39 368.29 508.75
  Z"
/>
<path fill="#fdf8eb" d="
  M 367.25 504.96
  Q 368.28 506.64 368.29 508.75
  Q 367.57 544.29 356.50 578.04
  Q 355.50 578.54 354.46 578.19
  A 1.47 1.13 37.6 0 0 353.53 578.19
  Q 329.53 587.94 303.97 586.84
  Q 293.93 586.40 284.22 583.93
  Q 245.55 574.10 222.25 540.54
  Q 258.26 528.01 297.94 518.94
  Q 334.89 510.49 367.25 504.96
  Z"
/>
<path fill="#2a1204" fill-opacity="0.482" d="
  M 380.96 512.00
  Q 381.36 513.88 380.96 515.75
  Q 379.79 513.89 380.96 512.00
  Z"
/>
<path fill="#fdf4dd" d="
  M 576.54 545.75
  Q 576.21 546.66 574.25 547.75
  Q 563.23 553.87 548.50 565.23
  Q 534.74 575.84 523.83 589.35
  Q 516.96 597.86 512.44 609.94
  Q 507.66 622.70 507.03 634.32
  Q 507.03 634.38 507.13 635.67
  Q 507.23 636.83 506.00 636.79
  Q 501.16 635.87 496.44 634.49
  Q 492.33 633.29 486.99 631.79
  Q 472.42 627.71 457.69 618.81
  Q 441.56 609.07 432.14 594.43
  Q 426.21 585.22 424.52 576.10
  Q 421.19 558.08 433.06 542.31
  Q 436.00 538.41 443.29 531.25
  Q 446.82 536.12 450.26 541.05
  Q 452.00 543.56 453.35 544.36
  Q 456.08 545.99 458.40 543.87
  Q 460.04 542.35 459.95 540.16
  Q 459.89 538.66 459.21 537.29
  Q 458.73 536.34 457.35 535.09
  Q 453.70 531.78 450.50 528.04
  L 451.53 526.70
  Q 451.98 526.12 452.19 526.01
  Q 459.20 522.20 466.75 519.72
  Q 470.97 518.33 477.03 516.36
  Q 482.64 514.54 487.56 513.81
  Q 503.20 511.50 519.00 512.56
  Q 531.84 513.43 543.85 518.09
  Q 564.96 526.27 576.54 545.75
  Z"
/>
<path fill="#fdf8eb" d="
  M 719.50 641.96
  Q 708.33 650.17 695.11 654.00
  Q 692.64 654.71 688.95 655.38
  Q 685.84 655.94 682.74 656.49
  Q 677.88 657.35 673.60 658.91
  Q 657.93 664.60 642.73 671.51
  Q 641.96 671.86 642.80 671.97
  Q 643.91 672.12 645.01 671.72
  Q 646.71 671.10 647.07 671.03
  Q 681.75 664.09 708.81 687.44
  Q 710.34 688.76 709.62 689.92
  A 1.07 0.62 61.6 0 0 709.60 690.71
  Q 709.74 691.15 709.25 691.71
  Q 630.24 713.83 549.25 726.96
  Q 550.23 725.77 548.80 725.88
  A 1.79 1.01 -19.2 0 1 547.86 725.71
  Q 546.15 724.69 547.62 723.01
  Q 548.92 721.53 550.55 720.42
  Q 567.12 709.02 584.45 700.06
  Q 584.71 699.92 584.86 699.74
  Q 585.43 698.99 584.30 699.23
  Q 577.07 700.78 569.76 700.71
  Q 562.83 700.65 555.38 698.71
  Q 519.21 689.27 508.50 651.75
  Q 506.95 646.32 506.94 637.56
  A 0.67 0.52 9.9 0 0 506.45 637.02
  Q 506.21 636.95 506.00 636.79
  Q 507.23 636.83 507.13 635.67
  Q 507.03 634.38 507.03 634.32
  Q 507.66 622.70 512.44 609.94
  Q 516.96 597.86 523.83 589.35
  Q 534.74 575.84 548.50 565.23
  Q 563.23 553.87 574.25 547.75
  Q 576.21 546.66 576.54 545.75
  Q 578.10 545.36 580.56 543.81
  Q 610.23 525.20 643.50 519.00
  Q 648.58 518.05 650.26 517.53
  Q 659.11 514.78 668.25 513.21
  Q 668.79 513.48 670.75 513.25
  Q 682.00 511.94 694.96 515.64
  Q 723.53 523.80 739.00 549.75
  Q 741.45 553.86 742.45 556.38
  Q 751.67 579.55 745.25 603.75
  Q 739.46 625.57 722.05 639.70
  Q 721.98 639.75 720.73 640.50
  Q 719.91 641.00 719.50 641.96
  Z"
/>
<path fill="#2a1204" fill-opacity="0.482" d="
  M 750.00 528.96
  Q 749.63 529.13 749.46 529.50
  Q 748.58 529.04 748.93 528.24
  A 0.48 0.47 -61.2 0 1 749.63 528.03
  Q 750.13 528.38 750.00 528.96
  Z"
/>
<path fill="#fdf4dd" d="
  M 222.25 540.54
  Q 245.55 574.10 284.22 583.93
  Q 293.93 586.40 303.97 586.84
  Q 329.53 587.94 353.53 578.19
  A 1.47 1.13 37.6 0 1 354.46 578.19
  Q 355.50 578.54 356.50 578.04
  Q 357.19 586.63 365.50 583.71
  Q 366.29 584.68 365.75 586.50
  Q 362.34 598.02 355.25 625.79
  Q 354.69 626.38 354.03 626.01
  Q 343.39 620.07 331.79 616.38
  Q 319.29 612.41 306.44 609.78
  Q 300.15 608.48 294.44 605.56
  Q 287.77 602.14 280.91 599.14
  Q 271.31 594.93 269.99 594.41
  Q 264.21 592.19 258.44 591.31
  Q 246.17 589.45 237.10 595.52
  Q 228.83 601.06 225.22 611.17
  Q 221.14 622.61 225.70 635.31
  Q 225.99 636.11 226.14 636.95
  Q 226.18 637.16 226.51 638.51
  Q 226.99 640.48 225.21 641.75
  Q 217.96 636.50 211.19 630.67
  Q 204.05 624.50 197.83 618.81
  Q 188.59 610.36 180.49 600.76
  Q 177.10 596.74 173.70 592.71
  Q 169.31 587.50 167.96 583.99
  Q 163.51 572.36 174.44 563.94
  Q 180.35 559.38 187.66 555.55
  Q 192.61 552.96 201.63 548.64
  Q 211.63 543.84 222.25 540.54
  Z"
/>
<path fill="#fdf8eb" d="
  M 355.25 625.79
  Q 355.38 626.64 356.10 627.14
  Q 364.54 633.02 370.92 641.11
  Q 384.48 658.29 382.50 679.00
  Q 380.68 698.07 365.99 712.05
  Q 365.97 712.08 364.38 713.27
  Q 363.36 714.04 362.90 715.28
  Q 362.75 715.68 362.36 716.07
  Q 361.36 717.07 362.71 718.25
  Q 334.46 708.41 304.44 692.56
  Q 278.36 678.79 259.00 666.04
  Q 241.59 654.60 225.21 641.75
  Q 226.99 640.48 226.51 638.51
  Q 226.18 637.16 226.14 636.95
  Q 225.99 636.11 225.70 635.31
  Q 221.14 622.61 225.22 611.17
  Q 228.83 601.06 237.10 595.52
  Q 246.17 589.45 258.44 591.31
  Q 264.21 592.19 269.99 594.41
  Q 271.31 594.93 280.91 599.14
  Q 287.77 602.14 294.44 605.56
  Q 300.15 608.48 306.44 609.78
  Q 319.29 612.41 331.79 616.38
  Q 343.39 620.07 354.03 626.01
  Q 354.69 626.38 355.25 625.79
  Z"
/>
<path fill="#fdf4dd" d="
  M 250.25 673.04
  L 250.25 673.21
  Q 250.38 674.05 250.25 676.00
  Q 250.16 677.31 251.34 677.79
  Q 251.88 678.01 252.15 678.31
  Q 259.48 686.35 265.56 690.94
  Q 270.14 694.39 282.13 702.23
  Q 286.16 704.86 292.19 708.35
  Q 298.98 712.28 302.19 714.56
  Q 313.89 722.90 330.59 724.47
  A 0.69 0.69 8.0 0 1 331.20 725.28
  Q 329.39 734.38 329.33 743.94
  Q 329.26 754.90 328.98 757.54
  Q 324.92 797.20 296.86 824.74
  Q 291.23 830.27 284.54 835.08
  Q 278.01 839.78 270.95 843.70
  Q 269.44 844.54 268.50 845.96
  Q 225.60 820.71 186.94 785.06
  Q 174.07 773.20 165.10 760.44
  Q 163.18 757.70 160.59 752.62
  Q 158.54 748.58 156.18 744.72
  Q 155.05 742.89 154.94 740.84
  Q 154.72 736.92 154.75 735.75
  Q 155.30 716.99 156.46 698.25
  Q 157.18 684.88 157.67 671.50
  Q 158.08 660.12 158.74 651.53
  Q 160.79 624.97 163.42 598.99
  Q 163.59 597.36 164.61 598.65
  Q 177.48 614.93 192.53 628.62
  Q 198.35 633.91 207.67 641.67
  Q 228.00 658.63 250.25 673.04
  Z"
/>
<path fill="#2a1204" fill-opacity="0.482" d="
  M 879.04 644.50
  L 878.75 639.71
  Q 879.80 637.54 879.75 640.50
  Q 879.71 643.12 879.04 644.50
  Z"
/>
<path fill="#fdf4dd" d="
  M 878.75 639.71
  L 879.04 644.50
  L 879.29 654.25
  L 878.54 675.25
  L 878.29 681.75
  L 877.54 704.50
  Q 876.87 706.58 877.29 708.75
  L 876.71 724.25
  Q 875.54 726.90 876.29 729.75
  Q 876.15 736.98 875.49 744.18
  Q 875.18 747.66 875.08 752.71
  Q 875.00 757.00 874.51 761.27
  Q 874.08 764.97 874.07 768.76
  Q 874.05 772.54 873.71 776.29
  Q 873.17 782.10 873.07 785.10
  Q 872.94 789.28 872.68 793.95
  A 2.22 2.22 -6.6 0 1 871.08 795.97
  Q 864.52 797.86 859.13 801.95
  Q 854.84 805.22 852.82 806.32
  Q 844.41 810.91 834.69 815.19
  Q 803.78 828.77 773.00 838.54
  Q 771.26 836.90 770.81 835.69
  Q 762.55 813.38 759.25 788.25
  Q 754.31 750.64 754.55 715.25
  Q 754.62 704.25 754.33 693.25
  Q 754.31 692.59 754.60 691.92
  Q 754.87 691.29 755.11 690.64
  A 0.57 0.39 -69.4 0 0 754.95 689.98
  Q 754.76 689.91 754.50 689.96
  Q 800.29 675.87 831.81 663.06
  Q 856.64 652.98 866.19 648.19
  Q 869.71 646.42 878.75 639.71
  Z"
/>
<path fill="#85440c" d="
  M 889.71 652.25
  Q 889.45 683.73 887.50 719.75
  Q 884.84 768.83 883.25 794.00
  Q 883.09 796.49 881.64 798.07
  Q 880.19 799.64 880.14 799.70
  Q 876.76 804.17 873.25 808.55
  A 1.58 1.49 10.9 0 1 872.45 809.06
  Q 870.36 809.62 869.81 810.06
  Q 865.79 813.32 861.05 815.30
  Q 855.71 817.53 855.66 817.55
  Q 833.80 827.70 819.69 833.19
  Q 771.81 851.81 717.20 867.15
  Q 708.68 869.54 697.94 872.50
  Q 628.62 891.63 557.76 904.06
  Q 520.83 910.54 483.47 913.52
  Q 469.75 914.61 463.52 914.93
  Q 406.49 917.82 352.71 898.00
  Q 350.67 897.52 351.50 896.00
  Q 351.78 895.49 351.48 894.53
  A 0.71 0.70 -27.7 0 1 351.72 893.77
  Q 353.68 892.20 353.96 889.48
  A 0.48 0.48 -72.2 0 1 354.67 889.11
  Q 357.22 890.56 359.92 890.11
  Q 360.18 890.07 359.99 889.88
  Q 359.51 889.40 360.26 889.53
  Q 360.45 889.56 360.57 889.69
  Q 360.80 889.92 360.93 890.22
  A 1.31 0.71 78.1 0 0 361.51 890.90
  Q 362.84 891.41 363.00 890.04
  Q 388.46 897.92 413.50 901.75
  Q 421.11 902.91 429.48 903.42
  Q 443.12 904.24 445.51 904.35
  Q 454.25 904.74 463.00 903.96
  Q 479.54 903.45 496.00 901.71
  Q 526.87 898.54 557.43 893.16
  Q 667.25 873.86 773.00 838.54
  Q 803.78 828.77 834.69 815.19
  Q 844.41 810.91 852.82 806.32
  Q 854.84 805.22 859.13 801.95
  Q 864.52 797.86 871.08 795.97
  A 2.22 2.22 -6.6 0 0 872.68 793.95
  Q 872.94 789.28 873.07 785.10
  Q 873.17 782.10 873.71 776.29
  Q 874.05 772.54 874.07 768.76
  Q 874.08 764.97 874.51 761.27
  Q 875.00 757.00 875.08 752.71
  Q 875.18 747.66 875.49 744.18
  Q 876.15 736.98 876.29 729.75
  Q 877.19 727.06 876.71 724.25
  L 877.29 708.75
  Q 878.37 706.67 877.54 704.50
  L 878.29 681.75
  Q 879.25 678.55 878.54 675.25
  L 879.29 654.25
  Q 880.76 654.21 880.96 652.53
  Q 881.11 651.32 881.20 652.75
  Q 881.28 654.16 882.15 652.75
  A 1.58 1.55 -42.5 0 0 882.23 651.22
  Q 881.34 649.37 883.08 648.60
  Q 885.56 647.49 887.19 644.94
  Q 887.95 643.74 887.65 642.47
  A 0.46 0.34 83.4 0 1 887.98 641.90
  Q 888.50 641.96 888.35 642.98
  Q 888.27 643.57 888.35 644.03
  Q 889.04 647.61 889.00 651.25
  Q 888.98 652.86 889.71 652.25
  Z"
/>
<path fill="#fdfcfa" d="
  M 719.50 641.96
  Q 735.50 654.94 754.83 662.01
  A 0.76 0.72 10.2 0 1 755.32 662.68
  Q 755.35 668.17 755.06 673.65
  Q 755.00 674.76 755.25 675.82
  Q 755.50 676.89 755.75 677.96
  L 709.25 691.71
  Q 709.74 691.15 709.60 690.71
  A 1.07 0.62 61.6 0 1 709.62 689.92
  Q 710.34 688.76 708.81 687.44
  Q 681.75 664.09 647.07 671.03
  Q 646.71 671.10 645.01 671.72
  Q 643.91 672.12 642.80 671.97
  Q 641.96 671.86 642.73 671.51
  Q 657.93 664.60 673.60 658.91
  Q 677.88 657.35 682.74 656.49
  Q 685.84 655.94 688.95 655.38
  Q 692.64 654.71 695.11 654.00
  Q 708.33 650.17 719.50 641.96
  Z"
/>
<path fill="#fdfcfa" d="
  M 250.25 673.21
  Q 271.09 687.24 299.25 702.25
  Q 335.94 721.81 375.67 734.11
  Q 399.01 741.33 423.25 744.29
  Q 423.15 745.90 421.90 746.40
  Q 420.82 746.83 420.78 746.85
  Q 399.20 758.76 394.48 781.59
  Q 392.37 791.78 394.06 801.46
  Q 396.11 813.23 403.33 822.80
  Q 404.35 824.15 404.18 825.83
  Q 402.02 847.88 413.19 865.31
  Q 421.16 877.75 434.52 886.69
  Q 439.27 889.87 440.83 891.00
  Q 445.81 894.63 447.06 895.44
  Q 453.71 899.73 462.58 901.83
  A 1.13 0.85 -0.3 0 1 463.31 902.37
  Q 463.68 903.24 463.00 903.96
  Q 454.25 904.74 445.51 904.35
  Q 443.12 904.24 429.48 903.42
  Q 421.11 902.91 413.50 901.75
  Q 388.46 897.92 363.00 890.04
  Q 313.27 873.31 268.50 845.96
  Q 269.44 844.54 270.95 843.70
  Q 278.01 839.78 284.54 835.08
  Q 291.23 830.27 296.86 824.74
  Q 324.92 797.20 328.98 757.54
  Q 329.26 754.90 329.33 743.94
  Q 329.39 734.38 331.20 725.28
  A 0.69 0.69 8.0 0 0 330.59 724.47
  Q 313.89 722.90 302.19 714.56
  Q 298.98 712.28 292.19 708.35
  Q 286.16 704.86 282.13 702.23
  Q 270.14 694.39 265.56 690.94
  Q 259.48 686.35 252.15 678.31
  Q 251.88 678.01 251.34 677.79
  Q 250.16 677.31 250.25 676.00
  Q 250.38 674.05 250.25 673.21
  Z"
/>
<path fill="#2a1204" fill-opacity="0.482" d="
  M 878.54 675.25
  Q 879.25 678.55 878.29 681.75
  L 878.54 675.25
  Z"
/>
<path fill="#662f09" d="
  M 156.46 698.25
  Q 155.30 716.99 154.75 735.75
  Q 154.72 736.92 154.94 740.84
  Q 155.05 742.89 156.18 744.72
  Q 158.54 748.58 160.59 752.62
  Q 163.18 757.70 165.10 760.44
  Q 174.07 773.20 186.94 785.06
  Q 225.60 820.71 268.50 845.96
  Q 313.27 873.31 363.00 890.04
  Q 362.84 891.41 361.51 890.90
  A 1.31 0.71 78.1 0 1 360.93 890.22
  Q 360.80 889.92 360.57 889.69
  Q 360.45 889.56 360.26 889.53
  Q 359.51 889.40 359.99 889.88
  Q 360.18 890.07 359.92 890.11
  Q 357.22 890.56 354.67 889.11
  A 0.48 0.48 -72.2 0 0 353.96 889.48
  Q 353.68 892.20 351.72 893.77
  A 0.71 0.70 -27.7 0 0 351.48 894.53
  Q 351.78 895.49 351.50 896.00
  Q 350.67 897.52 352.71 898.00
  Q 311.88 883.58 270.69 859.81
  Q 230.73 836.76 195.47 807.03
  Q 183.80 797.19 171.31 784.44
  Q 163.45 776.41 157.26 767.98
  Q 153.37 762.69 151.04 756.75
  Q 148.04 749.12 146.12 741.10
  Q 146.10 741.03 145.18 737.96
  Q 144.39 735.36 144.50 732.00
  Q 145.36 704.56 146.54 688.00
  Q 148.53 690.47 150.89 688.14
  Q 152.89 686.19 154.25 688.50
  Q 155.32 690.32 154.75 691.75
  Q 153.72 694.34 155.21 696.60
  A 1.37 1.24 33.9 0 1 155.43 697.49
  Q 155.10 700.19 156.46 698.25
  Z"
/>
<path fill="#fdfcfa" d="
  M 754.50 689.96
  Q 754.76 689.91 754.95 689.98
  A 0.57 0.39 -69.4 0 1 755.11 690.64
  Q 754.87 691.29 754.60 691.92
  Q 754.31 692.59 754.33 693.25
  Q 754.62 704.25 754.55 715.25
  Q 754.31 750.64 759.25 788.25
  Q 762.55 813.38 770.81 835.69
  Q 771.26 836.90 773.00 838.54
  Q 667.25 873.86 557.43 893.16
  Q 526.87 898.54 496.00 901.71
  L 496.00 900.51
  A 0.76 0.74 79.1 0 1 496.46 899.81
  Q 505.12 896.18 512.17 890.27
  Q 519.16 884.41 524.77 877.17
  Q 535.14 863.77 536.64 846.17
  Q 536.65 846.11 536.62 843.33
  Q 536.61 841.67 537.23 840.15
  A 1.80 1.43 -11.1 0 1 537.86 839.41
  Q 550.17 831.30 556.04 817.75
  Q 556.74 817.05 557.94 817.31
  Q 565.13 818.90 572.83 818.50
  Q 579.06 818.17 579.19 818.17
  Q 607.26 817.31 634.74 811.46
  Q 643.93 809.51 653.15 807.72
  Q 656.16 807.13 661.75 807.00
  Q 693.08 806.27 713.17 784.22
  Q 719.90 776.83 724.28 767.68
  Q 738.63 737.73 723.56 706.19
  Q 721.75 702.38 721.50 699.54
  L 754.50 689.96
  Z"
/>
<path fill="#fdf8eb" d="
  M 721.50 699.54
  Q 721.75 702.38 723.56 706.19
  Q 738.63 737.73 724.28 767.68
  Q 719.90 776.83 713.17 784.22
  Q 693.08 806.27 661.75 807.00
  Q 656.16 807.13 653.15 807.72
  Q 643.93 809.51 634.74 811.46
  Q 607.26 817.31 579.19 818.17
  Q 579.06 818.17 572.83 818.50
  Q 565.13 818.90 557.94 817.31
  Q 556.74 817.05 556.04 817.75
  Q 555.15 816.80 552.75 816.25
  Q 546.26 814.76 538.49 810.31
  Q 519.77 799.58 516.97 777.97
  Q 515.70 768.15 519.10 757.66
  A 1.76 1.76 19.9 0 0 518.07 755.47
  Q 505.97 750.61 492.69 746.31
  Q 492.00 746.09 491.46 745.00
  Q 538.19 740.70 584.30 732.00
  Q 653.64 718.91 721.50 699.54
  Z"
/>
<path fill="#2a1204" fill-opacity="0.482" d="
  M 877.54 704.50
  Q 878.37 706.67 877.29 708.75
  Q 876.87 706.58 877.54 704.50
  Z"
/>
<path fill="#2a1204" fill-opacity="0.482" d="
  M 876.71 724.25
  Q 877.19 727.06 876.29 729.75
  Q 875.54 726.90 876.71 724.25
  Z"
/>
<path fill="#fdf4dd" d="
  M 423.25 744.29
  Q 434.95 745.83 440.50 746.00
  Q 466.00 746.79 491.46 745.00
  Q 492.00 746.09 492.69 746.31
  Q 505.97 750.61 518.07 755.47
  A 1.76 1.76 19.9 0 1 519.10 757.66
  Q 515.70 768.15 516.97 777.97
  Q 519.77 799.58 538.49 810.31
  Q 546.26 814.76 552.75 816.25
  Q 555.15 816.80 556.04 817.75
  Q 550.17 831.30 537.86 839.41
  A 1.80 1.43 -11.1 0 0 537.23 840.15
  Q 536.61 841.67 536.62 843.33
  Q 536.65 846.11 536.64 846.17
  Q 535.14 863.77 524.77 877.17
  Q 519.16 884.41 512.17 890.27
  Q 505.12 896.18 496.46 899.81
  A 0.76 0.74 79.1 0 0 496.00 900.51
  L 496.00 901.71
  Q 479.54 903.45 463.00 903.96
  Q 463.68 903.24 463.31 902.37
  A 1.13 0.85 -0.3 0 0 462.58 901.83
  Q 453.71 899.73 447.06 895.44
  Q 445.81 894.63 440.83 891.00
  Q 439.27 889.87 434.52 886.69
  Q 421.16 877.75 413.19 865.31
  Q 402.02 847.88 404.18 825.83
  Q 404.35 824.15 403.33 822.80
  Q 396.11 813.23 394.06 801.46
  Q 392.37 791.78 394.48 781.59
  Q 399.20 758.76 420.78 746.85
  Q 420.82 746.83 421.90 746.40
  Q 423.15 745.90 423.25 744.29
  Z"
/>
</svg>
