<?xml version="1.0" encoding="UTF-8" standalone="no"?>
<!DOCTYPE svg PUBLIC "-//W3C//DTD SVG 1.1//EN" "http://www.w3.org/Graphics/SVG/1.1/DTD/svg11.dtd">
<svg xmlns="http://www.w3.org/2000/svg" version="1.1" viewBox="0.00 0.00 370.00 150.00">
<g stroke-width="2.00" fill="none" stroke-linecap="butt">
<path stroke="#b55549" stroke-opacity="0.996" vector-effect="non-scaling-stroke" d="
  M 347.92 44.72
  Q 347.28 45.02 346.46 45.09"
/>
<path stroke="#b79a86" stroke-opacity="0.996" vector-effect="non-scaling-stroke" d="
  M 346.46 45.09
  L 343.57 38.77"
/>
<path stroke="#b79677" stroke-opacity="0.996" vector-effect="non-scaling-stroke" d="
  M 343.57 38.77
  Q 338.21 30.67 329.56 27.88"
/>
<path stroke="#b07b3d" stroke-opacity="0.996" vector-effect="non-scaling-stroke" d="
  M 329.56 27.88
  Q 327.52 27.50 325.63 26.83
  Q 323.40 26.04 321.73 25.91
  C 315.52 25.44 310.63 25.99 304.96 29.40"
/>
<path stroke="#b7987e" stroke-opacity="0.996" vector-effect="non-scaling-stroke" d="
  M 304.96 29.40
  C 303.43 30.55 301.85 31.17 300.50 32.44
  Q 290.98 41.37 291.72 54.97"
/>
<path stroke="#b55549" stroke-opacity="0.996" vector-effect="non-scaling-stroke" d="
  M 291.72 54.97
  L 290.72 56.44"
/>
<path stroke="#fdf8ec" vector-effect="non-scaling-stroke" d="
  M 343.57 38.77
  Q 342.53 38.73 341.97 39.43
  Q 341.66 39.83 341.15 39.90
  Q 338.38 40.31 337.63 41.88"
/>
<path stroke="#c2a27f" stroke-opacity="0.996" vector-effect="non-scaling-stroke" d="
  M 337.63 41.88
  C 334.18 42.83 332.55 42.23 329.81 45.09
  Q 329.27 45.64 330.05 45.65
  Q 330.98 45.67 332.22 44.99"
/>
<path stroke="#fdf8ec" vector-effect="non-scaling-stroke" d="
  M 332.22 44.99
  Q 333.78 46.56 331.09 48.57
  Q 331.04 48.60 330.12 49.06
  Q 329.41 49.40 329.66 50.22"
/>
<path stroke="#d2a786" vector-effect="non-scaling-stroke" d="
  M 329.66 50.22
  C 329.50 48.91 328.85 48.38 327.50 48.52
  C 322.79 49.04 318.36 48.63 317.61 54.68"
/>
<path stroke="#fdf8ec" vector-effect="non-scaling-stroke" d="
  M 317.61 54.68
  L 317.58 52.29
  A 0.66 0.66 0.0 0 0 316.93 51.64
  Q 312.80 51.55 312.14 48.86"
/>
<path stroke="#c2a27f" stroke-opacity="0.996" vector-effect="non-scaling-stroke" d="
  M 312.14 48.86
  Q 315.54 47.66 319.02 47.99
  A 0.59 0.59 0.0 0 0 319.65 47.53
  L 319.72 47.23
  Q 319.81 46.82 319.41 46.73
  Q 316.61 46.14 313.97 46.98
  C 312.24 47.54 310.40 47.27 308.94 48.19"
/>
<path stroke="#fdf8ec" vector-effect="non-scaling-stroke" d="
  M 308.94 48.19
  Q 308.84 46.09 306.38 43.76"
/>
<path stroke="#fdf6e4" vector-effect="non-scaling-stroke" d="
  M 306.38 43.76
  Q 306.72 41.88 307.73 39.89
  Q 307.99 39.38 307.91 39.05
  Q 307.79 38.48 307.04 38.49"
/>
<path stroke="#f6d9a3" vector-effect="non-scaling-stroke" d="
  M 329.56 27.88
  Q 327.25 27.64 326.40 28.28
  Q 324.26 29.89 327.01 30.16
  Q 327.62 30.22 328.15 30.60
  A 1.08 1.07 58.9 0 0 328.90 30.79
  Q 332.57 30.29 334.08 33.54
  Q 334.30 34.03 334.82 34.21
  Q 335.87 34.58 335.72 35.74
  A 0.82 0.80 85.6 0 1 335.16 36.41
  L 329.07 38.36
  A 1.09 1.08 65.9 0 1 327.81 37.87
  Q 327.10 36.66 325.39 37.24
  Q 323.82 37.77 322.36 38.63
  A 1.12 1.11 -51.0 0 1 321.46 38.73
  Q 320.41 38.39 320.13 37.31
  Q 319.93 36.55 319.18 36.78
  L 312.19 38.92
  A 0.69 0.54 -42.4 0 1 311.92 38.94
  Q 310.96 38.80 310.79 37.99
  A 0.74 0.74 0.0 0 0 310.01 37.40
  Q 308.41 37.50 307.04 38.49"
/>
<path stroke="#f6dbaa" vector-effect="non-scaling-stroke" d="
  M 307.04 38.49
  L 306.36 38.73
  A 1.28 1.28 0.0 0 1 305.24 36.45
  Q 306.32 35.73 307.51 35.42
  A 0.25 0.24 -47.7 0 0 307.49 34.94
  C 306.20 34.73 305.07 35.65 304.02 35.39
  Q 303.12 35.17 302.84 34.18
  A 0.89 0.87 60.0 0 1 303.06 33.32
  C 303.75 32.62 305.59 31.77 305.96 31.15
  Q 306.17 30.79 306.18 30.41
  Q 306.19 29.86 305.68 29.67
  L 304.96 29.40"
/>
<path stroke="#fdfaf3" vector-effect="non-scaling-stroke" d="
  M 306.38 43.76
  Q 303.39 50.39 301.77 57.53"
/>
<path stroke="#fcb5b6" vector-effect="non-scaling-stroke" d="
  M 301.77 57.53
  Q 300.67 57.65 299.91 58.57
  Q 299.54 59.01 299.09 58.64
  Q 298.84 58.42 298.66 58.11
  Q 298.43 57.71 297.98 57.71
  L 294.59 57.68
  A 0.83 0.83 0.0 0 0 293.84 58.12
  L 293.49 58.77
  A 0.36 0.36 0.0 0 1 292.81 58.53
  Q 293.20 56.51 291.72 54.97"
/>
<path stroke="#c06151" stroke-opacity="0.996" vector-effect="non-scaling-stroke" d="
  M 348.99 51.41
  Q 347.35 51.50 347.01 54.00"
/>
<path stroke="#fcb5b6" vector-effect="non-scaling-stroke" d="
  M 347.01 54.00
  Q 347.18 53.37 347.10 53.01
  Q 346.96 52.37 346.49 52.83
  Q 345.48 53.83 344.17 53.89"
/>
<path stroke="#b55549" stroke-opacity="0.996" vector-effect="non-scaling-stroke" d="
  M 293.55 63.74
  Q 292.85 63.68 291.83 64.62"
/>
<path stroke="#fcb7be" vector-effect="non-scaling-stroke" d="
  M 346.46 45.09
  Q 346.80 45.63 346.85 46.25
  A 0.40 0.40 0.0 0 1 346.13 46.52
  L 345.42 45.57
  Q 345.12 45.18 344.69 45.43
  Q 344.08 45.79 343.74 46.41
  A 0.57 0.56 -58.6 0 1 342.94 46.61
  L 342.25 46.16
  Q 341.77 45.84 341.38 46.27
  Q 339.60 48.31 338.89 50.98
  Q 338.78 51.41 339.02 51.79
  L 340.39 53.96
  A 0.66 0.65 -33.8 0 0 341.34 54.14
  Q 342.41 53.38 342.84 52.15
  A 0.37 0.37 0.0 0 1 343.54 52.15
  L 344.17 53.89"
/>
<path stroke="#fdfaf3" vector-effect="non-scaling-stroke" d="
  M 344.17 53.89
  Q 344.31 55.09 343.29 56.18
  C 340.05 59.64 338.67 63.92 338.73 68.68
  Q 338.74 69.23 338.31 69.57
  Q 334.25 72.73 333.21 77.77
  A 1.02 1.02 0.0 0 1 332.39 78.57
  Q 326.85 79.52 321.90 82.40"
/>
<path stroke="#fdf8ec" vector-effect="non-scaling-stroke" d="
  M 321.90 82.40
  Q 319.95 79.63 317.77 78.92
  Q 311.64 76.93 306.59 80.52"
/>
<path stroke="#d2ab95" vector-effect="non-scaling-stroke" d="
  M 306.59 80.52
  L 302.17 75.53
  Q 301.90 75.22 301.58 75.48
  L 301.38 75.65
  Q 301.22 75.78 301.35 75.95
  L 305.29 80.98"
/>
<path stroke="#fdf8ec" vector-effect="non-scaling-stroke" d="
  M 305.29 80.98
  Q 299.83 85.48 305.73 90.79
  Q 308.07 92.90 312.96 93.93"
/>
<path stroke="#fdfaf3" vector-effect="non-scaling-stroke" d="
  M 312.96 93.93
  Q 313.85 101.19 320.76 101.75
  A 0.84 0.83 17.1 0 1 321.42 102.99
  L 320.91 103.89
  Q 320.57 104.50 321.26 104.37
  L 321.71 104.29"
/>
<path stroke="#c2a68d" stroke-opacity="0.996" vector-effect="non-scaling-stroke" d="
  M 321.71 104.29
  Q 312.53 106.27 303.01 105.75"
/>
<path stroke="#b79a86" stroke-opacity="0.996" vector-effect="non-scaling-stroke" d="
  M 303.01 105.75
  L 295.45 103.99"
/>
<path stroke="#fdfaf3" vector-effect="non-scaling-stroke" d="
  M 295.45 103.99
  Q 298.77 100.06 297.36 96.23
  C 296.88 94.95 295.61 93.81 294.93 92.38
  Q 294.70 91.92 294.74 91.41
  L 295.03 87.97"
/>
<path stroke="#b79a86" stroke-opacity="0.996" vector-effect="non-scaling-stroke" d="
  M 295.03 87.97
  Q 297.79 82.97 297.70 77.60
  C 297.63 73.30 295.16 68.12 293.55 63.74"
/>
<path stroke="#fcb7be" vector-effect="non-scaling-stroke" d="
  M 293.55 63.74
  L 293.67 62.75
  Q 293.74 62.23 294.26 62.33
  Q 295.23 62.52 296.19 62.37
  Q 296.70 62.29 296.84 62.79
  Q 296.99 63.35 297.49 63.62
  A 0.89 0.88 -52.3 0 0 298.55 63.48
  L 300.83 61.28
  Q 301.21 60.91 301.73 60.81
  Q 303.42 60.50 302.91 58.58
  Q 302.62 57.50 301.77 57.53"
/>
<path stroke="#c2a68d" stroke-opacity="0.996" vector-effect="non-scaling-stroke" d="
  M 308.94 48.19
  Q 308.60 48.65 308.51 49.13
  A 0.46 0.46 0.0 0 0 308.91 49.68
  Q 309.33 49.73 309.59 49.45
  Q 309.91 49.08 310.38 48.94
  Q 311.36 48.64 312.14 48.86"
/>
<path stroke="#d2ab95" vector-effect="non-scaling-stroke" d="
  M 317.61 54.68
  C 314.58 61.85 322.00 63.27 326.41 61.34
  C 332.01 58.90 330.31 54.87 329.66 50.22"
/>
<path stroke="#c2a68d" stroke-opacity="0.996" vector-effect="non-scaling-stroke" d="
  M 332.22 44.99
  Q 334.80 43.07 338.09 43.40
  Q 338.67 43.46 338.48 42.91
  Q 338.32 42.48 337.63 41.88"
/>
<path stroke="#7b4419" stroke-opacity="0.992" vector-effect="non-scaling-stroke" d="
  M 360.63 93.96
  Q 359.78 93.59 359.54 94.47"
/>
<path stroke="#c2a27f" stroke-opacity="0.996" vector-effect="non-scaling-stroke" d="
  M 359.54 94.47
  Q 351.93 98.40 343.69 100.63"
/>
<path stroke="#c2a68d" stroke-opacity="0.996" vector-effect="non-scaling-stroke" d="
  M 343.69 100.63
  L 340.71 101.52"
/>
<path stroke="#c2a486" stroke-opacity="0.996" vector-effect="non-scaling-stroke" d="
  M 340.71 101.52
  Q 326.78 105.81 312.48 107.37"
/>
<path stroke="#c2a27f" stroke-opacity="0.996" vector-effect="non-scaling-stroke" d="
  M 312.48 107.37
  L 302.84 107.42"
/>
<path stroke="#7b4419" stroke-opacity="0.992" vector-effect="non-scaling-stroke" d="
  M 302.84 107.42
  L 303.01 105.75"
/>
<path stroke="#c2a486" stroke-opacity="0.996" vector-effect="non-scaling-stroke" d="
  M 321.71 104.29
  Q 332.85 102.40 343.50 98.99"
/>
<path stroke="#c2a27f" stroke-opacity="0.996" vector-effect="non-scaling-stroke" d="
  M 343.50 98.99
  Q 351.14 96.87 358.35 93.24
  A 1.86 1.86 0.0 0 0 359.13 90.66
  C 356.94 86.81 348.18 82.71 344.12 80.91
  A 0.45 0.45 0.0 0 0 343.52 81.49
  L 344.89 84.95
  A 0.43 0.42 77.9 0 1 344.52 85.53
  L 344.09 85.56
  Q 343.25 85.62 343.01 84.80
  Q 342.72 83.78 341.88 83.02"
/>
<path stroke="#c2a486" stroke-opacity="0.996" vector-effect="non-scaling-stroke" d="
  M 341.88 83.02
  Q 340.88 74.90 343.29 68.00
  Q 346.01 60.19 347.01 54.00"
/>
<path stroke="#fdf6e4" vector-effect="non-scaling-stroke" d="
  M 341.88 83.02
  Q 344.76 90.23 339.73 94.12
  A 0.38 0.38 0.0 0 0 339.76 94.74
  Q 341.76 95.95 343.78 97.36
  Q 344.31 97.73 343.50 98.99"
/>
<path stroke="#fdf6e4" vector-effect="non-scaling-stroke" d="
  M 312.96 93.93
  Q 313.87 88.15 317.58 85.57
  Q 320.91 83.26 321.90 82.40"
/>
<path stroke="#b7987e" stroke-opacity="0.996" vector-effect="non-scaling-stroke" d="
  M 295.03 87.97
  L 295.98 78.72
  A 0.86 0.86 0.0 0 0 294.99 77.78
  C 290.84 78.47 271.34 82.06 270.96 86.65
  Q 270.92 87.16 271.22 87.56
  Q 273.54 90.63 276.45 93.05
  Q 285.23 100.32 295.45 103.99"
/>
<path stroke="#b79677" stroke-opacity="0.996" vector-effect="non-scaling-stroke" d="
  M 302.84 107.42
  L 300.76 107.14"
/>
<path stroke="#b79a86" stroke-opacity="0.996" vector-effect="non-scaling-stroke" d="
  M 300.76 107.14
  L 291.00 103.93"
/>
<path stroke="#b79677" stroke-opacity="0.996" vector-effect="non-scaling-stroke" d="
  M 291.00 103.93
  Q 279.93 99.13 271.20 89.99
  Q 270.55 89.31 270.47 90.24
  Q 269.88 97.37 269.57 104.51
  C 269.28 111.26 279.90 117.87 285.07 120.64"
/>
<path stroke="#b79a86" stroke-opacity="0.996" vector-effect="non-scaling-stroke" d="
  M 285.07 120.64
  Q 292.68 125.23 301.23 126.66"
/>
<path stroke="#b79677" stroke-opacity="0.996" vector-effect="non-scaling-stroke" d="
  M 301.23 126.66
  Q 308.44 127.31 315.12 126.32"
/>
<path stroke="#b79a86" stroke-opacity="0.996" vector-effect="non-scaling-stroke" d="
  M 315.12 126.32
  Q 330.55 123.97 345.82 118.98"
/>
<path stroke="#b79677" stroke-opacity="0.996" vector-effect="non-scaling-stroke" d="
  M 345.82 118.98
  Q 352.15 117.29 358.25 113.59
  Q 358.68 113.33 358.71 112.83
  L 359.54 94.47"
/>
<path stroke="#d2a786" vector-effect="non-scaling-stroke" d="
  M 306.59 80.52
  Q 307.36 81.35 307.39 81.97
  Q 307.43 82.72 306.75 82.40
  Q 305.99 82.03 305.29 80.98"
/>
<path stroke="#fdf6e4" vector-effect="non-scaling-stroke" d="
  M 319.49 116.52
  Q 314.12 114.56 314.31 109.72
  Q 314.33 109.16 313.81 108.94
  Q 313.62 108.86 313.39 108.86
  Q 312.85 108.86 312.72 108.34
  L 312.48 107.37"
/>
<path stroke="#fdf8ec" vector-effect="non-scaling-stroke" d="
  M 315.12 126.32
  Q 312.05 126.78 315.90 123.15
  Q 316.73 122.37 316.73 120.12
  Q 316.73 119.62 317.06 119.25
  L 319.49 116.52"
/>
<path stroke="#fdfaf3" vector-effect="non-scaling-stroke" d="
  M 319.49 116.52
  Q 325.30 116.70 331.44 115.12
  C 335.12 114.17 337.56 114.67 339.80 110.78
  C 341.57 107.70 340.87 104.88 340.71 101.52"
/>
<path stroke="#fdf8ec" vector-effect="non-scaling-stroke" d="
  M 345.82 118.98
  Q 345.42 116.71 344.69 113.99
  Q 343.83 110.76 343.69 100.63"
/>
<path stroke="#fdf8ec" vector-effect="non-scaling-stroke" d="
  M 300.76 107.14
  Q 301.07 107.53 301.21 107.99
  Q 301.35 108.48 300.96 108.82
  C 296.62 112.51 300.18 115.02 300.38 118.92
  Q 300.62 123.33 303.81 124.69
  Q 308.30 126.59 303.46 126.64
  L 301.23 126.66"
/>
<path stroke="#fdf8ec" vector-effect="non-scaling-stroke" d="
  M 291.00 103.93
  Q 292.22 113.74 285.40 118.69
  Q 284.78 119.15 285.07 120.64"
/>
<path stroke="#b55549" stroke-opacity="0.996" vector-effect="non-scaling-stroke" d="
  M 77.74 55.94
  L 75.82 56.47"
/>
<path stroke="#b79a86" stroke-opacity="0.996" vector-effect="non-scaling-stroke" d="
  M 75.82 56.47
  L 72.78 49.45"
/>
<path stroke="#b79677" stroke-opacity="0.996" vector-effect="non-scaling-stroke" d="
  M 72.78 49.45
  Q 66.90 40.03 56.36 36.86"
/>
<path stroke="#b07b3d" stroke-opacity="0.996" vector-effect="non-scaling-stroke" d="
  M 56.36 36.86
  C 46.99 33.51 37.64 33.79 29.15 39.36"
/>
<path stroke="#b7987e" stroke-opacity="0.996" vector-effect="non-scaling-stroke" d="
  M 29.15 39.36
  Q 14.58 48.44 15.27 67.15"
/>
<path stroke="#b55549" stroke-opacity="0.996" vector-effect="non-scaling-stroke" d="
  M 15.27 67.15
  L 14.05 69.01"
/>
<path stroke="#fdfaf3" vector-effect="non-scaling-stroke" d="
  M 31.96 54.96
  Q 31.48 54.72 31.19 55.49
  Q 28.40 62.67 26.32 69.85"
/>
<path stroke="#fcb5b6" vector-effect="non-scaling-stroke" d="
  M 26.32 69.85
  L 24.67 71.20
  Q 24.22 71.56 23.75 71.23
  Q 21.40 69.59 18.50 70.17
  A 1.19 1.19 0.0 0 0 17.82 70.57
  L 17.14 71.37
  Q 16.59 72.02 16.63 71.16
  Q 16.74 68.90 15.27 67.15"
/>
<path stroke="#fdf8ec" vector-effect="non-scaling-stroke" d="
  M 72.78 49.45
  Q 70.42 49.61 68.02 51.25
  Q 67.24 51.78 67.10 53.12"
/>
<path stroke="#c2a27f" stroke-opacity="0.996" vector-effect="non-scaling-stroke" d="
  M 67.10 53.12
  Q 62.21 52.41 58.11 55.71
  Q 56.63 56.90 58.53 56.88
  Q 58.58 56.88 59.48 56.49"
/>
<path stroke="#fdf8ec" vector-effect="non-scaling-stroke" d="
  M 59.48 56.49
  Q 61.52 59.45 57.16 60.86"
/>
<path stroke="#d2a786" vector-effect="non-scaling-stroke" d="
  M 57.16 60.86
  Q 52.74 59.81 48.73 60.67
  Q 47.34 60.97 45.45 63.07"
/>
<path stroke="#fdf8ec" vector-effect="non-scaling-stroke" d="
  M 45.45 63.07
  C 43.79 62.78 41.71 63.70 40.51 63.17
  Q 39.39 62.68 39.42 61.13
  Q 39.44 60.08 38.02 60.15"
/>
<path stroke="#c2a27f" stroke-opacity="0.996" vector-effect="non-scaling-stroke" d="
  M 38.02 60.15
  L 46.21 59.47
  A 0.42 0.41 88.5 0 0 46.59 59.06
  L 46.60 58.75
  Q 46.63 57.91 45.79 57.91
  Q 40.03 57.89 34.73 59.55"
/>
<path stroke="#fdf8ec" vector-effect="non-scaling-stroke" d="
  M 34.73 59.55
  L 31.96 54.96"
/>
<path stroke="#fdf6e4" vector-effect="non-scaling-stroke" d="
  M 31.96 54.96
  C 31.47 54.21 31.42 53.54 31.99 52.76
  Q 33.84 50.24 33.64 48.41"
/>
<path stroke="#f6d9a3" vector-effect="non-scaling-stroke" d="
  M 56.36 36.86
  L 53.24 38.06
  Q 52.86 38.21 52.86 38.62
  L 52.86 39.11
  A 0.32 0.31 -6.9 0 0 53.26 39.42
  Q 54.82 39.01 55.92 40.08
  Q 56.32 40.47 56.88 40.43
  Q 60.31 40.19 61.90 43.24
  Q 62.14 43.70 62.61 43.91
  L 63.91 44.52
  A 1.03 1.03 0.0 0 1 63.77 46.44
  Q 60.46 47.46 57.26 48.53
  C 55.98 48.96 55.12 48.63 54.52 47.48
  Q 54.27 47.00 53.75 47.15
  Q 51.85 47.69 50.06 48.65
  Q 48.98 49.22 48.35 49.17
  Q 47.23 49.08 47.04 47.83
  A 1.07 1.07 0.0 0 0 45.64 46.98
  L 37.88 49.57
  Q 37.37 49.74 36.97 49.39
  Q 36.47 48.95 36.27 48.28
  Q 36.14 47.81 35.65 47.74
  Q 34.18 47.52 33.64 48.41"
/>
<path stroke="#f6dbaa" vector-effect="non-scaling-stroke" d="
  M 33.64 48.41
  L 30.98 49.38
  A 1.05 1.04 -25.2 0 1 29.72 48.93
  L 29.49 48.52
  Q 28.96 47.63 29.87 47.13
  Q 30.86 46.58 31.83 45.97
  Q 34.96 43.98 31.39 45.01
  Q 30.69 45.21 29.61 45.44
  Q 28.85 45.60 28.39 45.35
  Q 27.69 44.98 27.69 44.15
  Q 27.69 43.42 28.45 42.74
  Q 29.52 41.78 30.69 40.95
  Q 31.34 40.49 31.29 39.85
  Q 31.24 39.28 30.68 39.38
  Q 30.00 39.51 29.15 39.36"
/>
<path stroke="#b55549" stroke-opacity="0.996" vector-effect="non-scaling-stroke" d="
  M 78.88 63.37
  Q 76.84 63.58 76.79 65.79"
/>
<path stroke="#fcb7be" vector-effect="non-scaling-stroke" d="
  M 75.82 56.47
  Q 75.80 56.77 75.62 56.81
  Q 73.10 57.43 70.48 57.83
  A 1.25 1.25 0.0 0 0 69.62 58.40
  Q 68.32 60.56 67.76 63.04
  A 1.22 1.22 0.0 0 0 67.94 64.00
  L 69.39 66.13
  A 0.67 0.66 -34.6 0 0 70.33 66.30
  Q 71.22 65.65 71.73 64.68
  A 0.69 0.69 0.0 0 1 72.93 64.65
  L 73.60 65.81
  A 0.70 0.70 0.0 0 0 74.54 66.06
  Q 75.17 65.70 75.61 65.11
  Q 75.94 64.68 76.32 65.07
  Q 76.57 65.33 76.79 65.79"
/>
<path stroke="#b79a86" stroke-opacity="0.996" vector-effect="non-scaling-stroke" d="
  M 76.79 65.79
  C 75.51 76.80 71.64 85.80 60.54 89.92
  C 48.57 94.36 37.29 92.76 26.47 87.60
  C 21.91 85.42 19.51 81.67 17.03 77.09"
/>
<path stroke="#fcb7be" vector-effect="non-scaling-stroke" d="
  M 17.03 77.09
  Q 18.31 73.12 21.43 76.49
  A 1.26 1.26 0.0 0 0 23.39 76.35
  Q 24.77 74.36 27.03 73.46
  Q 27.51 73.27 27.65 72.76
  Q 28.27 70.46 26.32 69.85"
/>
<path stroke="#c2a68d" stroke-opacity="0.996" vector-effect="non-scaling-stroke" d="
  M 34.73 59.55
  Q 33.84 60.08 33.64 60.77
  A 0.45 0.44 -0.1 0 0 34.20 61.32
  L 38.02 60.15"
/>
<path stroke="#d2ab95" vector-effect="non-scaling-stroke" d="
  M 45.45 63.07
  Q 43.00 67.47 43.78 72.43
  A 1.74 1.71 10.0 0 0 44.68 73.69
  Q 49.62 76.31 53.92 74.32
  C 60.44 71.30 57.74 65.96 57.16 60.86"
/>
<path stroke="#c2a68d" stroke-opacity="0.996" vector-effect="non-scaling-stroke" d="
  M 59.48 56.49
  Q 63.00 53.85 67.02 54.23
  Q 67.65 54.29 67.10 53.12"
/>
<path stroke="#b55549" stroke-opacity="0.996" vector-effect="non-scaling-stroke" d="
  M 15.35 77.55
  L 17.03 77.09"
/>
<path stroke="#7b4419" stroke-opacity="0.992" vector-effect="non-scaling-stroke" d="
  M 194.03 37.77
  Q 194.27 38.35 193.96 38.72
  Q 193.79 38.92 193.45 38.88"
/>
<path stroke="#b7987e" stroke-opacity="0.996" vector-effect="non-scaling-stroke" d="
  M 193.45 38.88
  Q 188.53 37.75 182.25 38.45
  Q 168.75 39.96 158.93 42.03
  Q 152.37 43.41 146.93 46.12
  C 144.94 47.11 145.19 48.92 146.58 50.37
  Q 153.59 57.67 162.90 61.65"
/>
<path stroke="#7b4419" stroke-opacity="0.992" vector-effect="non-scaling-stroke" d="
  M 162.90 61.65
  Q 162.95 62.70 162.54 62.95"
/>
<path stroke="#b79677" stroke-opacity="0.996" vector-effect="non-scaling-stroke" d="
  M 162.54 62.95
  Q 152.75 58.75 145.12 50.77"
/>
<path stroke="#7b4419" stroke-opacity="0.992" vector-effect="non-scaling-stroke" d="
  M 145.12 50.77
  Q 145.13 50.69 144.82 50.65
  Q 144.50 50.62 144.42 50.93
  Q 143.89 53.11 144.61 54.98"
/>
<path stroke="#b79677" stroke-opacity="0.996" vector-effect="non-scaling-stroke" d="
  M 144.61 54.98
  C 144.26 59.51 142.93 65.23 146.50 68.74
  Q 151.43 73.60 156.36 76.36"
/>
<path stroke="#b79a86" stroke-opacity="0.996" vector-effect="non-scaling-stroke" d="
  M 156.36 76.36
  Q 162.53 80.19 168.48 81.46"
/>
<path stroke="#7b4419" stroke-opacity="0.992" vector-effect="non-scaling-stroke" d="
  M 168.48 81.46
  Q 168.38 81.65 168.37 81.81
  A 0.40 0.40 0.0 0 0 168.75 82.25
  Q 169.67 82.28 169.50 83.02"
/>
<path stroke="#c2a27f" stroke-opacity="0.996" vector-effect="non-scaling-stroke" d="
  M 145.12 50.77
  Q 144.46 52.39 144.61 54.98"
/>
<path stroke="#c2a68d" stroke-opacity="0.996" vector-effect="non-scaling-stroke" d="
  M 168.48 81.46
  L 169.72 81.64"
/>
<path stroke="#c2a27f" stroke-opacity="0.996" vector-effect="non-scaling-stroke" d="
  M 169.72 81.64
  Q 175.95 82.53 181.65 81.60"
/>
<path stroke="#c2a68d" stroke-opacity="0.996" vector-effect="non-scaling-stroke" d="
  M 181.65 81.60
  Q 195.16 79.88 208.15 75.43"
/>
<path stroke="#c2a27f" stroke-opacity="0.996" vector-effect="non-scaling-stroke" d="
  M 208.15 75.43
  L 218.28 71.20
  A 0.87 0.87 0.0 0 0 218.80 70.47
  L 219.85 55.59
  A 0.44 0.43 -10.8 0 0 219.22 55.17
  C 207.25 61.06 193.47 64.21 180.25 65.70
  Q 175.14 66.28 170.44 65.56"
/>
<path stroke="#c2a68d" stroke-opacity="0.996" vector-effect="non-scaling-stroke" d="
  M 170.44 65.56
  L 163.46 63.42"
/>
<path stroke="#c2a27f" stroke-opacity="0.996" vector-effect="non-scaling-stroke" d="
  M 163.46 63.42
  Q 162.91 63.29 162.54 62.95"
/>
<path stroke="#c2a486" stroke-opacity="0.996" vector-effect="non-scaling-stroke" d="
  M 162.90 61.65
  L 169.78 63.71"
/>
<path stroke="#c2a68d" stroke-opacity="0.996" vector-effect="non-scaling-stroke" d="
  M 169.78 63.71
  Q 176.10 65.36 183.04 63.76"
/>
<path stroke="#c2a486" stroke-opacity="0.996" vector-effect="non-scaling-stroke" d="
  M 183.04 63.76
  Q 201.30 61.42 218.27 54.18
  A 1.98 1.98 0.0 0 0 219.27 51.48
  C 216.62 46.16 199.04 40.55 193.45 38.88"
/>
<path stroke="#fdf8ec" vector-effect="non-scaling-stroke" d="
  M 163.46 63.42
  Q 162.77 63.28 162.29 63.63
  Q 161.89 63.93 162.05 64.40
  Q 162.74 66.43 162.07 68.52
  Q 160.74 72.72 156.36 76.36"
/>
<path stroke="#fdfaf3" vector-effect="non-scaling-stroke" d="
  M 183.04 63.76
  L 184.38 63.49
  A 0.85 0.83 -85.6 0 0 185.02 62.93
  C 185.42 61.78 185.19 61.00 184.14 60.31
  Q 180.86 58.16 180.51 54.31"
/>
<path stroke="#fdf6e4" vector-effect="non-scaling-stroke" d="
  M 180.51 54.31
  Q 182.02 48.06 187.98 45.10
  A 0.41 0.41 0.0 0 0 188.05 44.41
  L 184.63 41.66
  Q 184.27 41.38 183.85 41.54
  C 181.37 42.51 179.87 44.79 178.16 46.75
  Q 177.82 47.15 177.31 47.00
  Q 175.60 46.47 173.91 45.87
  Q 171.78 45.10 171.89 46.77"
/>
<path stroke="#fdfaf3" vector-effect="non-scaling-stroke" d="
  M 171.89 46.77
  Q 172.01 46.05 171.20 45.94
  Q 170.78 45.89 170.30 46.15
  C 167.36 47.76 166.06 49.23 165.42 52.56
  A 1.05 1.04 27.8 0 0 165.71 53.49
  Q 169.40 57.18 166.46 61.40
  Q 165.56 62.68 167.12 62.83
  Q 168.13 62.92 169.78 63.71"
/>
<path stroke="#fdf8ec" vector-effect="non-scaling-stroke" d="
  M 208.15 75.43
  Q 206.39 69.02 206.50 61.93
  A 0.79 0.79 0.0 0 0 205.06 61.46
  Q 204.77 61.88 204.36 61.88
  Q 203.74 61.88 203.91 62.47
  C 206.76 72.62 195.01 72.86 187.17 73.22
  Q 186.67 73.24 186.28 73.56
  Q 184.73 74.83 184.44 75.49
  Q 183.18 78.39 181.65 81.60"
/>
<path stroke="#fdf8ec" vector-effect="non-scaling-stroke" d="
  M 169.72 81.64
  L 171.51 81.61
  A 1.09 1.09 0.0 0 0 172.26 79.74
  C 169.66 77.21 169.77 74.15 168.76 70.82
  Q 168.61 70.32 168.79 69.84
  L 170.44 65.56"
/>
<path stroke="#fdf8ec" vector-effect="non-scaling-stroke" d="
  M 180.51 54.31
  Q 172.86 52.97 171.89 46.77"
/>
<path stroke="#b07b3d" stroke-opacity="0.996" vector-effect="non-scaling-stroke" d="
  M 319.59 30.82
  Q 321.18 29.98 322.91 30.38
  Q 323.78 30.58 324.30 29.85
  L 324.59 29.45
  Q 325.27 28.48 324.09 28.50
  Q 321.47 28.56 319.21 29.90
  A 1.97 1.97 0.0 0 1 317.13 29.87
  L 313.29 27.43
  A 0.46 0.46 0.0 0 0 312.74 27.46
  L 312.50 27.67
  Q 312.24 27.89 312.52 28.09
  L 320.18 33.61
  Q 320.60 33.92 321.04 33.64
  Q 322.72 32.55 324.74 32.62
  Q 325.91 32.66 326.10 33.61
  Q 326.23 34.27 325.59 34.48
  L 324.24 34.93
  Q 323.91 35.04 324.03 35.37
  L 324.12 35.60
  Q 324.15 35.69 324.24 35.68
  L 329.21 35.01
  Q 329.65 34.95 329.99 34.68
  Q 330.98 33.91 332.28 34.12
  A 0.36 0.36 0.0 0 0 332.69 33.71
  L 332.63 33.35
  Q 332.57 32.93 332.15 32.91
  C 330.84 32.85 328.91 33.61 327.91 33.24
  Q 326.81 32.84 326.82 31.47
  Q 326.82 30.91 326.26 30.96
  L 324.53 31.09
  A 1.72 1.70 22.7 0 0 323.56 31.48
  L 322.22 32.60
  Q 321.79 32.96 321.26 32.74
  Q 320.27 32.34 319.49 31.65
  Q 318.94 31.17 319.59 30.82"
/>
<path stroke="#b07b3d" stroke-opacity="0.996" vector-effect="non-scaling-stroke" d="
  M 319.62 36.65
  Q 320.02 36.91 320.15 36.45
  L 320.23 36.17
  A 0.79 0.79 0.0 0 0 319.92 35.31
  Q 316.24 32.78 312.22 30.84
  Q 309.68 29.63 311.54 31.73
  C 312.41 32.73 314.64 33.35 315.80 34.13
  Q 317.64 35.37 319.62 36.65"
/>
<path stroke="#b07b3d" stroke-opacity="0.996" vector-effect="non-scaling-stroke" d="
  M 308.49 33.42
  L 312.43 36.43
  A 0.11 0.11 0.0 0 0 312.59 36.41
  L 312.64 36.35
  A 2.42 1.41 37.4 0 0 311.57 33.76
  L 311.30 33.55
  A 2.42 1.41 37.4 0 0 308.52 33.20
  L 308.47 33.27
  A 0.11 0.11 0.0 0 0 308.49 33.42"
/>
<path stroke="#b07b3d" stroke-opacity="0.996" vector-effect="non-scaling-stroke" d="
  M 46.34 40.38
  Q 48.20 39.68 50.18 39.96
  Q 51.10 40.09 51.54 39.27
  L 51.86 38.69
  Q 52.37 37.75 51.30 37.76
  Q 47.90 37.78 45.12 39.65
  A 0.85 0.85 0.0 0 1 44.24 39.68
  L 38.40 36.43
  A 0.31 0.31 0.0 0 0 38.00 36.52
  L 37.85 36.73
  A 0.39 0.39 0.0 0 0 37.95 37.27
  L 47.16 43.67
  A 0.62 0.61 43.1 0 0 47.88 43.65
  L 48.37 43.28
  A 0.28 0.27 -46.6 0 0 48.36 42.84
  L 46.22 41.32
  A 0.54 0.53 -37.8 0 1 46.34 40.38"
/>
<path stroke="#b07b3d" stroke-opacity="0.996" vector-effect="non-scaling-stroke" d="
  M 46.9185 46.2731
  A 0.70 0.70 0.0 0 0 46.6707 45.3147
  L 37.5202 39.9246
  A 0.70 0.70 0.0 0 0 36.5618 40.1725
  L 36.5415 40.2069
  A 0.70 0.70 0.0 0 0 36.7893 41.1653
  L 45.9398 46.5554
  A 0.70 0.70 0.0 0 0 46.8982 46.3075
  L 46.9185 46.2731"
/>
<path stroke="#b07b3d" stroke-opacity="0.996" vector-effect="non-scaling-stroke" d="
  M 53.24 44.44
  L 51.28 44.90
  Q 51.00 44.96 51.07 45.24
  L 51.20 45.70
  Q 51.26 45.94 51.50 45.87
  Q 54.03 45.07 56.67 45.25
  Q 57.22 45.28 57.64 44.92
  Q 58.79 43.92 60.34 44.02
  Q 60.81 44.05 60.99 43.62
  L 61.15 43.24
  Q 61.32 42.85 60.89 42.83
  Q 58.98 42.72 57.08 43.11
  Q 55.95 43.35 55.37 43.15
  Q 54.32 42.81 54.33 41.78
  Q 54.34 41.27 53.89 41.05
  Q 50.99 39.62 49.54 42.01
  Q 49.16 42.64 49.89 42.62
  C 51.20 42.60 53.17 41.50 53.79 43.47
  A 0.77 0.76 74.7 0 1 53.24 44.44"
/>
<path stroke="#b07b3d" stroke-opacity="0.996" vector-effect="non-scaling-stroke" d="
  M 38.02 44.08
  Q 36.87 42.80 34.77 42.84
  Q 34.12 42.85 34.48 43.40
  Q 35.61 45.12 37.39 46.21
  Q 38.97 47.18 38.48 44.97
  Q 38.36 44.47 38.02 44.08"
/>
<path stroke="#d2ab95" vector-effect="non-scaling-stroke" d="
  M 307.7555 78.7310
  A 5.75 0.63 57.9 0 0 305.2337 73.5252
  A 5.75 0.63 57.9 0 0 301.6445 68.9890
  A 5.75 0.63 57.9 0 0 304.1663 74.1948
  A 5.75 0.63 57.9 0 0 307.7555 78.7310"
/>
<path stroke="#c5422c" vector-effect="non-scaling-stroke" d="
  M 328.67 57.08
  C 330.52 53.24 327.62 52.12 324.83 50.85
  C 319.66 48.51 318.89 53.80 318.31 57.29
  C 317.99 59.20 318.59 60.23 320.49 60.58
  Q 324.51 61.31 327.36 59.36
  C 328.23 58.76 328.33 57.77 328.67 57.08"
/>
<path stroke="#c5422c" vector-effect="non-scaling-stroke" d="
  M 56.26 71.25
  C 57.49 69.39 57.98 65.48 55.50 64.26
  Q 54.02 63.52 53.11 62.99
  C 46.44 59.05 44.89 65.71 44.54 70.51
  C 44.26 74.42 50.39 74.44 52.74 73.70
  Q 55.12 72.96 56.26 71.25"
/>
</g>
<path fill="#703811" fill-opacity="0.992" d="
  M 347.92 44.72
  Q 347.28 45.02 346.46 45.09
  L 343.57 38.77
  Q 338.21 30.67 329.56 27.88
  Q 327.52 27.50 325.63 26.83
  Q 323.40 26.04 321.73 25.91
  C 315.52 25.44 310.63 25.99 304.96 29.40
  C 303.43 30.55 301.85 31.17 300.50 32.44
  Q 290.98 41.37 291.72 54.97
  L 290.72 56.44
  C 289.17 52.47 290.10 48.11 291.19 44.50
  C 294.22 34.55 302.23 26.18 312.93 24.75
  C 314.49 24.55 315.84 23.96 317.38 24.06
  C 328.33 24.79 338.40 27.75 344.43 37.29
  Q 345.33 38.72 347.92 44.72
  Z"
/>
<path fill="#efbd69" d="
  M 329.56 27.88
  Q 327.25 27.64 326.40 28.28
  Q 324.26 29.89 327.01 30.16
  Q 327.62 30.22 328.15 30.60
  A 1.08 1.07 58.9 0 0 328.90 30.79
  Q 332.57 30.29 334.08 33.54
  Q 334.30 34.03 334.82 34.21
  Q 335.87 34.58 335.72 35.74
  A 0.82 0.80 85.6 0 1 335.16 36.41
  L 329.07 38.36
  A 1.09 1.08 65.9 0 1 327.81 37.87
  Q 327.10 36.66 325.39 37.24
  Q 323.82 37.77 322.36 38.63
  A 1.12 1.11 -51.0 0 1 321.46 38.73
  Q 320.41 38.39 320.13 37.31
  Q 319.93 36.55 319.18 36.78
  L 312.19 38.92
  A 0.69 0.54 -42.4 0 1 311.92 38.94
  Q 310.96 38.80 310.79 37.99
  A 0.74 0.74 0.0 0 0 310.01 37.40
  Q 308.41 37.50 307.04 38.49
  L 306.36 38.73
  A 1.28 1.28 0.0 0 1 305.24 36.45
  Q 306.32 35.73 307.51 35.42
  A 0.25 0.24 -47.7 0 0 307.49 34.94
  C 306.20 34.73 305.07 35.65 304.02 35.39
  Q 303.12 35.17 302.84 34.18
  A 0.89 0.87 60.0 0 1 303.06 33.32
  C 303.75 32.62 305.59 31.77 305.96 31.15
  Q 306.17 30.79 306.18 30.41
  Q 306.19 29.86 305.68 29.67
  L 304.96 29.40
  C 310.63 25.99 315.52 25.44 321.73 25.91
  Q 323.40 26.04 325.63 26.83
  Q 327.52 27.50 329.56 27.88
  Z
  M 319.59 30.82
  Q 321.18 29.98 322.91 30.38
  Q 323.78 30.58 324.30 29.85
  L 324.59 29.45
  Q 325.27 28.48 324.09 28.50
  Q 321.47 28.56 319.21 29.90
  A 1.97 1.97 0.0 0 1 317.13 29.87
  L 313.29 27.43
  A 0.46 0.46 0.0 0 0 312.74 27.46
  L 312.50 27.67
  Q 312.24 27.89 312.52 28.09
  L 320.18 33.61
  Q 320.60 33.92 321.04 33.64
  Q 322.72 32.55 324.74 32.62
  Q 325.91 32.66 326.10 33.61
  Q 326.23 34.27 325.59 34.48
  L 324.24 34.93
  Q 323.91 35.04 324.03 35.37
  L 324.12 35.60
  Q 324.15 35.69 324.24 35.68
  L 329.21 35.01
  Q 329.65 34.95 329.99 34.68
  Q 330.98 33.91 332.28 34.12
  A 0.36 0.36 0.0 0 0 332.69 33.71
  L 332.63 33.35
  Q 332.57 32.93 332.15 32.91
  C 330.84 32.85 328.91 33.61 327.91 33.24
  Q 326.81 32.84 326.82 31.47
  Q 326.82 30.91 326.26 30.96
  L 324.53 31.09
  A 1.72 1.70 22.7 0 0 323.56 31.48
  L 322.22 32.60
  Q 321.79 32.96 321.26 32.74
  Q 320.27 32.34 319.49 31.65
  Q 318.94 31.17 319.59 30.82
  Z
  M 319.62 36.65
  Q 320.02 36.91 320.15 36.45
  L 320.23 36.17
  A 0.79 0.79 0.0 0 0 319.92 35.31
  Q 316.24 32.78 312.22 30.84
  Q 309.68 29.63 311.54 31.73
  C 312.41 32.73 314.64 33.35 315.80 34.13
  Q 317.64 35.37 319.62 36.65
  Z
  M 308.49 33.42
  L 312.43 36.43
  A 0.11 0.11 0.0 0 0 312.59 36.41
  L 312.64 36.35
  A 2.42 1.41 37.4 0 0 311.57 33.76
  L 311.30 33.55
  A 2.42 1.41 37.4 0 0 308.52 33.20
  L 308.47 33.27
  A 0.11 0.11 0.0 0 0 308.49 33.42
  Z"
/>
<path fill="#703811" fill-opacity="0.992" d="
  M 319.49 31.65
  Q 320.27 32.34 321.26 32.74
  Q 321.79 32.96 322.22 32.60
  L 323.56 31.48
  A 1.72 1.70 22.7 0 1 324.53 31.09
  L 326.26 30.96
  Q 326.82 30.91 326.82 31.47
  Q 326.81 32.84 327.91 33.24
  C 328.91 33.61 330.84 32.85 332.15 32.91
  Q 332.57 32.93 332.63 33.35
  L 332.69 33.71
  A 0.36 0.36 0.0 0 1 332.28 34.12
  Q 330.98 33.91 329.99 34.68
  Q 329.65 34.95 329.21 35.01
  L 324.24 35.68
  Q 324.15 35.69 324.12 35.60
  L 324.03 35.37
  Q 323.91 35.04 324.24 34.93
  L 325.59 34.48
  Q 326.23 34.27 326.10 33.61
  Q 325.91 32.66 324.74 32.62
  Q 322.72 32.55 321.04 33.64
  Q 320.60 33.92 320.18 33.61
  L 312.52 28.09
  Q 312.24 27.89 312.50 27.67
  L 312.74 27.46
  A 0.46 0.46 0.0 0 1 313.29 27.43
  L 317.13 29.87
  A 1.97 1.97 0.0 0 0 319.21 29.90
  Q 321.47 28.56 324.09 28.50
  Q 325.27 28.48 324.59 29.45
  L 324.30 29.85
  Q 323.78 30.58 322.91 30.38
  Q 321.18 29.98 319.59 30.82
  Q 318.94 31.17 319.49 31.65
  Z"
/>
<path fill="#fdf4dd" d="
  M 329.56 27.88
  Q 338.21 30.67 343.57 38.77
  Q 342.53 38.73 341.97 39.43
  Q 341.66 39.83 341.15 39.90
  Q 338.38 40.31 337.63 41.88
  C 334.18 42.83 332.55 42.23 329.81 45.09
  Q 329.27 45.64 330.05 45.65
  Q 330.98 45.67 332.22 44.99
  Q 333.78 46.56 331.09 48.57
  Q 331.04 48.60 330.12 49.06
  Q 329.41 49.40 329.66 50.22
  C 329.50 48.91 328.85 48.38 327.50 48.52
  C 322.79 49.04 318.36 48.63 317.61 54.68
  L 317.58 52.29
  A 0.66 0.66 0.0 0 0 316.93 51.64
  Q 312.80 51.55 312.14 48.86
  Q 315.54 47.66 319.02 47.99
  A 0.59 0.59 0.0 0 0 319.65 47.53
  L 319.72 47.23
  Q 319.81 46.82 319.41 46.73
  Q 316.61 46.14 313.97 46.98
  C 312.24 47.54 310.40 47.27 308.94 48.19
  Q 308.84 46.09 306.38 43.76
  Q 306.72 41.88 307.73 39.89
  Q 307.99 39.38 307.91 39.05
  Q 307.79 38.48 307.04 38.49
  Q 308.41 37.50 310.01 37.40
  A 0.74 0.74 0.0 0 1 310.79 37.99
  Q 310.96 38.80 311.92 38.94
  A 0.69 0.54 -42.4 0 0 312.19 38.92
  L 319.18 36.78
  Q 319.93 36.55 320.13 37.31
  Q 320.41 38.39 321.46 38.73
  A 1.12 1.11 -51.0 0 0 322.36 38.63
  Q 323.82 37.77 325.39 37.24
  Q 327.10 36.66 327.81 37.87
  A 1.09 1.08 65.9 0 0 329.07 38.36
  L 335.16 36.41
  A 0.82 0.80 85.6 0 0 335.72 35.74
  Q 335.87 34.58 334.82 34.21
  Q 334.30 34.03 334.08 33.54
  Q 332.57 30.29 328.90 30.79
  A 1.08 1.07 58.9 0 1 328.15 30.60
  Q 327.62 30.22 327.01 30.16
  Q 324.26 29.89 326.40 28.28
  Q 327.25 27.64 329.56 27.88
  Z"
/>
<path fill="#fdf8eb" d="
  M 304.96 29.40
  L 305.68 29.67
  Q 306.19 29.86 306.18 30.41
  Q 306.17 30.79 305.96 31.15
  C 305.59 31.77 303.75 32.62 303.06 33.32
  A 0.89 0.87 60.0 0 0 302.84 34.18
  Q 303.12 35.17 304.02 35.39
  C 305.07 35.65 306.20 34.73 307.49 34.94
  A 0.25 0.24 -47.7 0 1 307.51 35.42
  Q 306.32 35.73 305.24 36.45
  A 1.28 1.28 0.0 0 0 306.36 38.73
  L 307.04 38.49
  Q 307.79 38.48 307.91 39.05
  Q 307.99 39.38 307.73 39.89
  Q 306.72 41.88 306.38 43.76
  Q 303.39 50.39 301.77 57.53
  Q 300.67 57.65 299.91 58.57
  Q 299.54 59.01 299.09 58.64
  Q 298.84 58.42 298.66 58.11
  Q 298.43 57.71 297.98 57.71
  L 294.59 57.68
  A 0.83 0.83 0.0 0 0 293.84 58.12
  L 293.49 58.77
  A 0.36 0.36 0.0 0 1 292.81 58.53
  Q 293.20 56.51 291.72 54.97
  Q 290.98 41.37 300.50 32.44
  C 301.85 31.17 303.43 30.55 304.96 29.40
  Z"
/>
<path fill="#703811" fill-opacity="0.992" d="
  M 319.62 36.65
  Q 317.64 35.37 315.80 34.13
  C 314.64 33.35 312.41 32.73 311.54 31.73
  Q 309.68 29.63 312.22 30.84
  Q 316.24 32.78 319.92 35.31
  A 0.79 0.79 0.0 0 1 320.23 36.17
  L 320.15 36.45
  Q 320.02 36.91 319.62 36.65
  Z"
/>
<path fill="#703811" fill-opacity="0.992" d="
  M 308.49 33.42
  A 0.11 0.11 0.0 0 1 308.47 33.27
  L 308.52 33.20
  A 2.42 1.41 37.4 0 1 311.30 33.55
  L 311.57 33.76
  A 2.42 1.41 37.4 0 1 312.64 36.35
  L 312.59 36.41
  A 0.11 0.11 0.0 0 1 312.43 36.43
  L 308.49 33.42
  Z"
/>
<path fill="#703811" fill-opacity="0.992" d="
  M 77.74 55.94
  L 75.82 56.47
  L 72.78 49.45
  Q 66.90 40.03 56.36 36.86
  C 46.99 33.51 37.64 33.79 29.15 39.36
  Q 14.58 48.44 15.27 67.15
  L 14.05 69.01
  C 12.63 63.91 13.63 57.72 15.38 53.36
  C 22.87 34.71 41.40 28.88 59.35 35.98
  Q 70.95 40.57 75.85 52.10
  Q 76.72 54.15 77.74 55.94
  Z"
/>
<path fill="#efbd69" d="
  M 56.36 36.86
  L 53.24 38.06
  Q 52.86 38.21 52.86 38.62
  L 52.86 39.11
  A 0.32 0.31 -6.9 0 0 53.26 39.42
  Q 54.82 39.01 55.92 40.08
  Q 56.32 40.47 56.88 40.43
  Q 60.31 40.19 61.90 43.24
  Q 62.14 43.70 62.61 43.91
  L 63.91 44.52
  A 1.03 1.03 0.0 0 1 63.77 46.44
  Q 60.46 47.46 57.26 48.53
  C 55.98 48.96 55.12 48.63 54.52 47.48
  Q 54.27 47.00 53.75 47.15
  Q 51.85 47.69 50.06 48.65
  Q 48.98 49.22 48.35 49.17
  Q 47.23 49.08 47.04 47.83
  A 1.07 1.07 0.0 0 0 45.64 46.98
  L 37.88 49.57
  Q 37.37 49.74 36.97 49.39
  Q 36.47 48.95 36.27 48.28
  Q 36.14 47.81 35.65 47.74
  Q 34.18 47.52 33.64 48.41
  L 30.98 49.38
  A 1.05 1.04 -25.2 0 1 29.72 48.93
  L 29.49 48.52
  Q 28.96 47.63 29.87 47.13
  Q 30.86 46.58 31.83 45.97
  Q 34.96 43.98 31.39 45.01
  Q 30.69 45.21 29.61 45.44
  Q 28.85 45.60 28.39 45.35
  Q 27.69 44.98 27.69 44.15
  Q 27.69 43.42 28.45 42.74
  Q 29.52 41.78 30.69 40.95
  Q 31.34 40.49 31.29 39.85
  Q 31.24 39.28 30.68 39.38
  Q 30.00 39.51 29.15 39.36
  C 37.64 33.79 46.99 33.51 56.36 36.86
  Z
  M 46.34 40.38
  Q 48.20 39.68 50.18 39.96
  Q 51.10 40.09 51.54 39.27
  L 51.86 38.69
  Q 52.37 37.75 51.30 37.76
  Q 47.90 37.78 45.12 39.65
  A 0.85 0.85 0.0 0 1 44.24 39.68
  L 38.40 36.43
  A 0.31 0.31 0.0 0 0 38.00 36.52
  L 37.85 36.73
  A 0.39 0.39 0.0 0 0 37.95 37.27
  L 47.16 43.67
  A 0.62 0.61 43.1 0 0 47.88 43.65
  L 48.37 43.28
  A 0.28 0.27 -46.6 0 0 48.36 42.84
  L 46.22 41.32
  A 0.54 0.53 -37.8 0 1 46.34 40.38
  Z
  M 46.9185 46.2731
  A 0.70 0.70 0.0 0 0 46.6707 45.3147
  L 37.5202 39.9246
  A 0.70 0.70 0.0 0 0 36.5618 40.1725
  L 36.5415 40.2069
  A 0.70 0.70 0.0 0 0 36.7893 41.1653
  L 45.9398 46.5554
  A 0.70 0.70 0.0 0 0 46.8982 46.3075
  L 46.9185 46.2731
  Z
  M 53.24 44.44
  L 51.28 44.90
  Q 51.00 44.96 51.07 45.24
  L 51.20 45.70
  Q 51.26 45.94 51.50 45.87
  Q 54.03 45.07 56.67 45.25
  Q 57.22 45.28 57.64 44.92
  Q 58.79 43.92 60.34 44.02
  Q 60.81 44.05 60.99 43.62
  L 61.15 43.24
  Q 61.32 42.85 60.89 42.83
  Q 58.98 42.72 57.08 43.11
  Q 55.95 43.35 55.37 43.15
  Q 54.32 42.81 54.33 41.78
  Q 54.34 41.27 53.89 41.05
  Q 50.99 39.62 49.54 42.01
  Q 49.16 42.64 49.89 42.62
  C 51.20 42.60 53.17 41.50 53.79 43.47
  A 0.77 0.76 74.7 0 1 53.24 44.44
  Z
  M 38.02 44.08
  Q 36.87 42.80 34.77 42.84
  Q 34.12 42.85 34.48 43.40
  Q 35.61 45.12 37.39 46.21
  Q 38.97 47.18 38.48 44.97
  Q 38.36 44.47 38.02 44.08
  Z"
/>
<path fill="#703811" fill-opacity="0.992" d="
  M 46.22 41.32
  L 48.36 42.84
  A 0.28 0.27 -46.6 0 1 48.37 43.28
  L 47.88 43.65
  A 0.62 0.61 43.1 0 1 47.16 43.67
  L 37.95 37.27
  A 0.39 0.39 0.0 0 1 37.85 36.73
  L 38.00 36.52
  A 0.31 0.31 0.0 0 1 38.40 36.43
  L 44.24 39.68
  A 0.85 0.85 0.0 0 0 45.12 39.65
  Q 47.90 37.78 51.30 37.76
  Q 52.37 37.75 51.86 38.69
  L 51.54 39.27
  Q 51.10 40.09 50.18 39.96
  Q 48.20 39.68 46.34 40.38
  A 0.54 0.53 -37.8 0 0 46.22 41.32
  Z"
/>
<path fill="#703811" fill-opacity="0.992" d="
  M 194.03 37.77
  Q 194.27 38.35 193.96 38.72
  Q 193.79 38.92 193.45 38.88
  Q 188.53 37.75 182.25 38.45
  Q 168.75 39.96 158.93 42.03
  Q 152.37 43.41 146.93 46.12
  C 144.94 47.11 145.19 48.92 146.58 50.37
  Q 153.59 57.67 162.90 61.65
  Q 162.95 62.70 162.54 62.95
  Q 152.75 58.75 145.12 50.77
  Q 145.13 50.69 144.82 50.65
  Q 144.50 50.62 144.42 50.93
  Q 143.89 53.11 144.61 54.98
  C 144.26 59.51 142.93 65.23 146.50 68.74
  Q 151.43 73.60 156.36 76.36
  Q 162.53 80.19 168.48 81.46
  Q 168.38 81.65 168.37 81.81
  A 0.40 0.40 0.0 0 0 168.75 82.25
  Q 169.67 82.28 169.50 83.02
  Q 154.98 79.59 144.83 68.74
  C 142.35 66.09 142.62 62.56 143.18 59.30
  C 143.88 55.21 143.86 51.44 144.22 47.42
  A 1.92 1.91 -15.2 0 1 145.01 46.04
  Q 146.72 44.82 149.06 43.98
  Q 160.09 39.97 171.75 38.61
  C 172.49 38.52 173.07 38.13 173.76 38.07
  C 180.57 37.42 187.30 35.76 194.03 37.77
  Z"
/>
<path fill="#fdf4dd" d="
  M 56.36 36.86
  Q 66.90 40.03 72.78 49.45
  Q 70.42 49.61 68.02 51.25
  Q 67.24 51.78 67.10 53.12
  Q 62.21 52.41 58.11 55.71
  Q 56.63 56.90 58.53 56.88
  Q 58.58 56.88 59.48 56.49
  Q 61.52 59.45 57.16 60.86
  Q 52.74 59.81 48.73 60.67
  Q 47.34 60.97 45.45 63.07
  C 43.79 62.78 41.71 63.70 40.51 63.17
  Q 39.39 62.68 39.42 61.13
  Q 39.44 60.08 38.02 60.15
  L 46.21 59.47
  A 0.42 0.41 88.5 0 0 46.59 59.06
  L 46.60 58.75
  Q 46.63 57.91 45.79 57.91
  Q 40.03 57.89 34.73 59.55
  L 31.96 54.96
  C 31.47 54.21 31.42 53.54 31.99 52.76
  Q 33.84 50.24 33.64 48.41
  Q 34.18 47.52 35.65 47.74
  Q 36.14 47.81 36.27 48.28
  Q 36.47 48.95 36.97 49.39
  Q 37.37 49.74 37.88 49.57
  L 45.64 46.98
  A 1.07 1.07 0.0 0 1 47.04 47.83
  Q 47.23 49.08 48.35 49.17
  Q 48.98 49.22 50.06 48.65
  Q 51.85 47.69 53.75 47.15
  Q 54.27 47.00 54.52 47.48
  C 55.12 48.63 55.98 48.96 57.26 48.53
  Q 60.46 47.46 63.77 46.44
  A 1.03 1.03 0.0 0 0 63.91 44.52
  L 62.61 43.91
  Q 62.14 43.70 61.90 43.24
  Q 60.31 40.19 56.88 40.43
  Q 56.32 40.47 55.92 40.08
  Q 54.82 39.01 53.26 39.42
  A 0.32 0.31 -6.9 0 1 52.86 39.11
  L 52.86 38.62
  Q 52.86 38.21 53.24 38.06
  L 56.36 36.86
  Z"
/>
<path fill="#864f20" fill-opacity="0.992" d="
  M 194.03 37.77
  C 199.41 39.26 220.58 45.97 220.71 52.72
  Q 220.88 61.77 220.21 70.24
  A 2.75 2.74 78.6 0 1 218.74 72.46
  Q 214.20 74.83 209.03 76.57
  Q 193.48 81.82 177.18 83.33
  C 174.55 83.58 172.10 83.31 169.50 83.02
  Q 169.67 82.28 168.75 82.25
  A 0.40 0.40 0.0 0 1 168.37 81.81
  Q 168.38 81.65 168.48 81.46
  L 169.72 81.64
  Q 175.95 82.53 181.65 81.60
  Q 195.16 79.88 208.15 75.43
  L 218.28 71.20
  A 0.87 0.87 0.0 0 0 218.80 70.47
  L 219.85 55.59
  A 0.44 0.43 -10.8 0 0 219.22 55.17
  C 207.25 61.06 193.47 64.21 180.25 65.70
  Q 175.14 66.28 170.44 65.56
  L 163.46 63.42
  Q 162.91 63.29 162.54 62.95
  Q 162.95 62.70 162.90 61.65
  L 169.78 63.71
  Q 176.10 65.36 183.04 63.76
  Q 201.30 61.42 218.27 54.18
  A 1.98 1.98 0.0 0 0 219.27 51.48
  C 216.62 46.16 199.04 40.55 193.45 38.88
  Q 193.79 38.92 193.96 38.72
  Q 194.27 38.35 194.03 37.77
  Z"
/>
<path fill="#fdf8eb" d="
  M 193.45 38.88
  C 199.04 40.55 216.62 46.16 219.27 51.48
  A 1.98 1.98 0.0 0 1 218.27 54.18
  Q 201.30 61.42 183.04 63.76
  L 184.38 63.49
  A 0.85 0.83 -85.6 0 0 185.02 62.93
  C 185.42 61.78 185.19 61.00 184.14 60.31
  Q 180.86 58.16 180.51 54.31
  Q 182.02 48.06 187.98 45.10
  A 0.41 0.41 0.0 0 0 188.05 44.41
  L 184.63 41.66
  Q 184.27 41.38 183.85 41.54
  C 181.37 42.51 179.87 44.79 178.16 46.75
  Q 177.82 47.15 177.31 47.00
  Q 175.60 46.47 173.91 45.87
  Q 171.78 45.10 171.89 46.77
  Q 172.01 46.05 171.20 45.94
  Q 170.78 45.89 170.30 46.15
  C 167.36 47.76 166.06 49.23 165.42 52.56
  A 1.05 1.04 27.8 0 0 165.71 53.49
  Q 169.40 57.18 166.46 61.40
  Q 165.56 62.68 167.12 62.83
  Q 168.13 62.92 169.78 63.71
  L 162.90 61.65
  Q 153.59 57.67 146.58 50.37
  C 145.19 48.92 144.94 47.11 146.93 46.12
  Q 152.37 43.41 158.93 42.03
  Q 168.75 39.96 182.25 38.45
  Q 188.53 37.75 193.45 38.88
  Z"
/>
<path fill="#fdfcfa" d="
  M 343.57 38.77
  L 346.46 45.09
  Q 346.80 45.63 346.85 46.25
  A 0.40 0.40 0.0 0 1 346.13 46.52
  L 345.42 45.57
  Q 345.12 45.18 344.69 45.43
  Q 344.08 45.79 343.74 46.41
  A 0.57 0.56 -58.6 0 1 342.94 46.61
  L 342.25 46.16
  Q 341.77 45.84 341.38 46.27
  Q 339.60 48.31 338.89 50.98
  Q 338.78 51.41 339.02 51.79
  L 340.39 53.96
  A 0.66 0.65 -33.8 0 0 341.34 54.14
  Q 342.41 53.38 342.84 52.15
  A 0.37 0.37 0.0 0 1 343.54 52.15
  L 344.17 53.89
  Q 344.31 55.09 343.29 56.18
  C 340.05 59.64 338.67 63.92 338.73 68.68
  Q 338.74 69.23 338.31 69.57
  Q 334.25 72.73 333.21 77.77
  A 1.02 1.02 0.0 0 1 332.39 78.57
  Q 326.85 79.52 321.90 82.40
  Q 319.95 79.63 317.77 78.92
  Q 311.64 76.93 306.59 80.52
  L 302.17 75.53
  Q 301.90 75.22 301.58 75.48
  L 301.38 75.65
  Q 301.22 75.78 301.35 75.95
  L 305.29 80.98
  Q 299.83 85.48 305.73 90.79
  Q 308.07 92.90 312.96 93.93
  Q 313.85 101.19 320.76 101.75
  A 0.84 0.83 17.1 0 1 321.42 102.99
  L 320.91 103.89
  Q 320.57 104.50 321.26 104.37
  L 321.71 104.29
  Q 312.53 106.27 303.01 105.75
  L 295.45 103.99
  Q 298.77 100.06 297.36 96.23
  C 296.88 94.95 295.61 93.81 294.93 92.38
  Q 294.70 91.92 294.74 91.41
  L 295.03 87.97
  Q 297.79 82.97 297.70 77.60
  C 297.63 73.30 295.16 68.12 293.55 63.74
  L 293.67 62.75
  Q 293.74 62.23 294.26 62.33
  Q 295.23 62.52 296.19 62.37
  Q 296.70 62.29 296.84 62.79
  Q 296.99 63.35 297.49 63.62
  A 0.89 0.88 -52.3 0 0 298.55 63.48
  L 300.83 61.28
  Q 301.21 60.91 301.73 60.81
  Q 303.42 60.50 302.91 58.58
  Q 302.62 57.50 301.77 57.53
  Q 303.39 50.39 306.38 43.76
  Q 308.84 46.09 308.94 48.19
  Q 308.60 48.65 308.51 49.13
  A 0.46 0.46 0.0 0 0 308.91 49.68
  Q 309.33 49.73 309.59 49.45
  Q 309.91 49.08 310.38 48.94
  Q 311.36 48.64 312.14 48.86
  Q 312.80 51.55 316.93 51.64
  A 0.66 0.66 0.0 0 1 317.58 52.29
  L 317.61 54.68
  C 314.58 61.85 322.00 63.27 326.41 61.34
  C 332.01 58.90 330.31 54.87 329.66 50.22
  Q 329.41 49.40 330.12 49.06
  Q 331.04 48.60 331.09 48.57
  Q 333.78 46.56 332.22 44.99
  Q 334.80 43.07 338.09 43.40
  Q 338.67 43.46 338.48 42.91
  Q 338.32 42.48 337.63 41.88
  Q 338.38 40.31 341.15 39.90
  Q 341.66 39.83 341.97 39.43
  Q 342.53 38.73 343.57 38.77
  Z
  M 307.7555 78.7310
  A 5.75 0.63 57.9 0 0 305.2337 73.5252
  A 5.75 0.63 57.9 0 0 301.6445 68.9890
  A 5.75 0.63 57.9 0 0 304.1663 74.1948
  A 5.75 0.63 57.9 0 0 307.7555 78.7310
  Z"
/>
<path fill="#fdf8eb" d="
  M 29.15 39.36
  Q 30.00 39.51 30.68 39.38
  Q 31.24 39.28 31.29 39.85
  Q 31.34 40.49 30.69 40.95
  Q 29.52 41.78 28.45 42.74
  Q 27.69 43.42 27.69 44.15
  Q 27.69 44.98 28.39 45.35
  Q 28.85 45.60 29.61 45.44
  Q 30.69 45.21 31.39 45.01
  Q 34.96 43.98 31.83 45.97
  Q 30.86 46.58 29.87 47.13
  Q 28.96 47.63 29.49 48.52
  L 29.72 48.93
  A 1.05 1.04 -25.2 0 0 30.98 49.38
  L 33.64 48.41
  Q 33.84 50.24 31.99 52.76
  C 31.42 53.54 31.47 54.21 31.96 54.96
  Q 31.48 54.72 31.19 55.49
  Q 28.40 62.67 26.32 69.85
  L 24.67 71.20
  Q 24.22 71.56 23.75 71.23
  Q 21.40 69.59 18.50 70.17
  A 1.19 1.19 0.0 0 0 17.82 70.57
  L 17.14 71.37
  Q 16.59 72.02 16.63 71.16
  Q 16.74 68.90 15.27 67.15
  Q 14.58 48.44 29.15 39.36
  Z"
/>
<rect fill="#703811" fill-opacity="0.992" x="-6.01" y="-0.72" transform="translate(41.73,43.24) rotate(30.5)" width="12.02" height="1.44" rx="0.70"/>
<path fill="#703811" fill-opacity="0.992" d="
  M 53.24 44.44
  A 0.77 0.76 74.7 0 0 53.79 43.47
  C 53.17 41.50 51.20 42.60 49.89 42.62
  Q 49.16 42.64 49.54 42.01
  Q 50.99 39.62 53.89 41.05
  Q 54.34 41.27 54.33 41.78
  Q 54.32 42.81 55.37 43.15
  Q 55.95 43.35 57.08 43.11
  Q 58.98 42.72 60.89 42.83
  Q 61.32 42.85 61.15 43.24
  L 60.99 43.62
  Q 60.81 44.05 60.34 44.02
  Q 58.79 43.92 57.64 44.92
  Q 57.22 45.28 56.67 45.25
  Q 54.03 45.07 51.50 45.87
  Q 51.26 45.94 51.20 45.70
  L 51.07 45.24
  Q 51.00 44.96 51.28 44.90
  L 53.24 44.44
  Z"
/>
<path fill="#fdf4dd" d="
  M 180.51 54.31
  Q 172.86 52.97 171.89 46.77
  Q 171.78 45.10 173.91 45.87
  Q 175.60 46.47 177.31 47.00
  Q 177.82 47.15 178.16 46.75
  C 179.87 44.79 181.37 42.51 183.85 41.54
  Q 184.27 41.38 184.63 41.66
  L 188.05 44.41
  A 0.41 0.41 0.0 0 1 187.98 45.10
  Q 182.02 48.06 180.51 54.31
  Z"
/>
<path fill="#864f20" fill-opacity="0.992" d="
  M 337.63 41.88
  Q 338.32 42.48 338.48 42.91
  Q 338.67 43.46 338.09 43.40
  Q 334.80 43.07 332.22 44.99
  Q 330.98 45.67 330.05 45.65
  Q 329.27 45.64 329.81 45.09
  C 332.55 42.23 334.18 42.83 337.63 41.88
  Z"
/>
<path fill="#703811" fill-opacity="0.992" d="
  M 38.02 44.08
  Q 38.36 44.47 38.48 44.97
  Q 38.97 47.18 37.39 46.21
  Q 35.61 45.12 34.48 43.40
  Q 34.12 42.85 34.77 42.84
  Q 36.87 42.80 38.02 44.08
  Z"
/>
<path fill="#fa7281" d="
  M 347.92 44.72
  Q 348.60 44.94 349.18 45.48
  A 0.55 0.55 0.0 0 0 349.97 45.44
  L 350.41 44.93
  Q 350.93 44.34 351.23 45.06
  Q 352.27 47.49 352.44 50.09
  A 0.77 0.76 16.5 0 1 351.22 50.75
  Q 349.78 49.68 348.99 51.41
  Q 347.35 51.50 347.01 54.00
  Q 347.18 53.37 347.10 53.01
  Q 346.96 52.37 346.49 52.83
  Q 345.48 53.83 344.17 53.89
  L 343.54 52.15
  A 0.37 0.37 0.0 0 0 342.84 52.15
  Q 342.41 53.38 341.34 54.14
  A 0.66 0.65 -33.8 0 1 340.39 53.96
  L 339.02 51.79
  Q 338.78 51.41 338.89 50.98
  Q 339.60 48.31 341.38 46.27
  Q 341.77 45.84 342.25 46.16
  L 342.94 46.61
  A 0.57 0.56 -58.6 0 0 343.74 46.41
  Q 344.08 45.79 344.69 45.43
  Q 345.12 45.18 345.42 45.57
  L 346.13 46.52
  A 0.40 0.40 0.0 0 0 346.85 46.25
  Q 346.80 45.63 346.46 45.09
  Q 347.28 45.02 347.92 44.72
  Z"
/>
<path fill="#fdfcfa" d="
  M 171.89 46.77
  Q 172.86 52.97 180.51 54.31
  Q 180.86 58.16 184.14 60.31
  C 185.19 61.00 185.42 61.78 185.02 62.93
  A 0.85 0.83 -85.6 0 1 184.38 63.49
  L 183.04 63.76
  Q 176.10 65.36 169.78 63.71
  Q 168.13 62.92 167.12 62.83
  Q 165.56 62.68 166.46 61.40
  Q 169.40 57.18 165.71 53.49
  A 1.05 1.04 27.8 0 1 165.42 52.56
  C 166.06 49.23 167.36 47.76 170.30 46.15
  Q 170.78 45.89 171.20 45.94
  Q 172.01 46.05 171.89 46.77
  Z"
/>
<path fill="#864f20" fill-opacity="0.992" d="
  M 312.14 48.86
  Q 311.36 48.64 310.38 48.94
  Q 309.91 49.08 309.59 49.45
  Q 309.33 49.73 308.91 49.68
  A 0.46 0.46 0.0 0 1 308.51 49.13
  Q 308.60 48.65 308.94 48.19
  C 310.40 47.27 312.24 47.54 313.97 46.98
  Q 316.61 46.14 319.41 46.73
  Q 319.81 46.82 319.72 47.23
  L 319.65 47.53
  A 0.59 0.59 0.0 0 1 319.02 47.99
  Q 315.54 47.66 312.14 48.86
  Z"
/>
<path fill="#a7592f" d="
  M 329.66 50.22
  C 330.31 54.87 332.01 58.90 326.41 61.34
  C 322.00 63.27 314.58 61.85 317.61 54.68
  C 318.36 48.63 322.79 49.04 327.50 48.52
  C 328.85 48.38 329.50 48.91 329.66 50.22
  Z
  M 328.67 57.08
  C 330.52 53.24 327.62 52.12 324.83 50.85
  C 319.66 48.51 318.89 53.80 318.31 57.29
  C 317.99 59.20 318.59 60.23 320.49 60.58
  Q 324.51 61.31 327.36 59.36
  C 328.23 58.76 328.33 57.77 328.67 57.08
  Z"
/>
<path fill="#fdfcfa" d="
  M 72.78 49.45
  L 75.82 56.47
  Q 75.80 56.77 75.62 56.81
  Q 73.10 57.43 70.48 57.83
  A 1.25 1.25 0.0 0 0 69.62 58.40
  Q 68.32 60.56 67.76 63.04
  A 1.22 1.22 0.0 0 0 67.94 64.00
  L 69.39 66.13
  A 0.67 0.66 -34.6 0 0 70.33 66.30
  Q 71.22 65.65 71.73 64.68
  A 0.69 0.69 0.0 0 1 72.93 64.65
  L 73.60 65.81
  A 0.70 0.70 0.0 0 0 74.54 66.06
  Q 75.17 65.70 75.61 65.11
  Q 75.94 64.68 76.32 65.07
  Q 76.57 65.33 76.79 65.79
  C 75.51 76.80 71.64 85.80 60.54 89.92
  C 48.57 94.36 37.29 92.76 26.47 87.60
  C 21.91 85.42 19.51 81.67 17.03 77.09
  Q 18.31 73.12 21.43 76.49
  A 1.26 1.26 0.0 0 0 23.39 76.35
  Q 24.77 74.36 27.03 73.46
  Q 27.51 73.27 27.65 72.76
  Q 28.27 70.46 26.32 69.85
  Q 28.40 62.67 31.19 55.49
  Q 31.48 54.72 31.96 54.96
  L 34.73 59.55
  Q 33.84 60.08 33.64 60.77
  A 0.45 0.44 -0.1 0 0 34.20 61.32
  L 38.02 60.15
  Q 39.44 60.08 39.42 61.13
  Q 39.39 62.68 40.51 63.17
  C 41.71 63.70 43.79 62.78 45.45 63.07
  Q 43.00 67.47 43.78 72.43
  A 1.74 1.71 10.0 0 0 44.68 73.69
  Q 49.62 76.31 53.92 74.32
  C 60.44 71.30 57.74 65.96 57.16 60.86
  Q 61.52 59.45 59.48 56.49
  Q 63.00 53.85 67.02 54.23
  Q 67.65 54.29 67.10 53.12
  Q 67.24 51.78 68.02 51.25
  Q 70.42 49.61 72.78 49.45
  Z"
/>
<path fill="#e22b29" d="
  M 328.67 57.08
  C 328.33 57.77 328.23 58.76 327.36 59.36
  Q 324.51 61.31 320.49 60.58
  C 318.59 60.23 317.99 59.20 318.31 57.29
  C 318.89 53.80 319.66 48.51 324.83 50.85
  C 327.62 52.12 330.52 53.24 328.67 57.08
  Z"
/>
<path fill="#864f20" fill-opacity="0.992" d="
  M 145.12 50.77
  Q 144.46 52.39 144.61 54.98
  Q 143.89 53.11 144.42 50.93
  Q 144.50 50.62 144.82 50.65
  Q 145.13 50.69 145.12 50.77
  Z"
/>
<path fill="#fdf4dd" d="
  M 145.12 50.77
  Q 152.75 58.75 162.54 62.95
  Q 162.91 63.29 163.46 63.42
  Q 162.77 63.28 162.29 63.63
  Q 161.89 63.93 162.05 64.40
  Q 162.74 66.43 162.07 68.52
  Q 160.74 72.72 156.36 76.36
  Q 151.43 73.60 146.50 68.74
  C 142.93 65.23 144.26 59.51 144.61 54.98
  Q 144.46 52.39 145.12 50.77
  Z"
/>
<path fill="#864f20" fill-opacity="0.992" d="
  M 348.99 51.41
  Q 347.83 60.71 344.54 69.45
  C 343.47 72.29 343.67 75.06 343.26 78.03
  A 1.23 1.23 0.0 0 0 343.99 79.32
  Q 349.90 81.88 355.71 85.59
  C 359.09 87.76 361.17 89.56 360.63 93.96
  Q 359.78 93.59 359.54 94.47
  Q 351.93 98.40 343.69 100.63
  L 340.71 101.52
  Q 326.78 105.81 312.48 107.37
  L 302.84 107.42
  L 303.01 105.75
  Q 312.53 106.27 321.71 104.29
  Q 332.85 102.40 343.50 98.99
  Q 351.14 96.87 358.35 93.24
  A 1.86 1.86 0.0 0 0 359.13 90.66
  C 356.94 86.81 348.18 82.71 344.12 80.91
  A 0.45 0.45 0.0 0 0 343.52 81.49
  L 344.89 84.95
  A 0.43 0.42 77.9 0 1 344.52 85.53
  L 344.09 85.56
  Q 343.25 85.62 343.01 84.80
  Q 342.72 83.78 341.88 83.02
  Q 340.88 74.90 343.29 68.00
  Q 346.01 60.19 347.01 54.00
  Q 347.35 51.50 348.99 51.41
  Z"
/>
<path fill="#864f20" fill-opacity="0.992" d="
  M 67.10 53.12
  Q 67.65 54.29 67.02 54.23
  Q 63.00 53.85 59.48 56.49
  Q 58.58 56.88 58.53 56.88
  Q 56.63 56.90 58.11 55.71
  Q 62.21 52.41 67.10 53.12
  Z"
/>
<path fill="#fdf8eb" d="
  M 347.01 54.00
  Q 346.01 60.19 343.29 68.00
  Q 340.88 74.90 341.88 83.02
  Q 344.76 90.23 339.73 94.12
  A 0.38 0.38 0.0 0 0 339.76 94.74
  Q 341.76 95.95 343.78 97.36
  Q 344.31 97.73 343.50 98.99
  Q 332.85 102.40 321.71 104.29
  L 321.26 104.37
  Q 320.57 104.50 320.91 103.89
  L 321.42 102.99
  A 0.84 0.83 17.1 0 0 320.76 101.75
  Q 313.85 101.19 312.96 93.93
  Q 313.87 88.15 317.58 85.57
  Q 320.91 83.26 321.90 82.40
  Q 326.85 79.52 332.39 78.57
  A 1.02 1.02 0.0 0 0 333.21 77.77
  Q 334.25 72.73 338.31 69.57
  Q 338.74 69.23 338.73 68.68
  C 338.67 63.92 340.05 59.64 343.29 56.18
  Q 344.31 55.09 344.17 53.89
  Q 345.48 53.83 346.49 52.83
  Q 346.96 52.37 347.10 53.01
  Q 347.18 53.37 347.01 54.00
  Z"
/>
<path fill="#fa7281" d="
  M 291.72 54.97
  Q 293.20 56.51 292.81 58.53
  A 0.36 0.36 0.0 0 0 293.49 58.77
  L 293.84 58.12
  A 0.83 0.83 0.0 0 1 294.59 57.68
  L 297.98 57.71
  Q 298.43 57.71 298.66 58.11
  Q 298.84 58.42 299.09 58.64
  Q 299.54 59.01 299.91 58.57
  Q 300.67 57.65 301.77 57.53
  Q 302.62 57.50 302.91 58.58
  Q 303.42 60.50 301.73 60.81
  Q 301.21 60.91 300.83 61.28
  L 298.55 63.48
  A 0.89 0.88 -52.3 0 1 297.49 63.62
  Q 296.99 63.35 296.84 62.79
  Q 296.70 62.29 296.19 62.37
  Q 295.23 62.52 294.26 62.33
  Q 293.74 62.23 293.67 62.75
  L 293.55 63.74
  Q 292.85 63.68 291.83 64.62
  Q 290.28 64.63 290.49 63.00
  Q 290.62 62.01 290.71 61.40
  A 0.48 0.48 0.0 0 0 289.87 61.01
  L 287.90 63.22
  A 1.06 1.06 0.0 0 1 286.05 62.44
  L 286.33 58.27
  Q 286.38 57.59 287.06 57.61
  L 287.38 57.62
  A 0.39 0.39 0.0 0 1 287.76 58.01
  L 287.76 59.51
  A 0.45 0.45 0.0 0 0 288.59 59.76
  L 290.72 56.44
  L 291.72 54.97
  Z"
/>
<path fill="#fdf4dd" d="
  M 208.15 75.43
  Q 206.39 69.02 206.50 61.93
  A 0.79 0.79 0.0 0 0 205.06 61.46
  Q 204.77 61.88 204.36 61.88
  Q 203.74 61.88 203.91 62.47
  C 206.76 72.62 195.01 72.86 187.17 73.22
  Q 186.67 73.24 186.28 73.56
  Q 184.73 74.83 184.44 75.49
  Q 183.18 78.39 181.65 81.60
  Q 175.95 82.53 169.72 81.64
  L 171.51 81.61
  A 1.09 1.09 0.0 0 0 172.26 79.74
  C 169.66 77.21 169.77 74.15 168.76 70.82
  Q 168.61 70.32 168.79 69.84
  L 170.44 65.56
  Q 175.14 66.28 180.25 65.70
  C 193.47 64.21 207.25 61.06 219.22 55.17
  A 0.44 0.43 -10.8 0 1 219.85 55.59
  L 218.80 70.47
  A 0.87 0.87 0.0 0 1 218.28 71.20
  L 208.15 75.43
  Z"
/>
<path fill="#fa7281" d="
  M 77.74 55.94
  Q 79.27 56.79 80.60 56.33
  A 0.94 0.94 0.0 0 1 81.83 57.03
  L 82.77 61.63
  Q 82.91 62.30 82.26 62.53
  Q 81.28 62.87 80.37 62.10
  A 0.56 0.56 0.0 0 0 79.63 62.12
  Q 79.04 62.70 78.88 63.37
  Q 76.84 63.58 76.79 65.79
  Q 76.57 65.33 76.32 65.07
  Q 75.94 64.68 75.61 65.11
  Q 75.17 65.70 74.54 66.06
  A 0.70 0.70 0.0 0 1 73.60 65.81
  L 72.93 64.65
  A 0.69 0.69 0.0 0 0 71.73 64.68
  Q 71.22 65.65 70.33 66.30
  A 0.67 0.66 -34.6 0 1 69.39 66.13
  L 67.94 64.00
  A 1.22 1.22 0.0 0 1 67.76 63.04
  Q 68.32 60.56 69.62 58.40
  A 1.25 1.25 0.0 0 1 70.48 57.83
  Q 73.10 57.43 75.62 56.81
  Q 75.80 56.77 75.82 56.47
  L 77.74 55.94
  Z"
/>
<path fill="#864f20" fill-opacity="0.992" d="
  M 38.02 60.15
  L 34.20 61.32
  A 0.45 0.44 -0.1 0 1 33.64 60.77
  Q 33.84 60.08 34.73 59.55
  Q 40.03 57.89 45.79 57.91
  Q 46.63 57.91 46.60 58.75
  L 46.59 59.06
  A 0.42 0.41 88.5 0 1 46.21 59.47
  L 38.02 60.15
  Z"
/>
<path fill="#a7592f" d="
  M 57.16 60.86
  C 57.74 65.96 60.44 71.30 53.92 74.32
  Q 49.62 76.31 44.68 73.69
  A 1.74 1.71 10.0 0 1 43.78 72.43
  Q 43.00 67.47 45.45 63.07
  Q 47.34 60.97 48.73 60.67
  Q 52.74 59.81 57.16 60.86
  Z
  M 56.26 71.25
  C 57.49 69.39 57.98 65.48 55.50 64.26
  Q 54.02 63.52 53.11 62.99
  C 46.44 59.05 44.89 65.71 44.54 70.51
  C 44.26 74.42 50.39 74.44 52.74 73.70
  Q 55.12 72.96 56.26 71.25
  Z"
/>
<path fill="#fdfcfa" d="
  M 208.15 75.43
  Q 195.16 79.88 181.65 81.60
  Q 183.18 78.39 184.44 75.49
  Q 184.73 74.83 186.28 73.56
  Q 186.67 73.24 187.17 73.22
  C 195.01 72.86 206.76 72.62 203.91 62.47
  Q 203.74 61.88 204.36 61.88
  Q 204.77 61.88 205.06 61.46
  A 0.79 0.79 0.0 0 1 206.50 61.93
  Q 206.39 69.02 208.15 75.43
  Z"
/>
<path fill="#a7592f" d="
  M 109.19 75.76
  C 109.58 71.42 109.62 66.75 111.28 62.67
  Q 111.61 61.87 112.13 61.68
  Q 112.59 61.52 113.15 61.75
  Q 113.63 61.95 113.63 62.47
  L 113.77 75.38
  Q 113.78 76.48 114.88 76.40
  L 124.31 75.73
  A 2.75 2.73 -0.8 0 1 127.25 78.57
  L 127.21 79.48
  A 2.18 2.18 0.0 0 1 124.98 81.58
  L 114.22 81.33
  Q 113.76 81.32 113.76 81.78
  L 113.65 93.15
  A 1.82 1.81 -88.2 0 1 111.74 94.95
  L 110.90 94.90
  Q 108.46 94.77 108.52 92.33
  L 108.76 81.30
  A 0.47 0.46 -89.4 0 0 108.30 80.82
  L 97.39 80.80
  A 1.23 1.23 0.0 0 1 96.19 79.31
  L 96.32 78.72
  Q 96.71 76.92 98.55 76.83
  L 108.58 76.35
  Q 109.14 76.32 109.19 75.76
  Z"
/>
<path fill="#e22b29" d="
  M 55.50 64.26
  C 57.98 65.48 57.49 69.39 56.26 71.25
  Q 55.12 72.96 52.74 73.70
  C 50.39 74.44 44.26 74.42 44.54 70.51
  C 44.89 65.71 46.44 59.05 53.11 62.99
  Q 54.02 63.52 55.50 64.26
  Z"
/>
<path fill="#703811" fill-opacity="0.992" d="
  M 78.88 63.37
  C 78.14 70.15 76.81 77.90 72.50 83.08
  Q 67.23 89.41 58.51 92.06
  Q 43.70 96.56 28.74 90.30
  Q 19.55 86.45 15.35 77.55
  L 17.03 77.09
  C 19.51 81.67 21.91 85.42 26.47 87.60
  C 37.29 92.76 48.57 94.36 60.54 89.92
  C 71.64 85.80 75.51 76.80 76.79 65.79
  Q 76.84 63.58 78.88 63.37
  Z"
/>
<path fill="#fdfcfa" d="
  M 163.46 63.42
  L 170.44 65.56
  L 168.79 69.84
  Q 168.61 70.32 168.76 70.82
  C 169.77 74.15 169.66 77.21 172.26 79.74
  A 1.09 1.09 0.0 0 1 171.51 81.61
  L 169.72 81.64
  L 168.48 81.46
  Q 162.53 80.19 156.36 76.36
  Q 160.74 72.72 162.07 68.52
  Q 162.74 66.43 162.05 64.40
  Q 161.89 63.93 162.29 63.63
  Q 162.77 63.28 163.46 63.42
  Z"
/>
<path fill="#703811" fill-opacity="0.992" d="
  M 293.55 63.74
  C 295.16 68.12 297.63 73.30 297.70 77.60
  Q 297.79 82.97 295.03 87.97
  L 295.98 78.72
  A 0.86 0.86 0.0 0 0 294.99 77.78
  C 290.84 78.47 271.34 82.06 270.96 86.65
  Q 270.92 87.16 271.22 87.56
  Q 273.54 90.63 276.45 93.05
  Q 285.23 100.32 295.45 103.99
  L 303.01 105.75
  L 302.84 107.42
  L 300.76 107.14
  L 291.00 103.93
  Q 279.93 99.13 271.20 89.99
  Q 270.55 89.31 270.47 90.24
  Q 269.88 97.37 269.57 104.51
  C 269.28 111.26 279.90 117.87 285.07 120.64
  Q 292.68 125.23 301.23 126.66
  Q 308.44 127.31 315.12 126.32
  Q 330.55 123.97 345.82 118.98
  Q 352.15 117.29 358.25 113.59
  Q 358.68 113.33 358.71 112.83
  L 359.54 94.47
  Q 359.78 93.59 360.63 93.96
  Q 360.66 102.92 360.16 111.88
  C 359.92 116.04 355.01 117.06 351.86 118.26
  C 338.37 123.40 324.33 126.81 309.99 128.36
  C 297.54 129.71 285.44 123.77 275.83 116.15
  C 272.62 113.59 267.67 109.49 268.03 104.97
  Q 268.52 98.74 268.83 92.50
  C 268.94 90.33 269.78 88.10 269.74 85.67
  Q 269.73 85.18 270.05 84.80
  C 272.28 82.20 276.56 80.70 279.99 79.69
  Q 287.63 77.46 294.80 76.29
  Q 296.21 76.06 295.78 74.69
  Q 294.20 69.74 292.44 65.06
  Q 292.36 64.84 292.23 64.74
  Q 292.04 64.60 291.83 64.62
  Q 292.85 63.68 293.55 63.74
  Z"
/>
<path fill="#fa7281" d="
  M 15.27 67.15
  Q 16.74 68.90 16.63 71.16
  Q 16.59 72.02 17.14 71.37
  L 17.82 70.57
  A 1.19 1.19 0.0 0 1 18.50 70.17
  Q 21.40 69.59 23.75 71.23
  Q 24.22 71.56 24.67 71.20
  L 26.32 69.85
  Q 28.27 70.46 27.65 72.76
  Q 27.51 73.27 27.03 73.46
  Q 24.77 74.36 23.39 76.35
  A 1.26 1.26 0.0 0 1 21.43 76.49
  Q 18.31 73.12 17.03 77.09
  L 15.35 77.55
  Q 13.51 78.18 14.10 73.98
  Q 14.18 73.41 13.70 73.73
  Q 12.33 74.66 11.41 76.05
  A 1.33 1.32 -72.7 0 1 10.29 76.64
  Q 9.05 76.63 9.08 75.25
  Q 9.12 72.94 9.31 71.20
  Q 9.63 68.28 10.77 70.99
  Q 10.92 71.33 10.71 72.19
  A 0.49 0.49 0.0 0 0 11.59 72.58
  L 14.05 69.01
  L 15.27 67.15
  Z"
/>
<path fill="#a7592f" d="
  M 240.72 69.53
  Q 248.25 67.22 257.54 69.26
  Q 259.99 69.80 259.17 72.17
  L 259.02 72.62
  A 2.08 2.08 0.0 0 1 256.61 73.98
  Q 248.92 72.32 241.05 72.63
  A 1.58 1.58 0.0 0 1 239.48 71.54
  Q 238.99 70.07 240.72 69.53
  Z"
/>
<ellipse fill="#a7592f" cx="0.00" cy="0.00" transform="translate(304.70,73.86) rotate(57.9)" rx="5.75" ry="0.63"/>
<path fill="#a7592f" d="
  M 306.59 80.52
  Q 307.36 81.35 307.39 81.97
  Q 307.43 82.72 306.75 82.40
  Q 305.99 82.03 305.29 80.98
  L 301.35 75.95
  Q 301.22 75.78 301.38 75.65
  L 301.58 75.48
  Q 301.90 75.22 302.17 75.53
  L 306.59 80.52
  Z"
/>
<path fill="#fdf8eb" d="
  M 295.03 87.97
  L 294.74 91.41
  Q 294.70 91.92 294.93 92.38
  C 295.61 93.81 296.88 94.95 297.36 96.23
  Q 298.77 100.06 295.45 103.99
  Q 285.23 100.32 276.45 93.05
  Q 273.54 90.63 271.22 87.56
  Q 270.92 87.16 270.96 86.65
  C 271.34 82.06 290.84 78.47 294.99 77.78
  A 0.86 0.86 0.0 0 1 295.98 78.72
  L 295.03 87.97
  Z"
/>
<path fill="#fdf4dd" d="
  M 321.90 82.40
  Q 320.91 83.26 317.58 85.57
  Q 313.87 88.15 312.96 93.93
  Q 308.07 92.90 305.73 90.79
  Q 299.83 85.48 305.29 80.98
  Q 305.99 82.03 306.75 82.40
  Q 307.43 82.72 307.39 81.97
  Q 307.36 81.35 306.59 80.52
  Q 311.64 76.93 317.77 78.92
  Q 319.95 79.63 321.90 82.40
  Z"
/>
<path fill="#fdf4dd" d="
  M 343.50 98.99
  Q 344.31 97.73 343.78 97.36
  Q 341.76 95.95 339.76 94.74
  A 0.38 0.38 0.0 0 1 339.73 94.12
  Q 344.76 90.23 341.88 83.02
  Q 342.72 83.78 343.01 84.80
  Q 343.25 85.62 344.09 85.56
  L 344.52 85.53
  A 0.43 0.42 77.9 0 0 344.89 84.95
  L 343.52 81.49
  A 0.45 0.45 0.0 0 1 344.12 80.91
  C 348.18 82.71 356.94 86.81 359.13 90.66
  A 1.86 1.86 0.0 0 1 358.35 93.24
  Q 351.14 96.87 343.50 98.99
  Z"
/>
<path fill="#a7592f" d="
  M 197.75 97.45
  Q 204.07 98.19 210.24 96.69
  Q 210.87 96.54 210.51 96.00
  Q 209.80 94.96 209.87 93.67
  A 0.85 0.85 0.0 0 1 211.28 93.07
  Q 214.40 95.79 216.38 99.43
  A 1.61 1.60 57.3 0 1 215.94 101.48
  L 215.65 101.70
  A 1.04 1.03 54.0 0 1 214.17 101.46
  L 213.08 99.88
  Q 212.79 99.46 212.30 99.60
  C 208.06 100.81 199.07 101.95 194.62 99.64
  C 189.12 96.79 201.20 85.53 203.41 83.64
  Q 204.47 82.73 205.22 83.90
  L 205.43 84.24
  A 1.46 1.45 -40.9 0 1 205.30 85.99
  L 196.95 95.33
  A 1.28 1.27 -65.8 0 0 197.75 97.45
  Z"
/>
<path fill="#a7592f" d="
  M 239.08 90.79
  Q 238.16 90.36 237.87 89.42
  A 0.81 0.81 0.0 0 1 238.16 88.53
  C 242.02 85.66 250.97 86.19 255.99 86.73
  Q 258.30 86.97 258.46 89.29
  L 258.49 89.72
  A 1.68 1.67 -1.4 0 1 256.78 91.51
  L 240.75 91.17
  Q 239.88 91.15 239.08 90.79
  Z"
/>
<path fill="#a7592f" d="
  M 164.03 97.01
  L 170.53 96.96
  A 2.40 2.40 0.0 0 1 172.91 98.96
  L 172.98 99.34
  A 1.56 1.56 0.0 0 1 171.65 101.15
  Q 167.82 101.70 163.98 101.21
  Q 163.79 101.18 163.80 101.37
  L 164.08 109.15
  A 0.34 0.34 0.0 0 0 164.42 109.48
  L 173.92 109.53
  Q 176.06 109.54 176.00 111.67
  L 175.99 112.05
  A 1.60 1.59 -88.7 0 1 174.37 113.61
  Q 164.84 113.47 156.01 113.77
  Q 152.15 113.90 148.73 112.99
  A 1.15 1.15 0.0 0 1 148.46 110.87
  C 151.27 109.28 155.14 109.38 158.15 109.62
  Q 159.32 109.71 159.29 108.54
  L 159.11 101.85
  Q 159.09 100.86 158.10 100.84
  L 153.28 100.73
  Q 151.35 100.69 151.61 98.78
  L 151.65 98.49
  A 1.88 1.87 3.9 0 1 153.51 96.87
  L 158.45 96.86
  Q 159.11 96.86 159.05 96.20
  Q 158.71 92.12 159.80 88.25
  A 1.61 1.61 0.0 0 1 162.19 87.31
  C 164.34 88.63 163.52 94.43 163.59 96.59
  Q 163.60 97.02 164.03 97.01
  Z"
/>
<path fill="#fdf4dd" d="
  M 291.00 103.93
  Q 292.22 113.74 285.40 118.69
  Q 284.78 119.15 285.07 120.64
  C 279.90 117.87 269.28 111.26 269.57 104.51
  Q 269.88 97.37 270.47 90.24
  Q 270.55 89.31 271.20 89.99
  Q 279.93 99.13 291.00 103.93
  Z"
/>
<path fill="#a7592f" d="
  M 25.45 107.93
  L 28.94 106.77
  A 1.25 1.24 68.8 0 1 30.47 107.45
  L 30.65 107.87
  Q 31.37 109.49 29.67 110.00
  L 25.86 111.15
  A 0.59 0.59 0.0 0 0 25.49 111.95
  C 29.14 120.46 34.75 115.30 35.30 108.92
  A 1.25 1.25 0.0 0 1 36.67 107.79
  L 37.00 107.82
  Q 38.73 108.00 38.63 109.74
  C 38.28 116.11 31.62 124.88 24.89 118.02
  Q 22.86 115.95 22.31 113.92
  Q 21.47 110.83 18.32 111.47
  Q 17.08 111.72 16.93 110.46
  L 16.84 109.66
  A 1.02 1.02 0.0 0 1 17.83 108.51
  L 20.52 108.45
  Q 21.22 108.43 21.23 107.73
  L 21.26 103.79
  Q 21.27 103.06 20.54 103.04
  L 17.99 103.01
  A 1.16 1.15 -74.1 0 1 17.02 101.26
  C 17.67 100.18 20.03 100.31 21.22 100.15
  Q 21.76 100.08 21.93 99.56
  Q 22.59 97.49 23.28 95.50
  Q 23.84 93.89 23.96 93.82
  Q 27.66 91.39 26.65 95.73
  L 25.77 99.50
  Q 25.61 100.18 26.26 100.44
  L 27.73 101.01
  Q 28.25 101.22 28.44 101.75
  Q 28.68 102.47 28.26 103.09
  A 1.31 1.31 0.0 0 1 27.25 103.67
  Q 23.89 103.87 24.86 107.60
  Q 24.98 108.08 25.45 107.93
  Z"
/>
<path fill="#a7592f" d="
  M 61.10 107.02
  C 72.24 105.58 70.98 120.63 59.07 120.80
  Q 57.75 120.82 57.56 119.51
  L 57.52 119.21
  A 1.01 1.00 -9.4 0 1 58.33 118.09
  Q 63.20 117.18 64.68 115.21
  Q 66.91 112.26 63.96 110.57
  C 61.66 109.25 59.88 110.45 57.80 111.03
  A 1.75 1.75 0.0 0 1 55.72 108.68
  L 57.98 103.20
  A 0.71 0.70 -87.1 0 0 57.13 102.25
  Q 54.69 102.99 52.55 103.02
  Q 51.57 103.04 51.11 102.56
  Q 50.65 102.08 50.76 101.41
  Q 50.85 100.91 51.30 100.68
  Q 54.55 99.03 56.27 99.28
  Q 60.23 99.86 60.64 95.56
  A 1.61 1.61 0.0 0 1 63.13 94.38
  Q 63.65 94.73 63.86 95.10
  Q 64.07 95.49 63.96 95.92
  L 63.40 97.95
  A 0.46 0.45 85.9 0 0 64.02 98.49
  Q 67.96 96.76 70.78 98.63
  Q 72.12 99.53 70.94 100.62
  Q 70.72 100.83 70.41 100.87
  L 63.04 101.75
  A 1.39 1.38 -83.4 0 0 61.90 102.66
  L 60.57 106.37
  Q 60.30 107.13 61.10 107.02
  Z"
/>
<path fill="#fdf4dd" d="
  M 359.54 94.47
  L 358.71 112.83
  Q 358.68 113.33 358.25 113.59
  Q 352.15 117.29 345.82 118.98
  Q 345.42 116.71 344.69 113.99
  Q 343.83 110.76 343.69 100.63
  Q 351.93 98.40 359.54 94.47
  Z"
/>
<path fill="#fdfcfa" d="
  M 343.69 100.63
  Q 343.83 110.76 344.69 113.99
  Q 345.42 116.71 345.82 118.98
  Q 330.55 123.97 315.12 126.32
  Q 312.05 126.78 315.90 123.15
  Q 316.73 122.37 316.73 120.12
  Q 316.73 119.62 317.06 119.25
  L 319.49 116.52
  Q 325.30 116.70 331.44 115.12
  C 335.12 114.17 337.56 114.67 339.80 110.78
  C 341.57 107.70 340.87 104.88 340.71 101.52
  L 343.69 100.63
  Z"
/>
<path fill="#fdf8eb" d="
  M 340.71 101.52
  C 340.87 104.88 341.57 107.70 339.80 110.78
  C 337.56 114.67 335.12 114.17 331.44 115.12
  Q 325.30 116.70 319.49 116.52
  Q 314.12 114.56 314.31 109.72
  Q 314.33 109.16 313.81 108.94
  Q 313.62 108.86 313.39 108.86
  Q 312.85 108.86 312.72 108.34
  L 312.48 107.37
  Q 326.78 105.81 340.71 101.52
  Z"
/>
<path fill="#a7592f" d="
  M 199.20 116.78
  C 194.86 115.79 195.56 108.22 196.11 105.07
  A 1.94 1.93 2.3 0 1 197.85 103.47
  Q 202.73 103.04 208.01 103.49
  C 214.06 103.99 213.49 110.76 212.38 114.89
  A 2.38 2.38 0.0 0 1 210.78 116.53
  Q 205.30 118.17 199.20 116.78
  Z
  M 209.08 106.31
  L 200.39 105.88
  A 1.21 1.21 0.0 0 0 199.13 107.03
  L 198.94 110.83
  A 3.17 2.78 -87.2 0 0 201.56 114.13
  L 207.12 114.40
  A 3.17 2.78 -87.2 0 0 210.05 111.37
  L 210.23 107.58
  A 1.21 1.21 0.0 0 0 209.08 106.31
  Z"
/>
<path fill="#fdfcfa" d="
  M 291.00 103.93
  L 300.76 107.14
  Q 301.07 107.53 301.21 107.99
  Q 301.35 108.48 300.96 108.82
  C 296.62 112.51 300.18 115.02 300.38 118.92
  Q 300.62 123.33 303.81 124.69
  Q 308.30 126.59 303.46 126.64
  L 301.23 126.66
  Q 292.68 125.23 285.07 120.64
  Q 284.78 119.15 285.40 118.69
  Q 292.22 113.74 291.00 103.93
  Z"
/>
<path fill="#fdf4dd" d="
  M 300.76 107.14
  L 302.84 107.42
  L 312.48 107.37
  L 312.72 108.34
  Q 312.85 108.86 313.39 108.86
  Q 313.62 108.86 313.81 108.94
  Q 314.33 109.16 314.31 109.72
  Q 314.12 114.56 319.49 116.52
  L 317.06 119.25
  Q 316.73 119.62 316.73 120.12
  Q 316.73 122.37 315.90 123.15
  Q 312.05 126.78 315.12 126.32
  Q 308.44 127.31 301.23 126.66
  L 303.46 126.64
  Q 308.30 126.59 303.81 124.69
  Q 300.62 123.33 300.38 118.92
  C 300.18 115.02 296.62 112.51 300.96 108.82
  Q 301.35 108.48 301.21 107.99
  Q 301.07 107.53 300.76 107.14
  Z"
/>
</svg>
